<?xml version="1.0" encoding="UTF-8" standalone="no"?>
<!DOCTYPE svg PUBLIC "-//W3C//DTD SVG 1.1//EN"
 "http://www.w3.org/Graphics/SVG/1.1/DTD/svg11.dtd">
<!-- Generated by graphviz version 2.38.0 (20140413.2041)
 -->
<!-- Title: INR&#45;ctl.c Pages: 1 -->
<svg width="1586pt" height="84pt"
 viewBox="0.00 0.00 1586.00 84.00" xmlns="http://www.w3.org/2000/svg" xmlns:xlink="http://www.w3.org/1999/xlink">
<g id="graph0" class="graph" transform="scale(1 1) rotate(0) translate(4 80)">
<title>INR&#45;ctl.c</title>
<polygon fill="white" stroke="none" points="-4,4 -4,-80 1582,-80 1582,4 -4,4"/>
<!-- Node1 -->
<g id="node1" class="node"><title>Node1</title>
<polygon fill="#bfbfbf" stroke="black" points="762,-56.5 762,-75.5 818,-75.5 818,-56.5 762,-56.5"/>
<text text-anchor="middle" x="790" y="-63.5" font-family="Helvetica,sans-Serif" font-size="10.00">INR&#45;ctl.c</text>
</g>
<!-- Node2 -->
<g id="node2" class="node"><title>Node2</title>
<polygon fill="white" stroke="#bfbfbf" points="0,-0.5 0,-19.5 74,-19.5 74,-0.5 0,-0.5"/>
<text text-anchor="middle" x="37" y="-7.5" font-family="Helvetica,sans-Serif" font-size="10.00">linux/kernel.h</text>
</g>
<!-- Node1&#45;&gt;Node2 -->
<g id="edge1" class="edge"><title>Node1&#45;&gt;Node2</title>
<path fill="none" stroke="midnightblue" d="M761.919,-64.5189C667.588,-62.6285 353.36,-54.1075 84.0528,-19.9627"/>
<polygon fill="midnightblue" stroke="midnightblue" points="84.4537,-16.4856 74.0897,-18.6851 83.5633,-23.4287 84.4537,-16.4856"/>
</g>
<!-- Node3 -->
<g id="node3" class="node"><title>Node3</title>
<polygon fill="white" stroke="#bfbfbf" points="92.5,-0.5 92.5,-19.5 167.5,-19.5 167.5,-0.5 92.5,-0.5"/>
<text text-anchor="middle" x="130" y="-7.5" font-family="Helvetica,sans-Serif" font-size="10.00">linux/export.h</text>
</g>
<!-- Node1&#45;&gt;Node3 -->
<g id="edge2" class="edge"><title>Node1&#45;&gt;Node3</title>
<path fill="none" stroke="midnightblue" d="M761.775,-64.0925C675.722,-61.0803 408.98,-49.9264 177.596,-19.9122"/>
<polygon fill="midnightblue" stroke="midnightblue" points="178.018,-16.4377 167.648,-18.6072 177.107,-23.3782 178.018,-16.4377"/>
</g>
<!-- Node4 -->
<g id="node4" class="node"><title>Node4</title>
<polygon fill="white" stroke="#bfbfbf" points="186,-0.5 186,-19.5 266,-19.5 266,-0.5 186,-0.5"/>
<text text-anchor="middle" x="226" y="-7.5" font-family="Helvetica,sans-Serif" font-size="10.00">linux/module.h</text>
</g>
<!-- Node1&#45;&gt;Node4 -->
<g id="edge3" class="edge"><title>Node1&#45;&gt;Node4</title>
<path fill="none" stroke="midnightblue" d="M761.985,-63.4855C685.681,-59.1628 467.623,-45.4932 276.031,-20.0165"/>
<polygon fill="midnightblue" stroke="midnightblue" points="276.439,-16.54 266.062,-18.6769 275.507,-23.4776 276.439,-16.54"/>
</g>
<!-- Node5 -->
<g id="node5" class="node"><title>Node5</title>
<polygon fill="white" stroke="#bfbfbf" points="284.5,-0.5 284.5,-19.5 345.5,-19.5 345.5,-0.5 284.5,-0.5"/>
<text text-anchor="middle" x="315" y="-7.5" font-family="Helvetica,sans-Serif" font-size="10.00">linux/pci.h</text>
</g>
<!-- Node1&#45;&gt;Node5 -->
<g id="edge4" class="edge"><title>Node1&#45;&gt;Node5</title>
<path fill="none" stroke="midnightblue" d="M761.784,-63.3044C693.591,-58.9482 514.314,-45.9563 355.53,-20.0779"/>
<polygon fill="midnightblue" stroke="midnightblue" points="356.022,-16.6117 345.585,-18.4355 354.881,-23.5182 356.022,-16.6117"/>
</g>
<!-- Node6 -->
<g id="node6" class="node"><title>Node6</title>
<polygon fill="white" stroke="#bfbfbf" points="363.5,-0.5 363.5,-19.5 424.5,-19.5 424.5,-0.5 363.5,-0.5"/>
<text text-anchor="middle" x="394" y="-7.5" font-family="Helvetica,sans-Serif" font-size="10.00">linux/init.h</text>
</g>
<!-- Node1&#45;&gt;Node6 -->
<g id="edge5" class="edge"><title>Node1&#45;&gt;Node6</title>
<path fill="none" stroke="midnightblue" d="M761.622,-62.4103C702.537,-56.8077 561.855,-42.3721 434.52,-20.1242"/>
<polygon fill="midnightblue" stroke="midnightblue" points="435.053,-16.6643 424.597,-18.3695 433.834,-23.5574 435.053,-16.6643"/>
</g>
<!-- Node7 -->
<g id="node7" class="node"><title>Node7</title>
<polygon fill="white" stroke="#bfbfbf" points="442.5,-0.5 442.5,-19.5 525.5,-19.5 525.5,-0.5 442.5,-0.5"/>
<text text-anchor="middle" x="484" y="-7.5" font-family="Helvetica,sans-Serif" font-size="10.00">linux/interrupt.h</text>
</g>
<!-- Node1&#45;&gt;Node7 -->
<g id="edge6" class="edge"><title>Node1&#45;&gt;Node7</title>
<path fill="none" stroke="midnightblue" d="M761.961,-60.11C716.56,-52.1835 623.874,-35.9672 535.641,-20.287"/>
<polygon fill="midnightblue" stroke="midnightblue" points="536.198,-16.8312 525.74,-18.5263 534.972,-23.7231 536.198,-16.8312"/>
</g>
<!-- Node8 -->
<g id="node8" class="node"><title>Node8</title>
<polygon fill="white" stroke="#bfbfbf" points="543.5,-0.5 543.5,-19.5 614.5,-19.5 614.5,-0.5 543.5,-0.5"/>
<text text-anchor="middle" x="579" y="-7.5" font-family="Helvetica,sans-Serif" font-size="10.00">linux/delay.h</text>
</g>
<!-- Node1&#45;&gt;Node8 -->
<g id="edge7" class="edge"><title>Node1&#45;&gt;Node8</title>
<path fill="none" stroke="midnightblue" d="M761.981,-57.8292C726.252,-48.6853 664.099,-32.7789 622.265,-22.0726"/>
<polygon fill="midnightblue" stroke="midnightblue" points="622.914,-18.6258 612.358,-19.5371 621.178,-25.4073 622.914,-18.6258"/>
</g>
<!-- Node9 -->
<g id="node9" class="node"><title>Node9</title>
<polygon fill="white" stroke="#bfbfbf" points="633,-0.5 633,-19.5 723,-19.5 723,-0.5 633,-0.5"/>
<text text-anchor="middle" x="678" y="-7.5" font-family="Helvetica,sans-Serif" font-size="10.00">linux/netdevice.h</text>
</g>
<!-- Node1&#45;&gt;Node9 -->
<g id="edge8" class="edge"><title>Node1&#45;&gt;Node9</title>
<path fill="none" stroke="midnightblue" d="M772.005,-56.324C753.962,-47.6247 725.953,-34.1202 705.197,-24.113"/>
<polygon fill="midnightblue" stroke="midnightblue" points="706.478,-20.8449 695.95,-19.6545 703.438,-27.1502 706.478,-20.8449"/>
</g>
<!-- Node10 -->
<g id="node10" class="node"><title>Node10</title>
<polygon fill="white" stroke="#bfbfbf" points="741,-0.5 741,-19.5 839,-19.5 839,-0.5 741,-0.5"/>
<text text-anchor="middle" x="790" y="-7.5" font-family="Helvetica,sans-Serif" font-size="10.00">linux/etherdevice.h</text>
</g>
<!-- Node1&#45;&gt;Node10 -->
<g id="edge9" class="edge"><title>Node1&#45;&gt;Node10</title>
<path fill="none" stroke="midnightblue" d="M790,-56.083C790,-49.0059 790,-38.8611 790,-29.9865"/>
<polygon fill="midnightblue" stroke="midnightblue" points="793.5,-29.751 790,-19.7511 786.5,-29.7511 793.5,-29.751"/>
</g>
<!-- Node11 -->
<g id="node11" class="node"><title>Node11</title>
<polygon fill="white" stroke="#bfbfbf" points="857,-0.5 857,-19.5 937,-19.5 937,-0.5 857,-0.5"/>
<text text-anchor="middle" x="897" y="-7.5" font-family="Helvetica,sans-Serif" font-size="10.00">linux/proc_fs.h</text>
</g>
<!-- Node1&#45;&gt;Node11 -->
<g id="edge10" class="edge"><title>Node1&#45;&gt;Node11</title>
<path fill="none" stroke="midnightblue" d="M807.191,-56.324C824.351,-47.6641 850.946,-34.2424 870.747,-24.249"/>
<polygon fill="midnightblue" stroke="midnightblue" points="872.501,-27.2847 879.851,-19.6545 869.347,-21.0354 872.501,-27.2847"/>
</g>
<!-- Node12 -->
<g id="node12" class="node"><title>Node12</title>
<polygon fill="white" stroke="#bfbfbf" points="955.5,-0.5 955.5,-19.5 1058.5,-19.5 1058.5,-0.5 955.5,-0.5"/>
<text text-anchor="middle" x="1007" y="-7.5" font-family="Helvetica,sans-Serif" font-size="10.00">linux/openvswitch.h</text>
</g>
<!-- Node1&#45;&gt;Node12 -->
<g id="edge11" class="edge"><title>Node1&#45;&gt;Node12</title>
<path fill="none" stroke="midnightblue" d="M818.369,-57.9404C855.062,-48.8094 919.381,-32.8038 962.58,-22.0539"/>
<polygon fill="midnightblue" stroke="midnightblue" points="963.678,-25.3874 972.537,-19.576 961.988,-18.5945 963.678,-25.3874"/>
</g>
<!-- Node13 -->
<g id="node13" class="node"><title>Node13</title>
<polygon fill="white" stroke="#bfbfbf" points="1077,-0.5 1077,-19.5 1157,-19.5 1157,-0.5 1077,-0.5"/>
<text text-anchor="middle" x="1117" y="-7.5" font-family="Helvetica,sans-Serif" font-size="10.00">linux/kthread.h</text>
</g>
<!-- Node1&#45;&gt;Node13 -->
<g id="edge12" class="edge"><title>Node1&#45;&gt;Node13</title>
<path fill="none" stroke="midnightblue" d="M818.049,-60.6608C866.572,-53.1109 969.563,-36.8959 1066.9,-20.1621"/>
<polygon fill="midnightblue" stroke="midnightblue" points="1067.64,-23.5852 1076.9,-18.4365 1066.45,-16.6871 1067.64,-23.5852"/>
</g>
<!-- Node14 -->
<g id="node14" class="node"><title>Node14</title>
<polygon fill="white" stroke="#bfbfbf" points="1175,-0.5 1175,-19.5 1247,-19.5 1247,-0.5 1175,-0.5"/>
<text text-anchor="middle" x="1211" y="-7.5" font-family="Helvetica,sans-Serif" font-size="10.00">asm/signal.h</text>
</g>
<!-- Node1&#45;&gt;Node14 -->
<g id="edge13" class="edge"><title>Node1&#45;&gt;Node14</title>
<path fill="none" stroke="midnightblue" d="M818.406,-62.3672C879.73,-56.5197 1029.27,-41.3816 1164.57,-20.1222"/>
<polygon fill="midnightblue" stroke="midnightblue" points="1165.37,-23.5388 1174.69,-18.5146 1164.27,-16.6254 1165.37,-23.5388"/>
</g>
<!-- Node15 -->
<g id="node15" class="node"><title>Node15</title>
<polygon fill="white" stroke="#bfbfbf" points="1265,-0.5 1265,-19.5 1361,-19.5 1361,-0.5 1265,-0.5"/>
<text text-anchor="middle" x="1313" y="-7.5" font-family="Helvetica,sans-Serif" font-size="10.00">linux/semaphore.h</text>
</g>
<!-- Node1&#45;&gt;Node15 -->
<g id="edge14" class="edge"><title>Node1&#45;&gt;Node15</title>
<path fill="none" stroke="midnightblue" d="M818.169,-62.8759C889.449,-57.3741 1082.95,-41.6507 1254.84,-20.0784"/>
<polygon fill="midnightblue" stroke="midnightblue" points="1255.35,-23.5427 1264.83,-18.8155 1254.47,-16.598 1255.35,-23.5427"/>
</g>
<!-- Node16 -->
<g id="node16" class="node"><title>Node16</title>
<g id="a_node16"><a xlink:href="../../db/d87/_i_n_r_8h.html" target="_top" xlink:title="basic settings and definitions ">
<polygon fill="white" stroke="black" points="1379.5,-0.5 1379.5,-19.5 1422.5,-19.5 1422.5,-0.5 1379.5,-0.5"/>
<text text-anchor="middle" x="1401" y="-7.5" font-family="Helvetica,sans-Serif" font-size="10.00">INR.h</text>
</a>
</g>
</g>
<!-- Node1&#45;&gt;Node16 -->
<g id="edge15" class="edge"><title>Node1&#45;&gt;Node16</title>
<path fill="none" stroke="midnightblue" d="M818.029,-64.8539C901.001,-63.9956 1152.57,-58.3258 1369.48,-19.6733"/>
<polygon fill="midnightblue" stroke="midnightblue" points="1370.24,-23.0928 1379.45,-17.8677 1368.99,-16.2048 1370.24,-23.0928"/>
</g>
<!-- Node17 -->
<g id="node17" class="node"><title>Node17</title>
<g id="a_node17"><a xlink:href="../../df/df2/_i_n_r-_p_c_i_8h.html" target="_top" xlink:title="settings and definitions PCI communication ">
<polygon fill="white" stroke="black" points="1440.5,-0.5 1440.5,-19.5 1503.5,-19.5 1503.5,-0.5 1440.5,-0.5"/>
<text text-anchor="middle" x="1472" y="-7.5" font-family="Helvetica,sans-Serif" font-size="10.00">INR&#45;PCI.h</text>
</a>
</g>
</g>
<!-- Node1&#45;&gt;Node17 -->
<g id="edge16" class="edge"><title>Node1&#45;&gt;Node17</title>
<path fill="none" stroke="midnightblue" d="M818.008,-64.5474C906.552,-62.7991 1188.4,-54.8033 1430.17,-20.0698"/>
<polygon fill="midnightblue" stroke="midnightblue" points="1430.81,-23.5138 1440.2,-18.61 1429.8,-16.5868 1430.81,-23.5138"/>
</g>
<!-- Node18 -->
<g id="node18" class="node"><title>Node18</title>
<g id="a_node18"><a xlink:href="../../dc/d62/_i_n_r-ctl_8h.html" target="_top" xlink:title="settings and definitions basic functions ">
<polygon fill="white" stroke="black" points="1522,-0.5 1522,-19.5 1578,-19.5 1578,-0.5 1522,-0.5"/>
<text text-anchor="middle" x="1550" y="-7.5" font-family="Helvetica,sans-Serif" font-size="10.00">INR&#45;ctl.h</text>
</a>
</g>
</g>
<!-- Node1&#45;&gt;Node18 -->
<g id="edge17" class="edge"><title>Node1&#45;&gt;Node18</title>
<path fill="none" stroke="midnightblue" d="M818.103,-65.0273C913.933,-64.7483 1236.71,-60.7505 1511.65,-19.9276"/>
<polygon fill="midnightblue" stroke="midnightblue" points="1512.45,-23.3463 1521.82,-18.3972 1511.41,-16.4242 1512.45,-23.3463"/>
</g>
</g>
</svg>
