<?xml version="1.0" encoding="UTF-8" standalone="no"?>
<!DOCTYPE svg PUBLIC "-//W3C//DTD SVG 1.1//EN"
 "http://www.w3.org/Graphics/SVG/1.1/DTD/svg11.dtd">
<!-- Generated by graphviz version 2.36.0 (20140111.2315)
 -->
<!-- Title: semaphore_operation Pages: 1 -->
<svg width="234pt" height="66pt"
 viewBox="0.00 0.00 234.00 66.00" xmlns="http://www.w3.org/2000/svg" xmlns:xlink="http://www.w3.org/1999/xlink">
<g id="graph0" class="graph" transform="scale(1 1) rotate(0) translate(4 62)">
<title>semaphore_operation</title>
<polygon fill="white" stroke="none" points="-4,4 -4,-62 230,-62 230,4 -4,4"/>
<!-- Node1 -->
<g id="node1" class="node"><title>Node1</title>
<polygon fill="#bfbfbf" stroke="black" points="0,-19.5 0,-38.5 110,-38.5 110,-19.5 0,-19.5"/>
<text text-anchor="middle" x="55" y="-26.5" font-family="Helvetica,sans-Serif" font-size="10.00">semaphore_operation</text>
</g>
<!-- Node2 -->
<g id="node2" class="node"><title>Node2</title>
<g id="a_node2"><a xlink:href="../../d4/dc4/sh__mem_8h.html#a8b85fa444a0a8b6084ed4b4374f1c49f" target="_top" xlink:title="Kopiert einen Tiefenframe 320*240*2 bytes aus dem SharedMemory, gibt übermitteltes Flag zurück (siehe...">
<polygon fill="white" stroke="black" points="146.5,-38.5 146.5,-57.5 225.5,-57.5 225.5,-38.5 146.5,-38.5"/>
<text text-anchor="middle" x="186" y="-45.5" font-family="Helvetica,sans-Serif" font-size="10.00">cpfromshmem</text>
</a>
</g>
</g>
<!-- Node1&#45;&gt;Node2 -->
<g id="edge1" class="edge"><title>Node1&#45;&gt;Node2</title>
<path fill="none" stroke="midnightblue" d="M120.349,-38.4778C129.253,-39.7892 138.161,-41.1012 146.394,-42.3139"/>
<polygon fill="midnightblue" stroke="midnightblue" points="120.737,-34.9972 110.334,-37.0026 119.717,-41.9225 120.737,-34.9972"/>
</g>
<!-- Node3 -->
<g id="node3" class="node"><title>Node3</title>
<g id="a_node3"><a xlink:href="../../d4/dc4/sh__mem_8h.html#a390bcefab6c30e196c2d8cd3cd76e323" target="_top" xlink:title="Kopiert einen Tiefenframe 320*240*2 bytes in den SharedMemory. ">
<polygon fill="white" stroke="black" points="152,-0.5 152,-19.5 220,-19.5 220,-0.5 152,-0.5"/>
<text text-anchor="middle" x="186" y="-7.5" font-family="Helvetica,sans-Serif" font-size="10.00">cptoshmem</text>
</a>
</g>
</g>
<!-- Node1&#45;&gt;Node3 -->
<g id="edge2" class="edge"><title>Node1&#45;&gt;Node3</title>
<path fill="none" stroke="midnightblue" d="M120.284,-19.5319C131.159,-17.93 142.043,-16.327 151.698,-14.9049"/>
<polygon fill="midnightblue" stroke="midnightblue" points="119.717,-16.0775 110.334,-20.9974 120.737,-23.0028 119.717,-16.0775"/>
</g>
</g>
</svg>
