<?xml version="1.0" encoding="UTF-8" standalone="no"?>
<!DOCTYPE svg PUBLIC "-//W3C//DTD SVG 1.1//EN"
 "http://www.w3.org/Graphics/SVG/1.1/DTD/svg11.dtd">
<!-- Generated by graphviz version 2.38.0 (20140413.2041)
 -->
<!-- Title: sh_mem.c Pages: 1 -->
<svg width="494pt" height="84pt"
 viewBox="0.00 0.00 493.50 84.00" xmlns="http://www.w3.org/2000/svg" xmlns:xlink="http://www.w3.org/1999/xlink">
<g id="graph0" class="graph" transform="scale(1 1) rotate(0) translate(4 80)">
<title>sh_mem.c</title>
<polygon fill="white" stroke="none" points="-4,4 -4,-80 489.5,-80 489.5,4 -4,4"/>
<!-- Node1 -->
<g id="node1" class="node"><title>Node1</title>
<polygon fill="#bfbfbf" stroke="black" points="212.5,-56.5 212.5,-75.5 274.5,-75.5 274.5,-56.5 212.5,-56.5"/>
<text text-anchor="middle" x="243.5" y="-63.5" font-family="Helvetica,sans-Serif" font-size="10.00">sh_mem.c</text>
</g>
<!-- Node2 -->
<g id="node2" class="node"><title>Node2</title>
<polygon fill="white" stroke="#bfbfbf" points="0,-0.5 0,-19.5 61,-19.5 61,-0.5 0,-0.5"/>
<text text-anchor="middle" x="30.5" y="-7.5" font-family="Helvetica,sans-Serif" font-size="10.00">linux/ipc.h</text>
</g>
<!-- Node1&#45;&gt;Node2 -->
<g id="edge1" class="edge"><title>Node1&#45;&gt;Node2</title>
<path fill="none" stroke="midnightblue" d="M212.071,-57.0321C174.626,-47.539 111.989,-31.6593 70.9588,-21.2572"/>
<polygon fill="midnightblue" stroke="midnightblue" points="71.5747,-17.8027 61.0212,-18.7378 69.8545,-24.588 71.5747,-17.8027"/>
</g>
<!-- Node3 -->
<g id="node3" class="node"><title>Node3</title>
<polygon fill="white" stroke="#bfbfbf" points="79,-0.5 79,-19.5 146,-19.5 146,-0.5 79,-0.5"/>
<text text-anchor="middle" x="112.5" y="-7.5" font-family="Helvetica,sans-Serif" font-size="10.00">linux/shm.h</text>
</g>
<!-- Node1&#45;&gt;Node3 -->
<g id="edge2" class="edge"><title>Node1&#45;&gt;Node3</title>
<path fill="none" stroke="midnightblue" d="M222.743,-56.4435C201.184,-47.5566 167.237,-33.5632 142.706,-23.4514"/>
<polygon fill="midnightblue" stroke="midnightblue" points="143.739,-20.0917 133.16,-19.5164 141.072,-26.5634 143.739,-20.0917"/>
</g>
<!-- Node4 -->
<g id="node4" class="node"><title>Node4</title>
<polygon fill="white" stroke="#bfbfbf" points="164.5,-0.5 164.5,-19.5 236.5,-19.5 236.5,-0.5 164.5,-0.5"/>
<text text-anchor="middle" x="200.5" y="-7.5" font-family="Helvetica,sans-Serif" font-size="10.00">linux/types.h</text>
</g>
<!-- Node1&#45;&gt;Node4 -->
<g id="edge3" class="edge"><title>Node1&#45;&gt;Node4</title>
<path fill="none" stroke="midnightblue" d="M236.399,-56.083C230.263,-48.3768 221.23,-37.0333 213.761,-27.6531"/>
<polygon fill="midnightblue" stroke="midnightblue" points="216.436,-25.3936 207.468,-19.7511 210.96,-29.7542 216.436,-25.3936"/>
</g>
<!-- Node5 -->
<g id="node5" class="node"><title>Node5</title>
<polygon fill="white" stroke="#bfbfbf" points="255,-0.5 255,-19.5 320,-19.5 320,-0.5 255,-0.5"/>
<text text-anchor="middle" x="287.5" y="-7.5" font-family="Helvetica,sans-Serif" font-size="10.00">linux/stat.h</text>
</g>
<!-- Node1&#45;&gt;Node5 -->
<g id="edge4" class="edge"><title>Node1&#45;&gt;Node5</title>
<path fill="none" stroke="midnightblue" d="M250.766,-56.083C257.045,-48.3768 266.288,-37.0333 273.931,-27.6531"/>
<polygon fill="midnightblue" stroke="midnightblue" points="276.766,-29.7143 280.369,-19.7511 271.339,-25.2926 276.766,-29.7143"/>
</g>
<!-- Node6 -->
<g id="node6" class="node"><title>Node6</title>
<polygon fill="white" stroke="#bfbfbf" points="338,-0.5 338,-19.5 405,-19.5 405,-0.5 338,-0.5"/>
<text text-anchor="middle" x="371.5" y="-7.5" font-family="Helvetica,sans-Serif" font-size="10.00">linux/sem.h</text>
</g>
<!-- Node1&#45;&gt;Node6 -->
<g id="edge5" class="edge"><title>Node1&#45;&gt;Node6</title>
<path fill="none" stroke="midnightblue" d="M263.782,-56.4435C284.847,-47.5566 318.017,-33.5632 341.986,-23.4514"/>
<polygon fill="midnightblue" stroke="midnightblue" points="343.46,-26.6283 351.313,-19.5164 340.739,-20.1787 343.46,-26.6283"/>
</g>
<!-- Node7 -->
<g id="node7" class="node"><title>Node7</title>
<g id="a_node7"><a xlink:href="../../d4/dc4/sh__mem_8h.html" target="_top" xlink:title="shared mem definitions ">
<polygon fill="white" stroke="black" points="423.5,-0.5 423.5,-19.5 485.5,-19.5 485.5,-0.5 423.5,-0.5"/>
<text text-anchor="middle" x="454.5" y="-7.5" font-family="Helvetica,sans-Serif" font-size="10.00">sh_mem.h</text>
</a>
</g>
</g>
<!-- Node1&#45;&gt;Node7 -->
<g id="edge6" class="edge"><title>Node1&#45;&gt;Node7</title>
<path fill="none" stroke="midnightblue" d="M274.634,-57.0321C311.41,-47.6201 372.717,-31.9303 413.374,-21.5251"/>
<polygon fill="midnightblue" stroke="midnightblue" points="414.419,-24.8707 423.238,-19.0006 412.683,-18.0893 414.419,-24.8707"/>
</g>
</g>
</svg>
