<?xml version="1.0" encoding="UTF-8" standalone="no"?>
<!DOCTYPE svg PUBLIC "-//W3C//DTD SVG 1.1//EN"
 "http://www.w3.org/Graphics/SVG/1.1/DTD/svg11.dtd">
<!-- Generated by graphviz version 2.38.0 (20140413.2041)
 -->
<!-- Title: main.c Pages: 1 -->
<!--zoomable 84 -->
<svg id="main" version="1.1" xmlns="http://www.w3.org/2000/svg" xmlns:xlink="http://www.w3.org/1999/xlink" xml:space="preserve" onload="init(evt)">
<style type="text/css"><![CDATA[
.edge:hover path { stroke: red; }
.edge:hover polygon { stroke: red; fill: red; }
]]></style>
<script type="text/javascript"><![CDATA[
var edges = document.getElementsByTagName('g');
if (edges && edges.length) {
  for (var i=0;i<edges.length;i++) {
    if (edges[i].id.substr(0,4)=='edge') {
      edges[i].setAttribute('class','edge');
    }
  }
}
]]></script>
        <defs>
                <circle id="rim" cx="0" cy="0" r="7"/>
                <circle id="rim2" cx="0" cy="0" r="3.5"/>
                <g id="zoomPlus">
                        <use xlink:href="#rim" fill="#404040">
                                <set attributeName="fill" to="#808080" begin="zoomplus.mouseover" end="zoomplus.mouseout"/>
                        </use>
                        <path d="M-4,0h8M0,-4v8" fill="none" stroke="white" stroke-width="1.5" pointer-events="none"/>
                </g>
                <g id="zoomMin">
                        <use xlink:href="#rim" fill="#404040">
                                <set attributeName="fill" to="#808080" begin="zoomminus.mouseover" end="zoomminus.mouseout"/>
                        </use>
                        <path d="M-4,0h8" fill="none" stroke="white" stroke-width="1.5" pointer-events="none"/>
                </g>
                <g id="dirArrow">
                        <path fill="none" stroke="white" stroke-width="1.5" d="M0,-3.0v7 M-2.5,-0.5L0,-3.0L2.5,-0.5"/>
                </g>
               <g id="resetDef">
                       <use xlink:href="#rim2" fill="#404040">
                               <set attributeName="fill" to="#808080" begin="reset.mouseover" end="reset.mouseout"/>
                       </use>
               </g>
        </defs>

<script type="text/javascript">
var viewWidth = 1145;
var viewHeight = 84;
var sectionId = 'dynsection-0';
</script>
<script xlink:href="../../svgpan.js"/>
<svg id="graph" class="graph">
<g id="viewport">
<title>main.c</title>
<polygon fill="white" stroke="none" points="-4,4 -4,-80 1141,-80 1141,4 -4,4"/>
<!-- Node1 -->
<g id="node1" class="node"><title>Node1</title>
<polygon fill="#bfbfbf" stroke="black" points="556,-56.5 556,-75.5 602,-75.5 602,-56.5 556,-56.5"/>
<text text-anchor="middle" x="579" y="-63.5" font-family="Helvetica,sans-Serif" font-size="10.00">main.c</text>
</g>
<!-- Node2 -->
<g id="node2" class="node"><title>Node2</title>
<polygon fill="white" stroke="#bfbfbf" points="0,-0.5 0,-19.5 74,-19.5 74,-0.5 0,-0.5"/>
<text text-anchor="middle" x="37" y="-7.5" font-family="Helvetica,sans-Serif" font-size="10.00">linux/kernel.h</text>
</g>
<!-- Node1&#45;&gt;Node2 -->
<g id="edge1" class="edge"><title>Node1&#45;&gt;Node2</title>
<path fill="none" stroke="midnightblue" d="M555.911,-63.7513C486.256,-59.8064 271.965,-46.3672 84.1563,-20.025"/>
<polygon fill="midnightblue" stroke="midnightblue" points="84.494,-16.5379 74.1015,-18.5986 83.5107,-23.4685 84.494,-16.5379"/>
</g>
<!-- Node3 -->
<g id="node3" class="node"><title>Node3</title>
<polygon fill="white" stroke="#bfbfbf" points="92.5,-0.5 92.5,-19.5 167.5,-19.5 167.5,-0.5 92.5,-0.5"/>
<text text-anchor="middle" x="130" y="-7.5" font-family="Helvetica,sans-Serif" font-size="10.00">linux/export.h</text>
</g>
<!-- Node1&#45;&gt;Node3 -->
<g id="edge2" class="edge"><title>Node1&#45;&gt;Node3</title>
<path fill="none" stroke="midnightblue" d="M555.805,-63.0395C495.406,-57.8 328.128,-42.4315 177.986,-20.0345"/>
<polygon fill="midnightblue" stroke="midnightblue" points="178.076,-16.5085 167.666,-18.4796 177.033,-23.4304 178.076,-16.5085"/>
</g>
<!-- Node4 -->
<g id="node4" class="node"><title>Node4</title>
<polygon fill="white" stroke="#bfbfbf" points="186,-0.5 186,-19.5 266,-19.5 266,-0.5 186,-0.5"/>
<text text-anchor="middle" x="226" y="-7.5" font-family="Helvetica,sans-Serif" font-size="10.00">linux/module.h</text>
</g>
<!-- Node1&#45;&gt;Node4 -->
<g id="edge3" class="edge"><title>Node1&#45;&gt;Node4</title>
<path fill="none" stroke="midnightblue" d="M555.692,-61.8309C506.202,-55.0419 386.753,-38.3397 276.086,-20.1331"/>
<polygon fill="midnightblue" stroke="midnightblue" points="276.529,-16.6589 266.092,-18.4807 275.387,-23.5652 276.529,-16.6589"/>
</g>
<!-- Node5 -->
<g id="node5" class="node"><title>Node5</title>
<polygon fill="white" stroke="#bfbfbf" points="284.5,-0.5 284.5,-19.5 345.5,-19.5 345.5,-0.5 284.5,-0.5"/>
<text text-anchor="middle" x="315" y="-7.5" font-family="Helvetica,sans-Serif" font-size="10.00">linux/pci.h</text>
</g>
<!-- Node1&#45;&gt;Node5 -->
<g id="edge4" class="edge"><title>Node1&#45;&gt;Node5</title>
<path fill="none" stroke="midnightblue" d="M555.957,-60.6233C516.838,-53.1437 434.707,-37.2264 355.748,-20.3323"/>
<polygon fill="midnightblue" stroke="midnightblue" points="356.15,-16.8388 345.638,-18.1598 354.679,-23.6826 356.15,-16.8388"/>
</g>
<!-- Node6 -->
<g id="node6" class="node"><title>Node6</title>
<polygon fill="white" stroke="#bfbfbf" points="363.5,-0.5 363.5,-19.5 424.5,-19.5 424.5,-0.5 363.5,-0.5"/>
<text text-anchor="middle" x="394" y="-7.5" font-family="Helvetica,sans-Serif" font-size="10.00">linux/init.h</text>
</g>
<!-- Node1&#45;&gt;Node6 -->
<g id="edge5" class="edge"><title>Node1&#45;&gt;Node6</title>
<path fill="none" stroke="midnightblue" d="M555.944,-58.27C525.222,-49.3025 470.415,-33.3048 433.154,-22.4286"/>
<polygon fill="midnightblue" stroke="midnightblue" points="433.724,-18.9492 423.144,-19.5069 431.763,-25.6688 433.724,-18.9492"/>
</g>
<!-- Node7 -->
<g id="node7" class="node"><title>Node7</title>
<polygon fill="white" stroke="#bfbfbf" points="442.5,-0.5 442.5,-19.5 525.5,-19.5 525.5,-0.5 442.5,-0.5"/>
<text text-anchor="middle" x="484" y="-7.5" font-family="Helvetica,sans-Serif" font-size="10.00">linux/interrupt.h</text>
</g>
<!-- Node1&#45;&gt;Node7 -->
<g id="edge6" class="edge"><title>Node1&#45;&gt;Node7</title>
<path fill="none" stroke="midnightblue" d="M563.737,-56.324C548.779,-47.8215 525.745,-34.7288 508.273,-24.7975"/>
<polygon fill="midnightblue" stroke="midnightblue" points="509.649,-21.5534 499.226,-19.6545 506.19,-27.639 509.649,-21.5534"/>
</g>
<!-- Node8 -->
<g id="node8" class="node"><title>Node8</title>
<polygon fill="white" stroke="#bfbfbf" points="543.5,-0.5 543.5,-19.5 614.5,-19.5 614.5,-0.5 543.5,-0.5"/>
<text text-anchor="middle" x="579" y="-7.5" font-family="Helvetica,sans-Serif" font-size="10.00">linux/delay.h</text>
</g>
<!-- Node1&#45;&gt;Node8 -->
<g id="edge7" class="edge"><title>Node1&#45;&gt;Node8</title>
<path fill="none" stroke="midnightblue" d="M579,-56.083C579,-49.0059 579,-38.8611 579,-29.9865"/>
<polygon fill="midnightblue" stroke="midnightblue" points="582.5,-29.751 579,-19.7511 575.5,-29.7511 582.5,-29.751"/>
</g>
<!-- Node9 -->
<g id="node9" class="node"><title>Node9</title>
<polygon fill="white" stroke="#bfbfbf" points="633,-0.5 633,-19.5 723,-19.5 723,-0.5 633,-0.5"/>
<text text-anchor="middle" x="678" y="-7.5" font-family="Helvetica,sans-Serif" font-size="10.00">linux/netdevice.h</text>
</g>
<!-- Node1&#45;&gt;Node9 -->
<g id="edge8" class="edge"><title>Node1&#45;&gt;Node9</title>
<path fill="none" stroke="midnightblue" d="M594.906,-56.324C610.638,-47.7428 634.942,-34.486 653.209,-24.5224"/>
<polygon fill="midnightblue" stroke="midnightblue" points="655.03,-27.5157 662.133,-19.6545 651.678,-21.3704 655.03,-27.5157"/>
</g>
<!-- Node10 -->
<g id="node10" class="node"><title>Node10</title>
<polygon fill="white" stroke="#bfbfbf" points="741,-0.5 741,-19.5 839,-19.5 839,-0.5 741,-0.5"/>
<text text-anchor="middle" x="790" y="-7.5" font-family="Helvetica,sans-Serif" font-size="10.00">linux/etherdevice.h</text>
</g>
<!-- Node1&#45;&gt;Node10 -->
<g id="edge9" class="edge"><title>Node1&#45;&gt;Node10</title>
<path fill="none" stroke="midnightblue" d="M602.387,-59.0147C637.128,-50.1237 702.957,-33.2763 746.663,-22.0911"/>
<polygon fill="midnightblue" stroke="midnightblue" points="747.628,-25.4569 756.448,-19.5868 745.892,-18.6755 747.628,-25.4569"/>
</g>
<!-- Node11 -->
<g id="node11" class="node"><title>Node11</title>
<g id="a_node11"><a xlink:href="../../db/d87/_i_n_r_8h.html" target="_top" xlink:title="basic settings and definitions ">
<polygon fill="white" stroke="black" points="857.5,-0.5 857.5,-19.5 900.5,-19.5 900.5,-0.5 857.5,-0.5"/>
<text text-anchor="middle" x="879" y="-7.5" font-family="Helvetica,sans-Serif" font-size="10.00">INR.h</text>
</a>
</g>
</g>
<!-- Node1&#45;&gt;Node11 -->
<g id="edge10" class="edge"><title>Node1&#45;&gt;Node11</title>
<path fill="none" stroke="midnightblue" d="M602.207,-62.0485C647.466,-56.0951 750.81,-41.5342 847.471,-19.8756"/>
<polygon fill="midnightblue" stroke="midnightblue" points="848.428,-23.2476 857.404,-17.6191 846.877,-16.4215 848.428,-23.2476"/>
</g>
<!-- Node12 -->
<g id="node12" class="node"><title>Node12</title>
<g id="a_node12"><a xlink:href="../../df/df2/_i_n_r-_p_c_i_8h.html" target="_top" xlink:title="settings and definitions PCI communication ">
<polygon fill="white" stroke="black" points="918.5,-0.5 918.5,-19.5 981.5,-19.5 981.5,-0.5 918.5,-0.5"/>
<text text-anchor="middle" x="950" y="-7.5" font-family="Helvetica,sans-Serif" font-size="10.00">INR&#45;PCI.h</text>
</a>
</g>
</g>
<!-- Node1&#45;&gt;Node12 -->
<g id="edge11" class="edge"><title>Node1&#45;&gt;Node12</title>
<path fill="none" stroke="midnightblue" d="M602.384,-62.5227C655.17,-56.7819 787.761,-41.5298 908.059,-20.2313"/>
<polygon fill="midnightblue" stroke="midnightblue" points="908.947,-23.6281 918.174,-18.4208 907.713,-16.7377 908.947,-23.6281"/>
</g>
<!-- Node13 -->
<g id="node13" class="node"><title>Node13</title>
<g id="a_node13"><a xlink:href="../../dd/de5/_i_n_r-_n_w_8h.html" target="_top" xlink:title="settings and definitions Netork communication ">
<polygon fill="white" stroke="black" points="999.5,-0.5 999.5,-19.5 1062.5,-19.5 1062.5,-0.5 999.5,-0.5"/>
<text text-anchor="middle" x="1031" y="-7.5" font-family="Helvetica,sans-Serif" font-size="10.00">INR&#45;NW.h</text>
</a>
</g>
</g>
<!-- Node1&#45;&gt;Node13 -->
<g id="edge12" class="edge"><title>Node1&#45;&gt;Node13</title>
<path fill="none" stroke="midnightblue" d="M602.357,-63.3749C664.028,-58.8888 836.456,-45.0828 989.158,-20.1552"/>
<polygon fill="midnightblue" stroke="midnightblue" points="989.892,-23.5816 999.187,-18.4971 988.75,-16.6753 989.892,-23.5816"/>
</g>
<!-- Node14 -->
<g id="node14" class="node"><title>Node14</title>
<g id="a_node14"><a xlink:href="../../dc/d62/_i_n_r-ctl_8h.html" target="_top" xlink:title="settings and definitions basic functions ">
<polygon fill="white" stroke="black" points="1081,-0.5 1081,-19.5 1137,-19.5 1137,-0.5 1081,-0.5"/>
<text text-anchor="middle" x="1109" y="-7.5" font-family="Helvetica,sans-Serif" font-size="10.00">INR&#45;ctl.h</text>
</a>
</g>
</g>
<!-- Node1&#45;&gt;Node14 -->
<g id="edge13" class="edge"><title>Node1&#45;&gt;Node14</title>
<path fill="none" stroke="midnightblue" d="M602.006,-64.1077C671.398,-61.1631 884.793,-50.2526 1070.85,-19.9568"/>
<polygon fill="midnightblue" stroke="midnightblue" points="1071.51,-23.3947 1080.81,-18.3119 1070.37,-16.4882 1071.51,-23.3947"/>
</g>
</g>
</svg>
        <g id="navigator" transform="translate(0 0)" fill="#404254">
                <rect fill="#f2f5e9" fill-opacity="0.5" stroke="#606060" stroke-width=".5" x="0" y="0" width="60" height="60"/>
                <use id="zoomplus" xlink:href="#zoomPlus" x="17" y="9" onmousedown="handleZoom(evt,'in')"/>
                <use id="zoomminus" xlink:href="#zoomMin" x="42" y="9" onmousedown="handleZoom(evt,'out')"/>
                <use id="reset" xlink:href="#resetDef" x="30" y="36" onmousedown="handleReset()"/>
                <g id="arrowUp" xlink:href="#dirArrow" transform="translate(30 24)" onmousedown="handlePan(0,-1)">
                  <use xlink:href="#rim" fill="#404040">
                        <set attributeName="fill" to="#808080" begin="arrowUp.mouseover" end="arrowUp.mouseout"/>
                  </use>
                  <path fill="none" stroke="white" stroke-width="1.5" d="M0,-3.0v7 M-2.5,-0.5L0,-3.0L2.5,-0.5"/>
                </g>
                <g id="arrowRight" xlink:href="#dirArrow" transform="rotate(90) translate(36 -43)" onmousedown="handlePan(1,0)">
                  <use xlink:href="#rim" fill="#404040">
                        <set attributeName="fill" to="#808080" begin="arrowRight.mouseover" end="arrowRight.mouseout"/>
                  </use>
                  <path fill="none" stroke="white" stroke-width="1.5" d="M0,-3.0v7 M-2.5,-0.5L0,-3.0L2.5,-0.5"/>
                </g>
                <g id="arrowDown" xlink:href="#dirArrow" transform="rotate(180) translate(-30 -48)" onmousedown="handlePan(0,1)">
                  <use xlink:href="#rim" fill="#404040">
                        <set attributeName="fill" to="#808080" begin="arrowDown.mouseover" end="arrowDown.mouseout"/>
                  </use>
                  <path fill="none" stroke="white" stroke-width="1.5" d="M0,-3.0v7 M-2.5,-0.5L0,-3.0L2.5,-0.5"/>
                </g>
                <g id="arrowLeft" xlink:href="#dirArrow" transform="rotate(270) translate(-36 17)" onmousedown="handlePan(-1,0)">
                  <use xlink:href="#rim" fill="#404040">
                        <set attributeName="fill" to="#808080" begin="arrowLeft.mouseover" end="arrowLeft.mouseout"/>
                  </use>
                  <path fill="none" stroke="white" stroke-width="1.5" d="M0,-3.0v7 M-2.5,-0.5L0,-3.0L2.5,-0.5"/>
                </g>
        </g>
        <svg viewBox="0 0 15 15" width="100%" height="30px" preserveAspectRatio="xMaxYMin meet">
         <g id="arrow_out" transform="scale(0.3 0.3)">
          <a xlink:href="main_8c__incl_org.svg" target="_base">
           <rect id="button" ry="5" rx="5" y="6" x="6" height="38" width="38"
                fill="#f2f5e9" fill-opacity="0.5" stroke="#606060" stroke-width="1.0"/>
           <path id="arrow"
             d="M 11.500037,31.436501 C 11.940474,20.09759 22.043105,11.32322 32.158766,21.979434 L 37.068811,17.246167 C 37.068811,17.246167 37.088388,32 37.088388,32 L 22.160133,31.978069 C 22.160133,31.978069 26.997745,27.140456 26.997745,27.140456 C 18.528582,18.264221 13.291696,25.230495 11.500037,31.436501 z"
             style="fill:#404040;"/>
          </a>
         </g>
        </svg>
</svg>
