<?xml version="1.0" encoding="UTF-8" standalone="no"?>
<!DOCTYPE svg PUBLIC "-//W3C//DTD SVG 1.1//EN"
 "http://www.w3.org/Graphics/SVG/1.1/DTD/svg11.dtd">
<!-- Generated by graphviz version 2.36.0 (20140111.2315)
 -->
<!-- Title: hello_proc_show2 Pages: 1 -->
<svg width="370pt" height="28pt"
 viewBox="0.00 0.00 370.00 28.00" xmlns="http://www.w3.org/2000/svg" xmlns:xlink="http://www.w3.org/1999/xlink">
<g id="graph0" class="graph" transform="scale(1 1) rotate(0) translate(4 24)">
<title>hello_proc_show2</title>
<polygon fill="white" stroke="none" points="-4,4 -4,-24 366,-24 366,4 -4,4"/>
<!-- Node1 -->
<g id="node1" class="node"><title>Node1</title>
<polygon fill="#bfbfbf" stroke="black" points="0.5,-0.5 0.5,-19.5 95.5,-19.5 95.5,-0.5 0.5,-0.5"/>
<text text-anchor="middle" x="48" y="-7.5" font-family="Helvetica,sans-Serif" font-size="10.00">hello_proc_show2</text>
</g>
<!-- Node2 -->
<g id="node2" class="node"><title>Node2</title>
<g id="a_node2"><a xlink:href="../../d2/d08/_i_n_r-ctl_8c.html#a98ff68100f6aef31e36efbae0db67898" target="_top" xlink:title="hello_proc_open2">
<polygon fill="white" stroke="black" points="132,-0.5 132,-19.5 224,-19.5 224,-0.5 132,-0.5"/>
<text text-anchor="middle" x="178" y="-7.5" font-family="Helvetica,sans-Serif" font-size="10.00">hello_proc_open2</text>
</a>
</g>
</g>
<!-- Node1&#45;&gt;Node2 -->
<g id="edge1" class="edge"><title>Node1&#45;&gt;Node2</title>
<path fill="none" stroke="midnightblue" d="M105.75,-10C114.525,-10 123.485,-10 131.958,-10"/>
<polygon fill="midnightblue" stroke="midnightblue" points="105.573,-6.5001 95.573,-10 105.573,-13.5001 105.573,-6.5001"/>
</g>
<!-- Node3 -->
<g id="node3" class="node"><title>Node3</title>
<g id="a_node3"><a xlink:href="../../dc/d62/_i_n_r-ctl_8h.html#a53b5a28c7c3b608c419eb5f9da6f197b" target="_top" xlink:title="dev PCI&#45;device ">
<polygon fill="white" stroke="black" points="260.5,-0.5 260.5,-19.5 361.5,-19.5 361.5,-0.5 260.5,-0.5"/>
<text text-anchor="middle" x="311" y="-7.5" font-family="Helvetica,sans-Serif" font-size="10.00">INR_CTL_init_proc</text>
</a>
</g>
</g>
<!-- Node2&#45;&gt;Node3 -->
<g id="edge2" class="edge"><title>Node2&#45;&gt;Node3</title>
<path fill="none" stroke="midnightblue" d="M234.14,-10C242.838,-10 251.786,-10 260.349,-10"/>
<polygon fill="midnightblue" stroke="midnightblue" points="234.083,-6.5001 224.083,-10 234.083,-13.5001 234.083,-6.5001"/>
</g>
</g>
</svg>
