<?xml version="1.0" encoding="UTF-8" standalone="no"?>
<!DOCTYPE svg PUBLIC "-//W3C//DTD SVG 1.1//EN"
 "http://www.w3.org/Graphics/SVG/1.1/DTD/svg11.dtd">
<!-- Generated by graphviz version 2.38.0 (20140413.2041)
 -->
<!-- Title: INR_CTL_init_proc Pages: 1 -->
<svg width="271pt" height="28pt"
 viewBox="0.00 0.00 271.00 28.00" xmlns="http://www.w3.org/2000/svg" xmlns:xlink="http://www.w3.org/1999/xlink">
<g id="graph0" class="graph" transform="scale(1 1) rotate(0) translate(4 24)">
<title>INR_CTL_init_proc</title>
<polygon fill="white" stroke="none" points="-4,4 -4,-24 267,-24 267,4 -4,4"/>
<!-- Node1 -->
<g id="node1" class="node"><title>Node1</title>
<polygon fill="#bfbfbf" stroke="black" points="0,-0.5 0,-19.5 101,-19.5 101,-0.5 0,-0.5"/>
<text text-anchor="middle" x="50.5" y="-7.5" font-family="Helvetica,sans-Serif" font-size="10.00">INR_CTL_init_proc</text>
</g>
<!-- Node2 -->
<g id="node2" class="node"><title>Node2</title>
<g id="a_node2"><a xlink:href="../../d0/d29/main_8c.html#a1f2bd07aac6fb1d9a27f635dac28669b" target="_top" xlink:title="probe">
<polygon fill="white" stroke="black" points="137,-0.5 137,-19.5 178,-19.5 178,-0.5 137,-0.5"/>
<text text-anchor="middle" x="157.5" y="-7.5" font-family="Helvetica,sans-Serif" font-size="10.00">probe</text>
</a>
</g>
</g>
<!-- Node1&#45;&gt;Node2 -->
<g id="edge1" class="edge"><title>Node1&#45;&gt;Node2</title>
<path fill="none" stroke="midnightblue" d="M111.276,-10C120.472,-10 129.365,-10 136.796,-10"/>
<polygon fill="midnightblue" stroke="midnightblue" points="111.233,-6.5001 101.233,-10 111.233,-13.5001 111.233,-6.5001"/>
</g>
<!-- Node3 -->
<g id="node3" class="node"><title>Node3</title>
<g id="a_node3"><a xlink:href="../../d0/d29/main_8c.html#a28d5841b26c9924ab02d6adb235e9848" target="_top" xlink:title="remove">
<polygon fill="white" stroke="black" points="214,-0.5 214,-19.5 263,-19.5 263,-0.5 214,-0.5"/>
<text text-anchor="middle" x="238.5" y="-7.5" font-family="Helvetica,sans-Serif" font-size="10.00">remove</text>
</a>
</g>
</g>
<!-- Node2&#45;&gt;Node3 -->
<g id="edge2" class="edge"><title>Node2&#45;&gt;Node3</title>
<path fill="none" stroke="midnightblue" d="M188.31,-10C196.797,-10 205.92,-10 213.976,-10"/>
<polygon fill="midnightblue" stroke="midnightblue" points="188.028,-6.5001 178.028,-10 188.028,-13.5001 188.028,-6.5001"/>
</g>
</g>
</svg>
