<?xml version="1.0" encoding="UTF-8" standalone="no"?>
<!DOCTYPE svg PUBLIC "-//W3C//DTD SVG 1.1//EN"
 "http://www.w3.org/Graphics/SVG/1.1/DTD/svg11.dtd">
<!-- Generated by graphviz version 2.36.0 (20140111.2315)
 -->
<!-- Title: INR_CTL_ovs_d Pages: 1 -->
<svg width="392pt" height="104pt"
 viewBox="0.00 0.00 392.00 104.00" xmlns="http://www.w3.org/2000/svg" xmlns:xlink="http://www.w3.org/1999/xlink">
<g id="graph0" class="graph" transform="scale(1 1) rotate(0) translate(4 100)">
<title>INR_CTL_ovs_d</title>
<polygon fill="white" stroke="none" points="-4,4 -4,-100 388,-100 388,4 -4,4"/>
<!-- Node1 -->
<g id="node1" class="node"><title>Node1</title>
<polygon fill="#bfbfbf" stroke="black" points="0,-38.5 0,-57.5 90,-57.5 90,-38.5 0,-38.5"/>
<text text-anchor="middle" x="45" y="-45.5" font-family="Helvetica,sans-Serif" font-size="10.00">INR_CTL_ovs_d</text>
</g>
<!-- Node2 -->
<g id="node2" class="node"><title>Node2</title>
<g id="a_node2"><a xlink:href="../../d2/d08/_i_n_r-ctl_8c.html#a8615615818bea94eac8f6977aad3bdcb" target="_top" xlink:title="INR_CTL_ovs_flow_add">
<polygon fill="white" stroke="black" points="129,-76.5 129,-95.5 253,-95.5 253,-76.5 129,-76.5"/>
<text text-anchor="middle" x="191" y="-83.5" font-family="Helvetica,sans-Serif" font-size="10.00">INR_CTL_ovs_flow_add</text>
</a>
</g>
</g>
<!-- Node1&#45;&gt;Node2 -->
<g id="edge1" class="edge"><title>Node1&#45;&gt;Node2</title>
<path fill="none" stroke="midnightblue" d="M82.3373,-57.589C101.083,-62.5358 124.143,-68.6211 144.107,-73.8892"/>
<polygon fill="midnightblue" stroke="midnightblue" points="143.362,-77.3125 153.924,-76.4799 145.148,-70.5442 143.362,-77.3125"/>
</g>
<!-- Node4 -->
<g id="node4" class="node"><title>Node4</title>
<g id="a_node4"><a xlink:href="../../d2/d08/_i_n_r-ctl_8c.html#aa9ea0b37c656036e774bb8960acb4537" target="_top" xlink:title="INR_CTL_ovs_flow_flush">
<polygon fill="white" stroke="black" points="126.5,-38.5 126.5,-57.5 255.5,-57.5 255.5,-38.5 126.5,-38.5"/>
<text text-anchor="middle" x="191" y="-45.5" font-family="Helvetica,sans-Serif" font-size="10.00">INR_CTL_ovs_flow_flush</text>
</a>
</g>
</g>
<!-- Node1&#45;&gt;Node4 -->
<g id="edge3" class="edge"><title>Node1&#45;&gt;Node4</title>
<path fill="none" stroke="midnightblue" d="M90.3797,-48C98.6655,-48 107.526,-48 116.42,-48"/>
<polygon fill="midnightblue" stroke="midnightblue" points="116.445,-51.5001 126.445,-48 116.445,-44.5001 116.445,-51.5001"/>
</g>
<!-- Node5 -->
<g id="node5" class="node"><title>Node5</title>
<g id="a_node5"><a xlink:href="../../d2/d08/_i_n_r-ctl_8c.html#a1cb437a3e12b9f41466424a454e5b7fd" target="_top" xlink:title="INR_CTL_ovs_flow_rm">
<polygon fill="white" stroke="black" points="131.5,-0.5 131.5,-19.5 250.5,-19.5 250.5,-0.5 131.5,-0.5"/>
<text text-anchor="middle" x="191" y="-7.5" font-family="Helvetica,sans-Serif" font-size="10.00">INR_CTL_ovs_flow_rm</text>
</a>
</g>
</g>
<!-- Node1&#45;&gt;Node5 -->
<g id="edge5" class="edge"><title>Node1&#45;&gt;Node5</title>
<path fill="none" stroke="midnightblue" d="M82.3373,-38.411C101.083,-33.4642 124.143,-27.3789 144.107,-22.1108"/>
<polygon fill="midnightblue" stroke="midnightblue" points="145.148,-25.4558 153.924,-19.5201 143.362,-18.6875 145.148,-25.4558"/>
</g>
<!-- Node3 -->
<g id="node3" class="node"><title>Node3</title>
<g id="a_node3"><a xlink:href="../../d3/d3a/_i_n_r_8c.html#a549bff83219b80ccf76c695682e37707" target="_top" xlink:title="INR_LOG_debug">
<polygon fill="white" stroke="black" points="292,-38.5 292,-57.5 384,-57.5 384,-38.5 292,-38.5"/>
<text text-anchor="middle" x="338" y="-45.5" font-family="Helvetica,sans-Serif" font-size="10.00">INR_LOG_debug</text>
</a>
</g>
</g>
<!-- Node2&#45;&gt;Node3 -->
<g id="edge2" class="edge"><title>Node2&#45;&gt;Node3</title>
<path fill="none" stroke="midnightblue" d="M228.59,-76.411C247.465,-71.4642 270.686,-65.3789 290.788,-60.1108"/>
<polygon fill="midnightblue" stroke="midnightblue" points="291.887,-63.4409 300.673,-57.5201 290.113,-56.6695 291.887,-63.4409"/>
</g>
<!-- Node4&#45;&gt;Node3 -->
<g id="edge4" class="edge"><title>Node4&#45;&gt;Node3</title>
<path fill="none" stroke="midnightblue" d="M255.599,-48C264.255,-48 273.082,-48 281.578,-48"/>
<polygon fill="midnightblue" stroke="midnightblue" points="281.742,-51.5001 291.742,-48 281.742,-44.5001 281.742,-51.5001"/>
</g>
<!-- Node5&#45;&gt;Node3 -->
<g id="edge6" class="edge"><title>Node5&#45;&gt;Node3</title>
<path fill="none" stroke="midnightblue" d="M228.59,-19.589C247.465,-24.5358 270.686,-30.6211 290.788,-35.8892"/>
<polygon fill="midnightblue" stroke="midnightblue" points="290.113,-39.3305 300.673,-38.4799 291.887,-32.5591 290.113,-39.3305"/>
</g>
</g>
</svg>
