<?xml version="1.0" encoding="UTF-8" standalone="no"?>
<!DOCTYPE svg PUBLIC "-//W3C//DTD SVG 1.1//EN"
 "http://www.w3.org/Graphics/SVG/1.1/DTD/svg11.dtd">
<!-- Generated by graphviz version 2.36.0 (20140111.2315)
 -->
<!-- Title: hello_proc_show Pages: 1 -->
<svg width="360pt" height="28pt"
 viewBox="0.00 0.00 360.00 28.00" xmlns="http://www.w3.org/2000/svg" xmlns:xlink="http://www.w3.org/1999/xlink">
<g id="graph0" class="graph" transform="scale(1 1) rotate(0) translate(4 24)">
<title>hello_proc_show</title>
<polygon fill="white" stroke="none" points="-4,4 -4,-24 356,-24 356,4 -4,4"/>
<!-- Node1 -->
<g id="node1" class="node"><title>Node1</title>
<polygon fill="#bfbfbf" stroke="black" points="0.5,-0.5 0.5,-19.5 89.5,-19.5 89.5,-0.5 0.5,-0.5"/>
<text text-anchor="middle" x="45" y="-7.5" font-family="Helvetica,sans-Serif" font-size="10.00">hello_proc_show</text>
</g>
<!-- Node2 -->
<g id="node2" class="node"><title>Node2</title>
<g id="a_node2"><a xlink:href="../../d2/d08/_i_n_r-ctl_8c.html#ac0a10e4772cc85522f7873b08ec83a5d" target="_top" xlink:title="hello_proc_open">
<polygon fill="white" stroke="black" points="126.5,-0.5 126.5,-19.5 213.5,-19.5 213.5,-0.5 126.5,-0.5"/>
<text text-anchor="middle" x="170" y="-7.5" font-family="Helvetica,sans-Serif" font-size="10.00">hello_proc_open</text>
</a>
</g>
</g>
<!-- Node1&#45;&gt;Node2 -->
<g id="edge1" class="edge"><title>Node1&#45;&gt;Node2</title>
<path fill="none" stroke="midnightblue" d="M99.918,-10C108.733,-10 117.758,-10 126.256,-10"/>
<polygon fill="midnightblue" stroke="midnightblue" points="99.7116,-6.5001 89.7115,-10 99.7115,-13.5001 99.7116,-6.5001"/>
</g>
<!-- Node3 -->
<g id="node3" class="node"><title>Node3</title>
<g id="a_node3"><a xlink:href="../../dc/d62/_i_n_r-ctl_8h.html#a53b5a28c7c3b608c419eb5f9da6f197b" target="_top" xlink:title="dev PCI&#45;device ">
<polygon fill="white" stroke="black" points="250.5,-0.5 250.5,-19.5 351.5,-19.5 351.5,-0.5 250.5,-0.5"/>
<text text-anchor="middle" x="301" y="-7.5" font-family="Helvetica,sans-Serif" font-size="10.00">INR_CTL_init_proc</text>
</a>
</g>
</g>
<!-- Node2&#45;&gt;Node3 -->
<g id="edge2" class="edge"><title>Node2&#45;&gt;Node3</title>
<path fill="none" stroke="midnightblue" d="M223.724,-10C232.504,-10 241.585,-10 250.287,-10"/>
<polygon fill="midnightblue" stroke="midnightblue" points="223.597,-6.5001 213.597,-10 223.597,-13.5001 223.597,-6.5001"/>
</g>
</g>
</svg>
