<?xml version="1.0" encoding="UTF-8" standalone="no"?>
<!DOCTYPE svg PUBLIC "-//W3C//DTD SVG 1.1//EN"
 "http://www.w3.org/Graphics/SVG/1.1/DTD/svg11.dtd">
<!-- Generated by graphviz version 2.36.0 (20140111.2315)
 -->
<!-- Title: INR_CTL_init_ovs Pages: 1 -->
<svg width="526pt" height="104pt"
 viewBox="0.00 0.00 526.00 104.00" xmlns="http://www.w3.org/2000/svg" xmlns:xlink="http://www.w3.org/1999/xlink">
<g id="graph0" class="graph" transform="scale(1 1) rotate(0) translate(4 100)">
<title>INR_CTL_init_ovs</title>
<polygon fill="white" stroke="none" points="-4,4 -4,-100 522,-100 522,4 -4,4"/>
<!-- Node1 -->
<g id="node1" class="node"><title>Node1</title>
<polygon fill="#bfbfbf" stroke="black" points="0,-38.5 0,-57.5 98,-57.5 98,-38.5 0,-38.5"/>
<text text-anchor="middle" x="49" y="-45.5" font-family="Helvetica,sans-Serif" font-size="10.00">INR_CTL_init_ovs</text>
</g>
<!-- Node2 -->
<g id="node2" class="node"><title>Node2</title>
<g id="a_node2"><a xlink:href="../../d2/d08/_i_n_r-ctl_8c.html#a9c189ca74efb7ebe5f93ab70e6bed1bf" target="_top" xlink:title="INR_CTL_ovs_d">
<polygon fill="white" stroke="black" points="134,-38.5 134,-57.5 224,-57.5 224,-38.5 134,-38.5"/>
<text text-anchor="middle" x="179" y="-45.5" font-family="Helvetica,sans-Serif" font-size="10.00">INR_CTL_ovs_d</text>
</a>
</g>
</g>
<!-- Node1&#45;&gt;Node2 -->
<g id="edge1" class="edge"><title>Node1&#45;&gt;Node2</title>
<path fill="none" stroke="midnightblue" d="M98.0266,-48C106.399,-48 115.16,-48 123.687,-48"/>
<polygon fill="midnightblue" stroke="midnightblue" points="123.929,-51.5001 133.929,-48 123.929,-44.5001 123.929,-51.5001"/>
</g>
<!-- Node3 -->
<g id="node3" class="node"><title>Node3</title>
<g id="a_node3"><a xlink:href="../../d2/d08/_i_n_r-ctl_8c.html#a8615615818bea94eac8f6977aad3bdcb" target="_top" xlink:title="INR_CTL_ovs_flow_add">
<polygon fill="white" stroke="black" points="263,-76.5 263,-95.5 387,-95.5 387,-76.5 263,-76.5"/>
<text text-anchor="middle" x="325" y="-83.5" font-family="Helvetica,sans-Serif" font-size="10.00">INR_CTL_ovs_flow_add</text>
</a>
</g>
</g>
<!-- Node2&#45;&gt;Node3 -->
<g id="edge2" class="edge"><title>Node2&#45;&gt;Node3</title>
<path fill="none" stroke="midnightblue" d="M216.337,-57.589C235.083,-62.5358 258.143,-68.6211 278.107,-73.8892"/>
<polygon fill="midnightblue" stroke="midnightblue" points="277.362,-77.3125 287.924,-76.4799 279.148,-70.5442 277.362,-77.3125"/>
</g>
<!-- Node5 -->
<g id="node5" class="node"><title>Node5</title>
<g id="a_node5"><a xlink:href="../../d2/d08/_i_n_r-ctl_8c.html#a1cb437a3e12b9f41466424a454e5b7fd" target="_top" xlink:title="INR_CTL_ovs_flow_rm">
<polygon fill="white" stroke="black" points="265.5,-38.5 265.5,-57.5 384.5,-57.5 384.5,-38.5 265.5,-38.5"/>
<text text-anchor="middle" x="325" y="-45.5" font-family="Helvetica,sans-Serif" font-size="10.00">INR_CTL_ovs_flow_rm</text>
</a>
</g>
</g>
<!-- Node2&#45;&gt;Node5 -->
<g id="edge4" class="edge"><title>Node2&#45;&gt;Node5</title>
<path fill="none" stroke="midnightblue" d="M224.38,-48C234.212,-48 244.854,-48 255.398,-48"/>
<polygon fill="midnightblue" stroke="midnightblue" points="255.448,-51.5001 265.448,-48 255.448,-44.5001 255.448,-51.5001"/>
</g>
<!-- Node6 -->
<g id="node6" class="node"><title>Node6</title>
<g id="a_node6"><a xlink:href="../../d2/d08/_i_n_r-ctl_8c.html#aa9ea0b37c656036e774bb8960acb4537" target="_top" xlink:title="INR_CTL_ovs_flow_flush">
<polygon fill="white" stroke="black" points="260.5,-0.5 260.5,-19.5 389.5,-19.5 389.5,-0.5 260.5,-0.5"/>
<text text-anchor="middle" x="325" y="-7.5" font-family="Helvetica,sans-Serif" font-size="10.00">INR_CTL_ovs_flow_flush</text>
</a>
</g>
</g>
<!-- Node2&#45;&gt;Node6 -->
<g id="edge6" class="edge"><title>Node2&#45;&gt;Node6</title>
<path fill="none" stroke="midnightblue" d="M216.337,-38.411C235.083,-33.4642 258.143,-27.3789 278.107,-22.1108"/>
<polygon fill="midnightblue" stroke="midnightblue" points="279.148,-25.4558 287.924,-19.5201 277.362,-18.6875 279.148,-25.4558"/>
</g>
<!-- Node4 -->
<g id="node4" class="node"><title>Node4</title>
<g id="a_node4"><a xlink:href="../../d3/d3a/_i_n_r_8c.html#a549bff83219b80ccf76c695682e37707" target="_top" xlink:title="INR_LOG_debug">
<polygon fill="white" stroke="black" points="426,-38.5 426,-57.5 518,-57.5 518,-38.5 426,-38.5"/>
<text text-anchor="middle" x="472" y="-45.5" font-family="Helvetica,sans-Serif" font-size="10.00">INR_LOG_debug</text>
</a>
</g>
</g>
<!-- Node3&#45;&gt;Node4 -->
<g id="edge3" class="edge"><title>Node3&#45;&gt;Node4</title>
<path fill="none" stroke="midnightblue" d="M362.59,-76.411C381.465,-71.4642 404.686,-65.3789 424.788,-60.1108"/>
<polygon fill="midnightblue" stroke="midnightblue" points="425.887,-63.4409 434.673,-57.5201 424.113,-56.6695 425.887,-63.4409"/>
</g>
<!-- Node5&#45;&gt;Node4 -->
<g id="edge5" class="edge"><title>Node5&#45;&gt;Node4</title>
<path fill="none" stroke="midnightblue" d="M384.559,-48C394.709,-48 405.239,-48 415.31,-48"/>
<polygon fill="midnightblue" stroke="midnightblue" points="415.604,-51.5001 425.604,-48 415.604,-44.5001 415.604,-51.5001"/>
</g>
<!-- Node6&#45;&gt;Node4 -->
<g id="edge7" class="edge"><title>Node6&#45;&gt;Node4</title>
<path fill="none" stroke="midnightblue" d="M362.59,-19.589C381.465,-24.5358 404.686,-30.6211 424.788,-35.8892"/>
<polygon fill="midnightblue" stroke="midnightblue" points="424.113,-39.3305 434.673,-38.4799 425.887,-32.5591 424.113,-39.3305"/>
</g>
</g>
</svg>
