<?xml version="1.0" encoding="UTF-8" standalone="no"?>
<!DOCTYPE svg PUBLIC "-//W3C//DTD SVG 1.1//EN"
 "http://www.w3.org/Graphics/SVG/1.1/DTD/svg11.dtd">
<!-- Generated by graphviz version 2.38.0 (20140413.2041)
 -->
<!-- Title: INR&#45;NAPI.h Pages: 1 -->
<svg width="160pt" height="84pt"
 viewBox="0.00 0.00 159.50 84.00" xmlns="http://www.w3.org/2000/svg" xmlns:xlink="http://www.w3.org/1999/xlink">
<g id="graph0" class="graph" transform="scale(1 1) rotate(0) translate(4 80)">
<title>INR&#45;NAPI.h</title>
<polygon fill="white" stroke="none" points="-4,4 -4,-80 155.5,-80 155.5,4 -4,4"/>
<!-- Node1 -->
<g id="node1" class="node"><title>Node1</title>
<polygon fill="#bfbfbf" stroke="black" points="42,-56.5 42,-75.5 112,-75.5 112,-56.5 42,-56.5"/>
<text text-anchor="middle" x="77" y="-63.5" font-family="Helvetica,sans-Serif" font-size="10.00">INR&#45;NAPI.h</text>
</g>
<!-- Node2 -->
<g id="node2" class="node"><title>Node2</title>
<g id="a_node2"><a xlink:href="../../d1/d67/_i_n_r-_n_a_p_i_8c.html" target="_top" xlink:title="Functions for NewNetworkAPI. ">
<polygon fill="white" stroke="black" points="0,-0.5 0,-19.5 70,-19.5 70,-0.5 0,-0.5"/>
<text text-anchor="middle" x="35" y="-7.5" font-family="Helvetica,sans-Serif" font-size="10.00">INR&#45;NAPI.c</text>
</a>
</g>
</g>
<!-- Node1&#45;&gt;Node2 -->
<g id="edge1" class="edge"><title>Node1&#45;&gt;Node2</title>
<path fill="none" stroke="midnightblue" d="M63.8898,-48.144C56.5722,-38.7357 47.7591,-27.4046 41.8064,-19.7511"/>
<polygon fill="midnightblue" stroke="midnightblue" points="61.1624,-50.3383 70.0646,-56.083 66.6878,-46.0406 61.1624,-50.3383"/>
</g>
<!-- Node3 -->
<g id="node3" class="node"><title>Node3</title>
<g id="a_node3"><a xlink:href="../../dc/dc8/_i_n_r-_p_c_i_8c.html" target="_top" xlink:title="Functions for PCI communication. ">
<polygon fill="white" stroke="black" points="88.5,-0.5 88.5,-19.5 151.5,-19.5 151.5,-0.5 88.5,-0.5"/>
<text text-anchor="middle" x="120" y="-7.5" font-family="Helvetica,sans-Serif" font-size="10.00">INR&#45;PCI.c</text>
</a>
</g>
</g>
<!-- Node1&#45;&gt;Node3 -->
<g id="edge2" class="edge"><title>Node1&#45;&gt;Node3</title>
<path fill="none" stroke="midnightblue" d="M90.4224,-48.144C97.9142,-38.7357 106.937,-27.4046 113.032,-19.7511"/>
<polygon fill="midnightblue" stroke="midnightblue" points="87.5919,-46.0799 84.1006,-56.083 93.0679,-50.4404 87.5919,-46.0799"/>
</g>
</g>
</svg>
