<?xml version="1.0" encoding="UTF-8" standalone="no"?>
<!DOCTYPE svg PUBLIC "-//W3C//DTD SVG 1.1//EN"
 "http://www.w3.org/Graphics/SVG/1.1/DTD/svg11.dtd">
<!-- Generated by graphviz version 2.38.0 (20140413.2041)
 -->
<!-- Title: INR&#45;NAPI.c Pages: 1 -->
<svg width="1349pt" height="84pt"
 viewBox="0.00 0.00 1349.00 84.00" xmlns="http://www.w3.org/2000/svg" xmlns:xlink="http://www.w3.org/1999/xlink">
<g id="graph0" class="graph" transform="scale(1 1) rotate(0) translate(4 80)">
<title>INR&#45;NAPI.c</title>
<polygon fill="white" stroke="none" points="-4,4 -4,-80 1345,-80 1345,4 -4,4"/>
<!-- Node1 -->
<g id="node1" class="node"><title>Node1</title>
<polygon fill="#bfbfbf" stroke="black" points="661,-56.5 661,-75.5 731,-75.5 731,-56.5 661,-56.5"/>
<text text-anchor="middle" x="696" y="-63.5" font-family="Helvetica,sans-Serif" font-size="10.00">INR&#45;NAPI.c</text>
</g>
<!-- Node2 -->
<g id="node2" class="node"><title>Node2</title>
<polygon fill="white" stroke="#bfbfbf" points="0,-0.5 0,-19.5 74,-19.5 74,-0.5 0,-0.5"/>
<text text-anchor="middle" x="37" y="-7.5" font-family="Helvetica,sans-Serif" font-size="10.00">linux/kernel.h</text>
</g>
<!-- Node1&#45;&gt;Node2 -->
<g id="edge1" class="edge"><title>Node1&#45;&gt;Node2</title>
<path fill="none" stroke="midnightblue" d="M660.945,-63.8987C568.339,-60.6764 309.403,-49.6398 84.1182,-19.9886"/>
<polygon fill="midnightblue" stroke="midnightblue" points="84.4683,-16.5044 74.0938,-18.6538 83.5443,-23.4432 84.4683,-16.5044"/>
</g>
<!-- Node3 -->
<g id="node3" class="node"><title>Node3</title>
<polygon fill="white" stroke="#bfbfbf" points="92,-0.5 92,-19.5 172,-19.5 172,-0.5 92,-0.5"/>
<text text-anchor="middle" x="132" y="-7.5" font-family="Helvetica,sans-Serif" font-size="10.00">linux/module.h</text>
</g>
<!-- Node1&#45;&gt;Node3 -->
<g id="edge2" class="edge"><title>Node1&#45;&gt;Node3</title>
<path fill="none" stroke="midnightblue" d="M660.905,-63.0807C578.911,-58.3513 368.241,-44.7818 182.033,-20.017"/>
<polygon fill="midnightblue" stroke="midnightblue" points="182.439,-16.5402 172.062,-18.6769 181.507,-23.4778 182.439,-16.5402"/>
</g>
<!-- Node4 -->
<g id="node4" class="node"><title>Node4</title>
<polygon fill="white" stroke="#bfbfbf" points="190.5,-0.5 190.5,-19.5 251.5,-19.5 251.5,-0.5 190.5,-0.5"/>
<text text-anchor="middle" x="221" y="-7.5" font-family="Helvetica,sans-Serif" font-size="10.00">linux/pci.h</text>
</g>
<!-- Node1&#45;&gt;Node4 -->
<g id="edge3" class="edge"><title>Node1&#45;&gt;Node4</title>
<path fill="none" stroke="midnightblue" d="M660.763,-62.8506C587.951,-58.0902 415.499,-45.1683 261.688,-20.104"/>
<polygon fill="midnightblue" stroke="midnightblue" points="262.022,-16.6118 251.585,-18.4355 260.881,-23.5182 262.022,-16.6118"/>
</g>
<!-- Node5 -->
<g id="node5" class="node"><title>Node5</title>
<polygon fill="white" stroke="#bfbfbf" points="269.5,-0.5 269.5,-19.5 330.5,-19.5 330.5,-0.5 269.5,-0.5"/>
<text text-anchor="middle" x="300" y="-7.5" font-family="Helvetica,sans-Serif" font-size="10.00">linux/init.h</text>
</g>
<!-- Node1&#45;&gt;Node5 -->
<g id="edge4" class="edge"><title>Node1&#45;&gt;Node5</title>
<path fill="none" stroke="midnightblue" d="M660.857,-61.7642C598.335,-55.7497 463.519,-41.6192 340.559,-20.1314"/>
<polygon fill="midnightblue" stroke="midnightblue" points="341.053,-16.6647 330.597,-18.3695 339.834,-23.5577 341.053,-16.6647"/>
</g>
<!-- Node6 -->
<g id="node6" class="node"><title>Node6</title>
<polygon fill="white" stroke="#bfbfbf" points="348.5,-0.5 348.5,-19.5 431.5,-19.5 431.5,-0.5 348.5,-0.5"/>
<text text-anchor="middle" x="390" y="-7.5" font-family="Helvetica,sans-Serif" font-size="10.00">linux/interrupt.h</text>
</g>
<!-- Node1&#45;&gt;Node6 -->
<g id="edge5" class="edge"><title>Node1&#45;&gt;Node6</title>
<path fill="none" stroke="midnightblue" d="M660.794,-58.8583C613.315,-50.5654 525.849,-35.2521 441.715,-20.3002"/>
<polygon fill="midnightblue" stroke="midnightblue" points="442.198,-16.8312 431.74,-18.5263 440.972,-23.7231 442.198,-16.8312"/>
</g>
<!-- Node7 -->
<g id="node7" class="node"><title>Node7</title>
<polygon fill="white" stroke="#bfbfbf" points="449.5,-0.5 449.5,-19.5 520.5,-19.5 520.5,-0.5 449.5,-0.5"/>
<text text-anchor="middle" x="485" y="-7.5" font-family="Helvetica,sans-Serif" font-size="10.00">linux/delay.h</text>
</g>
<!-- Node1&#45;&gt;Node7 -->
<g id="edge6" class="edge"><title>Node1&#45;&gt;Node7</title>
<path fill="none" stroke="midnightblue" d="M662.566,-56.4435C626.144,-47.1221 567.77,-32.1828 527.971,-21.9972"/>
<polygon fill="midnightblue" stroke="midnightblue" points="528.833,-18.6051 518.277,-19.5164 527.097,-25.3866 528.833,-18.6051"/>
</g>
<!-- Node8 -->
<g id="node8" class="node"><title>Node8</title>
<polygon fill="white" stroke="#bfbfbf" points="539,-0.5 539,-19.5 629,-19.5 629,-0.5 539,-0.5"/>
<text text-anchor="middle" x="584" y="-7.5" font-family="Helvetica,sans-Serif" font-size="10.00">linux/netdevice.h</text>
</g>
<!-- Node1&#45;&gt;Node8 -->
<g id="edge7" class="edge"><title>Node1&#45;&gt;Node8</title>
<path fill="none" stroke="midnightblue" d="M678.005,-56.324C659.962,-47.6247 631.953,-34.1202 611.197,-24.113"/>
<polygon fill="midnightblue" stroke="midnightblue" points="612.478,-20.8449 601.95,-19.6545 609.438,-27.1502 612.478,-20.8449"/>
</g>
<!-- Node9 -->
<g id="node9" class="node"><title>Node9</title>
<polygon fill="white" stroke="#bfbfbf" points="647,-0.5 647,-19.5 745,-19.5 745,-0.5 647,-0.5"/>
<text text-anchor="middle" x="696" y="-7.5" font-family="Helvetica,sans-Serif" font-size="10.00">linux/etherdevice.h</text>
</g>
<!-- Node1&#45;&gt;Node9 -->
<g id="edge8" class="edge"><title>Node1&#45;&gt;Node9</title>
<path fill="none" stroke="midnightblue" d="M696,-56.083C696,-49.0059 696,-38.8611 696,-29.9865"/>
<polygon fill="midnightblue" stroke="midnightblue" points="699.5,-29.751 696,-19.7511 692.5,-29.7511 699.5,-29.751"/>
</g>
<!-- Node10 -->
<g id="node10" class="node"><title>Node10</title>
<polygon fill="white" stroke="#bfbfbf" points="763,-0.5 763,-19.5 843,-19.5 843,-0.5 763,-0.5"/>
<text text-anchor="middle" x="803" y="-7.5" font-family="Helvetica,sans-Serif" font-size="10.00">linux/kthread.h</text>
</g>
<!-- Node1&#45;&gt;Node10 -->
<g id="edge9" class="edge"><title>Node1&#45;&gt;Node10</title>
<path fill="none" stroke="midnightblue" d="M713.191,-56.324C730.351,-47.6641 756.946,-34.2424 776.747,-24.249"/>
<polygon fill="midnightblue" stroke="midnightblue" points="778.501,-27.2847 785.851,-19.6545 775.347,-21.0354 778.501,-27.2847"/>
</g>
<!-- Node11 -->
<g id="node11" class="node"><title>Node11</title>
<polygon fill="white" stroke="#bfbfbf" points="861.5,-0.5 861.5,-19.5 936.5,-19.5 936.5,-0.5 861.5,-0.5"/>
<text text-anchor="middle" x="899" y="-7.5" font-family="Helvetica,sans-Serif" font-size="10.00">linux/skbuff.h</text>
</g>
<!-- Node1&#45;&gt;Node11 -->
<g id="edge10" class="edge"><title>Node1&#45;&gt;Node11</title>
<path fill="none" stroke="midnightblue" d="M728.166,-56.4435C763.059,-47.1616 818.893,-32.3093 857.171,-22.127"/>
<polygon fill="midnightblue" stroke="midnightblue" points="858.22,-25.4696 866.985,-19.5164 856.421,-18.7048 858.22,-25.4696"/>
</g>
<!-- Node12 -->
<g id="node12" class="node"><title>Node12</title>
<polygon fill="white" stroke="#bfbfbf" points="955,-0.5 955,-19.5 1029,-19.5 1029,-0.5 955,-0.5"/>
<text text-anchor="middle" x="992" y="-7.5" font-family="Helvetica,sans-Serif" font-size="10.00">linux/unistd.h</text>
</g>
<!-- Node1&#45;&gt;Node12 -->
<g id="edge11" class="edge"><title>Node1&#45;&gt;Node12</title>
<path fill="none" stroke="midnightblue" d="M731.222,-58.8329C777.759,-50.647 862.544,-35.6022 944.832,-20.198"/>
<polygon fill="midnightblue" stroke="midnightblue" points="945.669,-23.6021 954.852,-18.318 944.378,-16.7221 945.669,-23.6021"/>
</g>
<!-- Node13 -->
<g id="node13" class="node"><title>Node13</title>
<g id="a_node13"><a xlink:href="../../db/d87/_i_n_r_8h.html" target="_top" xlink:title="basic settings and definitions ">
<polygon fill="white" stroke="black" points="1047.5,-0.5 1047.5,-19.5 1090.5,-19.5 1090.5,-0.5 1047.5,-0.5"/>
<text text-anchor="middle" x="1069" y="-7.5" font-family="Helvetica,sans-Serif" font-size="10.00">INR.h</text>
</a>
</g>
</g>
<!-- Node1&#45;&gt;Node13 -->
<g id="edge12" class="edge"><title>Node1&#45;&gt;Node13</title>
<path fill="none" stroke="midnightblue" d="M731.252,-62.1396C791.9,-56.8354 919.969,-43.9583 1037.54,-19.7829"/>
<polygon fill="midnightblue" stroke="midnightblue" points="1038.35,-23.1881 1047.43,-17.7171 1036.92,-16.336 1038.35,-23.1881"/>
</g>
<!-- Node14 -->
<g id="node14" class="node"><title>Node14</title>
<g id="a_node14"><a xlink:href="../../dd/de5/_i_n_r-_n_w_8h.html" target="_top" xlink:title="settings and definitions Netork communication ">
<polygon fill="white" stroke="black" points="1108.5,-0.5 1108.5,-19.5 1171.5,-19.5 1171.5,-0.5 1108.5,-0.5"/>
<text text-anchor="middle" x="1140" y="-7.5" font-family="Helvetica,sans-Serif" font-size="10.00">INR&#45;NW.h</text>
</a>
</g>
</g>
<!-- Node1&#45;&gt;Node14 -->
<g id="edge13" class="edge"><title>Node1&#45;&gt;Node14</title>
<path fill="none" stroke="midnightblue" d="M731.036,-62.4076C799.684,-57.0466 956.857,-43.3874 1098.05,-20.1785"/>
<polygon fill="midnightblue" stroke="midnightblue" points="1098.9,-23.5857 1108.19,-18.4909 1097.75,-16.6807 1098.9,-23.5857"/>
</g>
<!-- Node15 -->
<g id="node15" class="node"><title>Node15</title>
<g id="a_node15"><a xlink:href="../../df/df2/_i_n_r-_p_c_i_8h.html" target="_top" xlink:title="settings and definitions PCI communication ">
<polygon fill="white" stroke="black" points="1189.5,-0.5 1189.5,-19.5 1252.5,-19.5 1252.5,-0.5 1189.5,-0.5"/>
<text text-anchor="middle" x="1221" y="-7.5" font-family="Helvetica,sans-Serif" font-size="10.00">INR&#45;PCI.h</text>
</a>
</g>
</g>
<!-- Node1&#45;&gt;Node15 -->
<g id="edge14" class="edge"><title>Node1&#45;&gt;Node15</title>
<path fill="none" stroke="midnightblue" d="M731.189,-63.2921C809.863,-59.141 1006.08,-46.9397 1179.14,-20.1227"/>
<polygon fill="midnightblue" stroke="midnightblue" points="1179.86,-23.5533 1189.19,-18.5444 1178.77,-16.6381 1179.86,-23.5533"/>
</g>
<!-- Node16 -->
<g id="node16" class="node"><title>Node16</title>
<g id="a_node16"><a xlink:href="../../d6/d03/_i_n_r-_n_a_p_i_8h.html" target="_top" xlink:title="settings and definitions NAPI ">
<polygon fill="white" stroke="black" points="1271,-0.5 1271,-19.5 1341,-19.5 1341,-0.5 1271,-0.5"/>
<text text-anchor="middle" x="1306" y="-7.5" font-family="Helvetica,sans-Serif" font-size="10.00">INR&#45;NAPI.h</text>
</a>
</g>
</g>
<!-- Node1&#45;&gt;Node16 -->
<g id="edge15" class="edge"><title>Node1&#45;&gt;Node16</title>
<path fill="none" stroke="midnightblue" d="M731.269,-63.6978C819.076,-60.136 1054.65,-48.6189 1260.44,-20.0617"/>
<polygon fill="midnightblue" stroke="midnightblue" points="1261.11,-23.502 1270.52,-18.6449 1260.13,-16.5701 1261.11,-23.502"/>
</g>
</g>
</svg>
