<?xml version="1.0" encoding="UTF-8" standalone="no"?>
<!DOCTYPE svg PUBLIC "-//W3C//DTD SVG 1.1//EN"
 "http://www.w3.org/Graphics/SVG/1.1/DTD/svg11.dtd">
<!-- Generated by graphviz version 2.38.0 (20140413.2041)
 -->
<!-- Title: INR_STATUS_set Pages: 1 -->
<!--zoomable 145 -->
<svg id="main" version="1.1" xmlns="http://www.w3.org/2000/svg" xmlns:xlink="http://www.w3.org/1999/xlink" xml:space="preserve" onload="init(evt)">
<style type="text/css"><![CDATA[
.edge:hover path { stroke: red; }
.edge:hover polygon { stroke: red; fill: red; }
]]></style>
<script type="text/javascript"><![CDATA[
var edges = document.getElementsByTagName('g');
if (edges && edges.length) {
  for (var i=0;i<edges.length;i++) {
    if (edges[i].id.substr(0,4)=='edge') {
      edges[i].setAttribute('class','edge');
    }
  }
}
]]></script>
        <defs>
                <circle id="rim" cx="0" cy="0" r="7"/>
                <circle id="rim2" cx="0" cy="0" r="3.5"/>
                <g id="zoomPlus">
                        <use xlink:href="#rim" fill="#404040">
                                <set attributeName="fill" to="#808080" begin="zoomplus.mouseover" end="zoomplus.mouseout"/>
                        </use>
                        <path d="M-4,0h8M0,-4v8" fill="none" stroke="white" stroke-width="1.5" pointer-events="none"/>
                </g>
                <g id="zoomMin">
                        <use xlink:href="#rim" fill="#404040">
                                <set attributeName="fill" to="#808080" begin="zoomminus.mouseover" end="zoomminus.mouseout"/>
                        </use>
                        <path d="M-4,0h8" fill="none" stroke="white" stroke-width="1.5" pointer-events="none"/>
                </g>
                <g id="dirArrow">
                        <path fill="none" stroke="white" stroke-width="1.5" d="M0,-3.0v7 M-2.5,-0.5L0,-3.0L2.5,-0.5"/>
                </g>
               <g id="resetDef">
                       <use xlink:href="#rim2" fill="#404040">
                               <set attributeName="fill" to="#808080" begin="reset.mouseover" end="reset.mouseout"/>
                       </use>
               </g>
        </defs>

<script type="text/javascript">
var viewWidth = 514;
var viewHeight = 145;
var sectionId = 'dynsection-6';
</script>
<script xlink:href="../../svgpan.js"/>
<svg id="graph" class="graph">
<g id="viewport">
<title>INR_STATUS_set</title>
<polygon fill="white" stroke="none" points="-4,4 -4,-141.265 510,-141.265 510,4 -4,4"/>
<!-- Node1 -->
<g id="node1" class="node"><title>Node1</title>
<polygon fill="#bfbfbf" stroke="black" points="0,-59.8855 0,-78.8855 98,-78.8855 98,-59.8855 0,-59.8855"/>
<text text-anchor="middle" x="49" y="-66.8855" font-family="Helvetica,sans-Serif" font-size="10.00">INR_STATUS_set</text>
</g>
<!-- Node2 -->
<g id="node2" class="node"><title>Node2</title>
<g id="a_node2"><a xlink:href="../../df/df2/_i_n_r-_p_c_i_8h.html#a63ce64abfe6217358041ed07e918a398" target="_top" xlink:title="INR_init_drv">
<polygon fill="white" stroke="black" points="273,-59.8855 273,-78.8855 344,-78.8855 344,-59.8855 273,-59.8855"/>
<text text-anchor="middle" x="308.5" y="-66.8855" font-family="Helvetica,sans-Serif" font-size="10.00">INR_init_drv</text>
</a>
</g>
</g>
<!-- Node1&#45;&gt;Node2 -->
<g id="edge1" class="edge"><title>Node1&#45;&gt;Node2</title>
<path fill="none" stroke="midnightblue" d="M67.2465,-85.7196C83.1629,-99.5835 108.177,-118.451 134,-126.385 177.759,-139.831 193.842,-141.65 237,-126.385 263.71,-116.939 287.713,-92.5965 299.611,-78.9759"/>
<polygon fill="midnightblue" stroke="midnightblue" points="69.5695,-83.1015 59.7965,-79.0102 64.8851,-88.3031 69.5695,-83.1015"/>
</g>
<!-- Node3 -->
<g id="node3" class="node"><title>Node3</title>
<g id="a_node3"><a xlink:href="../../d0/d29/main_8c.html#a1f2bd07aac6fb1d9a27f635dac28669b" target="_top" xlink:title="probe">
<polygon fill="white" stroke="black" points="380,-21.8855 380,-40.8855 421,-40.8855 421,-21.8855 380,-21.8855"/>
<text text-anchor="middle" x="400.5" y="-28.8855" font-family="Helvetica,sans-Serif" font-size="10.00">probe</text>
</a>
</g>
</g>
<!-- Node1&#45;&gt;Node3 -->
<g id="edge10" class="edge"><title>Node1&#45;&gt;Node3</title>
<path fill="none" stroke="midnightblue" d="M67.2465,-53.0514C83.1629,-39.1875 108.177,-20.3196 134,-12.3855 222.568,14.8275 335.262,-12.2409 379.963,-25.2565"/>
<polygon fill="midnightblue" stroke="midnightblue" points="64.8851,-50.4679 59.7965,-59.7608 69.5695,-55.6695 64.8851,-50.4679"/>
</g>
<!-- Node5 -->
<g id="node5" class="node"><title>Node5</title>
<g id="a_node5"><a xlink:href="../../dc/dc8/_i_n_r-_p_c_i_8c.html#af7926b059a794041b841cda82ea84ca9" target="_top" xlink:title="INR_int_enable">
<polygon fill="white" stroke="black" points="143.5,-97.8855 143.5,-116.885 227.5,-116.885 227.5,-97.8855 143.5,-97.8855"/>
<text text-anchor="middle" x="185.5" y="-104.885" font-family="Helvetica,sans-Serif" font-size="10.00">INR_int_enable</text>
</a>
</g>
</g>
<!-- Node1&#45;&gt;Node5 -->
<g id="edge4" class="edge"><title>Node1&#45;&gt;Node5</title>
<path fill="none" stroke="midnightblue" d="M93.6004,-81.7038C112.08,-86.9248 133.289,-92.9171 150.571,-97.7996"/>
<polygon fill="midnightblue" stroke="midnightblue" points="94.515,-78.3253 83.94,-78.9745 92.6117,-85.0616 94.515,-78.3253"/>
</g>
<!-- Node6 -->
<g id="node6" class="node"><title>Node6</title>
<g id="a_node6"><a xlink:href="../../dc/dc8/_i_n_r-_p_c_i_8c.html#a7b6c1bb3d3c608c7a226531d7a6f0965" target="_top" xlink:title="INR_RX_RING_init">
<polygon fill="white" stroke="black" points="134,-59.8855 134,-78.8855 237,-78.8855 237,-59.8855 134,-59.8855"/>
<text text-anchor="middle" x="185.5" y="-66.8855" font-family="Helvetica,sans-Serif" font-size="10.00">INR_RX_RING_init</text>
</a>
</g>
</g>
<!-- Node1&#45;&gt;Node6 -->
<g id="edge6" class="edge"><title>Node1&#45;&gt;Node6</title>
<path fill="none" stroke="midnightblue" d="M108.414,-69.3855C116.914,-69.3855 125.607,-69.3855 133.934,-69.3855"/>
<polygon fill="midnightblue" stroke="midnightblue" points="108.178,-65.8856 98.1777,-69.3855 108.178,-72.8856 108.178,-65.8856"/>
</g>
<!-- Node7 -->
<g id="node7" class="node"><title>Node7</title>
<g id="a_node7"><a xlink:href="../../dc/dc8/_i_n_r-_p_c_i_8c.html#a30bfb6d989886092253041816a123bb4" target="_top" xlink:title="INR_TX_RING_init">
<polygon fill="white" stroke="black" points="135,-21.8855 135,-40.8855 236,-40.8855 236,-21.8855 135,-21.8855"/>
<text text-anchor="middle" x="185.5" y="-28.8855" font-family="Helvetica,sans-Serif" font-size="10.00">INR_TX_RING_init</text>
</a>
</g>
</g>
<!-- Node1&#45;&gt;Node7 -->
<g id="edge8" class="edge"><title>Node1&#45;&gt;Node7</title>
<path fill="none" stroke="midnightblue" d="M93.6004,-57.0672C112.08,-51.8462 133.289,-45.8539 150.571,-40.9714"/>
<polygon fill="midnightblue" stroke="midnightblue" points="92.6117,-53.7094 83.94,-59.7965 94.515,-60.4457 92.6117,-53.7094"/>
</g>
<!-- Node2&#45;&gt;Node3 -->
<g id="edge2" class="edge"><title>Node2&#45;&gt;Node3</title>
<path fill="none" stroke="midnightblue" d="M341.607,-55.8291C354.381,-50.4358 368.668,-44.4034 379.853,-39.6807"/>
<polygon fill="midnightblue" stroke="midnightblue" points="340.062,-52.6823 332.211,-59.7965 342.785,-59.1311 340.062,-52.6823"/>
</g>
<!-- Node4 -->
<g id="node4" class="node"><title>Node4</title>
<g id="a_node4"><a xlink:href="../../d0/d29/main_8c.html#a28d5841b26c9924ab02d6adb235e9848" target="_top" xlink:title="remove">
<polygon fill="white" stroke="black" points="457,-21.8855 457,-40.8855 506,-40.8855 506,-21.8855 457,-21.8855"/>
<text text-anchor="middle" x="481.5" y="-28.8855" font-family="Helvetica,sans-Serif" font-size="10.00">remove</text>
</a>
</g>
</g>
<!-- Node3&#45;&gt;Node4 -->
<g id="edge3" class="edge"><title>Node3&#45;&gt;Node4</title>
<path fill="none" stroke="midnightblue" d="M431.31,-31.3855C439.797,-31.3855 448.92,-31.3855 456.976,-31.3855"/>
<polygon fill="midnightblue" stroke="midnightblue" points="431.028,-27.8856 421.028,-31.3855 431.028,-34.8856 431.028,-27.8856"/>
</g>
<!-- Node5&#45;&gt;Node2 -->
<g id="edge5" class="edge"><title>Node5&#45;&gt;Node2</title>
<path fill="none" stroke="midnightblue" d="M226.877,-94.7051C243.226,-89.5707 261.788,-83.7414 276.976,-78.9714"/>
<polygon fill="midnightblue" stroke="midnightblue" points="225.525,-91.461 217.033,-97.7965 227.623,-98.1394 225.525,-91.461"/>
</g>
<!-- Node6&#45;&gt;Node2 -->
<g id="edge7" class="edge"><title>Node6&#45;&gt;Node2</title>
<path fill="none" stroke="midnightblue" d="M247.361,-69.3855C256.123,-69.3855 264.875,-69.3855 272.882,-69.3855"/>
<polygon fill="midnightblue" stroke="midnightblue" points="247.114,-65.8856 237.114,-69.3855 247.114,-72.8856 247.114,-65.8856"/>
</g>
<!-- Node7&#45;&gt;Node2 -->
<g id="edge9" class="edge"><title>Node7&#45;&gt;Node2</title>
<path fill="none" stroke="midnightblue" d="M226.877,-44.0659C243.226,-49.2003 261.788,-55.0296 276.976,-59.7996"/>
<polygon fill="midnightblue" stroke="midnightblue" points="227.623,-40.6316 217.033,-40.9745 225.525,-47.31 227.623,-40.6316"/>
</g>
</g>
</svg>
        <g id="navigator" transform="translate(0 0)" fill="#404254">
                <rect fill="#f2f5e9" fill-opacity="0.5" stroke="#606060" stroke-width=".5" x="0" y="0" width="60" height="60"/>
                <use id="zoomplus" xlink:href="#zoomPlus" x="17" y="9" onmousedown="handleZoom(evt,'in')"/>
                <use id="zoomminus" xlink:href="#zoomMin" x="42" y="9" onmousedown="handleZoom(evt,'out')"/>
                <use id="reset" xlink:href="#resetDef" x="30" y="36" onmousedown="handleReset()"/>
                <g id="arrowUp" xlink:href="#dirArrow" transform="translate(30 24)" onmousedown="handlePan(0,-1)">
                  <use xlink:href="#rim" fill="#404040">
                        <set attributeName="fill" to="#808080" begin="arrowUp.mouseover" end="arrowUp.mouseout"/>
                  </use>
                  <path fill="none" stroke="white" stroke-width="1.5" d="M0,-3.0v7 M-2.5,-0.5L0,-3.0L2.5,-0.5"/>
                </g>
                <g id="arrowRight" xlink:href="#dirArrow" transform="rotate(90) translate(36 -43)" onmousedown="handlePan(1,0)">
                  <use xlink:href="#rim" fill="#404040">
                        <set attributeName="fill" to="#808080" begin="arrowRight.mouseover" end="arrowRight.mouseout"/>
                  </use>
                  <path fill="none" stroke="white" stroke-width="1.5" d="M0,-3.0v7 M-2.5,-0.5L0,-3.0L2.5,-0.5"/>
                </g>
                <g id="arrowDown" xlink:href="#dirArrow" transform="rotate(180) translate(-30 -48)" onmousedown="handlePan(0,1)">
                  <use xlink:href="#rim" fill="#404040">
                        <set attributeName="fill" to="#808080" begin="arrowDown.mouseover" end="arrowDown.mouseout"/>
                  </use>
                  <path fill="none" stroke="white" stroke-width="1.5" d="M0,-3.0v7 M-2.5,-0.5L0,-3.0L2.5,-0.5"/>
                </g>
                <g id="arrowLeft" xlink:href="#dirArrow" transform="rotate(270) translate(-36 17)" onmousedown="handlePan(-1,0)">
                  <use xlink:href="#rim" fill="#404040">
                        <set attributeName="fill" to="#808080" begin="arrowLeft.mouseover" end="arrowLeft.mouseout"/>
                  </use>
                  <path fill="none" stroke="white" stroke-width="1.5" d="M0,-3.0v7 M-2.5,-0.5L0,-3.0L2.5,-0.5"/>
                </g>
        </g>
        <svg viewBox="0 0 15 15" width="100%" height="30px" preserveAspectRatio="xMaxYMin meet">
         <g id="arrow_out" transform="scale(0.3 0.3)">
          <a xlink:href="_i_n_r_8c_af47261efd77bbc66a759860ab782f170_icgraph_org.svg" target="_base">
           <rect id="button" ry="5" rx="5" y="6" x="6" height="38" width="38"
                fill="#f2f5e9" fill-opacity="0.5" stroke="#606060" stroke-width="1.0"/>
           <path id="arrow"
             d="M 11.500037,31.436501 C 11.940474,20.09759 22.043105,11.32322 32.158766,21.979434 L 37.068811,17.246167 C 37.068811,17.246167 37.088388,32 37.088388,32 L 22.160133,31.978069 C 22.160133,31.978069 26.997745,27.140456 26.997745,27.140456 C 18.528582,18.264221 13.291696,25.230495 11.500037,31.436501 z"
             style="fill:#404040;"/>
          </a>
         </g>
        </svg>
</svg>
