<?xml version="1.0" encoding="UTF-8" standalone="no"?>
<!DOCTYPE svg PUBLIC "-//W3C//DTD SVG 1.1//EN"
 "http://www.w3.org/Graphics/SVG/1.1/DTD/svg11.dtd">
<!-- Generated by graphviz version 2.38.0 (20140413.2041)
 -->
<!-- Title: INR_CHECK_fpga_read_val Pages: 1 -->
<svg width="824pt" height="636pt"
 viewBox="0.00 0.00 824.00 636.00" xmlns="http://www.w3.org/2000/svg" xmlns:xlink="http://www.w3.org/1999/xlink">
<g id="graph0" class="graph" transform="scale(1 1) rotate(0) translate(4 632)">
<title>INR_CHECK_fpga_read_val</title>
<polygon fill="white" stroke="none" points="-4,4 -4,-632 820,-632 820,4 -4,4"/>
<!-- Node1 -->
<g id="node1" class="node"><title>Node1</title>
<polygon fill="#bfbfbf" stroke="black" points="0,-282.5 0,-301.5 142,-301.5 142,-282.5 0,-282.5"/>
<text text-anchor="middle" x="71" y="-289.5" font-family="Helvetica,sans-Serif" font-size="10.00">INR_CHECK_fpga_read_val</text>
</g>
<!-- Node2 -->
<g id="node2" class="node"><title>Node2</title>
<g id="a_node2"><a xlink:href="../../df/df2/_i_n_r-_p_c_i_8h.html#a317b7c374854b88af0059ff2a3708ce9" target="_top" xlink:title="INR_PCI_process_rx\l_descriptor_ring">
<polygon fill="white" stroke="black" points="178,-299 178,-329 288,-329 288,-299 178,-299"/>
<text text-anchor="start" x="186" y="-317" font-family="Helvetica,sans-Serif" font-size="10.00">INR_PCI_process_rx</text>
<text text-anchor="middle" x="233" y="-306" font-family="Helvetica,sans-Serif" font-size="10.00">_descriptor_ring</text>
</a>
</g>
</g>
<!-- Node1&#45;&gt;Node2 -->
<g id="edge1" class="edge"><title>Node1&#45;&gt;Node2</title>
<path fill="none" stroke="midnightblue" d="M151.276,-302.901C160.184,-304.125 169.104,-305.352 177.594,-306.519"/>
<polygon fill="midnightblue" stroke="midnightblue" points="151.631,-299.416 141.248,-301.522 150.678,-306.351 151.631,-299.416"/>
</g>
<!-- Node25 -->
<g id="node25" class="node"><title>Node25</title>
<g id="a_node25"><a xlink:href="../../dc/dc8/_i_n_r-_p_c_i_8c.html#ae8340cfa68d7bd604ad8a92a0b24ab62" target="_top" xlink:title="INR_TX_unmap_d">
<polygon fill="white" stroke="black" points="184,-260.5 184,-279.5 282,-279.5 282,-260.5 184,-260.5"/>
<text text-anchor="middle" x="233" y="-267.5" font-family="Helvetica,sans-Serif" font-size="10.00">INR_TX_unmap_d</text>
</a>
</g>
</g>
<!-- Node1&#45;&gt;Node25 -->
<g id="edge40" class="edge"><title>Node1&#45;&gt;Node25</title>
<path fill="none" stroke="midnightblue" d="M151.396,-281.083C162.478,-279.559 173.575,-278.033 183.837,-276.622"/>
<polygon fill="midnightblue" stroke="midnightblue" points="150.678,-277.649 141.248,-282.478 151.631,-284.584 150.678,-277.649"/>
</g>
<!-- Node3 -->
<g id="node3" class="node"><title>Node3</title>
<g id="a_node3"><a xlink:href="../../d6/d03/_i_n_r-_n_a_p_i_8h.html#a87ec5cd355cffe8b96296dbb83278bfe" target="_top" xlink:title="INR_NAPI_poll_0">
<polygon fill="white" stroke="black" points="328,-608.5 328,-627.5 423,-627.5 423,-608.5 328,-608.5"/>
<text text-anchor="middle" x="375.5" y="-615.5" font-family="Helvetica,sans-Serif" font-size="10.00">INR_NAPI_poll_0</text>
</a>
</g>
</g>
<!-- Node2&#45;&gt;Node3 -->
<g id="edge2" class="edge"><title>Node2&#45;&gt;Node3</title>
<path fill="none" stroke="midnightblue" d="M234.868,-339.495C238.092,-394.277 253.221,-524.293 324,-599 327.672,-602.876 332.213,-605.968 337.053,-608.433"/>
<polygon fill="midnightblue" stroke="midnightblue" points="238.353,-339.099 234.357,-329.287 231.362,-339.449 238.353,-339.099"/>
</g>
<!-- Node8 -->
<g id="node8" class="node"><title>Node8</title>
<g id="a_node8"><a xlink:href="../../d6/d03/_i_n_r-_n_a_p_i_8h.html#a938e6a3d06b11a5dc3da541a5d05c0b2" target="_top" xlink:title="INR_NAPI_poll_1">
<polygon fill="white" stroke="black" points="328,-570.5 328,-589.5 423,-589.5 423,-570.5 328,-570.5"/>
<text text-anchor="middle" x="375.5" y="-577.5" font-family="Helvetica,sans-Serif" font-size="10.00">INR_NAPI_poll_1</text>
</a>
</g>
</g>
<!-- Node2&#45;&gt;Node8 -->
<g id="edge7" class="edge"><title>Node2&#45;&gt;Node8</title>
<path fill="none" stroke="midnightblue" d="M236.293,-339.14C242.086,-388.325 261.621,-497.967 324,-561 327.822,-564.862 332.504,-567.949 337.46,-570.414"/>
<polygon fill="midnightblue" stroke="midnightblue" points="239.758,-338.629 235.202,-329.064 232.799,-339.382 239.758,-338.629"/>
</g>
<!-- Node9 -->
<g id="node9" class="node"><title>Node9</title>
<g id="a_node9"><a xlink:href="../../d6/d03/_i_n_r-_n_a_p_i_8h.html#a69ec3410fe5dc7da35e2f6a8d72acdb4" target="_top" xlink:title="INR_NAPI_poll_10">
<polygon fill="white" stroke="black" points="325.5,-532.5 325.5,-551.5 425.5,-551.5 425.5,-532.5 325.5,-532.5"/>
<text text-anchor="middle" x="375.5" y="-539.5" font-family="Helvetica,sans-Serif" font-size="10.00">INR_NAPI_poll_10</text>
</a>
</g>
</g>
<!-- Node2&#45;&gt;Node9 -->
<g id="edge9" class="edge"><title>Node2&#45;&gt;Node9</title>
<path fill="none" stroke="midnightblue" d="M238.232,-339.189C246.788,-382.551 270.119,-471.582 324,-523 328.066,-526.88 333,-529.985 338.172,-532.465"/>
<polygon fill="midnightblue" stroke="midnightblue" points="241.643,-338.387 236.365,-329.2 234.762,-339.673 241.643,-338.387"/>
</g>
<!-- Node10 -->
<g id="node10" class="node"><title>Node10</title>
<g id="a_node10"><a xlink:href="../../d6/d03/_i_n_r-_n_a_p_i_8h.html#a7b9c6dd796e70895de209d2803e13ccc" target="_top" xlink:title="INR_NAPI_poll_11">
<polygon fill="white" stroke="black" points="325.5,-494.5 325.5,-513.5 425.5,-513.5 425.5,-494.5 325.5,-494.5"/>
<text text-anchor="middle" x="375.5" y="-501.5" font-family="Helvetica,sans-Serif" font-size="10.00">INR_NAPI_poll_11</text>
</a>
</g>
</g>
<!-- Node2&#45;&gt;Node10 -->
<g id="edge11" class="edge"><title>Node2&#45;&gt;Node10</title>
<path fill="none" stroke="midnightblue" d="M240.902,-339.011C252.298,-375.883 278.442,-444.793 324,-485 328.354,-488.843 333.562,-491.939 338.953,-494.424"/>
<polygon fill="midnightblue" stroke="midnightblue" points="244.157,-337.676 237.954,-329.087 237.447,-339.67 244.157,-337.676"/>
</g>
<!-- Node11 -->
<g id="node11" class="node"><title>Node11</title>
<g id="a_node11"><a xlink:href="../../d6/d03/_i_n_r-_n_a_p_i_8h.html#a3a1602b0c3f015b8aabd0b978d704493" target="_top" xlink:title="INR_NAPI_poll_12">
<polygon fill="white" stroke="black" points="325.5,-456.5 325.5,-475.5 425.5,-475.5 425.5,-456.5 325.5,-456.5"/>
<text text-anchor="middle" x="375.5" y="-463.5" font-family="Helvetica,sans-Serif" font-size="10.00">INR_NAPI_poll_12</text>
</a>
</g>
</g>
<!-- Node2&#45;&gt;Node11 -->
<g id="edge13" class="edge"><title>Node2&#45;&gt;Node11</title>
<path fill="none" stroke="midnightblue" d="M244.871,-338.64C259.082,-368.222 286.633,-417.525 324,-447 328.854,-450.829 334.562,-453.946 340.361,-456.465"/>
<polygon fill="midnightblue" stroke="midnightblue" points="247.969,-337.002 240.568,-329.421 241.626,-339.962 247.969,-337.002"/>
</g>
<!-- Node12 -->
<g id="node12" class="node"><title>Node12</title>
<g id="a_node12"><a xlink:href="../../d6/d03/_i_n_r-_n_a_p_i_8h.html#a2ee390e1624519f6a631b3046c2fbd3f" target="_top" xlink:title="INR_NAPI_poll_13">
<polygon fill="white" stroke="black" points="325.5,-418.5 325.5,-437.5 425.5,-437.5 425.5,-418.5 325.5,-418.5"/>
<text text-anchor="middle" x="375.5" y="-425.5" font-family="Helvetica,sans-Serif" font-size="10.00">INR_NAPI_poll_13</text>
</a>
</g>
</g>
<!-- Node2&#45;&gt;Node12 -->
<g id="edge15" class="edge"><title>Node2&#45;&gt;Node12</title>
<path fill="none" stroke="midnightblue" d="M251.092,-337.366C267.662,-358.579 294.556,-389.45 324,-409 329.619,-412.731 336.072,-415.866 342.445,-418.445"/>
<polygon fill="midnightblue" stroke="midnightblue" points="253.705,-335.021 244.852,-329.202 248.144,-339.272 253.705,-335.021"/>
</g>
<!-- Node13 -->
<g id="node13" class="node"><title>Node13</title>
<g id="a_node13"><a xlink:href="../../d6/d03/_i_n_r-_n_a_p_i_8h.html#a2cbf12b9e0e03b3b3862a98784ecc52b" target="_top" xlink:title="INR_NAPI_poll_14">
<polygon fill="white" stroke="black" points="325.5,-380.5 325.5,-399.5 425.5,-399.5 425.5,-380.5 325.5,-380.5"/>
<text text-anchor="middle" x="375.5" y="-387.5" font-family="Helvetica,sans-Serif" font-size="10.00">INR_NAPI_poll_14</text>
</a>
</g>
</g>
<!-- Node2&#45;&gt;Node13 -->
<g id="edge17" class="edge"><title>Node2&#45;&gt;Node13</title>
<path fill="none" stroke="midnightblue" d="M263.559,-334.887C280.703,-346.442 302.995,-360.535 324,-371 330.959,-374.467 338.714,-377.683 346.017,-380.447"/>
<polygon fill="midnightblue" stroke="midnightblue" points="265.33,-331.858 255.098,-329.109 261.382,-337.639 265.33,-331.858"/>
</g>
<!-- Node14 -->
<g id="node14" class="node"><title>Node14</title>
<g id="a_node14"><a xlink:href="../../d6/d03/_i_n_r-_n_a_p_i_8h.html#a91f701f31afe930ece5c8bf5fb1a7ed6" target="_top" xlink:title="INR_NAPI_poll_15">
<polygon fill="white" stroke="black" points="325.5,-342.5 325.5,-361.5 425.5,-361.5 425.5,-342.5 325.5,-342.5"/>
<text text-anchor="middle" x="375.5" y="-349.5" font-family="Helvetica,sans-Serif" font-size="10.00">INR_NAPI_poll_15</text>
</a>
</g>
</g>
<!-- Node2&#45;&gt;Node14 -->
<g id="edge19" class="edge"><title>Node2&#45;&gt;Node14</title>
<path fill="none" stroke="midnightblue" d="M297.987,-331.306C312.068,-335.115 326.488,-339.014 338.958,-342.387"/>
<polygon fill="midnightblue" stroke="midnightblue" points="298.888,-327.924 288.321,-328.692 297.06,-334.681 298.888,-327.924"/>
</g>
<!-- Node15 -->
<g id="node15" class="node"><title>Node15</title>
<g id="a_node15"><a xlink:href="../../d6/d03/_i_n_r-_n_a_p_i_8h.html#ae6bc59b863b3928700468d13efd23e27" target="_top" xlink:title="INR_NAPI_poll_2">
<polygon fill="white" stroke="black" points="328,-304.5 328,-323.5 423,-323.5 423,-304.5 328,-304.5"/>
<text text-anchor="middle" x="375.5" y="-311.5" font-family="Helvetica,sans-Serif" font-size="10.00">INR_NAPI_poll_2</text>
</a>
</g>
</g>
<!-- Node2&#45;&gt;Node15 -->
<g id="edge21" class="edge"><title>Node2&#45;&gt;Node15</title>
<path fill="none" stroke="midnightblue" d="M298.475,-314C308.302,-314 318.281,-314 327.636,-314"/>
<polygon fill="midnightblue" stroke="midnightblue" points="298.321,-310.5 288.321,-314 298.321,-317.5 298.321,-310.5"/>
</g>
<!-- Node16 -->
<g id="node16" class="node"><title>Node16</title>
<g id="a_node16"><a xlink:href="../../d6/d03/_i_n_r-_n_a_p_i_8h.html#a7888221fd9575d7e7aae78ed125d8646" target="_top" xlink:title="INR_NAPI_poll_3">
<polygon fill="white" stroke="black" points="328,-266.5 328,-285.5 423,-285.5 423,-266.5 328,-266.5"/>
<text text-anchor="middle" x="375.5" y="-273.5" font-family="Helvetica,sans-Serif" font-size="10.00">INR_NAPI_poll_3</text>
</a>
</g>
</g>
<!-- Node2&#45;&gt;Node16 -->
<g id="edge23" class="edge"><title>Node2&#45;&gt;Node16</title>
<path fill="none" stroke="midnightblue" d="M297.987,-296.694C312.068,-292.885 326.488,-288.986 338.958,-285.613"/>
<polygon fill="midnightblue" stroke="midnightblue" points="297.06,-293.319 288.321,-299.308 298.888,-300.076 297.06,-293.319"/>
</g>
<!-- Node17 -->
<g id="node17" class="node"><title>Node17</title>
<g id="a_node17"><a xlink:href="../../d6/d03/_i_n_r-_n_a_p_i_8h.html#a5e711c1ae61572a4bab9ffefc34d0f34" target="_top" xlink:title="INR_NAPI_poll_4">
<polygon fill="white" stroke="black" points="328,-228.5 328,-247.5 423,-247.5 423,-228.5 328,-228.5"/>
<text text-anchor="middle" x="375.5" y="-235.5" font-family="Helvetica,sans-Serif" font-size="10.00">INR_NAPI_poll_4</text>
</a>
</g>
</g>
<!-- Node2&#45;&gt;Node17 -->
<g id="edge25" class="edge"><title>Node2&#45;&gt;Node17</title>
<path fill="none" stroke="midnightblue" d="M279.469,-294.158C282.409,-292.507 285.278,-290.784 288,-289 305.905,-277.266 305.675,-268.066 324,-257 330.094,-253.32 337.021,-250.15 343.748,-247.513"/>
<polygon fill="midnightblue" stroke="midnightblue" points="277.728,-291.119 270.516,-298.88 280.994,-297.31 277.728,-291.119"/>
</g>
<!-- Node18 -->
<g id="node18" class="node"><title>Node18</title>
<g id="a_node18"><a xlink:href="../../d6/d03/_i_n_r-_n_a_p_i_8h.html#a4c7935fe4ef401ccd186e05e1047748c" target="_top" xlink:title="INR_NAPI_poll_5">
<polygon fill="white" stroke="black" points="328,-190.5 328,-209.5 423,-209.5 423,-190.5 328,-190.5"/>
<text text-anchor="middle" x="375.5" y="-197.5" font-family="Helvetica,sans-Serif" font-size="10.00">INR_NAPI_poll_5</text>
</a>
</g>
</g>
<!-- Node2&#45;&gt;Node18 -->
<g id="edge27" class="edge"><title>Node2&#45;&gt;Node18</title>
<path fill="none" stroke="midnightblue" d="M283.293,-293.057C284.941,-291.773 286.518,-290.422 288,-289 313.245,-264.78 297.88,-242.273 324,-219 328.336,-215.136 333.534,-212.03 338.922,-209.54"/>
<polygon fill="midnightblue" stroke="midnightblue" points="280.911,-290.44 274.561,-298.922 284.814,-296.251 280.911,-290.44"/>
</g>
<!-- Node19 -->
<g id="node19" class="node"><title>Node19</title>
<g id="a_node19"><a xlink:href="../../d6/d03/_i_n_r-_n_a_p_i_8h.html#a2a63c16bad3fb8de0dacd9bb0b02a40f" target="_top" xlink:title="INR_NAPI_poll_6">
<polygon fill="white" stroke="black" points="328,-152.5 328,-171.5 423,-171.5 423,-152.5 328,-152.5"/>
<text text-anchor="middle" x="375.5" y="-159.5" font-family="Helvetica,sans-Serif" font-size="10.00">INR_NAPI_poll_6</text>
</a>
</g>
</g>
<!-- Node2&#45;&gt;Node19 -->
<g id="edge29" class="edge"><title>Node2&#45;&gt;Node19</title>
<path fill="none" stroke="midnightblue" d="M284.213,-292.779C285.549,-291.582 286.817,-290.324 288,-289 321.722,-251.279 288.911,-217.452 324,-181 327.703,-177.153 332.26,-174.078 337.108,-171.62"/>
<polygon fill="midnightblue" stroke="midnightblue" points="281.848,-290.177 275.937,-298.969 286.041,-295.782 281.848,-290.177"/>
</g>
<!-- Node20 -->
<g id="node20" class="node"><title>Node20</title>
<g id="a_node20"><a xlink:href="../../d6/d03/_i_n_r-_n_a_p_i_8h.html#a05cb8dc7168c07cf8755dc8e4075caba" target="_top" xlink:title="INR_NAPI_poll_7">
<polygon fill="white" stroke="black" points="328,-114.5 328,-133.5 423,-133.5 423,-114.5 328,-114.5"/>
<text text-anchor="middle" x="375.5" y="-121.5" font-family="Helvetica,sans-Serif" font-size="10.00">INR_NAPI_poll_7</text>
</a>
</g>
</g>
<!-- Node2&#45;&gt;Node20 -->
<g id="edge31" class="edge"><title>Node2&#45;&gt;Node20</title>
<path fill="none" stroke="midnightblue" d="M284.845,-292.426C285.959,-291.337 287.014,-290.196 288,-289 330.515,-237.434 279.614,-192.964 324,-143 327.422,-139.148 331.704,-136.075 336.319,-133.622"/>
<polygon fill="midnightblue" stroke="midnightblue" points="282.393,-289.906 276.769,-298.885 286.765,-295.372 282.393,-289.906"/>
</g>
<!-- Node21 -->
<g id="node21" class="node"><title>Node21</title>
<g id="a_node21"><a xlink:href="../../d6/d03/_i_n_r-_n_a_p_i_8h.html#a56cfbbdff0a9b3fba466a06079b21ed8" target="_top" xlink:title="INR_NAPI_poll_8">
<polygon fill="white" stroke="black" points="328,-76.5 328,-95.5 423,-95.5 423,-76.5 328,-76.5"/>
<text text-anchor="middle" x="375.5" y="-83.5" font-family="Helvetica,sans-Serif" font-size="10.00">INR_NAPI_poll_8</text>
</a>
</g>
</g>
<!-- Node2&#45;&gt;Node21 -->
<g id="edge33" class="edge"><title>Node2&#45;&gt;Node21</title>
<path fill="none" stroke="midnightblue" d="M284.991,-292.42C286.057,-291.333 287.063,-290.194 288,-289 339.432,-223.439 270.186,-168.621 324,-105 327.267,-101.138 331.402,-98.0598 335.895,-95.6066"/>
<polygon fill="midnightblue" stroke="midnightblue" points="282.686,-289.784 277.215,-298.857 287.15,-295.176 282.686,-289.784"/>
</g>
<!-- Node22 -->
<g id="node22" class="node"><title>Node22</title>
<g id="a_node22"><a xlink:href="../../d6/d03/_i_n_r-_n_a_p_i_8h.html#a7411c18801eb32e892612975b01d604e" target="_top" xlink:title="INR_NAPI_poll_9">
<polygon fill="white" stroke="black" points="328,-38.5 328,-57.5 423,-57.5 423,-38.5 328,-38.5"/>
<text text-anchor="middle" x="375.5" y="-45.5" font-family="Helvetica,sans-Serif" font-size="10.00">INR_NAPI_poll_9</text>
</a>
</g>
</g>
<!-- Node2&#45;&gt;Node22 -->
<g id="edge35" class="edge"><title>Node2&#45;&gt;Node22</title>
<path fill="none" stroke="midnightblue" d="M285.043,-292.46C286.093,-291.361 287.083,-290.209 288,-289 348.411,-209.366 260.695,-144.354 324,-67 327.204,-63.0854 331.303,-59.9769 335.777,-57.5086"/>
<polygon fill="midnightblue" stroke="midnightblue" points="282.729,-289.832 277.34,-298.954 287.241,-295.184 282.729,-289.832"/>
</g>
<!-- Node23 -->
<g id="node23" class="node"><title>Node23</title>
<g id="a_node23"><a xlink:href="../../dc/dc8/_i_n_r-_p_c_i_8c.html#a1c0927891fa571e8aec98ebe5fd266f6" target="_top" xlink:title="XPCIe_IRQHandler">
<polygon fill="white" stroke="black" points="324,-0.5 324,-19.5 427,-19.5 427,-0.5 324,-0.5"/>
<text text-anchor="middle" x="375.5" y="-7.5" font-family="Helvetica,sans-Serif" font-size="10.00">XPCIe_IRQHandler</text>
</a>
</g>
</g>
<!-- Node2&#45;&gt;Node23 -->
<g id="edge37" class="edge"><title>Node2&#45;&gt;Node23</title>
<path fill="none" stroke="midnightblue" d="M285.449,-292.09C286.352,-291.104 287.205,-290.074 288,-289 357.424,-195.248 251.168,-120.129 324,-29 327.041,-25.1949 330.93,-22.1517 335.198,-19.7179"/>
<polygon fill="midnightblue" stroke="midnightblue" points="282.935,-289.638 277.687,-298.841 287.529,-294.92 282.935,-289.638"/>
</g>
<!-- Node4 -->
<g id="node4" class="node"><title>Node4</title>
<g id="a_node4"><a xlink:href="../../d6/d03/_i_n_r-_n_a_p_i_8h.html#a4d6b9bd7496ab1a6ae8d17e5889d6adb" target="_top" xlink:title="INR_NAPI_init">
<polygon fill="white" stroke="black" points="464,-304.5 464,-323.5 546,-323.5 546,-304.5 464,-304.5"/>
<text text-anchor="middle" x="505" y="-311.5" font-family="Helvetica,sans-Serif" font-size="10.00">INR_NAPI_init</text>
</a>
</g>
</g>
<!-- Node3&#45;&gt;Node4 -->
<g id="edge3" class="edge"><title>Node3&#45;&gt;Node4</title>
<path fill="none" stroke="midnightblue" d="M423.075,-602.731C424.472,-601.576 425.788,-600.335 427,-599 503.332,-514.967 505.218,-362.991 504.341,-323.555"/>
<polygon fill="midnightblue" stroke="midnightblue" points="420.802,-600.036 414.349,-608.44 424.634,-605.894 420.802,-600.036"/>
</g>
<!-- Node5 -->
<g id="node5" class="node"><title>Node5</title>
<g id="a_node5"><a xlink:href="../../df/df2/_i_n_r-_p_c_i_8h.html#a63ce64abfe6217358041ed07e918a398" target="_top" xlink:title="INR_init_drv">
<polygon fill="white" stroke="black" points="583,-218.5 583,-237.5 654,-237.5 654,-218.5 583,-218.5"/>
<text text-anchor="middle" x="618.5" y="-225.5" font-family="Helvetica,sans-Serif" font-size="10.00">INR_init_drv</text>
</a>
</g>
</g>
<!-- Node4&#45;&gt;Node5 -->
<g id="edge4" class="edge"><title>Node4&#45;&gt;Node5</title>
<path fill="none" stroke="midnightblue" d="M526.439,-298.235C549.433,-280.5 586.047,-252.259 605.086,-237.575"/>
<polygon fill="midnightblue" stroke="midnightblue" points="524.139,-295.589 518.358,-304.468 528.414,-301.132 524.139,-295.589"/>
</g>
<!-- Node6 -->
<g id="node6" class="node"><title>Node6</title>
<g id="a_node6"><a xlink:href="../../d0/d29/main_8c.html#a1f2bd07aac6fb1d9a27f635dac28669b" target="_top" xlink:title="probe">
<polygon fill="white" stroke="black" points="690,-218.5 690,-237.5 731,-237.5 731,-218.5 690,-218.5"/>
<text text-anchor="middle" x="710.5" y="-225.5" font-family="Helvetica,sans-Serif" font-size="10.00">probe</text>
</a>
</g>
</g>
<!-- Node5&#45;&gt;Node6 -->
<g id="edge5" class="edge"><title>Node5&#45;&gt;Node6</title>
<path fill="none" stroke="midnightblue" d="M664.123,-228C673.131,-228 682.159,-228 689.763,-228"/>
<polygon fill="midnightblue" stroke="midnightblue" points="664.039,-224.5 654.039,-228 664.039,-231.5 664.039,-224.5"/>
</g>
<!-- Node7 -->
<g id="node7" class="node"><title>Node7</title>
<g id="a_node7"><a xlink:href="../../d0/d29/main_8c.html#a28d5841b26c9924ab02d6adb235e9848" target="_top" xlink:title="remove">
<polygon fill="white" stroke="black" points="767,-218.5 767,-237.5 816,-237.5 816,-218.5 767,-218.5"/>
<text text-anchor="middle" x="791.5" y="-225.5" font-family="Helvetica,sans-Serif" font-size="10.00">remove</text>
</a>
</g>
</g>
<!-- Node6&#45;&gt;Node7 -->
<g id="edge6" class="edge"><title>Node6&#45;&gt;Node7</title>
<path fill="none" stroke="midnightblue" d="M741.31,-228C749.797,-228 758.92,-228 766.976,-228"/>
<polygon fill="midnightblue" stroke="midnightblue" points="741.028,-224.5 731.028,-228 741.028,-231.5 741.028,-224.5"/>
</g>
<!-- Node8&#45;&gt;Node4 -->
<g id="edge8" class="edge"><title>Node8&#45;&gt;Node4</title>
<path fill="none" stroke="midnightblue" d="M422.539,-565.044C424.129,-563.801 425.626,-562.456 427,-561 494.523,-489.466 502.869,-359.561 503.871,-323.505"/>
<polygon fill="midnightblue" stroke="midnightblue" points="420.558,-562.156 413.96,-570.445 424.287,-568.08 420.558,-562.156"/>
</g>
<!-- Node9&#45;&gt;Node4 -->
<g id="edge10" class="edge"><title>Node9&#45;&gt;Node4</title>
<path fill="none" stroke="midnightblue" d="M422.362,-527.019C424.008,-525.783 425.564,-524.446 427,-523 485.585,-464.011 500.077,-356.69 503.216,-323.826"/>
<polygon fill="midnightblue" stroke="midnightblue" points="420.246,-524.21 413.527,-532.402 423.888,-530.188 420.246,-524.21"/>
</g>
<!-- Node10&#45;&gt;Node4 -->
<g id="edge12" class="edge"><title>Node10&#45;&gt;Node4</title>
<path fill="none" stroke="midnightblue" d="M421.625,-489.322C423.53,-488 425.335,-486.563 427,-485 477.089,-437.983 496.918,-352.304 502.342,-323.635"/>
<polygon fill="midnightblue" stroke="midnightblue" points="419.7,-486.391 412.772,-494.406 423.187,-492.461 419.7,-486.391"/>
</g>
<!-- Node11&#45;&gt;Node4 -->
<g id="edge14" class="edge"><title>Node11&#45;&gt;Node4</title>
<path fill="none" stroke="midnightblue" d="M420.664,-451.6C422.899,-450.199 425.03,-448.669 427,-447 468.73,-411.642 493.003,-347.626 501.018,-323.522"/>
<polygon fill="midnightblue" stroke="midnightblue" points="418.84,-448.606 411.653,-456.391 422.126,-454.787 418.84,-448.606"/>
</g>
<!-- Node12&#45;&gt;Node4 -->
<g id="edge16" class="edge"><title>Node12&#45;&gt;Node4</title>
<path fill="none" stroke="midnightblue" d="M418.884,-414.04C421.724,-412.508 424.461,-410.831 427,-409 460.407,-384.91 487.401,-342.775 498.517,-323.779"/>
<polygon fill="midnightblue" stroke="midnightblue" points="417.118,-411.003 409.58,-418.448 420.115,-417.329 417.118,-411.003"/>
</g>
<!-- Node13&#45;&gt;Node4 -->
<g id="edge18" class="edge"><title>Node13&#45;&gt;Node4</title>
<path fill="none" stroke="midnightblue" d="M415.322,-376.663C419.337,-374.91 423.298,-373.016 427,-371 452.418,-357.162 478.855,-335.803 493.184,-323.539"/>
<polygon fill="midnightblue" stroke="midnightblue" points="413.89,-373.467 405.955,-380.488 416.536,-379.948 413.89,-373.467"/>
</g>
<!-- Node14&#45;&gt;Node4 -->
<g id="edge20" class="edge"><title>Node14&#45;&gt;Node4</title>
<path fill="none" stroke="midnightblue" d="M418.559,-339.465C435.904,-334.295 455.681,-328.401 471.837,-323.586"/>
<polygon fill="midnightblue" stroke="midnightblue" points="417.257,-336.2 408.674,-342.411 419.257,-342.909 417.257,-336.2"/>
</g>
<!-- Node15&#45;&gt;Node4 -->
<g id="edge22" class="edge"><title>Node15&#45;&gt;Node4</title>
<path fill="none" stroke="midnightblue" d="M433.434,-314C443.737,-314 454.28,-314 463.97,-314"/>
<polygon fill="midnightblue" stroke="midnightblue" points="433.252,-310.5 423.252,-314 433.252,-317.5 433.252,-310.5"/>
</g>
<!-- Node16&#45;&gt;Node4 -->
<g id="edge24" class="edge"><title>Node16&#45;&gt;Node4</title>
<path fill="none" stroke="midnightblue" d="M418.559,-288.535C435.904,-293.705 455.681,-299.599 471.837,-304.414"/>
<polygon fill="midnightblue" stroke="midnightblue" points="419.257,-285.091 408.674,-285.589 417.257,-291.8 419.257,-285.091"/>
</g>
<!-- Node17&#45;&gt;Node4 -->
<g id="edge26" class="edge"><title>Node17&#45;&gt;Node4</title>
<path fill="none" stroke="midnightblue" d="M415.322,-251.337C419.337,-253.09 423.298,-254.984 427,-257 452.418,-270.838 478.855,-292.197 493.184,-304.461"/>
<polygon fill="midnightblue" stroke="midnightblue" points="416.536,-248.052 405.955,-247.512 413.89,-254.533 416.536,-248.052"/>
</g>
<!-- Node18&#45;&gt;Node4 -->
<g id="edge28" class="edge"><title>Node18&#45;&gt;Node4</title>
<path fill="none" stroke="midnightblue" d="M418.884,-213.96C421.724,-215.492 424.461,-217.169 427,-219 460.407,-243.09 487.401,-285.225 498.517,-304.221"/>
<polygon fill="midnightblue" stroke="midnightblue" points="420.115,-210.671 409.58,-209.552 417.118,-216.997 420.115,-210.671"/>
</g>
<!-- Node19&#45;&gt;Node4 -->
<g id="edge30" class="edge"><title>Node19&#45;&gt;Node4</title>
<path fill="none" stroke="midnightblue" d="M420.664,-176.4C422.899,-177.801 425.03,-179.331 427,-181 468.73,-216.358 493.003,-280.374 501.018,-304.478"/>
<polygon fill="midnightblue" stroke="midnightblue" points="422.126,-173.213 411.653,-171.609 418.84,-179.394 422.126,-173.213"/>
</g>
<!-- Node20&#45;&gt;Node4 -->
<g id="edge32" class="edge"><title>Node20&#45;&gt;Node4</title>
<path fill="none" stroke="midnightblue" d="M421.625,-138.678C423.53,-140 425.335,-141.437 427,-143 477.089,-190.017 496.918,-275.696 502.342,-304.365"/>
<polygon fill="midnightblue" stroke="midnightblue" points="423.187,-135.539 412.772,-133.594 419.7,-141.609 423.187,-135.539"/>
</g>
<!-- Node21&#45;&gt;Node4 -->
<g id="edge34" class="edge"><title>Node21&#45;&gt;Node4</title>
<path fill="none" stroke="midnightblue" d="M422.362,-100.981C424.008,-102.217 425.564,-103.554 427,-105 456.906,-135.112 492.136,-267.238 501.574,-304.302"/>
<polygon fill="midnightblue" stroke="midnightblue" points="423.888,-97.8121 413.527,-95.598 420.246,-103.79 423.888,-97.8121"/>
</g>
<!-- Node22&#45;&gt;Node4 -->
<g id="edge36" class="edge"><title>Node22&#45;&gt;Node4</title>
<path fill="none" stroke="midnightblue" d="M422.539,-62.9556C424.129,-64.1986 425.626,-65.544 427,-67 444.266,-85.2917 490.27,-260.682 501.501,-304.244"/>
<polygon fill="midnightblue" stroke="midnightblue" points="424.287,-59.9204 413.96,-57.555 420.558,-65.8444 424.287,-59.9204"/>
</g>
<!-- Node24 -->
<g id="node24" class="node"><title>Node24</title>
<g id="a_node24"><a xlink:href="../../dc/dc8/_i_n_r-_p_c_i_8c.html#af7926b059a794041b841cda82ea84ca9" target="_top" xlink:title="INR_int_enable">
<polygon fill="white" stroke="black" points="463,-133.5 463,-152.5 547,-152.5 547,-133.5 463,-133.5"/>
<text text-anchor="middle" x="505" y="-140.5" font-family="Helvetica,sans-Serif" font-size="10.00">INR_int_enable</text>
</a>
</g>
</g>
<!-- Node23&#45;&gt;Node24 -->
<g id="edge38" class="edge"><title>Node23&#45;&gt;Node24</title>
<path fill="none" stroke="midnightblue" d="M419.692,-24.0707C422.263,-25.565 424.725,-27.2042 427,-29 464.491,-58.5988 490.399,-111.53 499.94,-133.27"/>
<polygon fill="midnightblue" stroke="midnightblue" points="421.15,-20.8867 410.642,-19.5317 418.012,-27.1437 421.15,-20.8867"/>
</g>
<!-- Node24&#45;&gt;Node5 -->
<g id="edge39" class="edge"><title>Node24&#45;&gt;Node5</title>
<path fill="none" stroke="midnightblue" d="M526.87,-158.91C549.796,-176.387 585.876,-203.892 604.859,-218.363"/>
<polygon fill="midnightblue" stroke="midnightblue" points="528.865,-156.03 518.79,-152.751 524.621,-161.597 528.865,-156.03"/>
</g>
</g>
</svg>
