<?xml version="1.0" encoding="UTF-8" standalone="no"?>
<!DOCTYPE svg PUBLIC "-//W3C//DTD SVG 1.1//EN"
 "http://www.w3.org/Graphics/SVG/1.1/DTD/svg11.dtd">
<!-- Generated by graphviz version 2.38.0 (20140413.2041)
 -->
<!-- Title: INR_STATUS_get Pages: 1 -->
<svg width="340pt" height="85pt"
 viewBox="0.00 0.00 340.00 85.00" xmlns="http://www.w3.org/2000/svg" xmlns:xlink="http://www.w3.org/1999/xlink">
<g id="graph0" class="graph" transform="scale(1 1) rotate(0) translate(4 81)">
<title>INR_STATUS_get</title>
<polygon fill="white" stroke="none" points="-4,4 -4,-81 336,-81 336,4 -4,4"/>
<!-- Node1 -->
<g id="node1" class="node"><title>Node1</title>
<polygon fill="#bfbfbf" stroke="black" points="0,-38.5 0,-57.5 98,-57.5 98,-38.5 0,-38.5"/>
<text text-anchor="middle" x="49" y="-45.5" font-family="Helvetica,sans-Serif" font-size="10.00">INR_STATUS_get</text>
</g>
<!-- Node2 -->
<g id="node2" class="node"><title>Node2</title>
<g id="a_node2"><a xlink:href="../../dd/de5/_i_n_r-_n_w_8h.html#adca6307173d3752d1f3bc9285b0cb25c" target="_top" xlink:title="INR_NW_tx">
<polygon fill="white" stroke="black" points="261,-57.5 261,-76.5 332,-76.5 332,-57.5 261,-57.5"/>
<text text-anchor="middle" x="296.5" y="-64.5" font-family="Helvetica,sans-Serif" font-size="10.00">INR_NW_tx</text>
</a>
</g>
</g>
<!-- Node1&#45;&gt;Node2 -->
<g id="edge1" class="edge"><title>Node1&#45;&gt;Node2</title>
<path fill="none" stroke="midnightblue" d="M93.9892,-59.884C106.792,-62.815 120.868,-65.5334 134,-67 177.469,-71.8549 227.931,-70.7929 260.722,-69.2224"/>
<polygon fill="midnightblue" stroke="midnightblue" points="94.5761,-56.4258 84.0366,-57.5077 92.9503,-63.2344 94.5761,-56.4258"/>
</g>
<!-- Node3 -->
<g id="node3" class="node"><title>Node3</title>
<g id="a_node3"><a xlink:href="../../df/df2/_i_n_r-_p_c_i_8h.html#a01edfdcf8630a577595067928da7a18a" target="_top" xlink:title="INR_remove_drv">
<polygon fill="white" stroke="black" points="134,-0.5 134,-19.5 225,-19.5 225,-0.5 134,-0.5"/>
<text text-anchor="middle" x="179.5" y="-7.5" font-family="Helvetica,sans-Serif" font-size="10.00">INR_remove_drv</text>
</a>
</g>
</g>
<!-- Node1&#45;&gt;Node3 -->
<g id="edge2" class="edge"><title>Node1&#45;&gt;Node3</title>
<path fill="none" stroke="midnightblue" d="M92.3891,-35.4647C109.87,-30.2952 129.802,-24.4009 146.084,-19.5859"/>
<polygon fill="midnightblue" stroke="midnightblue" points="91.0229,-32.2188 82.426,-38.411 93.008,-38.9314 91.0229,-32.2188"/>
</g>
<!-- Node5 -->
<g id="node5" class="node"><title>Node5</title>
<g id="a_node5"><a xlink:href="../../df/df2/_i_n_r-_p_c_i_8h.html#a4887a4c2c584fbcf488d415ba2792f6e" target="_top" xlink:title="INR_TX_push">
<polygon fill="white" stroke="black" points="140,-38.5 140,-57.5 219,-57.5 219,-38.5 140,-38.5"/>
<text text-anchor="middle" x="179.5" y="-45.5" font-family="Helvetica,sans-Serif" font-size="10.00">INR_TX_push</text>
</a>
</g>
</g>
<!-- Node1&#45;&gt;Node5 -->
<g id="edge4" class="edge"><title>Node1&#45;&gt;Node5</title>
<path fill="none" stroke="midnightblue" d="M108.293,-48C118.914,-48 129.755,-48 139.641,-48"/>
<polygon fill="midnightblue" stroke="midnightblue" points="108.214,-44.5001 98.2143,-48 108.214,-51.5001 108.214,-44.5001"/>
</g>
<!-- Node4 -->
<g id="node4" class="node"><title>Node4</title>
<g id="a_node4"><a xlink:href="../../d0/d29/main_8c.html#a28d5841b26c9924ab02d6adb235e9848" target="_top" xlink:title="remove">
<polygon fill="white" stroke="black" points="272,-0.5 272,-19.5 321,-19.5 321,-0.5 272,-0.5"/>
<text text-anchor="middle" x="296.5" y="-7.5" font-family="Helvetica,sans-Serif" font-size="10.00">remove</text>
</a>
</g>
</g>
<!-- Node3&#45;&gt;Node4 -->
<g id="edge3" class="edge"><title>Node3&#45;&gt;Node4</title>
<path fill="none" stroke="midnightblue" d="M235.482,-10C248.294,-10 261.273,-10 271.868,-10"/>
<polygon fill="midnightblue" stroke="midnightblue" points="235.291,-6.5001 225.291,-10 235.291,-13.5001 235.291,-6.5001"/>
</g>
<!-- Node5&#45;&gt;Node2 -->
<g id="edge5" class="edge"><title>Node5&#45;&gt;Node2</title>
<path fill="none" stroke="midnightblue" d="M229.104,-56.0301C239.706,-57.7819 250.723,-59.602 260.663,-61.2444"/>
<polygon fill="midnightblue" stroke="midnightblue" points="229.55,-52.5566 219.113,-54.3796 228.409,-59.4629 229.55,-52.5566"/>
</g>
</g>
</svg>
