<?xml version="1.0" encoding="UTF-8" standalone="no"?>
<!DOCTYPE svg PUBLIC "-//W3C//DTD SVG 1.1//EN"
 "http://www.w3.org/Graphics/SVG/1.1/DTD/svg11.dtd">
<!-- Generated by graphviz version 2.38.0 (20140413.2041)
 -->
<!-- Title: INR_NW_STATUS_set Pages: 1 -->
<svg width="523pt" height="28pt"
 viewBox="0.00 0.00 523.00 28.00" xmlns="http://www.w3.org/2000/svg" xmlns:xlink="http://www.w3.org/1999/xlink">
<g id="graph0" class="graph" transform="scale(1 1) rotate(0) translate(4 24)">
<title>INR_NW_STATUS_set</title>
<polygon fill="white" stroke="none" points="-4,4 -4,-24 519,-24 519,4 -4,4"/>
<!-- Node1 -->
<g id="node1" class="node"><title>Node1</title>
<polygon fill="#bfbfbf" stroke="black" points="0,-0.5 0,-19.5 121,-19.5 121,-0.5 0,-0.5"/>
<text text-anchor="middle" x="60.5" y="-7.5" font-family="Helvetica,sans-Serif" font-size="10.00">INR_NW_STATUS_set</text>
</g>
<!-- Node2 -->
<g id="node2" class="node"><title>Node2</title>
<g id="a_node2"><a xlink:href="../../dd/de5/_i_n_r-_n_w_8h.html#ae2ed490a9f239ce54dfb26ce4a8e293a" target="_top" xlink:title="set_nwdev">
<polygon fill="white" stroke="black" points="157,-0.5 157,-19.5 221,-19.5 221,-0.5 157,-0.5"/>
<text text-anchor="middle" x="189" y="-7.5" font-family="Helvetica,sans-Serif" font-size="10.00">set_nwdev</text>
</a>
</g>
</g>
<!-- Node1&#45;&gt;Node2 -->
<g id="edge1" class="edge"><title>Node1&#45;&gt;Node2</title>
<path fill="none" stroke="midnightblue" d="M131.247,-10C140.251,-10 149.078,-10 156.986,-10"/>
<polygon fill="midnightblue" stroke="midnightblue" points="131.046,-6.5001 121.046,-10 131.046,-13.5001 131.046,-6.5001"/>
</g>
<!-- Node3 -->
<g id="node3" class="node"><title>Node3</title>
<g id="a_node3"><a xlink:href="../../d0/d29/main_8c.html#a5445e0a15f43be1afefcce07951ceb2c" target="_top" xlink:title="init nw&#45;device ">
<polygon fill="white" stroke="black" points="257,-0.5 257,-19.5 353,-19.5 353,-0.5 257,-0.5"/>
<text text-anchor="middle" x="305" y="-7.5" font-family="Helvetica,sans-Serif" font-size="10.00">INR_NWDEV_init</text>
</a>
</g>
</g>
<!-- Node2&#45;&gt;Node3 -->
<g id="edge2" class="edge"><title>Node2&#45;&gt;Node3</title>
<path fill="none" stroke="midnightblue" d="M231.266,-10C239.498,-10 248.205,-10 256.624,-10"/>
<polygon fill="midnightblue" stroke="midnightblue" points="231.151,-6.5001 221.151,-10 231.151,-13.5001 231.151,-6.5001"/>
</g>
<!-- Node4 -->
<g id="node4" class="node"><title>Node4</title>
<g id="a_node4"><a xlink:href="../../d0/d29/main_8c.html#a1f2bd07aac6fb1d9a27f635dac28669b" target="_top" xlink:title="probe">
<polygon fill="white" stroke="black" points="389,-0.5 389,-19.5 430,-19.5 430,-0.5 389,-0.5"/>
<text text-anchor="middle" x="409.5" y="-7.5" font-family="Helvetica,sans-Serif" font-size="10.00">probe</text>
</a>
</g>
</g>
<!-- Node3&#45;&gt;Node4 -->
<g id="edge3" class="edge"><title>Node3&#45;&gt;Node4</title>
<path fill="none" stroke="midnightblue" d="M363.13,-10C372.379,-10 381.369,-10 388.873,-10"/>
<polygon fill="midnightblue" stroke="midnightblue" points="363.05,-6.5001 353.05,-10 363.05,-13.5001 363.05,-6.5001"/>
</g>
<!-- Node5 -->
<g id="node5" class="node"><title>Node5</title>
<g id="a_node5"><a xlink:href="../../d0/d29/main_8c.html#a28d5841b26c9924ab02d6adb235e9848" target="_top" xlink:title="remove">
<polygon fill="white" stroke="black" points="466,-0.5 466,-19.5 515,-19.5 515,-0.5 466,-0.5"/>
<text text-anchor="middle" x="490.5" y="-7.5" font-family="Helvetica,sans-Serif" font-size="10.00">remove</text>
</a>
</g>
</g>
<!-- Node4&#45;&gt;Node5 -->
<g id="edge4" class="edge"><title>Node4&#45;&gt;Node5</title>
<path fill="none" stroke="midnightblue" d="M440.31,-10C448.797,-10 457.92,-10 465.976,-10"/>
<polygon fill="midnightblue" stroke="midnightblue" points="440.028,-6.5001 430.028,-10 440.028,-13.5001 440.028,-6.5001"/>
</g>
</g>
</svg>
