<?xml version="1.0" encoding="UTF-8" standalone="no"?>
<!DOCTYPE svg PUBLIC "-//W3C//DTD SVG 1.1//EN"
 "http://www.w3.org/Graphics/SVG/1.1/DTD/svg11.dtd">
<!-- Generated by graphviz version 2.38.0 (20140413.2041)
 -->
<!-- Title: INR.h Pages: 1 -->
<svg width="440pt" height="84pt"
 viewBox="0.00 0.00 440.00 84.00" xmlns="http://www.w3.org/2000/svg" xmlns:xlink="http://www.w3.org/1999/xlink">
<g id="graph0" class="graph" transform="scale(1 1) rotate(0) translate(4 80)">
<title>INR.h</title>
<polygon fill="white" stroke="none" points="-4,4 -4,-80 436,-80 436,4 -4,4"/>
<!-- Node1 -->
<g id="node1" class="node"><title>Node1</title>
<polygon fill="#bfbfbf" stroke="black" points="212.5,-56.5 212.5,-75.5 255.5,-75.5 255.5,-56.5 212.5,-56.5"/>
<text text-anchor="middle" x="234" y="-63.5" font-family="Helvetica,sans-Serif" font-size="10.00">INR.h</text>
</g>
<!-- Node2 -->
<g id="node2" class="node"><title>Node2</title>
<g id="a_node2"><a xlink:href="../../d2/d08/_i_n_r-ctl_8c.html" target="_top" xlink:title="Functions for Proc&#45;filesystem. ">
<polygon fill="white" stroke="black" points="0,-0.5 0,-19.5 56,-19.5 56,-0.5 0,-0.5"/>
<text text-anchor="middle" x="28" y="-7.5" font-family="Helvetica,sans-Serif" font-size="10.00">INR&#45;ctl.c</text>
</a>
</g>
</g>
<!-- Node1&#45;&gt;Node2 -->
<g id="edge1" class="edge"><title>Node1&#45;&gt;Node2</title>
<path fill="none" stroke="midnightblue" d="M202.614,-56.7726C162.742,-46.3208 94.5227,-28.438 56.2224,-18.3981"/>
<polygon fill="midnightblue" stroke="midnightblue" points="201.783,-60.173 212.344,-59.3231 203.558,-53.4017 201.783,-60.173"/>
</g>
<!-- Node3 -->
<g id="node3" class="node"><title>Node3</title>
<g id="a_node3"><a xlink:href="../../d1/d67/_i_n_r-_n_a_p_i_8c.html" target="_top" xlink:title="Functions for NewNetworkAPI. ">
<polygon fill="white" stroke="black" points="74,-0.5 74,-19.5 144,-19.5 144,-0.5 74,-0.5"/>
<text text-anchor="middle" x="109" y="-7.5" font-family="Helvetica,sans-Serif" font-size="10.00">INR&#45;NAPI.c</text>
</a>
</g>
</g>
<!-- Node1&#45;&gt;Node3 -->
<g id="edge2" class="edge"><title>Node1&#45;&gt;Node3</title>
<path fill="none" stroke="midnightblue" d="M204.759,-52.3678C181.35,-42.2553 149.159,-28.3486 128.714,-19.5164"/>
<polygon fill="midnightblue" stroke="midnightblue" points="203.625,-55.6907 214.193,-56.4435 206.401,-49.2647 203.625,-55.6907"/>
</g>
<!-- Node4 -->
<g id="node4" class="node"><title>Node4</title>
<g id="a_node4"><a xlink:href="../../de/dc6/_i_n_r-_n_w_8c.html" target="_top" xlink:title="Functions for the Network&#45;stack. ">
<polygon fill="white" stroke="black" points="162.5,-0.5 162.5,-19.5 225.5,-19.5 225.5,-0.5 162.5,-0.5"/>
<text text-anchor="middle" x="194" y="-7.5" font-family="Helvetica,sans-Serif" font-size="10.00">INR&#45;NW.c</text>
</a>
</g>
</g>
<!-- Node1&#45;&gt;Node4 -->
<g id="edge3" class="edge"><title>Node1&#45;&gt;Node4</title>
<path fill="none" stroke="midnightblue" d="M221.3,-47.8554C214.374,-38.5048 206.094,-27.3265 200.482,-19.7511"/>
<polygon fill="midnightblue" stroke="midnightblue" points="218.63,-50.1307 227.395,-56.083 224.255,-45.9641 218.63,-50.1307"/>
</g>
<!-- Node5 -->
<g id="node5" class="node"><title>Node5</title>
<g id="a_node5"><a xlink:href="../../dc/dc8/_i_n_r-_p_c_i_8c.html" target="_top" xlink:title="Functions for PCI communication. ">
<polygon fill="white" stroke="black" points="243.5,-0.5 243.5,-19.5 306.5,-19.5 306.5,-0.5 243.5,-0.5"/>
<text text-anchor="middle" x="275" y="-7.5" font-family="Helvetica,sans-Serif" font-size="10.00">INR&#45;PCI.c</text>
</a>
</g>
</g>
<!-- Node1&#45;&gt;Node5 -->
<g id="edge4" class="edge"><title>Node1&#45;&gt;Node5</title>
<path fill="none" stroke="midnightblue" d="M247.017,-47.8554C254.117,-38.5048 262.604,-27.3265 268.356,-19.7511"/>
<polygon fill="midnightblue" stroke="midnightblue" points="244.03,-46.002 240.77,-56.083 249.605,-50.235 244.03,-46.002"/>
</g>
<!-- Node6 -->
<g id="node6" class="node"><title>Node6</title>
<g id="a_node6"><a xlink:href="../../d3/d3a/_i_n_r_8c.html" target="_top" xlink:title="Global helper functions. ">
<polygon fill="white" stroke="black" points="324.5,-0.5 324.5,-19.5 367.5,-19.5 367.5,-0.5 324.5,-0.5"/>
<text text-anchor="middle" x="346" y="-7.5" font-family="Helvetica,sans-Serif" font-size="10.00">INR.c</text>
</a>
</g>
</g>
<!-- Node1&#45;&gt;Node6 -->
<g id="edge5" class="edge"><title>Node1&#45;&gt;Node6</title>
<path fill="none" stroke="midnightblue" d="M261.249,-51.8622C282.016,-41.8492 310.023,-28.3458 328.05,-19.6545"/>
<polygon fill="midnightblue" stroke="midnightblue" points="259.482,-48.8282 251.995,-56.324 262.523,-55.1336 259.482,-48.8282"/>
</g>
<!-- Node7 -->
<g id="node7" class="node"><title>Node7</title>
<g id="a_node7"><a xlink:href="../../d0/d29/main_8c.html" target="_top" xlink:title="main driver Function M.Ulbricht 2015 ">
<polygon fill="white" stroke="black" points="386,-0.5 386,-19.5 432,-19.5 432,-0.5 386,-0.5"/>
<text text-anchor="middle" x="409" y="-7.5" font-family="Helvetica,sans-Serif" font-size="10.00">main.c</text>
</a>
</g>
</g>
<!-- Node1&#45;&gt;Node7 -->
<g id="edge6" class="edge"><title>Node1&#45;&gt;Node7</title>
<path fill="none" stroke="midnightblue" d="M265.426,-55.3028C300.038,-44.6227 354.876,-27.7012 385.799,-18.159"/>
<polygon fill="midnightblue" stroke="midnightblue" points="264.333,-51.977 255.81,-58.27 266.397,-58.6658 264.333,-51.977"/>
</g>
</g>
</svg>
