<?xml version="1.0" encoding="UTF-8" standalone="no"?>
<!DOCTYPE svg PUBLIC "-//W3C//DTD SVG 1.1//EN"
 "http://www.w3.org/Graphics/SVG/1.1/DTD/svg11.dtd">
<!-- Generated by graphviz version 2.38.0 (20140413.2041)
 -->
<!-- Title: INR_NAPI_poll_7 Pages: 1 -->
<!--zoomable 154 -->
<svg id="main" version="1.1" xmlns="http://www.w3.org/2000/svg" xmlns:xlink="http://www.w3.org/1999/xlink" xml:space="preserve" onload="init(evt)">
<style type="text/css"><![CDATA[
.edge:hover path { stroke: red; }
.edge:hover polygon { stroke: red; fill: red; }
]]></style>
<script type="text/javascript"><![CDATA[
var edges = document.getElementsByTagName('g');
if (edges && edges.length) {
  for (var i=0;i<edges.length;i++) {
    if (edges[i].id.substr(0,4)=='edge') {
      edges[i].setAttribute('class','edge');
    }
  }
}
]]></script>
        <defs>
                <circle id="rim" cx="0" cy="0" r="7"/>
                <circle id="rim2" cx="0" cy="0" r="3.5"/>
                <g id="zoomPlus">
                        <use xlink:href="#rim" fill="#404040">
                                <set attributeName="fill" to="#808080" begin="zoomplus.mouseover" end="zoomplus.mouseout"/>
                        </use>
                        <path d="M-4,0h8M0,-4v8" fill="none" stroke="white" stroke-width="1.5" pointer-events="none"/>
                </g>
                <g id="zoomMin">
                        <use xlink:href="#rim" fill="#404040">
                                <set attributeName="fill" to="#808080" begin="zoomminus.mouseover" end="zoomminus.mouseout"/>
                        </use>
                        <path d="M-4,0h8" fill="none" stroke="white" stroke-width="1.5" pointer-events="none"/>
                </g>
                <g id="dirArrow">
                        <path fill="none" stroke="white" stroke-width="1.5" d="M0,-3.0v7 M-2.5,-0.5L0,-3.0L2.5,-0.5"/>
                </g>
               <g id="resetDef">
                       <use xlink:href="#rim2" fill="#404040">
                               <set attributeName="fill" to="#808080" begin="reset.mouseover" end="reset.mouseout"/>
                       </use>
               </g>
        </defs>

<script type="text/javascript">
var viewWidth = 886;
var viewHeight = 154;
var sectionId = 'dynsection-30';
</script>
<script xlink:href="../../svgpan.js"/>
<svg id="graph" class="graph">
<g id="viewport">
<title>INR_NAPI_poll_7</title>
<polygon fill="white" stroke="none" points="-4,4 -4,-149.5 882,-149.5 882,4 -4,4"/>
<!-- Node1 -->
<g id="node1" class="node"><title>Node1</title>
<polygon fill="#bfbfbf" stroke="black" points="0,-91 0,-110 95,-110 95,-91 0,-91"/>
<text text-anchor="middle" x="47.5" y="-98" font-family="Helvetica,sans-Serif" font-size="10.00">INR_NAPI_poll_7</text>
</g>
<!-- Node2 -->
<g id="node2" class="node"><title>Node2</title>
<g id="a_node2"><a xlink:href="../../d1/d67/_i_n_r-_n_a_p_i_8c.html#a517ed25d9d1f3ee1c648633b74f4469b" target="_top" xlink:title="INR_NAPI_complete">
<polygon fill="white" stroke="black" points="131.5,-113 131.5,-132 240.5,-132 240.5,-113 131.5,-113"/>
<text text-anchor="middle" x="186" y="-120" font-family="Helvetica,sans-Serif" font-size="10.00">INR_NAPI_complete</text>
</a>
</g>
</g>
<!-- Node1&#45;&gt;Node2 -->
<g id="edge1" class="edge"><title>Node1&#45;&gt;Node2</title>
<path fill="none" stroke="midnightblue" d="M95.0938,-108.01C103.42,-109.352 112.227,-110.771 120.942,-112.176"/>
<polygon fill="midnightblue" stroke="midnightblue" points="120.666,-115.676 131.096,-113.812 121.78,-108.765 120.666,-115.676"/>
</g>
<!-- Node3 -->
<g id="node3" class="node"><title>Node3</title>
<g id="a_node3"><a xlink:href="../../dc/dc8/_i_n_r-_p_c_i_8c.html#a317b7c374854b88af0059ff2a3708ce9" target="_top" xlink:title="INR_PCI_process_rx\l_descriptor_ring">
<polygon fill="white" stroke="black" points="131,-63.5 131,-93.5 241,-93.5 241,-63.5 131,-63.5"/>
<text text-anchor="start" x="139" y="-81.5" font-family="Helvetica,sans-Serif" font-size="10.00">INR_PCI_process_rx</text>
<text text-anchor="middle" x="186" y="-70.5" font-family="Helvetica,sans-Serif" font-size="10.00">_descriptor_ring</text>
</a>
</g>
</g>
<!-- Node1&#45;&gt;Node3 -->
<g id="edge2" class="edge"><title>Node1&#45;&gt;Node3</title>
<path fill="none" stroke="midnightblue" d="M95.0938,-92.9904C103.309,-91.6663 111.992,-90.2669 120.593,-88.8806"/>
<polygon fill="midnightblue" stroke="midnightblue" points="121.304,-92.3113 130.62,-87.2646 120.19,-85.4005 121.304,-92.3113"/>
</g>
<!-- Node4 -->
<g id="node4" class="node"><title>Node4</title>
<g id="a_node4"><a xlink:href="../../d3/d3a/_i_n_r_8c.html#a055451b31abceb46e8c92789d0523980" target="_top" xlink:title="INR_CHECK_fpga_read_val">
<polygon fill="white" stroke="black" points="453,-126 453,-145 595,-145 595,-126 453,-126"/>
<text text-anchor="middle" x="524" y="-133" font-family="Helvetica,sans-Serif" font-size="10.00">INR_CHECK_fpga_read_val</text>
</a>
</g>
</g>
<!-- Node3&#45;&gt;Node4 -->
<g id="edge3" class="edge"><title>Node3&#45;&gt;Node4</title>
<path fill="none" stroke="midnightblue" d="M221.851,-93.6301C238.284,-100.15 258.341,-107.242 277,-111.5 331.485,-123.933 394.201,-129.927 442.672,-132.816"/>
<polygon fill="midnightblue" stroke="midnightblue" points="442.609,-136.318 452.79,-133.387 443.003,-129.329 442.609,-136.318"/>
</g>
<!-- Node5 -->
<g id="node5" class="node"><title>Node5</title>
<g id="a_node5"><a xlink:href="../../d3/d3a/_i_n_r_8c.html#a549bff83219b80ccf76c695682e37707" target="_top" xlink:title="INR_LOG_debug">
<polygon fill="white" stroke="black" points="786,-69 786,-88 878,-88 878,-69 786,-69"/>
<text text-anchor="middle" x="832" y="-76" font-family="Helvetica,sans-Serif" font-size="10.00">INR_LOG_debug</text>
</a>
</g>
</g>
<!-- Node3&#45;&gt;Node5 -->
<g id="edge5" class="edge"><title>Node3&#45;&gt;Node5</title>
<path fill="none" stroke="midnightblue" d="M241.075,-78.5C361.991,-78.5 653.189,-78.5 775.463,-78.5"/>
<polygon fill="midnightblue" stroke="midnightblue" points="775.716,-82.0001 785.716,-78.5 775.716,-75.0001 775.716,-82.0001"/>
</g>
<!-- Node6 -->
<g id="node6" class="node"><title>Node6</title>
<g id="a_node6"><a xlink:href="../../de/dc6/_i_n_r-_n_w_8c.html#a3be8a2ad7ead39dfd6b239b890dc1146" target="_top" xlink:title="get_nwdev">
<polygon fill="white" stroke="black" points="315,-50 315,-69 379,-69 379,-50 315,-50"/>
<text text-anchor="middle" x="347" y="-57" font-family="Helvetica,sans-Serif" font-size="10.00">get_nwdev</text>
</a>
</g>
</g>
<!-- Node3&#45;&gt;Node6 -->
<g id="edge6" class="edge"><title>Node3&#45;&gt;Node6</title>
<path fill="none" stroke="midnightblue" d="M241.274,-72.0144C262.016,-69.5358 285.314,-66.7518 304.66,-64.44"/>
<polygon fill="midnightblue" stroke="midnightblue" points="305.156,-67.9058 314.67,-63.2439 304.325,-60.9552 305.156,-67.9058"/>
</g>
<!-- Node7 -->
<g id="node7" class="node"><title>Node7</title>
<g id="a_node7"><a xlink:href="../../dc/dc8/_i_n_r-_p_c_i_8c.html#a03f960f01f96c2f664301c6830461c7f" target="_top" xlink:title="INR_PCI_alloc_new_rx_skb">
<polygon fill="white" stroke="black" points="277,-12 277,-31 417,-31 417,-12 277,-12"/>
<text text-anchor="middle" x="347" y="-19" font-family="Helvetica,sans-Serif" font-size="10.00">INR_PCI_alloc_new_rx_skb</text>
</a>
</g>
</g>
<!-- Node3&#45;&gt;Node7 -->
<g id="edge7" class="edge"><title>Node3&#45;&gt;Node7</title>
<path fill="none" stroke="midnightblue" d="M219.934,-63.372C236.796,-55.941 257.773,-47.1742 277,-40.5 283.625,-38.2004 290.682,-35.9914 297.659,-33.9446"/>
<polygon fill="midnightblue" stroke="midnightblue" points="299.103,-37.1727 307.764,-31.0705 297.188,-30.4398 299.103,-37.1727"/>
</g>
<!-- Node4&#45;&gt;Node5 -->
<g id="edge4" class="edge"><title>Node4&#45;&gt;Node5</title>
<path fill="none" stroke="midnightblue" d="M595.066,-133.082C639.918,-130.3 699.047,-124.325 750,-111.5 767.998,-106.97 787.275,-99.243 802.506,-92.4046"/>
<polygon fill="midnightblue" stroke="midnightblue" points="804.262,-95.4488 811.877,-88.0816 801.33,-89.0926 804.262,-95.4488"/>
</g>
<!-- Node8 -->
<g id="node8" class="node"><title>Node8</title>
<g id="a_node8"><a xlink:href="../../dc/dc8/_i_n_r-_p_c_i_8c.html#af88a9db4ef6451751a395e1207fd7066" target="_top" xlink:title="INR_PCI_get_new_rx\l_descriptor_ring_entry">
<polygon fill="white" stroke="black" points="467.5,-6.5 467.5,-36.5 580.5,-36.5 580.5,-6.5 467.5,-6.5"/>
<text text-anchor="start" x="475.5" y="-24.5" font-family="Helvetica,sans-Serif" font-size="10.00">INR_PCI_get_new_rx</text>
<text text-anchor="middle" x="524" y="-13.5" font-family="Helvetica,sans-Serif" font-size="10.00">_descriptor_ring_entry</text>
</a>
</g>
</g>
<!-- Node7&#45;&gt;Node8 -->
<g id="edge8" class="edge"><title>Node7&#45;&gt;Node8</title>
<path fill="none" stroke="midnightblue" d="M417.165,-21.5C430.282,-21.5 443.974,-21.5 456.991,-21.5"/>
<polygon fill="midnightblue" stroke="midnightblue" points="457.261,-25.0001 467.261,-21.5 457.261,-18.0001 457.261,-25.0001"/>
</g>
<!-- Node8&#45;&gt;Node5 -->
<g id="edge11" class="edge"><title>Node8&#45;&gt;Node5</title>
<path fill="none" stroke="midnightblue" d="M580.769,-31.8884C636.108,-42.1966 720.423,-57.9024 775.624,-68.1849"/>
<polygon fill="midnightblue" stroke="midnightblue" points="775.107,-71.6487 785.579,-70.0392 776.389,-64.7671 775.107,-71.6487"/>
</g>
<!-- Node9 -->
<g id="node9" class="node"><title>Node9</title>
<g id="a_node9"><a xlink:href="../../dc/dc8/_i_n_r-_p_c_i_8c.html#adbea73204b38d31f4b80feb56a27b810" target="_top" xlink:title="INR_PCI_rx_descriptor\l_pool_refill">
<polygon fill="white" stroke="black" points="631,-0.5 631,-30.5 750,-30.5 750,-0.5 631,-0.5"/>
<text text-anchor="start" x="639" y="-18.5" font-family="Helvetica,sans-Serif" font-size="10.00">INR_PCI_rx_descriptor</text>
<text text-anchor="middle" x="690.5" y="-7.5" font-family="Helvetica,sans-Serif" font-size="10.00">_pool_refill</text>
</a>
</g>
</g>
<!-- Node8&#45;&gt;Node9 -->
<g id="edge9" class="edge"><title>Node8&#45;&gt;Node9</title>
<path fill="none" stroke="midnightblue" d="M580.692,-19.4687C593.542,-19 607.36,-18.496 620.694,-18.0096"/>
<polygon fill="midnightblue" stroke="midnightblue" points="620.906,-21.5043 630.772,-17.642 620.651,-14.509 620.906,-21.5043"/>
</g>
<!-- Node9&#45;&gt;Node5 -->
<g id="edge10" class="edge"><title>Node9&#45;&gt;Node5</title>
<path fill="none" stroke="midnightblue" d="M724.914,-30.5901C747.804,-40.9275 777.937,-54.5362 800.238,-64.6073"/>
<polygon fill="midnightblue" stroke="midnightblue" points="799.02,-67.8978 809.574,-68.8239 801.901,-61.5182 799.02,-67.8978"/>
</g>
</g>
</svg>
        <g id="navigator" transform="translate(0 0)" fill="#404254">
                <rect fill="#f2f5e9" fill-opacity="0.5" stroke="#606060" stroke-width=".5" x="0" y="0" width="60" height="60"/>
                <use id="zoomplus" xlink:href="#zoomPlus" x="17" y="9" onmousedown="handleZoom(evt,'in')"/>
                <use id="zoomminus" xlink:href="#zoomMin" x="42" y="9" onmousedown="handleZoom(evt,'out')"/>
                <use id="reset" xlink:href="#resetDef" x="30" y="36" onmousedown="handleReset()"/>
                <g id="arrowUp" xlink:href="#dirArrow" transform="translate(30 24)" onmousedown="handlePan(0,-1)">
                  <use xlink:href="#rim" fill="#404040">
                        <set attributeName="fill" to="#808080" begin="arrowUp.mouseover" end="arrowUp.mouseout"/>
                  </use>
                  <path fill="none" stroke="white" stroke-width="1.5" d="M0,-3.0v7 M-2.5,-0.5L0,-3.0L2.5,-0.5"/>
                </g>
                <g id="arrowRight" xlink:href="#dirArrow" transform="rotate(90) translate(36 -43)" onmousedown="handlePan(1,0)">
                  <use xlink:href="#rim" fill="#404040">
                        <set attributeName="fill" to="#808080" begin="arrowRight.mouseover" end="arrowRight.mouseout"/>
                  </use>
                  <path fill="none" stroke="white" stroke-width="1.5" d="M0,-3.0v7 M-2.5,-0.5L0,-3.0L2.5,-0.5"/>
                </g>
                <g id="arrowDown" xlink:href="#dirArrow" transform="rotate(180) translate(-30 -48)" onmousedown="handlePan(0,1)">
                  <use xlink:href="#rim" fill="#404040">
                        <set attributeName="fill" to="#808080" begin="arrowDown.mouseover" end="arrowDown.mouseout"/>
                  </use>
                  <path fill="none" stroke="white" stroke-width="1.5" d="M0,-3.0v7 M-2.5,-0.5L0,-3.0L2.5,-0.5"/>
                </g>
                <g id="arrowLeft" xlink:href="#dirArrow" transform="rotate(270) translate(-36 17)" onmousedown="handlePan(-1,0)">
                  <use xlink:href="#rim" fill="#404040">
                        <set attributeName="fill" to="#808080" begin="arrowLeft.mouseover" end="arrowLeft.mouseout"/>
                  </use>
                  <path fill="none" stroke="white" stroke-width="1.5" d="M0,-3.0v7 M-2.5,-0.5L0,-3.0L2.5,-0.5"/>
                </g>
        </g>
        <svg viewBox="0 0 15 15" width="100%" height="30px" preserveAspectRatio="xMaxYMin meet">
         <g id="arrow_out" transform="scale(0.3 0.3)">
          <a xlink:href="_i_n_r-_n_a_p_i_8h_a05cb8dc7168c07cf8755dc8e4075caba_cgraph_org.svg" target="_base">
           <rect id="button" ry="5" rx="5" y="6" x="6" height="38" width="38"
                fill="#f2f5e9" fill-opacity="0.5" stroke="#606060" stroke-width="1.0"/>
           <path id="arrow"
             d="M 11.500037,31.436501 C 11.940474,20.09759 22.043105,11.32322 32.158766,21.979434 L 37.068811,17.246167 C 37.068811,17.246167 37.088388,32 37.088388,32 L 22.160133,31.978069 C 22.160133,31.978069 26.997745,27.140456 26.997745,27.140456 C 18.528582,18.264221 13.291696,25.230495 11.500037,31.436501 z"
             style="fill:#404040;"/>
          </a>
         </g>
        </svg>
</svg>
