<?xml version="1.0" encoding="UTF-8" standalone="no"?>
<!DOCTYPE svg PUBLIC "-//W3C//DTD SVG 1.1//EN"
 "http://www.w3.org/Graphics/SVG/1.1/DTD/svg11.dtd">
<!-- Generated by graphviz version 2.36.0 (20140111.2315)
 -->
<!-- Title: INR_CTL_ovs_flow_add Pages: 1 -->
<svg width="392pt" height="28pt"
 viewBox="0.00 0.00 392.00 28.00" xmlns="http://www.w3.org/2000/svg" xmlns:xlink="http://www.w3.org/1999/xlink">
<g id="graph0" class="graph" transform="scale(1 1) rotate(0) translate(4 24)">
<title>INR_CTL_ovs_flow_add</title>
<polygon fill="white" stroke="none" points="-4,4 -4,-24 388,-24 388,4 -4,4"/>
<!-- Node1 -->
<g id="node1" class="node"><title>Node1</title>
<polygon fill="#bfbfbf" stroke="black" points="0,-0.5 0,-19.5 124,-19.5 124,-0.5 0,-0.5"/>
<text text-anchor="middle" x="62" y="-7.5" font-family="Helvetica,sans-Serif" font-size="10.00">INR_CTL_ovs_flow_add</text>
</g>
<!-- Node2 -->
<g id="node2" class="node"><title>Node2</title>
<g id="a_node2"><a xlink:href="../../dc/d62/_i_n_r-ctl_8h.html#a9c189ca74efb7ebe5f93ab70e6bed1bf" target="_top" xlink:title="INR_CTL_ovs_d">
<polygon fill="white" stroke="black" points="160,-0.5 160,-19.5 250,-19.5 250,-0.5 160,-0.5"/>
<text text-anchor="middle" x="205" y="-7.5" font-family="Helvetica,sans-Serif" font-size="10.00">INR_CTL_ovs_d</text>
</a>
</g>
</g>
<!-- Node1&#45;&gt;Node2 -->
<g id="edge1" class="edge"><title>Node1&#45;&gt;Node2</title>
<path fill="none" stroke="midnightblue" d="M134.255,-10C142.991,-10 151.712,-10 159.881,-10"/>
<polygon fill="midnightblue" stroke="midnightblue" points="134.025,-6.5001 124.025,-10 134.025,-13.5001 134.025,-6.5001"/>
</g>
<!-- Node3 -->
<g id="node3" class="node"><title>Node3</title>
<g id="a_node3"><a xlink:href="../../dc/d62/_i_n_r-ctl_8h.html#a476d839aa251268ad30ad266f9f35a11" target="_top" xlink:title="INR_CTL_init_ovs">
<polygon fill="white" stroke="black" points="286,-0.5 286,-19.5 384,-19.5 384,-0.5 286,-0.5"/>
<text text-anchor="middle" x="335" y="-7.5" font-family="Helvetica,sans-Serif" font-size="10.00">INR_CTL_init_ovs</text>
</a>
</g>
</g>
<!-- Node2&#45;&gt;Node3 -->
<g id="edge2" class="edge"><title>Node2&#45;&gt;Node3</title>
<path fill="none" stroke="midnightblue" d="M260.285,-10C268.805,-10 277.56,-10 285.928,-10"/>
<polygon fill="midnightblue" stroke="midnightblue" points="260.05,-6.5001 250.05,-10 260.05,-13.5001 260.05,-6.5001"/>
</g>
</g>
</svg>
