<?xml version="1.0" encoding="UTF-8" standalone="no"?>
<!DOCTYPE svg PUBLIC "-//W3C//DTD SVG 1.1//EN"
 "http://www.w3.org/Graphics/SVG/1.1/DTD/svg11.dtd">
<!-- Generated by graphviz version 2.36.0 (20140111.2315)
 -->
<!-- Title: INR_CTL_ovs_flow_flush Pages: 1 -->
<svg width="398pt" height="28pt"
 viewBox="0.00 0.00 398.00 28.00" xmlns="http://www.w3.org/2000/svg" xmlns:xlink="http://www.w3.org/1999/xlink">
<g id="graph0" class="graph" transform="scale(1 1) rotate(0) translate(4 24)">
<title>INR_CTL_ovs_flow_flush</title>
<polygon fill="white" stroke="none" points="-4,4 -4,-24 394,-24 394,4 -4,4"/>
<!-- Node1 -->
<g id="node1" class="node"><title>Node1</title>
<polygon fill="#bfbfbf" stroke="black" points="0.5,-0.5 0.5,-19.5 129.5,-19.5 129.5,-0.5 0.5,-0.5"/>
<text text-anchor="middle" x="65" y="-7.5" font-family="Helvetica,sans-Serif" font-size="10.00">INR_CTL_ovs_flow_flush</text>
</g>
<!-- Node2 -->
<g id="node2" class="node"><title>Node2</title>
<g id="a_node2"><a xlink:href="../../dc/d62/_i_n_r-ctl_8h.html#a9c189ca74efb7ebe5f93ab70e6bed1bf" target="_top" xlink:title="INR_CTL_ovs_d">
<polygon fill="white" stroke="black" points="166,-0.5 166,-19.5 256,-19.5 256,-0.5 166,-0.5"/>
<text text-anchor="middle" x="211" y="-7.5" font-family="Helvetica,sans-Serif" font-size="10.00">INR_CTL_ovs_d</text>
</a>
</g>
</g>
<!-- Node1&#45;&gt;Node2 -->
<g id="edge1" class="edge"><title>Node1&#45;&gt;Node2</title>
<path fill="none" stroke="midnightblue" d="M139.636,-10C148.557,-10 157.444,-10 165.749,-10"/>
<polygon fill="midnightblue" stroke="midnightblue" points="139.58,-6.5001 129.58,-10 139.58,-13.5001 139.58,-6.5001"/>
</g>
<!-- Node3 -->
<g id="node3" class="node"><title>Node3</title>
<g id="a_node3"><a xlink:href="../../dc/d62/_i_n_r-ctl_8h.html#a476d839aa251268ad30ad266f9f35a11" target="_top" xlink:title="INR_CTL_init_ovs">
<polygon fill="white" stroke="black" points="292,-0.5 292,-19.5 390,-19.5 390,-0.5 292,-0.5"/>
<text text-anchor="middle" x="341" y="-7.5" font-family="Helvetica,sans-Serif" font-size="10.00">INR_CTL_init_ovs</text>
</a>
</g>
</g>
<!-- Node2&#45;&gt;Node3 -->
<g id="edge2" class="edge"><title>Node2&#45;&gt;Node3</title>
<path fill="none" stroke="midnightblue" d="M266.285,-10C274.805,-10 283.56,-10 291.928,-10"/>
<polygon fill="midnightblue" stroke="midnightblue" points="266.05,-6.5001 256.05,-10 266.05,-13.5001 266.05,-6.5001"/>
</g>
</g>
</svg>
