<?xml version="1.0" encoding="UTF-8" standalone="no"?>
<!DOCTYPE svg PUBLIC "-//W3C//DTD SVG 1.1//EN"
 "http://www.w3.org/Graphics/SVG/1.1/DTD/svg11.dtd">
<!-- Generated by graphviz version 2.38.0 (20140413.2041)
 -->
<!-- Title: INR&#45;NW.c Pages: 1 -->
<svg width="1426pt" height="84pt"
 viewBox="0.00 0.00 1425.50 84.00" xmlns="http://www.w3.org/2000/svg" xmlns:xlink="http://www.w3.org/1999/xlink">
<g id="graph0" class="graph" transform="scale(1 1) rotate(0) translate(4 80)">
<title>INR&#45;NW.c</title>
<polygon fill="white" stroke="none" points="-4,4 -4,-80 1421.5,-80 1421.5,4 -4,4"/>
<!-- Node1 -->
<g id="node1" class="node"><title>Node1</title>
<polygon fill="#bfbfbf" stroke="black" points="654.5,-56.5 654.5,-75.5 717.5,-75.5 717.5,-56.5 654.5,-56.5"/>
<text text-anchor="middle" x="686" y="-63.5" font-family="Helvetica,sans-Serif" font-size="10.00">INR&#45;NW.c</text>
</g>
<!-- Node2 -->
<g id="node2" class="node"><title>Node2</title>
<polygon fill="white" stroke="#bfbfbf" points="0,-0.5 0,-19.5 74,-19.5 74,-0.5 0,-0.5"/>
<text text-anchor="middle" x="37" y="-7.5" font-family="Helvetica,sans-Serif" font-size="10.00">linux/kernel.h</text>
</g>
<!-- Node1&#45;&gt;Node2 -->
<g id="edge1" class="edge"><title>Node1&#45;&gt;Node2</title>
<path fill="none" stroke="midnightblue" d="M654.476,-63.9673C566.068,-60.7918 308.149,-49.6139 84.0651,-19.9837"/>
<polygon fill="midnightblue" stroke="midnightblue" points="84.4701,-16.5068 74.0943,-18.65 83.542,-23.445 84.4701,-16.5068"/>
</g>
<!-- Node3 -->
<g id="node3" class="node"><title>Node3</title>
<polygon fill="white" stroke="#bfbfbf" points="92,-0.5 92,-19.5 172,-19.5 172,-0.5 92,-0.5"/>
<text text-anchor="middle" x="132" y="-7.5" font-family="Helvetica,sans-Serif" font-size="10.00">linux/module.h</text>
</g>
<!-- Node1&#45;&gt;Node3 -->
<g id="edge2" class="edge"><title>Node1&#45;&gt;Node3</title>
<path fill="none" stroke="midnightblue" d="M654.273,-63.1989C575.93,-58.533 366.878,-44.7537 182.229,-20.0461"/>
<polygon fill="midnightblue" stroke="midnightblue" points="182.442,-16.5431 172.063,-18.6713 181.503,-23.48 182.442,-16.5431"/>
</g>
<!-- Node4 -->
<g id="node4" class="node"><title>Node4</title>
<polygon fill="white" stroke="#bfbfbf" points="190.5,-0.5 190.5,-19.5 251.5,-19.5 251.5,-0.5 190.5,-0.5"/>
<text text-anchor="middle" x="221" y="-7.5" font-family="Helvetica,sans-Serif" font-size="10.00">linux/pci.h</text>
</g>
<!-- Node1&#45;&gt;Node4 -->
<g id="edge3" class="edge"><title>Node1&#45;&gt;Node4</title>
<path fill="none" stroke="midnightblue" d="M654.291,-62.9747C584.826,-58.2552 413.883,-45.1009 261.589,-20.0929"/>
<polygon fill="midnightblue" stroke="midnightblue" points="262.025,-16.6173 251.586,-18.4285 260.876,-23.5224 262.025,-16.6173"/>
</g>
<!-- Node5 -->
<g id="node5" class="node"><title>Node5</title>
<polygon fill="white" stroke="#bfbfbf" points="269.5,-0.5 269.5,-19.5 330.5,-19.5 330.5,-0.5 269.5,-0.5"/>
<text text-anchor="middle" x="300" y="-7.5" font-family="Helvetica,sans-Serif" font-size="10.00">linux/init.h</text>
</g>
<!-- Node1&#45;&gt;Node5 -->
<g id="edge4" class="edge"><title>Node1&#45;&gt;Node5</title>
<path fill="none" stroke="midnightblue" d="M654.263,-61.9346C594.695,-55.9556 461.916,-41.5614 340.785,-20.179"/>
<polygon fill="midnightblue" stroke="midnightblue" points="341.058,-16.6724 330.598,-18.3591 339.827,-23.5633 341.058,-16.6724"/>
</g>
<!-- Node6 -->
<g id="node6" class="node"><title>Node6</title>
<polygon fill="white" stroke="#bfbfbf" points="348.5,-0.5 348.5,-19.5 431.5,-19.5 431.5,-0.5 348.5,-0.5"/>
<text text-anchor="middle" x="390" y="-7.5" font-family="Helvetica,sans-Serif" font-size="10.00">linux/interrupt.h</text>
</g>
<!-- Node1&#45;&gt;Node6 -->
<g id="edge5" class="edge"><title>Node1&#45;&gt;Node6</title>
<path fill="none" stroke="midnightblue" d="M654.323,-59.2211C603.464,-49.9427 503.095,-31.6323 441.731,-20.4374"/>
<polygon fill="midnightblue" stroke="midnightblue" points="442.326,-16.9882 431.86,-18.6366 441.07,-23.8746 442.326,-16.9882"/>
</g>
<!-- Node7 -->
<g id="node7" class="node"><title>Node7</title>
<polygon fill="white" stroke="#bfbfbf" points="449.5,-0.5 449.5,-19.5 520.5,-19.5 520.5,-0.5 449.5,-0.5"/>
<text text-anchor="middle" x="485" y="-7.5" font-family="Helvetica,sans-Serif" font-size="10.00">linux/delay.h</text>
</g>
<!-- Node1&#45;&gt;Node7 -->
<g id="edge6" class="edge"><title>Node1&#45;&gt;Node7</title>
<path fill="none" stroke="midnightblue" d="M654.151,-56.4435C619.602,-47.1616 564.318,-32.3093 526.417,-22.127"/>
<polygon fill="midnightblue" stroke="midnightblue" points="527.266,-18.7309 516.7,-19.5164 525.449,-25.4912 527.266,-18.7309"/>
</g>
<!-- Node8 -->
<g id="node8" class="node"><title>Node8</title>
<polygon fill="white" stroke="#bfbfbf" points="539,-0.5 539,-19.5 629,-19.5 629,-0.5 539,-0.5"/>
<text text-anchor="middle" x="584" y="-7.5" font-family="Helvetica,sans-Serif" font-size="10.00">linux/netdevice.h</text>
</g>
<!-- Node1&#45;&gt;Node8 -->
<g id="edge7" class="edge"><title>Node1&#45;&gt;Node8</title>
<path fill="none" stroke="midnightblue" d="M669.612,-56.324C653.329,-47.7034 628.133,-34.3643 609.284,-24.3855"/>
<polygon fill="midnightblue" stroke="midnightblue" points="610.823,-21.2402 600.347,-19.6545 607.548,-27.4267 610.823,-21.2402"/>
</g>
<!-- Node9 -->
<g id="node9" class="node"><title>Node9</title>
<polygon fill="white" stroke="#bfbfbf" points="647.5,-0.5 647.5,-19.5 724.5,-19.5 724.5,-0.5 647.5,-0.5"/>
<text text-anchor="middle" x="686" y="-7.5" font-family="Helvetica,sans-Serif" font-size="10.00">linux/if_vlan.h</text>
</g>
<!-- Node1&#45;&gt;Node9 -->
<g id="edge8" class="edge"><title>Node1&#45;&gt;Node9</title>
<path fill="none" stroke="midnightblue" d="M686,-56.083C686,-49.0059 686,-38.8611 686,-29.9865"/>
<polygon fill="midnightblue" stroke="midnightblue" points="689.5,-29.751 686,-19.7511 682.5,-29.7511 689.5,-29.751"/>
</g>
<!-- Node10 -->
<g id="node10" class="node"><title>Node10</title>
<polygon fill="white" stroke="#bfbfbf" points="743,-0.5 743,-19.5 861,-19.5 861,-0.5 743,-0.5"/>
<text text-anchor="middle" x="802" y="-7.5" font-family="Helvetica,sans-Serif" font-size="10.00">linux/netdev_features.h</text>
</g>
<!-- Node1&#45;&gt;Node10 -->
<g id="edge9" class="edge"><title>Node1&#45;&gt;Node10</title>
<path fill="none" stroke="midnightblue" d="M704.381,-56.4435C723.216,-47.6751 752.731,-33.9355 774.379,-23.8579"/>
<polygon fill="midnightblue" stroke="midnightblue" points="776.117,-26.9098 783.705,-19.5164 773.162,-20.5637 776.117,-26.9098"/>
</g>
<!-- Node11 -->
<g id="node11" class="node"><title>Node11</title>
<polygon fill="white" stroke="#bfbfbf" points="879,-0.5 879,-19.5 977,-19.5 977,-0.5 879,-0.5"/>
<text text-anchor="middle" x="928" y="-7.5" font-family="Helvetica,sans-Serif" font-size="10.00">linux/etherdevice.h</text>
</g>
<!-- Node1&#45;&gt;Node11 -->
<g id="edge10" class="edge"><title>Node1&#45;&gt;Node11</title>
<path fill="none" stroke="midnightblue" d="M717.637,-57.9404C758.903,-48.7324 831.5,-32.5332 879.677,-21.7829"/>
<polygon fill="midnightblue" stroke="midnightblue" points="880.569,-25.1699 889.567,-19.576 879.044,-18.338 880.569,-25.1699"/>
</g>
<!-- Node12 -->
<g id="node12" class="node"><title>Node12</title>
<polygon fill="white" stroke="#bfbfbf" points="994.5,-0.5 994.5,-19.5 1101.5,-19.5 1101.5,-0.5 994.5,-0.5"/>
<text text-anchor="middle" x="1048" y="-7.5" font-family="Helvetica,sans-Serif" font-size="10.00">linux/dma&#45;mapping.h</text>
</g>
<!-- Node1&#45;&gt;Node12 -->
<g id="edge11" class="edge"><title>Node1&#45;&gt;Node12</title>
<path fill="none" stroke="midnightblue" d="M717.808,-60.2552C777.249,-51.3882 906.208,-32.1513 984.21,-20.5157"/>
<polygon fill="midnightblue" stroke="midnightblue" points="985.023,-23.9332 994.397,-18.996 983.99,-17.0098 985.023,-23.9332"/>
</g>
<!-- Node13 -->
<g id="node13" class="node"><title>Node13</title>
<polygon fill="white" stroke="#bfbfbf" points="1119.5,-0.5 1119.5,-19.5 1194.5,-19.5 1194.5,-0.5 1119.5,-0.5"/>
<text text-anchor="middle" x="1157" y="-7.5" font-family="Helvetica,sans-Serif" font-size="10.00">linux/skbuff.h</text>
</g>
<!-- Node1&#45;&gt;Node13 -->
<g id="edge12" class="edge"><title>Node1&#45;&gt;Node13</title>
<path fill="none" stroke="midnightblue" d="M717.577,-62.6102C786.766,-57.1702 957.096,-42.6665 1109.39,-20.133"/>
<polygon fill="midnightblue" stroke="midnightblue" points="1110.02,-23.5776 1119.39,-18.6371 1108.98,-16.6545 1110.02,-23.5776"/>
</g>
<!-- Node14 -->
<g id="node14" class="node"><title>Node14</title>
<g id="a_node14"><a xlink:href="../../dd/de5/_i_n_r-_n_w_8h.html" target="_top" xlink:title="settings and definitions Netork communication ">
<polygon fill="white" stroke="black" points="1212.5,-0.5 1212.5,-19.5 1275.5,-19.5 1275.5,-0.5 1212.5,-0.5"/>
<text text-anchor="middle" x="1244" y="-7.5" font-family="Helvetica,sans-Serif" font-size="10.00">INR&#45;NW.h</text>
</a>
</g>
</g>
<!-- Node1&#45;&gt;Node14 -->
<g id="edge13" class="edge"><title>Node1&#45;&gt;Node14</title>
<path fill="none" stroke="midnightblue" d="M717.712,-63.7331C797.545,-60.2277 1013.37,-48.7944 1202.09,-20.1174"/>
<polygon fill="midnightblue" stroke="midnightblue" points="1202.85,-23.5428 1212.2,-18.5614 1201.78,-16.6244 1202.85,-23.5428"/>
</g>
<!-- Node15 -->
<g id="node15" class="node"><title>Node15</title>
<g id="a_node15"><a xlink:href="../../db/d87/_i_n_r_8h.html" target="_top" xlink:title="basic settings and definitions ">
<polygon fill="white" stroke="black" points="1293.5,-0.5 1293.5,-19.5 1336.5,-19.5 1336.5,-0.5 1293.5,-0.5"/>
<text text-anchor="middle" x="1315" y="-7.5" font-family="Helvetica,sans-Serif" font-size="10.00">INR.h</text>
</a>
</g>
</g>
<!-- Node1&#45;&gt;Node15 -->
<g id="edge14" class="edge"><title>Node1&#45;&gt;Node15</title>
<path fill="none" stroke="midnightblue" d="M717.808,-65.0205C806.333,-64.5701 1063.02,-59.8111 1283.06,-20.0023"/>
<polygon fill="midnightblue" stroke="midnightblue" points="1283.98,-23.3925 1293.18,-18.1419 1282.71,-16.5079 1283.98,-23.3925"/>
</g>
<!-- Node16 -->
<g id="node16" class="node"><title>Node16</title>
<g id="a_node16"><a xlink:href="../../df/df2/_i_n_r-_p_c_i_8h.html" target="_top" xlink:title="settings and definitions PCI communication ">
<polygon fill="white" stroke="black" points="1354.5,-0.5 1354.5,-19.5 1417.5,-19.5 1417.5,-0.5 1354.5,-0.5"/>
<text text-anchor="middle" x="1386" y="-7.5" font-family="Helvetica,sans-Serif" font-size="10.00">INR&#45;PCI.h</text>
</a>
</g>
</g>
<!-- Node1&#45;&gt;Node16 -->
<g id="edge15" class="edge"><title>Node1&#45;&gt;Node16</title>
<path fill="none" stroke="midnightblue" d="M717.782,-64.5565C812.027,-62.8778 1098.23,-55.1573 1344.01,-20.0896"/>
<polygon fill="midnightblue" stroke="midnightblue" points="1344.81,-23.5103 1354.21,-18.6155 1343.81,-16.5824 1344.81,-23.5103"/>
</g>
</g>
</svg>
