<?xml version="1.0" encoding="UTF-8" standalone="no"?>
<!DOCTYPE svg PUBLIC "-//W3C//DTD SVG 1.1//EN"
 "http://www.w3.org/Graphics/SVG/1.1/DTD/svg11.dtd">
<!-- Generated by graphviz version 2.38.0 (20140413.2041)
 -->
<!-- Title: INR_NAPI_poll_15 Pages: 1 -->
<svg width="891pt" height="154pt"
 viewBox="0.00 0.00 891.00 153.50" xmlns="http://www.w3.org/2000/svg" xmlns:xlink="http://www.w3.org/1999/xlink">
<g id="graph0" class="graph" transform="scale(1 1) rotate(0) translate(4 149.5)">
<title>INR_NAPI_poll_15</title>
<polygon fill="white" stroke="none" points="-4,4 -4,-149.5 887,-149.5 887,4 -4,4"/>
<!-- Node1 -->
<g id="node1" class="node"><title>Node1</title>
<polygon fill="#bfbfbf" stroke="black" points="0,-91 0,-110 100,-110 100,-91 0,-91"/>
<text text-anchor="middle" x="50" y="-98" font-family="Helvetica,sans-Serif" font-size="10.00">INR_NAPI_poll_15</text>
</g>
<!-- Node2 -->
<g id="node2" class="node"><title>Node2</title>
<g id="a_node2"><a xlink:href="../../d1/d67/_i_n_r-_n_a_p_i_8c.html#a517ed25d9d1f3ee1c648633b74f4469b" target="_top" xlink:title="INR_NAPI_complete">
<polygon fill="white" stroke="black" points="136.5,-113 136.5,-132 245.5,-132 245.5,-113 136.5,-113"/>
<text text-anchor="middle" x="191" y="-120" font-family="Helvetica,sans-Serif" font-size="10.00">INR_NAPI_complete</text>
</a>
</g>
</g>
<!-- Node1&#45;&gt;Node2 -->
<g id="edge1" class="edge"><title>Node1&#45;&gt;Node2</title>
<path fill="none" stroke="midnightblue" d="M100.006,-108.256C108.525,-109.605 117.494,-111.024 126.337,-112.424"/>
<polygon fill="midnightblue" stroke="midnightblue" points="125.811,-115.884 136.236,-113.991 126.906,-108.97 125.811,-115.884"/>
</g>
<!-- Node3 -->
<g id="node3" class="node"><title>Node3</title>
<g id="a_node3"><a xlink:href="../../dc/dc8/_i_n_r-_p_c_i_8c.html#a317b7c374854b88af0059ff2a3708ce9" target="_top" xlink:title="INR_PCI_process_rx\l_descriptor_ring">
<polygon fill="white" stroke="black" points="136,-63.5 136,-93.5 246,-93.5 246,-63.5 136,-63.5"/>
<text text-anchor="start" x="144" y="-81.5" font-family="Helvetica,sans-Serif" font-size="10.00">INR_PCI_process_rx</text>
<text text-anchor="middle" x="191" y="-70.5" font-family="Helvetica,sans-Serif" font-size="10.00">_descriptor_ring</text>
</a>
</g>
</g>
<!-- Node1&#45;&gt;Node3 -->
<g id="edge2" class="edge"><title>Node1&#45;&gt;Node3</title>
<path fill="none" stroke="midnightblue" d="M100.006,-92.7436C108.321,-91.4277 117.065,-90.0437 125.701,-88.6768"/>
<polygon fill="midnightblue" stroke="midnightblue" points="126.428,-92.1053 135.758,-87.085 125.334,-85.1914 126.428,-92.1053"/>
</g>
<!-- Node4 -->
<g id="node4" class="node"><title>Node4</title>
<g id="a_node4"><a xlink:href="../../d3/d3a/_i_n_r_8c.html#a055451b31abceb46e8c92789d0523980" target="_top" xlink:title="INR_CHECK_fpga_read_val">
<polygon fill="white" stroke="black" points="458,-126 458,-145 600,-145 600,-126 458,-126"/>
<text text-anchor="middle" x="529" y="-133" font-family="Helvetica,sans-Serif" font-size="10.00">INR_CHECK_fpga_read_val</text>
</a>
</g>
</g>
<!-- Node3&#45;&gt;Node4 -->
<g id="edge3" class="edge"><title>Node3&#45;&gt;Node4</title>
<path fill="none" stroke="midnightblue" d="M226.851,-93.6301C243.284,-100.15 263.341,-107.242 282,-111.5 336.485,-123.933 399.201,-129.927 447.672,-132.816"/>
<polygon fill="midnightblue" stroke="midnightblue" points="447.609,-136.318 457.79,-133.387 448.003,-129.329 447.609,-136.318"/>
</g>
<!-- Node5 -->
<g id="node5" class="node"><title>Node5</title>
<g id="a_node5"><a xlink:href="../../d3/d3a/_i_n_r_8c.html#a549bff83219b80ccf76c695682e37707" target="_top" xlink:title="INR_LOG_debug">
<polygon fill="white" stroke="black" points="791,-69 791,-88 883,-88 883,-69 791,-69"/>
<text text-anchor="middle" x="837" y="-76" font-family="Helvetica,sans-Serif" font-size="10.00">INR_LOG_debug</text>
</a>
</g>
</g>
<!-- Node3&#45;&gt;Node5 -->
<g id="edge5" class="edge"><title>Node3&#45;&gt;Node5</title>
<path fill="none" stroke="midnightblue" d="M246.075,-78.5C366.991,-78.5 658.189,-78.5 780.463,-78.5"/>
<polygon fill="midnightblue" stroke="midnightblue" points="780.716,-82.0001 790.716,-78.5 780.716,-75.0001 780.716,-82.0001"/>
</g>
<!-- Node6 -->
<g id="node6" class="node"><title>Node6</title>
<g id="a_node6"><a xlink:href="../../de/dc6/_i_n_r-_n_w_8c.html#a3be8a2ad7ead39dfd6b239b890dc1146" target="_top" xlink:title="get_nwdev">
<polygon fill="white" stroke="black" points="320,-50 320,-69 384,-69 384,-50 320,-50"/>
<text text-anchor="middle" x="352" y="-57" font-family="Helvetica,sans-Serif" font-size="10.00">get_nwdev</text>
</a>
</g>
</g>
<!-- Node3&#45;&gt;Node6 -->
<g id="edge6" class="edge"><title>Node3&#45;&gt;Node6</title>
<path fill="none" stroke="midnightblue" d="M246.274,-72.0144C267.016,-69.5358 290.314,-66.7518 309.66,-64.44"/>
<polygon fill="midnightblue" stroke="midnightblue" points="310.156,-67.9058 319.67,-63.2439 309.325,-60.9552 310.156,-67.9058"/>
</g>
<!-- Node7 -->
<g id="node7" class="node"><title>Node7</title>
<g id="a_node7"><a xlink:href="../../dc/dc8/_i_n_r-_p_c_i_8c.html#a03f960f01f96c2f664301c6830461c7f" target="_top" xlink:title="INR_PCI_alloc_new_rx_skb">
<polygon fill="white" stroke="black" points="282,-12 282,-31 422,-31 422,-12 282,-12"/>
<text text-anchor="middle" x="352" y="-19" font-family="Helvetica,sans-Serif" font-size="10.00">INR_PCI_alloc_new_rx_skb</text>
</a>
</g>
</g>
<!-- Node3&#45;&gt;Node7 -->
<g id="edge7" class="edge"><title>Node3&#45;&gt;Node7</title>
<path fill="none" stroke="midnightblue" d="M224.934,-63.372C241.796,-55.941 262.773,-47.1742 282,-40.5 288.625,-38.2004 295.682,-35.9914 302.659,-33.9446"/>
<polygon fill="midnightblue" stroke="midnightblue" points="304.103,-37.1727 312.764,-31.0705 302.188,-30.4398 304.103,-37.1727"/>
</g>
<!-- Node4&#45;&gt;Node5 -->
<g id="edge4" class="edge"><title>Node4&#45;&gt;Node5</title>
<path fill="none" stroke="midnightblue" d="M600.066,-133.082C644.918,-130.3 704.047,-124.325 755,-111.5 772.998,-106.97 792.275,-99.243 807.506,-92.4046"/>
<polygon fill="midnightblue" stroke="midnightblue" points="809.262,-95.4488 816.877,-88.0816 806.33,-89.0926 809.262,-95.4488"/>
</g>
<!-- Node8 -->
<g id="node8" class="node"><title>Node8</title>
<g id="a_node8"><a xlink:href="../../dc/dc8/_i_n_r-_p_c_i_8c.html#af88a9db4ef6451751a395e1207fd7066" target="_top" xlink:title="INR_PCI_get_new_rx\l_descriptor_ring_entry">
<polygon fill="white" stroke="black" points="472.5,-6.5 472.5,-36.5 585.5,-36.5 585.5,-6.5 472.5,-6.5"/>
<text text-anchor="start" x="480.5" y="-24.5" font-family="Helvetica,sans-Serif" font-size="10.00">INR_PCI_get_new_rx</text>
<text text-anchor="middle" x="529" y="-13.5" font-family="Helvetica,sans-Serif" font-size="10.00">_descriptor_ring_entry</text>
</a>
</g>
</g>
<!-- Node7&#45;&gt;Node8 -->
<g id="edge8" class="edge"><title>Node7&#45;&gt;Node8</title>
<path fill="none" stroke="midnightblue" d="M422.165,-21.5C435.282,-21.5 448.974,-21.5 461.991,-21.5"/>
<polygon fill="midnightblue" stroke="midnightblue" points="462.261,-25.0001 472.261,-21.5 462.261,-18.0001 462.261,-25.0001"/>
</g>
<!-- Node8&#45;&gt;Node5 -->
<g id="edge11" class="edge"><title>Node8&#45;&gt;Node5</title>
<path fill="none" stroke="midnightblue" d="M585.769,-31.8884C641.108,-42.1966 725.423,-57.9024 780.624,-68.1849"/>
<polygon fill="midnightblue" stroke="midnightblue" points="780.107,-71.6487 790.579,-70.0392 781.389,-64.7671 780.107,-71.6487"/>
</g>
<!-- Node9 -->
<g id="node9" class="node"><title>Node9</title>
<g id="a_node9"><a xlink:href="../../dc/dc8/_i_n_r-_p_c_i_8c.html#adbea73204b38d31f4b80feb56a27b810" target="_top" xlink:title="INR_PCI_rx_descriptor\l_pool_refill">
<polygon fill="white" stroke="black" points="636,-0.5 636,-30.5 755,-30.5 755,-0.5 636,-0.5"/>
<text text-anchor="start" x="644" y="-18.5" font-family="Helvetica,sans-Serif" font-size="10.00">INR_PCI_rx_descriptor</text>
<text text-anchor="middle" x="695.5" y="-7.5" font-family="Helvetica,sans-Serif" font-size="10.00">_pool_refill</text>
</a>
</g>
</g>
<!-- Node8&#45;&gt;Node9 -->
<g id="edge9" class="edge"><title>Node8&#45;&gt;Node9</title>
<path fill="none" stroke="midnightblue" d="M585.692,-19.4687C598.542,-19 612.36,-18.496 625.694,-18.0096"/>
<polygon fill="midnightblue" stroke="midnightblue" points="625.906,-21.5043 635.772,-17.642 625.651,-14.509 625.906,-21.5043"/>
</g>
<!-- Node9&#45;&gt;Node5 -->
<g id="edge10" class="edge"><title>Node9&#45;&gt;Node5</title>
<path fill="none" stroke="midnightblue" d="M729.914,-30.5901C752.804,-40.9275 782.937,-54.5362 805.238,-64.6073"/>
<polygon fill="midnightblue" stroke="midnightblue" points="804.02,-67.8978 814.574,-68.8239 806.901,-61.5182 804.02,-67.8978"/>
</g>
</g>
</svg>
