<?xml version="1.0" encoding="UTF-8" standalone="no"?>
<!DOCTYPE svg PUBLIC "-//W3C//DTD SVG 1.1//EN"
 "http://www.w3.org/Graphics/SVG/1.1/DTD/svg11.dtd">
<!-- Generated by graphviz version 2.38.0 (20140413.2041)
 -->
<!-- Title: INR_NAPI_init Pages: 1 -->
<!--zoomable 675 -->
<svg id="main" version="1.1" xmlns="http://www.w3.org/2000/svg" xmlns:xlink="http://www.w3.org/1999/xlink" xml:space="preserve" onload="init(evt)">
<style type="text/css"><![CDATA[
.edge:hover path { stroke: red; }
.edge:hover polygon { stroke: red; fill: red; }
]]></style>
<script type="text/javascript"><![CDATA[
var edges = document.getElementsByTagName('g');
if (edges && edges.length) {
  for (var i=0;i<edges.length;i++) {
    if (edges[i].id.substr(0,4)=='edge') {
      edges[i].setAttribute('class','edge');
    }
  }
}
]]></script>
        <defs>
                <circle id="rim" cx="0" cy="0" r="7"/>
                <circle id="rim2" cx="0" cy="0" r="3.5"/>
                <g id="zoomPlus">
                        <use xlink:href="#rim" fill="#404040">
                                <set attributeName="fill" to="#808080" begin="zoomplus.mouseover" end="zoomplus.mouseout"/>
                        </use>
                        <path d="M-4,0h8M0,-4v8" fill="none" stroke="white" stroke-width="1.5" pointer-events="none"/>
                </g>
                <g id="zoomMin">
                        <use xlink:href="#rim" fill="#404040">
                                <set attributeName="fill" to="#808080" begin="zoomminus.mouseover" end="zoomminus.mouseout"/>
                        </use>
                        <path d="M-4,0h8" fill="none" stroke="white" stroke-width="1.5" pointer-events="none"/>
                </g>
                <g id="dirArrow">
                        <path fill="none" stroke="white" stroke-width="1.5" d="M0,-3.0v7 M-2.5,-0.5L0,-3.0L2.5,-0.5"/>
                </g>
               <g id="resetDef">
                       <use xlink:href="#rim2" fill="#404040">
                               <set attributeName="fill" to="#808080" begin="reset.mouseover" end="reset.mouseout"/>
                       </use>
               </g>
        </defs>

<script type="text/javascript">
var viewWidth = 1009;
var viewHeight = 675;
var sectionId = 'dynsection-2';
</script>
<script xlink:href="../../svgpan.js"/>
<svg id="graph" class="graph">
<g id="viewport">
<title>INR_NAPI_init</title>
<polygon fill="white" stroke="none" points="-4,4 -4,-670.815 1005,-670.815 1005,4 -4,4"/>
<!-- Node1 -->
<g id="node1" class="node"><title>Node1</title>
<polygon fill="#bfbfbf" stroke="black" points="0,-325.47 0,-344.47 82,-344.47 82,-325.47 0,-325.47"/>
<text text-anchor="middle" x="41" y="-332.47" font-family="Helvetica,sans-Serif" font-size="10.00">INR_NAPI_init</text>
</g>
<!-- Node2 -->
<g id="node2" class="node"><title>Node2</title>
<g id="a_node2"><a xlink:href="../../de/dc6/_i_n_r-_n_w_8c.html#a3be8a2ad7ead39dfd6b239b890dc1146" target="_top" xlink:title="get_nwdev">
<polygon fill="white" stroke="black" points="438,-526.47 438,-545.47 502,-545.47 502,-526.47 438,-526.47"/>
<text text-anchor="middle" x="470" y="-533.47" font-family="Helvetica,sans-Serif" font-size="10.00">get_nwdev</text>
</a>
</g>
</g>
<!-- Node1&#45;&gt;Node2 -->
<g id="edge1" class="edge"><title>Node1&#45;&gt;Node2</title>
<path fill="none" stroke="midnightblue" d="M42.8605,-344.64C47.3145,-392.258 69.4384,-601.055 118,-638.97 223.7,-721.498 393.837,-597.803 450.195,-551.939"/>
<polygon fill="midnightblue" stroke="midnightblue" points="452.472,-554.598 457.951,-545.53 448.013,-549.202 452.472,-554.598"/>
</g>
<!-- Node3 -->
<g id="node3" class="node"><title>Node3</title>
<g id="a_node3"><a xlink:href="../../d3/d3a/_i_n_r_8c.html#a549bff83219b80ccf76c695682e37707" target="_top" xlink:title="INR_LOG_debug">
<polygon fill="white" stroke="black" points="909,-284.47 909,-303.47 1001,-303.47 1001,-284.47 909,-284.47"/>
<text text-anchor="middle" x="955" y="-291.47" font-family="Helvetica,sans-Serif" font-size="10.00">INR_LOG_debug</text>
</a>
</g>
</g>
<!-- Node1&#45;&gt;Node3 -->
<g id="edge2" class="edge"><title>Node1&#45;&gt;Node3</title>
<path fill="none" stroke="midnightblue" d="M42.9381,-325.395C47.7637,-278.23 71.3874,-71.2581 118,-30.9703 182.207,24.5243 223.134,-11.9703 308,-11.9703 308,-11.9703 308,-11.9703 648,-11.9703 803.688,-11.9703 914.101,-211.807 945.138,-275.032"/>
<polygon fill="midnightblue" stroke="midnightblue" points="942.089,-276.768 949.578,-284.263 948.398,-273.734 942.089,-276.768"/>
</g>
<!-- Node4 -->
<g id="node4" class="node"><title>Node4</title>
<g id="a_node4"><a xlink:href="../../d1/d67/_i_n_r-_n_a_p_i_8c.html#a87ec5cd355cffe8b96296dbb83278bfe" target="_top" xlink:title="INR_NAPI_poll_0">
<polygon fill="white" stroke="black" points="120.5,-154.47 120.5,-173.47 215.5,-173.47 215.5,-154.47 120.5,-154.47"/>
<text text-anchor="middle" x="168" y="-161.47" font-family="Helvetica,sans-Serif" font-size="10.00">INR_NAPI_poll_0</text>
</a>
</g>
</g>
<!-- Node1&#45;&gt;Node4 -->
<g id="edge3" class="edge"><title>Node1&#45;&gt;Node4</title>
<path fill="none" stroke="midnightblue" d="M44.2276,-325.3C50.811,-298.806 72.621,-224.283 118,-182.97 119.727,-181.398 121.598,-179.951 123.568,-178.618"/>
<polygon fill="midnightblue" stroke="midnightblue" points="125.69,-181.44 132.69,-173.486 122.258,-175.339 125.69,-181.44"/>
</g>
<!-- Node11 -->
<g id="node11" class="node"><title>Node11</title>
<g id="a_node11"><a xlink:href="../../d1/d67/_i_n_r-_n_a_p_i_8c.html#a938e6a3d06b11a5dc3da541a5d05c0b2" target="_top" xlink:title="INR_NAPI_poll_1">
<polygon fill="white" stroke="black" points="120.5,-116.47 120.5,-135.47 215.5,-135.47 215.5,-116.47 120.5,-116.47"/>
<text text-anchor="middle" x="168" y="-123.47" font-family="Helvetica,sans-Serif" font-size="10.00">INR_NAPI_poll_1</text>
</a>
</g>
</g>
<!-- Node1&#45;&gt;Node11 -->
<g id="edge15" class="edge"><title>Node1&#45;&gt;Node11</title>
<path fill="none" stroke="midnightblue" d="M43.1594,-325.194C47.3164,-294.383 64.2084,-198.195 118,-144.97 119.459,-143.526 121.041,-142.19 122.711,-140.952"/>
<polygon fill="midnightblue" stroke="midnightblue" points="124.901,-143.719 131.657,-135.557 121.286,-137.724 124.901,-143.719"/>
</g>
<!-- Node12 -->
<g id="node12" class="node"><title>Node12</title>
<g id="a_node12"><a xlink:href="../../d1/d67/_i_n_r-_n_a_p_i_8c.html#a69ec3410fe5dc7da35e2f6a8d72acdb4" target="_top" xlink:title="INR_NAPI_poll_10">
<polygon fill="white" stroke="black" points="118,-78.4703 118,-97.4703 218,-97.4703 218,-78.4703 118,-78.4703"/>
<text text-anchor="middle" x="168" y="-85.4703" font-family="Helvetica,sans-Serif" font-size="10.00">INR_NAPI_poll_10</text>
</a>
</g>
</g>
<!-- Node1&#45;&gt;Node12 -->
<g id="edge18" class="edge"><title>Node1&#45;&gt;Node12</title>
<path fill="none" stroke="midnightblue" d="M42.4051,-325.272C44.3607,-290.764 55.537,-172.516 118,-106.97 119.369,-105.534 120.859,-104.204 122.44,-102.974"/>
<polygon fill="midnightblue" stroke="midnightblue" points="124.36,-105.901 130.958,-97.6113 120.63,-99.977 124.36,-105.901"/>
</g>
<!-- Node13 -->
<g id="node13" class="node"><title>Node13</title>
<g id="a_node13"><a xlink:href="../../d1/d67/_i_n_r-_n_a_p_i_8c.html#a7b9c6dd796e70895de209d2803e13ccc" target="_top" xlink:title="INR_NAPI_poll_11">
<polygon fill="white" stroke="black" points="118,-40.4703 118,-59.4703 218,-59.4703 218,-40.4703 118,-40.4703"/>
<text text-anchor="middle" x="168" y="-47.4703" font-family="Helvetica,sans-Serif" font-size="10.00">INR_NAPI_poll_11</text>
</a>
</g>
</g>
<!-- Node1&#45;&gt;Node13 -->
<g id="edge21" class="edge"><title>Node1&#45;&gt;Node13</title>
<path fill="none" stroke="midnightblue" d="M41.8611,-325.3C41.8427,-287.372 46.7845,-147.028 118,-68.9703 119.338,-67.5043 120.801,-66.1503 122.361,-64.8997"/>
<polygon fill="midnightblue" stroke="midnightblue" points="124.287,-67.822 130.807,-59.4706 120.502,-61.9336 124.287,-67.822"/>
</g>
<!-- Node14 -->
<g id="node14" class="node"><title>Node14</title>
<g id="a_node14"><a xlink:href="../../d1/d67/_i_n_r-_n_a_p_i_8c.html#a3a1602b0c3f015b8aabd0b978d704493" target="_top" xlink:title="INR_NAPI_poll_12">
<polygon fill="white" stroke="black" points="118,-610.47 118,-629.47 218,-629.47 218,-610.47 118,-610.47"/>
<text text-anchor="middle" x="168" y="-617.47" font-family="Helvetica,sans-Serif" font-size="10.00">INR_NAPI_poll_12</text>
</a>
</g>
</g>
<!-- Node1&#45;&gt;Node14 -->
<g id="edge24" class="edge"><title>Node1&#45;&gt;Node14</title>
<path fill="none" stroke="midnightblue" d="M41.8611,-344.641C41.8427,-382.569 46.7845,-522.913 118,-600.97 119.338,-602.436 120.801,-603.79 122.361,-605.041"/>
<polygon fill="midnightblue" stroke="midnightblue" points="120.502,-608.007 130.807,-610.47 124.287,-602.119 120.502,-608.007"/>
</g>
<!-- Node15 -->
<g id="node15" class="node"><title>Node15</title>
<g id="a_node15"><a xlink:href="../../d1/d67/_i_n_r-_n_a_p_i_8c.html#a2ee390e1624519f6a631b3046c2fbd3f" target="_top" xlink:title="INR_NAPI_poll_13">
<polygon fill="white" stroke="black" points="118,-572.47 118,-591.47 218,-591.47 218,-572.47 118,-572.47"/>
<text text-anchor="middle" x="168" y="-579.47" font-family="Helvetica,sans-Serif" font-size="10.00">INR_NAPI_poll_13</text>
</a>
</g>
</g>
<!-- Node1&#45;&gt;Node15 -->
<g id="edge27" class="edge"><title>Node1&#45;&gt;Node15</title>
<path fill="none" stroke="midnightblue" d="M42.4051,-344.669C44.3607,-379.177 55.537,-497.425 118,-562.97 119.369,-564.407 120.859,-565.737 122.44,-566.967"/>
<polygon fill="midnightblue" stroke="midnightblue" points="120.63,-569.964 130.958,-572.329 124.36,-564.04 120.63,-569.964"/>
</g>
<!-- Node16 -->
<g id="node16" class="node"><title>Node16</title>
<g id="a_node16"><a xlink:href="../../d1/d67/_i_n_r-_n_a_p_i_8c.html#a2cbf12b9e0e03b3b3862a98784ecc52b" target="_top" xlink:title="INR_NAPI_poll_14">
<polygon fill="white" stroke="black" points="118,-534.47 118,-553.47 218,-553.47 218,-534.47 118,-534.47"/>
<text text-anchor="middle" x="168" y="-541.47" font-family="Helvetica,sans-Serif" font-size="10.00">INR_NAPI_poll_14</text>
</a>
</g>
</g>
<!-- Node1&#45;&gt;Node16 -->
<g id="edge30" class="edge"><title>Node1&#45;&gt;Node16</title>
<path fill="none" stroke="midnightblue" d="M43.1594,-344.746C47.3164,-375.558 64.2084,-471.746 118,-524.97 119.459,-526.414 121.041,-527.751 122.711,-528.989"/>
<polygon fill="midnightblue" stroke="midnightblue" points="121.286,-532.216 131.657,-534.383 124.901,-526.222 121.286,-532.216"/>
</g>
<!-- Node17 -->
<g id="node17" class="node"><title>Node17</title>
<g id="a_node17"><a xlink:href="../../d1/d67/_i_n_r-_n_a_p_i_8c.html#a91f701f31afe930ece5c8bf5fb1a7ed6" target="_top" xlink:title="INR_NAPI_poll_15">
<polygon fill="white" stroke="black" points="118,-496.47 118,-515.47 218,-515.47 218,-496.47 118,-496.47"/>
<text text-anchor="middle" x="168" y="-503.47" font-family="Helvetica,sans-Serif" font-size="10.00">INR_NAPI_poll_15</text>
</a>
</g>
</g>
<!-- Node1&#45;&gt;Node17 -->
<g id="edge33" class="edge"><title>Node1&#45;&gt;Node17</title>
<path fill="none" stroke="midnightblue" d="M44.2276,-344.64C50.811,-371.134 72.621,-445.658 118,-486.97 119.727,-488.542 121.598,-489.99 123.568,-491.322"/>
<polygon fill="midnightblue" stroke="midnightblue" points="122.258,-494.602 132.69,-496.454 125.69,-488.501 122.258,-494.602"/>
</g>
<!-- Node18 -->
<g id="node18" class="node"><title>Node18</title>
<g id="a_node18"><a xlink:href="../../d1/d67/_i_n_r-_n_a_p_i_8c.html#ae6bc59b863b3928700468d13efd23e27" target="_top" xlink:title="INR_NAPI_poll_2">
<polygon fill="white" stroke="black" points="120.5,-458.47 120.5,-477.47 215.5,-477.47 215.5,-458.47 120.5,-458.47"/>
<text text-anchor="middle" x="168" y="-465.47" font-family="Helvetica,sans-Serif" font-size="10.00">INR_NAPI_poll_2</text>
</a>
</g>
</g>
<!-- Node1&#45;&gt;Node18 -->
<g id="edge36" class="edge"><title>Node1&#45;&gt;Node18</title>
<path fill="none" stroke="midnightblue" d="M45.9931,-344.674C55.3818,-366.362 80.8994,-419.192 118,-448.97 120.235,-450.764 122.659,-452.404 125.192,-453.9"/>
<polygon fill="midnightblue" stroke="midnightblue" points="123.61,-457.022 134.108,-458.45 126.792,-450.787 123.61,-457.022"/>
</g>
<!-- Node19 -->
<g id="node19" class="node"><title>Node19</title>
<g id="a_node19"><a xlink:href="../../d1/d67/_i_n_r-_n_a_p_i_8c.html#a7888221fd9575d7e7aae78ed125d8646" target="_top" xlink:title="INR_NAPI_poll_3">
<polygon fill="white" stroke="black" points="120.5,-420.47 120.5,-439.47 215.5,-439.47 215.5,-420.47 120.5,-420.47"/>
<text text-anchor="middle" x="168" y="-427.47" font-family="Helvetica,sans-Serif" font-size="10.00">INR_NAPI_poll_3</text>
</a>
</g>
</g>
<!-- Node1&#45;&gt;Node19 -->
<g id="edge39" class="edge"><title>Node1&#45;&gt;Node19</title>
<path fill="none" stroke="midnightblue" d="M49.4177,-344.659C61.9793,-360.486 88.9242,-392.018 118,-410.97 120.917,-412.871 124.052,-414.628 127.277,-416.241"/>
<polygon fill="midnightblue" stroke="midnightblue" points="125.939,-419.476 136.493,-420.406 128.822,-413.098 125.939,-419.476"/>
</g>
<!-- Node20 -->
<g id="node20" class="node"><title>Node20</title>
<g id="a_node20"><a xlink:href="../../d1/d67/_i_n_r-_n_a_p_i_8c.html#a5e711c1ae61572a4bab9ffefc34d0f34" target="_top" xlink:title="INR_NAPI_poll_4">
<polygon fill="white" stroke="black" points="120.5,-382.47 120.5,-401.47 215.5,-401.47 215.5,-382.47 120.5,-382.47"/>
<text text-anchor="middle" x="168" y="-389.47" font-family="Helvetica,sans-Serif" font-size="10.00">INR_NAPI_poll_4</text>
</a>
</g>
</g>
<!-- Node1&#45;&gt;Node20 -->
<g id="edge42" class="edge"><title>Node1&#45;&gt;Node20</title>
<path fill="none" stroke="midnightblue" d="M59.8926,-344.513C75.1515,-352.506 97.7664,-364.013 118,-372.97 122.409,-374.922 127.085,-376.878 131.731,-378.752"/>
<polygon fill="midnightblue" stroke="midnightblue" points="130.542,-382.046 141.129,-382.46 133.111,-375.534 130.542,-382.046"/>
</g>
<!-- Node21 -->
<g id="node21" class="node"><title>Node21</title>
<g id="a_node21"><a xlink:href="../../d1/d67/_i_n_r-_n_a_p_i_8c.html#a4c7935fe4ef401ccd186e05e1047748c" target="_top" xlink:title="INR_NAPI_poll_5">
<polygon fill="white" stroke="black" points="120.5,-344.47 120.5,-363.47 215.5,-363.47 215.5,-344.47 120.5,-344.47"/>
<text text-anchor="middle" x="168" y="-351.47" font-family="Helvetica,sans-Serif" font-size="10.00">INR_NAPI_poll_5</text>
</a>
</g>
</g>
<!-- Node1&#45;&gt;Node21 -->
<g id="edge45" class="edge"><title>Node1&#45;&gt;Node21</title>
<path fill="none" stroke="midnightblue" d="M82.2388,-341.087C91.1489,-342.441 100.753,-343.901 110.184,-345.334"/>
<polygon fill="midnightblue" stroke="midnightblue" points="109.895,-348.831 120.307,-346.873 110.947,-341.91 109.895,-348.831"/>
</g>
<!-- Node22 -->
<g id="node22" class="node"><title>Node22</title>
<g id="a_node22"><a xlink:href="../../d1/d67/_i_n_r-_n_a_p_i_8c.html#a2a63c16bad3fb8de0dacd9bb0b02a40f" target="_top" xlink:title="INR_NAPI_poll_6">
<polygon fill="white" stroke="black" points="120.5,-306.47 120.5,-325.47 215.5,-325.47 215.5,-306.47 120.5,-306.47"/>
<text text-anchor="middle" x="168" y="-313.47" font-family="Helvetica,sans-Serif" font-size="10.00">INR_NAPI_poll_6</text>
</a>
</g>
</g>
<!-- Node1&#45;&gt;Node22 -->
<g id="edge48" class="edge"><title>Node1&#45;&gt;Node22</title>
<path fill="none" stroke="midnightblue" d="M82.2388,-328.854C91.1489,-327.5 100.753,-326.04 110.184,-324.606"/>
<polygon fill="midnightblue" stroke="midnightblue" points="110.947,-328.031 120.307,-323.068 109.895,-321.11 110.947,-328.031"/>
</g>
<!-- Node23 -->
<g id="node23" class="node"><title>Node23</title>
<g id="a_node23"><a xlink:href="../../d1/d67/_i_n_r-_n_a_p_i_8c.html#a05cb8dc7168c07cf8755dc8e4075caba" target="_top" xlink:title="INR_NAPI_poll_7">
<polygon fill="white" stroke="black" points="120.5,-268.47 120.5,-287.47 215.5,-287.47 215.5,-268.47 120.5,-268.47"/>
<text text-anchor="middle" x="168" y="-275.47" font-family="Helvetica,sans-Serif" font-size="10.00">INR_NAPI_poll_7</text>
</a>
</g>
</g>
<!-- Node1&#45;&gt;Node23 -->
<g id="edge51" class="edge"><title>Node1&#45;&gt;Node23</title>
<path fill="none" stroke="midnightblue" d="M59.8926,-325.428C75.1515,-317.435 97.7664,-305.928 118,-296.97 122.409,-295.019 127.085,-293.063 131.731,-291.188"/>
<polygon fill="midnightblue" stroke="midnightblue" points="133.111,-294.407 141.129,-287.481 130.542,-287.895 133.111,-294.407"/>
</g>
<!-- Node24 -->
<g id="node24" class="node"><title>Node24</title>
<g id="a_node24"><a xlink:href="../../d1/d67/_i_n_r-_n_a_p_i_8c.html#a56cfbbdff0a9b3fba466a06079b21ed8" target="_top" xlink:title="INR_NAPI_poll_8">
<polygon fill="white" stroke="black" points="120.5,-230.47 120.5,-249.47 215.5,-249.47 215.5,-230.47 120.5,-230.47"/>
<text text-anchor="middle" x="168" y="-237.47" font-family="Helvetica,sans-Serif" font-size="10.00">INR_NAPI_poll_8</text>
</a>
</g>
</g>
<!-- Node1&#45;&gt;Node24 -->
<g id="edge54" class="edge"><title>Node1&#45;&gt;Node24</title>
<path fill="none" stroke="midnightblue" d="M49.4177,-325.282C61.9793,-309.455 88.9242,-277.922 118,-258.97 120.917,-257.069 124.052,-255.313 127.277,-253.7"/>
<polygon fill="midnightblue" stroke="midnightblue" points="128.822,-256.843 136.493,-249.535 125.939,-250.464 128.822,-256.843"/>
</g>
<!-- Node25 -->
<g id="node25" class="node"><title>Node25</title>
<g id="a_node25"><a xlink:href="../../d1/d67/_i_n_r-_n_a_p_i_8c.html#a7411c18801eb32e892612975b01d604e" target="_top" xlink:title="INR_NAPI_poll_9">
<polygon fill="white" stroke="black" points="120.5,-192.47 120.5,-211.47 215.5,-211.47 215.5,-192.47 120.5,-192.47"/>
<text text-anchor="middle" x="168" y="-199.47" font-family="Helvetica,sans-Serif" font-size="10.00">INR_NAPI_poll_9</text>
</a>
</g>
</g>
<!-- Node1&#45;&gt;Node25 -->
<g id="edge57" class="edge"><title>Node1&#45;&gt;Node25</title>
<path fill="none" stroke="midnightblue" d="M45.9931,-325.267C55.3818,-303.579 80.8994,-250.749 118,-220.97 120.235,-219.177 122.659,-217.537 125.192,-216.041"/>
<polygon fill="midnightblue" stroke="midnightblue" points="126.792,-219.154 134.108,-211.49 123.61,-212.919 126.792,-219.154"/>
</g>
<!-- Node5 -->
<g id="node5" class="node"><title>Node5</title>
<g id="a_node5"><a xlink:href="../../dc/dc8/_i_n_r-_p_c_i_8c.html#a317b7c374854b88af0059ff2a3708ce9" target="_top" xlink:title="INR_PCI_process_rx\l_descriptor_ring">
<polygon fill="white" stroke="black" points="254,-341.97 254,-371.97 364,-371.97 364,-341.97 254,-341.97"/>
<text text-anchor="start" x="262" y="-359.97" font-family="Helvetica,sans-Serif" font-size="10.00">INR_PCI_process_rx</text>
<text text-anchor="middle" x="309" y="-348.97" font-family="Helvetica,sans-Serif" font-size="10.00">_descriptor_ring</text>
</a>
</g>
</g>
<!-- Node4&#45;&gt;Node5 -->
<g id="edge4" class="edge"><title>Node4&#45;&gt;Node5</title>
<path fill="none" stroke="midnightblue" d="M205.83,-173.601C210.397,-176.054 214.635,-179.126 218,-182.97 262.87,-234.235 210.785,-279.303 254,-331.97 254.983,-333.168 256.036,-334.312 257.148,-335.403"/>
<polygon fill="midnightblue" stroke="midnightblue" points="255.222,-338.345 265.213,-341.87 259.601,-332.883 255.222,-338.345"/>
</g>
<!-- Node10 -->
<g id="node10" class="node"><title>Node10</title>
<g id="a_node10"><a xlink:href="../../d1/d67/_i_n_r-_n_a_p_i_8c.html#a517ed25d9d1f3ee1c648633b74f4469b" target="_top" xlink:title="INR_NAPI_complete">
<polygon fill="white" stroke="black" points="254.5,-303.47 254.5,-322.47 363.5,-322.47 363.5,-303.47 254.5,-303.47"/>
<text text-anchor="middle" x="309" y="-310.47" font-family="Helvetica,sans-Serif" font-size="10.00">INR_NAPI_complete</text>
</a>
</g>
</g>
<!-- Node4&#45;&gt;Node10 -->
<g id="edge14" class="edge"><title>Node4&#45;&gt;Node10</title>
<path fill="none" stroke="midnightblue" d="M201.838,-173.559C207.555,-176.081 213.199,-179.186 218,-182.97 257.167,-213.847 286.072,-266.377 299.553,-294.272"/>
<polygon fill="midnightblue" stroke="midnightblue" points="296.395,-295.783 303.812,-303.349 302.732,-292.81 296.395,-295.783"/>
</g>
<!-- Node5&#45;&gt;Node2 -->
<g id="edge8" class="edge"><title>Node5&#45;&gt;Node2</title>
<path fill="none" stroke="midnightblue" d="M323.556,-372.232C353.035,-405.418 422.801,-483.96 453.754,-518.807"/>
<polygon fill="midnightblue" stroke="midnightblue" points="451.151,-521.147 460.409,-526.299 456.385,-516.498 451.151,-521.147"/>
</g>
<!-- Node5&#45;&gt;Node3 -->
<g id="edge7" class="edge"><title>Node5&#45;&gt;Node3</title>
<path fill="none" stroke="midnightblue" d="M364.074,-365.097C466.401,-378.376 694.129,-397.832 873,-339.97 894.609,-332.98 916.886,-319.816 932.595,-309.355"/>
<polygon fill="midnightblue" stroke="midnightblue" points="934.759,-312.115 941.03,-303.576 930.802,-306.341 934.759,-312.115"/>
</g>
<!-- Node6 -->
<g id="node6" class="node"><title>Node6</title>
<g id="a_node6"><a xlink:href="../../d3/d3a/_i_n_r_8c.html#a055451b31abceb46e8c92789d0523980" target="_top" xlink:title="INR_CHECK_fpga_read_val">
<polygon fill="white" stroke="black" points="576,-328.47 576,-347.47 718,-347.47 718,-328.47 576,-328.47"/>
<text text-anchor="middle" x="647" y="-335.47" font-family="Helvetica,sans-Serif" font-size="10.00">INR_CHECK_fpga_read_val</text>
</a>
</g>
</g>
<!-- Node5&#45;&gt;Node6 -->
<g id="edge5" class="edge"><title>Node5&#45;&gt;Node6</title>
<path fill="none" stroke="midnightblue" d="M364.358,-353.897C418.899,-350.812 503.522,-346.027 565.78,-342.507"/>
<polygon fill="midnightblue" stroke="midnightblue" points="566.175,-345.99 575.961,-341.931 565.78,-339.001 566.175,-345.99"/>
</g>
<!-- Node7 -->
<g id="node7" class="node"><title>Node7</title>
<g id="a_node7"><a xlink:href="../../dc/dc8/_i_n_r-_p_c_i_8c.html#a03f960f01f96c2f664301c6830461c7f" target="_top" xlink:title="INR_PCI_alloc_new_rx_skb">
<polygon fill="white" stroke="black" points="400,-287.47 400,-306.47 540,-306.47 540,-287.47 400,-287.47"/>
<text text-anchor="middle" x="470" y="-294.47" font-family="Helvetica,sans-Serif" font-size="10.00">INR_PCI_alloc_new_rx_skb</text>
</a>
</g>
</g>
<!-- Node5&#45;&gt;Node7 -->
<g id="edge9" class="edge"><title>Node5&#45;&gt;Node7</title>
<path fill="none" stroke="midnightblue" d="M350.122,-341.83C376.112,-332.023 409.612,-319.381 434.423,-310.018"/>
<polygon fill="midnightblue" stroke="midnightblue" points="435.686,-313.283 443.806,-306.478 433.214,-306.734 435.686,-313.283"/>
</g>
<!-- Node6&#45;&gt;Node3 -->
<g id="edge6" class="edge"><title>Node6&#45;&gt;Node3</title>
<path fill="none" stroke="midnightblue" d="M718.214,-335.923C762.866,-333.667 821.722,-328.928 873,-318.97 888.113,-316.035 904.4,-311.325 918.378,-306.779"/>
<polygon fill="midnightblue" stroke="midnightblue" points="919.726,-310.019 928.098,-303.527 917.505,-303.381 919.726,-310.019"/>
</g>
<!-- Node8 -->
<g id="node8" class="node"><title>Node8</title>
<g id="a_node8"><a xlink:href="../../dc/dc8/_i_n_r-_p_c_i_8c.html#af88a9db4ef6451751a395e1207fd7066" target="_top" xlink:title="INR_PCI_get_new_rx\l_descriptor_ring_entry">
<polygon fill="white" stroke="black" points="590.5,-278.97 590.5,-308.97 703.5,-308.97 703.5,-278.97 590.5,-278.97"/>
<text text-anchor="start" x="598.5" y="-296.97" font-family="Helvetica,sans-Serif" font-size="10.00">INR_PCI_get_new_rx</text>
<text text-anchor="middle" x="647" y="-285.97" font-family="Helvetica,sans-Serif" font-size="10.00">_descriptor_ring_entry</text>
</a>
</g>
</g>
<!-- Node7&#45;&gt;Node8 -->
<g id="edge10" class="edge"><title>Node7&#45;&gt;Node8</title>
<path fill="none" stroke="midnightblue" d="M540.165,-295.785C553.282,-295.56 566.974,-295.325 579.991,-295.102"/>
<polygon fill="midnightblue" stroke="midnightblue" points="580.322,-298.597 590.261,-294.926 580.202,-291.598 580.322,-298.597"/>
</g>
<!-- Node8&#45;&gt;Node3 -->
<g id="edge13" class="edge"><title>Node8&#45;&gt;Node3</title>
<path fill="none" stroke="midnightblue" d="M700.953,-278.942C717.769,-274.857 736.534,-271.002 754,-268.97 806.535,-262.859 820.702,-261.083 873,-268.97 888.844,-271.36 905.862,-276.239 920.19,-281.057"/>
<polygon fill="midnightblue" stroke="midnightblue" points="919.037,-284.362 929.632,-284.352 921.343,-277.753 919.037,-284.362"/>
</g>
<!-- Node9 -->
<g id="node9" class="node"><title>Node9</title>
<g id="a_node9"><a xlink:href="../../dc/dc8/_i_n_r-_p_c_i_8c.html#adbea73204b38d31f4b80feb56a27b810" target="_top" xlink:title="INR_PCI_rx_descriptor\l_pool_refill">
<polygon fill="white" stroke="black" points="754,-278.97 754,-308.97 873,-308.97 873,-278.97 754,-278.97"/>
<text text-anchor="start" x="762" y="-296.97" font-family="Helvetica,sans-Serif" font-size="10.00">INR_PCI_rx_descriptor</text>
<text text-anchor="middle" x="813.5" y="-285.97" font-family="Helvetica,sans-Serif" font-size="10.00">_pool_refill</text>
</a>
</g>
</g>
<!-- Node8&#45;&gt;Node9 -->
<g id="edge11" class="edge"><title>Node8&#45;&gt;Node9</title>
<path fill="none" stroke="midnightblue" d="M703.692,-293.97C716.542,-293.97 730.36,-293.97 743.694,-293.97"/>
<polygon fill="midnightblue" stroke="midnightblue" points="743.772,-297.47 753.772,-293.97 743.772,-290.47 743.772,-297.47"/>
</g>
<!-- Node9&#45;&gt;Node3 -->
<g id="edge12" class="edge"><title>Node9&#45;&gt;Node3</title>
<path fill="none" stroke="midnightblue" d="M873.256,-293.97C881.726,-293.97 890.418,-293.97 898.815,-293.97"/>
<polygon fill="midnightblue" stroke="midnightblue" points="898.877,-297.47 908.877,-293.97 898.877,-290.47 898.877,-297.47"/>
</g>
<!-- Node11&#45;&gt;Node5 -->
<g id="edge16" class="edge"><title>Node11&#45;&gt;Node5</title>
<path fill="none" stroke="midnightblue" d="M206.482,-135.726C210.837,-138.156 214.843,-141.188 218,-144.97 272.235,-209.947 201.86,-265.3 254,-331.97 254.935,-333.166 255.94,-334.306 257.005,-335.394"/>
<polygon fill="midnightblue" stroke="midnightblue" points="254.842,-338.147 264.773,-341.837 259.31,-332.759 254.842,-338.147"/>
</g>
<!-- Node11&#45;&gt;Node10 -->
<g id="edge17" class="edge"><title>Node11&#45;&gt;Node10</title>
<path fill="none" stroke="midnightblue" d="M202.964,-135.471C208.378,-137.978 213.627,-141.1 218,-144.97 264.954,-186.523 291.708,-258.608 302.44,-293.259"/>
<polygon fill="midnightblue" stroke="midnightblue" points="299.163,-294.519 305.367,-303.107 305.873,-292.525 299.163,-294.519"/>
</g>
<!-- Node12&#45;&gt;Node5 -->
<g id="edge19" class="edge"><title>Node12&#45;&gt;Node5</title>
<path fill="none" stroke="midnightblue" d="M206.594,-97.6335C210.932,-100.078 214.903,-103.139 218,-106.97 281.661,-185.731 192.878,-251.223 254,-331.97 254.916,-333.18 255.904,-334.333 256.954,-335.433"/>
<polygon fill="midnightblue" stroke="midnightblue" points="254.753,-338.155 264.652,-341.93 259.268,-332.805 254.753,-338.155"/>
</g>
<!-- Node12&#45;&gt;Node10 -->
<g id="edge20" class="edge"><title>Node12&#45;&gt;Node10</title>
<path fill="none" stroke="midnightblue" d="M203.987,-97.5431C209.098,-100.023 213.983,-103.118 218,-106.97 273.361,-160.054 296.763,-253.036 304.648,-293.375"/>
<polygon fill="midnightblue" stroke="midnightblue" points="301.219,-294.08 306.475,-303.28 308.103,-292.811 301.219,-294.08"/>
</g>
<!-- Node13&#45;&gt;Node5 -->
<g id="edge22" class="edge"><title>Node13&#45;&gt;Node5</title>
<path fill="none" stroke="midnightblue" d="M206.675,-59.5686C211.001,-62.023 214.946,-65.1038 218,-68.9703 291.121,-161.557 183.863,-237.103 254,-331.97 254.795,-333.045 255.647,-334.075 256.549,-335.062"/>
<polygon fill="midnightblue" stroke="midnightblue" points="254.467,-337.89 264.307,-341.816 259.063,-332.61 254.467,-337.89"/>
</g>
<!-- Node13&#45;&gt;Node10 -->
<g id="edge23" class="edge"><title>Node13&#45;&gt;Node10</title>
<path fill="none" stroke="midnightblue" d="M204.934,-59.7157C209.744,-62.159 214.289,-65.1975 218,-68.9703 281.63,-133.661 300.821,-247.155 306.132,-292.96"/>
<polygon fill="midnightblue" stroke="midnightblue" points="302.67,-293.5 307.202,-303.076 309.631,-292.764 302.67,-293.5"/>
</g>
<!-- Node14&#45;&gt;Node5 -->
<g id="edge25" class="edge"><title>Node14&#45;&gt;Node5</title>
<path fill="none" stroke="midnightblue" d="M204.934,-610.225C209.744,-607.782 214.289,-604.743 218,-600.97 279.373,-538.574 299.404,-430.776 305.513,-382.105"/>
<polygon fill="midnightblue" stroke="midnightblue" points="308.996,-382.459 306.672,-372.122 302.042,-381.652 308.996,-382.459"/>
</g>
<!-- Node14&#45;&gt;Node10 -->
<g id="edge26" class="edge"><title>Node14&#45;&gt;Node10</title>
<path fill="none" stroke="midnightblue" d="M206.684,-610.379C211.008,-607.924 214.951,-604.841 218,-600.97 292.368,-506.562 178.917,-426.811 254,-332.97 255.312,-331.331 256.771,-329.826 258.346,-328.445"/>
<polygon fill="midnightblue" stroke="midnightblue" points="260.744,-331.045 267.026,-322.514 256.795,-325.266 260.744,-331.045"/>
</g>
<!-- Node15&#45;&gt;Node5 -->
<g id="edge28" class="edge"><title>Node15&#45;&gt;Node5</title>
<path fill="none" stroke="midnightblue" d="M203.987,-572.398C209.098,-569.917 213.983,-566.822 218,-562.97 270.978,-512.172 294.689,-424.837 303.542,-382.061"/>
<polygon fill="midnightblue" stroke="midnightblue" points="306.987,-382.683 305.482,-372.195 300.118,-381.332 306.987,-382.683"/>
</g>
<!-- Node15&#45;&gt;Node10 -->
<g id="edge29" class="edge"><title>Node15&#45;&gt;Node10</title>
<path fill="none" stroke="midnightblue" d="M206.606,-572.317C210.942,-569.871 214.909,-566.807 218,-562.97 282.904,-482.392 188.485,-413.053 254,-332.97 255.44,-331.21 257.051,-329.605 258.79,-328.14"/>
<polygon fill="midnightblue" stroke="midnightblue" points="260.739,-331.047 267.112,-322.584 256.852,-325.226 260.739,-331.047"/>
</g>
<!-- Node16&#45;&gt;Node5 -->
<g id="edge31" class="edge"><title>Node16&#45;&gt;Node5</title>
<path fill="none" stroke="midnightblue" d="M202.964,-534.47C208.378,-531.963 213.627,-528.84 218,-524.97 262.654,-485.453 289.039,-418.321 300.747,-382.035"/>
<polygon fill="midnightblue" stroke="midnightblue" points="304.164,-382.836 303.789,-372.247 297.479,-380.758 304.164,-382.836"/>
</g>
<!-- Node16&#45;&gt;Node10 -->
<g id="edge32" class="edge"><title>Node16&#45;&gt;Node10</title>
<path fill="none" stroke="midnightblue" d="M206.499,-534.229C210.852,-531.797 214.852,-528.76 218,-524.97 273.473,-458.183 198.021,-399.334 254,-332.97 255.493,-331.201 257.157,-329.588 258.95,-328.117"/>
<polygon fill="midnightblue" stroke="midnightblue" points="261.036,-330.936 267.5,-322.541 257.212,-325.072 261.036,-330.936"/>
</g>
<!-- Node17&#45;&gt;Node5 -->
<g id="edge34" class="edge"><title>Node17&#45;&gt;Node5</title>
<path fill="none" stroke="midnightblue" d="M201.838,-496.382C207.555,-493.86 213.199,-490.755 218,-486.97 254.639,-458.087 282.298,-410.255 296.751,-381.365"/>
<polygon fill="midnightblue" stroke="midnightblue" points="300.08,-382.522 301.306,-371.999 293.785,-379.461 300.08,-382.522"/>
</g>
<!-- Node17&#45;&gt;Node10 -->
<g id="edge35" class="edge"><title>Node17&#45;&gt;Node10</title>
<path fill="none" stroke="midnightblue" d="M205.856,-496.363C210.419,-493.906 214.649,-490.828 218,-486.97 264.097,-433.907 207.501,-385.681 254,-332.97 255.558,-331.204 257.287,-329.593 259.142,-328.124"/>
<polygon fill="midnightblue" stroke="midnightblue" points="261.367,-330.859 267.944,-322.552 257.622,-324.944 261.367,-330.859"/>
</g>
<!-- Node18&#45;&gt;Node5 -->
<g id="edge37" class="edge"><title>Node18&#45;&gt;Node5</title>
<path fill="none" stroke="midnightblue" d="M199.538,-458.453C205.892,-455.844 212.364,-452.688 218,-448.97 246.687,-430.046 273.391,-400.652 290.139,-380.2"/>
<polygon fill="midnightblue" stroke="midnightblue" points="292.945,-382.296 296.474,-372.306 287.486,-377.915 292.945,-382.296"/>
</g>
<!-- Node18&#45;&gt;Node10 -->
<g id="edge38" class="edge"><title>Node18&#45;&gt;Node10</title>
<path fill="none" stroke="midnightblue" d="M205.114,-458.397C209.899,-455.93 214.389,-452.839 218,-448.97 254.831,-409.506 216.87,-372.153 254,-332.97 255.805,-331.065 257.808,-329.341 259.949,-327.78"/>
<polygon fill="midnightblue" stroke="midnightblue" points="261.961,-330.655 268.764,-322.533 258.381,-324.64 261.961,-330.655"/>
</g>
<!-- Node19&#45;&gt;Node5 -->
<g id="edge40" class="edge"><title>Node19&#45;&gt;Node5</title>
<path fill="none" stroke="midnightblue" d="M196.057,-420.427C203.292,-417.62 211.034,-414.38 218,-410.97 238.209,-401.079 259.861,-388.167 276.862,-377.449"/>
<polygon fill="midnightblue" stroke="midnightblue" points="278.746,-380.399 285.297,-372.072 274.983,-374.496 278.746,-380.399"/>
</g>
<!-- Node19&#45;&gt;Node10 -->
<g id="edge41" class="edge"><title>Node19&#45;&gt;Node10</title>
<path fill="none" stroke="midnightblue" d="M203.666,-420.447C208.877,-417.955 213.877,-414.843 218,-410.97 245.828,-384.829 225.974,-358.899 254,-332.97 256.275,-330.866 258.791,-328.977 261.456,-327.284"/>
<polygon fill="midnightblue" stroke="midnightblue" points="263.201,-330.32 270.363,-322.513 259.895,-324.149 263.201,-330.32"/>
</g>
<!-- Node20&#45;&gt;Node5 -->
<g id="edge43" class="edge"><title>Node20&#45;&gt;Node5</title>
<path fill="none" stroke="midnightblue" d="M206.982,-382.406C218.399,-379.532 231.255,-376.295 243.874,-373.117"/>
<polygon fill="midnightblue" stroke="midnightblue" points="245.068,-376.426 253.911,-370.59 243.359,-369.638 245.068,-376.426"/>
</g>
<!-- Node20&#45;&gt;Node10 -->
<g id="edge44" class="edge"><title>Node20&#45;&gt;Node10</title>
<path fill="none" stroke="midnightblue" d="M200.172,-382.416C206.351,-379.836 212.593,-376.701 218,-372.97 237.687,-359.388 234.211,-346.403 254,-332.97 257.49,-330.602 261.296,-328.47 265.219,-326.563"/>
<polygon fill="midnightblue" stroke="midnightblue" points="266.73,-329.722 274.493,-322.511 263.928,-323.308 266.73,-329.722"/>
</g>
<!-- Node21&#45;&gt;Node5 -->
<g id="edge46" class="edge"><title>Node21&#45;&gt;Node5</title>
<path fill="none" stroke="midnightblue" d="M215.672,-354.978C224.591,-355.17 234.075,-355.375 243.439,-355.577"/>
<polygon fill="midnightblue" stroke="midnightblue" points="243.447,-359.078 253.52,-355.795 243.598,-352.079 243.447,-359.078"/>
</g>
<!-- Node21&#45;&gt;Node10 -->
<g id="edge47" class="edge"><title>Node21&#45;&gt;Node10</title>
<path fill="none" stroke="midnightblue" d="M201.239,-344.461C220.399,-338.81 244.923,-331.576 265.634,-325.467"/>
<polygon fill="midnightblue" stroke="midnightblue" points="266.853,-328.756 275.455,-322.57 264.873,-322.042 266.853,-328.756"/>
</g>
<!-- Node22&#45;&gt;Node5 -->
<g id="edge49" class="edge"><title>Node22&#45;&gt;Node5</title>
<path fill="none" stroke="midnightblue" d="M201.239,-325.48C214.92,-329.515 231.337,-334.357 247.147,-339.021"/>
<polygon fill="midnightblue" stroke="midnightblue" points="246.301,-342.42 256.883,-341.893 248.282,-335.706 246.301,-342.42"/>
</g>
<!-- Node22&#45;&gt;Node10 -->
<g id="edge50" class="edge"><title>Node22&#45;&gt;Node10</title>
<path fill="none" stroke="midnightblue" d="M215.672,-314.963C224.92,-314.763 234.776,-314.551 244.475,-314.341"/>
<polygon fill="midnightblue" stroke="midnightblue" points="244.571,-317.84 254.494,-314.125 244.42,-310.842 244.571,-317.84"/>
</g>
<!-- Node23&#45;&gt;Node5 -->
<g id="edge52" class="edge"><title>Node23&#45;&gt;Node5</title>
<path fill="none" stroke="midnightblue" d="M199.211,-287.49C205.651,-290.113 212.241,-293.274 218,-296.97 236.78,-309.024 235.613,-319.325 254,-331.97 256.556,-333.728 259.256,-335.418 262.03,-337.031"/>
<polygon fill="midnightblue" stroke="midnightblue" points="260.599,-340.236 271.06,-341.912 263.928,-334.078 260.599,-340.236"/>
</g>
<!-- Node23&#45;&gt;Node10 -->
<g id="edge53" class="edge"><title>Node23&#45;&gt;Node10</title>
<path fill="none" stroke="midnightblue" d="M206.982,-287.534C223.378,-291.663 242.742,-296.538 260.107,-300.911"/>
<polygon fill="midnightblue" stroke="midnightblue" points="259.512,-304.37 270.064,-303.418 261.221,-297.582 259.512,-304.37"/>
</g>
<!-- Node24&#45;&gt;Node5 -->
<g id="edge55" class="edge"><title>Node24&#45;&gt;Node5</title>
<path fill="none" stroke="midnightblue" d="M203.581,-249.586C208.802,-252.067 213.827,-255.151 218,-258.97 244.683,-283.397 228.108,-306.707 254,-331.97 255.47,-333.404 257.037,-334.766 258.677,-336.059"/>
<polygon fill="midnightblue" stroke="midnightblue" points="257.136,-339.243 267.378,-341.955 261.063,-333.448 257.136,-339.243"/>
</g>
<!-- Node24&#45;&gt;Node10 -->
<g id="edge56" class="edge"><title>Node24&#45;&gt;Node10</title>
<path fill="none" stroke="midnightblue" d="M196.057,-249.514C203.292,-252.321 211.034,-255.561 218,-258.97 241.693,-270.567 267.37,-286.316 285.21,-297.813"/>
<polygon fill="midnightblue" stroke="midnightblue" points="283.484,-300.866 293.773,-303.393 287.306,-295.001 283.484,-300.866"/>
</g>
<!-- Node25&#45;&gt;Node5 -->
<g id="edge58" class="edge"><title>Node25&#45;&gt;Node5</title>
<path fill="none" stroke="midnightblue" d="M205.07,-211.585C209.862,-214.046 214.365,-217.125 218,-220.97 253.626,-258.66 219.592,-293.165 254,-331.97 255.178,-333.299 256.441,-334.562 257.773,-335.762"/>
<polygon fill="midnightblue" stroke="midnightblue" points="255.935,-338.759 266.032,-341.967 260.139,-333.162 255.935,-338.759"/>
</g>
<!-- Node25&#45;&gt;Node10 -->
<g id="edge59" class="edge"><title>Node25&#45;&gt;Node10</title>
<path fill="none" stroke="midnightblue" d="M199.538,-211.488C205.892,-214.096 212.364,-217.252 218,-220.97 249.357,-241.656 278.344,-274.85 294.55,-295.202"/>
<polygon fill="midnightblue" stroke="midnightblue" points="291.963,-297.577 300.871,-303.312 297.484,-293.273 291.963,-297.577"/>
</g>
</g>
</svg>
        <g id="navigator" transform="translate(0 0)" fill="#404254">
                <rect fill="#f2f5e9" fill-opacity="0.5" stroke="#606060" stroke-width=".5" x="0" y="0" width="60" height="60"/>
                <use id="zoomplus" xlink:href="#zoomPlus" x="17" y="9" onmousedown="handleZoom(evt,'in')"/>
                <use id="zoomminus" xlink:href="#zoomMin" x="42" y="9" onmousedown="handleZoom(evt,'out')"/>
                <use id="reset" xlink:href="#resetDef" x="30" y="36" onmousedown="handleReset()"/>
                <g id="arrowUp" xlink:href="#dirArrow" transform="translate(30 24)" onmousedown="handlePan(0,-1)">
                  <use xlink:href="#rim" fill="#404040">
                        <set attributeName="fill" to="#808080" begin="arrowUp.mouseover" end="arrowUp.mouseout"/>
                  </use>
                  <path fill="none" stroke="white" stroke-width="1.5" d="M0,-3.0v7 M-2.5,-0.5L0,-3.0L2.5,-0.5"/>
                </g>
                <g id="arrowRight" xlink:href="#dirArrow" transform="rotate(90) translate(36 -43)" onmousedown="handlePan(1,0)">
                  <use xlink:href="#rim" fill="#404040">
                        <set attributeName="fill" to="#808080" begin="arrowRight.mouseover" end="arrowRight.mouseout"/>
                  </use>
                  <path fill="none" stroke="white" stroke-width="1.5" d="M0,-3.0v7 M-2.5,-0.5L0,-3.0L2.5,-0.5"/>
                </g>
                <g id="arrowDown" xlink:href="#dirArrow" transform="rotate(180) translate(-30 -48)" onmousedown="handlePan(0,1)">
                  <use xlink:href="#rim" fill="#404040">
                        <set attributeName="fill" to="#808080" begin="arrowDown.mouseover" end="arrowDown.mouseout"/>
                  </use>
                  <path fill="none" stroke="white" stroke-width="1.5" d="M0,-3.0v7 M-2.5,-0.5L0,-3.0L2.5,-0.5"/>
                </g>
                <g id="arrowLeft" xlink:href="#dirArrow" transform="rotate(270) translate(-36 17)" onmousedown="handlePan(-1,0)">
                  <use xlink:href="#rim" fill="#404040">
                        <set attributeName="fill" to="#808080" begin="arrowLeft.mouseover" end="arrowLeft.mouseout"/>
                  </use>
                  <path fill="none" stroke="white" stroke-width="1.5" d="M0,-3.0v7 M-2.5,-0.5L0,-3.0L2.5,-0.5"/>
                </g>
        </g>
        <svg viewBox="0 0 15 15" width="100%" height="30px" preserveAspectRatio="xMaxYMin meet">
         <g id="arrow_out" transform="scale(0.3 0.3)">
          <a xlink:href="_i_n_r-_n_a_p_i_8c_a4d6b9bd7496ab1a6ae8d17e5889d6adb_cgraph_org.svg" target="_base">
           <rect id="button" ry="5" rx="5" y="6" x="6" height="38" width="38"
                fill="#f2f5e9" fill-opacity="0.5" stroke="#606060" stroke-width="1.0"/>
           <path id="arrow"
             d="M 11.500037,31.436501 C 11.940474,20.09759 22.043105,11.32322 32.158766,21.979434 L 37.068811,17.246167 C 37.068811,17.246167 37.088388,32 37.088388,32 L 22.160133,31.978069 C 22.160133,31.978069 26.997745,27.140456 26.997745,27.140456 C 18.528582,18.264221 13.291696,25.230495 11.500037,31.436501 z"
             style="fill:#404040;"/>
          </a>
         </g>
        </svg>
</svg>
