<?xml version="1.0" encoding="UTF-8" standalone="no"?>
<!DOCTYPE svg PUBLIC "-//W3C//DTD SVG 1.1//EN"
 "http://www.w3.org/Graphics/SVG/1.1/DTD/svg11.dtd">
<!-- Generated by graphviz version 2.38.0 (20140413.2041)
 -->
<!-- Title: INR_NAPI_complete Pages: 1 -->
<!--zoomable 598 -->
<svg id="main" version="1.1" xmlns="http://www.w3.org/2000/svg" xmlns:xlink="http://www.w3.org/1999/xlink" xml:space="preserve" onload="init(evt)">
<style type="text/css"><![CDATA[
.edge:hover path { stroke: red; }
.edge:hover polygon { stroke: red; fill: red; }
]]></style>
<script type="text/javascript"><![CDATA[
var edges = document.getElementsByTagName('g');
if (edges && edges.length) {
  for (var i=0;i<edges.length;i++) {
    if (edges[i].id.substr(0,4)=='edge') {
      edges[i].setAttribute('class','edge');
    }
  }
}
]]></script>
        <defs>
                <circle id="rim" cx="0" cy="0" r="7"/>
                <circle id="rim2" cx="0" cy="0" r="3.5"/>
                <g id="zoomPlus">
                        <use xlink:href="#rim" fill="#404040">
                                <set attributeName="fill" to="#808080" begin="zoomplus.mouseover" end="zoomplus.mouseout"/>
                        </use>
                        <path d="M-4,0h8M0,-4v8" fill="none" stroke="white" stroke-width="1.5" pointer-events="none"/>
                </g>
                <g id="zoomMin">
                        <use xlink:href="#rim" fill="#404040">
                                <set attributeName="fill" to="#808080" begin="zoomminus.mouseover" end="zoomminus.mouseout"/>
                        </use>
                        <path d="M-4,0h8" fill="none" stroke="white" stroke-width="1.5" pointer-events="none"/>
                </g>
                <g id="dirArrow">
                        <path fill="none" stroke="white" stroke-width="1.5" d="M0,-3.0v7 M-2.5,-0.5L0,-3.0L2.5,-0.5"/>
                </g>
               <g id="resetDef">
                       <use xlink:href="#rim2" fill="#404040">
                               <set attributeName="fill" to="#808080" begin="reset.mouseover" end="reset.mouseout"/>
                       </use>
               </g>
        </defs>

<script type="text/javascript">
var viewWidth = 640;
var viewHeight = 598;
var sectionId = 'dynsection-1';
</script>
<script xlink:href="../../svgpan.js"/>
<svg id="graph" class="graph">
<g id="viewport">
<title>INR_NAPI_complete</title>
<polygon fill="white" stroke="none" points="-4,4 -4,-594 636,-594 636,4 -4,4"/>
<!-- Node1 -->
<g id="node1" class="node"><title>Node1</title>
<polygon fill="#bfbfbf" stroke="black" points="0,-285.5 0,-304.5 109,-304.5 109,-285.5 0,-285.5"/>
<text text-anchor="middle" x="54.5" y="-292.5" font-family="Helvetica,sans-Serif" font-size="10.00">INR_NAPI_complete</text>
</g>
<!-- Node2 -->
<g id="node2" class="node"><title>Node2</title>
<g id="a_node2"><a xlink:href="../../d6/d03/_i_n_r-_n_a_p_i_8h.html#a87ec5cd355cffe8b96296dbb83278bfe" target="_top" xlink:title="INR_NAPI_poll_0">
<polygon fill="white" stroke="black" points="147.5,-570.5 147.5,-589.5 242.5,-589.5 242.5,-570.5 147.5,-570.5"/>
<text text-anchor="middle" x="195" y="-577.5" font-family="Helvetica,sans-Serif" font-size="10.00">INR_NAPI_poll_0</text>
</a>
</g>
</g>
<!-- Node1&#45;&gt;Node2 -->
<g id="edge1" class="edge"><title>Node1&#45;&gt;Node2</title>
<path fill="none" stroke="midnightblue" d="M56.5956,-314.806C60.3197,-363.3 76.4367,-489.255 145,-561 148.656,-564.826 153.171,-567.893 157.967,-570.35"/>
<polygon fill="midnightblue" stroke="midnightblue" points="60.0795,-314.447 55.9182,-304.704 53.0952,-314.916 60.0795,-314.447"/>
</g>
<!-- Node7 -->
<g id="node7" class="node"><title>Node7</title>
<g id="a_node7"><a xlink:href="../../d6/d03/_i_n_r-_n_a_p_i_8h.html#a938e6a3d06b11a5dc3da541a5d05c0b2" target="_top" xlink:title="INR_NAPI_poll_1">
<polygon fill="white" stroke="black" points="147.5,-532.5 147.5,-551.5 242.5,-551.5 242.5,-532.5 147.5,-532.5"/>
<text text-anchor="middle" x="195" y="-539.5" font-family="Helvetica,sans-Serif" font-size="10.00">INR_NAPI_poll_1</text>
</a>
</g>
</g>
<!-- Node1&#45;&gt;Node7 -->
<g id="edge6" class="edge"><title>Node1&#45;&gt;Node7</title>
<path fill="none" stroke="midnightblue" d="M57.8985,-314.865C64.1753,-358.428 84.9787,-463.228 145,-523 148.879,-526.863 153.631,-529.959 158.635,-532.435"/>
<polygon fill="midnightblue" stroke="midnightblue" points="61.338,-314.178 56.5461,-304.729 54.3995,-315.104 61.338,-314.178"/>
</g>
<!-- Node8 -->
<g id="node8" class="node"><title>Node8</title>
<g id="a_node8"><a xlink:href="../../d6/d03/_i_n_r-_n_a_p_i_8h.html#a69ec3410fe5dc7da35e2f6a8d72acdb4" target="_top" xlink:title="INR_NAPI_poll_10">
<polygon fill="white" stroke="black" points="145,-494.5 145,-513.5 245,-513.5 245,-494.5 145,-494.5"/>
<text text-anchor="middle" x="195" y="-501.5" font-family="Helvetica,sans-Serif" font-size="10.00">INR_NAPI_poll_10</text>
</a>
</g>
</g>
<!-- Node1&#45;&gt;Node8 -->
<g id="edge8" class="edge"><title>Node1&#45;&gt;Node8</title>
<path fill="none" stroke="midnightblue" d="M59.6195,-314.629C68.5722,-352.644 93.2903,-436.804 145,-485 149.138,-488.857 154.146,-491.96 159.36,-494.448"/>
<polygon fill="midnightblue" stroke="midnightblue" points="63.0189,-313.792 57.4183,-304.799 56.1881,-315.322 63.0189,-313.792"/>
</g>
<!-- Node9 -->
<g id="node9" class="node"><title>Node9</title>
<g id="a_node9"><a xlink:href="../../d6/d03/_i_n_r-_n_a_p_i_8h.html#a7b9c6dd796e70895de209d2803e13ccc" target="_top" xlink:title="INR_NAPI_poll_11">
<polygon fill="white" stroke="black" points="145,-456.5 145,-475.5 245,-475.5 245,-456.5 145,-456.5"/>
<text text-anchor="middle" x="195" y="-463.5" font-family="Helvetica,sans-Serif" font-size="10.00">INR_NAPI_poll_11</text>
</a>
</g>
</g>
<!-- Node1&#45;&gt;Node9 -->
<g id="edge10" class="edge"><title>Node1&#45;&gt;Node9</title>
<path fill="none" stroke="midnightblue" d="M62.013,-314.157C73.7556,-345.993 101.388,-409.946 145,-447 149.52,-450.84 154.903,-453.955 160.42,-456.465"/>
<polygon fill="midnightblue" stroke="midnightblue" points="65.2897,-312.925 58.6398,-304.678 58.6948,-315.272 65.2897,-312.925"/>
</g>
<!-- Node10 -->
<g id="node10" class="node"><title>Node10</title>
<g id="a_node10"><a xlink:href="../../d6/d03/_i_n_r-_n_a_p_i_8h.html#a3a1602b0c3f015b8aabd0b978d704493" target="_top" xlink:title="INR_NAPI_poll_12">
<polygon fill="white" stroke="black" points="145,-418.5 145,-437.5 245,-437.5 245,-418.5 145,-418.5"/>
<text text-anchor="middle" x="195" y="-425.5" font-family="Helvetica,sans-Serif" font-size="10.00">INR_NAPI_poll_12</text>
</a>
</g>
</g>
<!-- Node1&#45;&gt;Node10 -->
<g id="edge12" class="edge"><title>Node1&#45;&gt;Node10</title>
<path fill="none" stroke="midnightblue" d="M65.6927,-313.479C80.2711,-338.36 109.3,-382.555 145,-409 150.059,-412.747 155.95,-415.855 161.858,-418.395"/>
<polygon fill="midnightblue" stroke="midnightblue" points="68.6663,-311.628 60.6693,-304.678 62.5869,-315.098 68.6663,-311.628"/>
</g>
<!-- Node11 -->
<g id="node11" class="node"><title>Node11</title>
<g id="a_node11"><a xlink:href="../../d6/d03/_i_n_r-_n_a_p_i_8h.html#a2ee390e1624519f6a631b3046c2fbd3f" target="_top" xlink:title="INR_NAPI_poll_13">
<polygon fill="white" stroke="black" points="145,-380.5 145,-399.5 245,-399.5 245,-380.5 145,-380.5"/>
<text text-anchor="middle" x="195" y="-387.5" font-family="Helvetica,sans-Serif" font-size="10.00">INR_NAPI_poll_13</text>
</a>
</g>
</g>
<!-- Node1&#45;&gt;Node11 -->
<g id="edge14" class="edge"><title>Node1&#45;&gt;Node11</title>
<path fill="none" stroke="midnightblue" d="M72.0451,-312.058C89.0747,-328.85 117.002,-354.333 145,-371 151.115,-374.64 158.053,-377.826 164.744,-380.497"/>
<polygon fill="midnightblue" stroke="midnightblue" points="74.1443,-309.206 64.608,-304.589 69.1841,-314.145 74.1443,-309.206"/>
</g>
<!-- Node12 -->
<g id="node12" class="node"><title>Node12</title>
<g id="a_node12"><a xlink:href="../../d6/d03/_i_n_r-_n_a_p_i_8h.html#a2cbf12b9e0e03b3b3862a98784ecc52b" target="_top" xlink:title="INR_NAPI_poll_14">
<polygon fill="white" stroke="black" points="145,-342.5 145,-361.5 245,-361.5 245,-342.5 145,-342.5"/>
<text text-anchor="middle" x="195" y="-349.5" font-family="Helvetica,sans-Serif" font-size="10.00">INR_NAPI_poll_14</text>
</a>
</g>
</g>
<!-- Node1&#45;&gt;Node12 -->
<g id="edge16" class="edge"><title>Node1&#45;&gt;Node12</title>
<path fill="none" stroke="midnightblue" d="M86.9946,-308.659C104.099,-316.005 125.65,-325.143 145,-333 152.777,-336.158 161.293,-339.5 169.012,-342.486"/>
<polygon fill="midnightblue" stroke="midnightblue" points="88.0564,-305.306 77.4876,-304.565 85.2874,-311.735 88.0564,-305.306"/>
</g>
<!-- Node13 -->
<g id="node13" class="node"><title>Node13</title>
<g id="a_node13"><a xlink:href="../../d6/d03/_i_n_r-_n_a_p_i_8h.html#a91f701f31afe930ece5c8bf5fb1a7ed6" target="_top" xlink:title="INR_NAPI_poll_15">
<polygon fill="white" stroke="black" points="145,-304.5 145,-323.5 245,-323.5 245,-304.5 145,-304.5"/>
<text text-anchor="middle" x="195" y="-311.5" font-family="Helvetica,sans-Serif" font-size="10.00">INR_NAPI_poll_15</text>
</a>
</g>
</g>
<!-- Node1&#45;&gt;Node13 -->
<g id="edge18" class="edge"><title>Node1&#45;&gt;Node13</title>
<path fill="none" stroke="midnightblue" d="M119.057,-303.719C127.657,-304.899 136.375,-306.095 144.675,-307.233"/>
<polygon fill="midnightblue" stroke="midnightblue" points="119.431,-300.238 109.048,-302.346 118.479,-307.173 119.431,-300.238"/>
</g>
<!-- Node14 -->
<g id="node14" class="node"><title>Node14</title>
<g id="a_node14"><a xlink:href="../../d6/d03/_i_n_r-_n_a_p_i_8h.html#ae6bc59b863b3928700468d13efd23e27" target="_top" xlink:title="INR_NAPI_poll_2">
<polygon fill="white" stroke="black" points="147.5,-266.5 147.5,-285.5 242.5,-285.5 242.5,-266.5 147.5,-266.5"/>
<text text-anchor="middle" x="195" y="-273.5" font-family="Helvetica,sans-Serif" font-size="10.00">INR_NAPI_poll_2</text>
</a>
</g>
</g>
<!-- Node1&#45;&gt;Node14 -->
<g id="edge20" class="edge"><title>Node1&#45;&gt;Node14</title>
<path fill="none" stroke="midnightblue" d="M119.239,-286.256C128.712,-284.956 138.324,-283.638 147.359,-282.398"/>
<polygon fill="midnightblue" stroke="midnightblue" points="118.479,-282.827 109.048,-287.654 119.431,-289.762 118.479,-282.827"/>
</g>
<!-- Node15 -->
<g id="node15" class="node"><title>Node15</title>
<g id="a_node15"><a xlink:href="../../d6/d03/_i_n_r-_n_a_p_i_8h.html#a7888221fd9575d7e7aae78ed125d8646" target="_top" xlink:title="INR_NAPI_poll_3">
<polygon fill="white" stroke="black" points="147.5,-228.5 147.5,-247.5 242.5,-247.5 242.5,-228.5 147.5,-228.5"/>
<text text-anchor="middle" x="195" y="-235.5" font-family="Helvetica,sans-Serif" font-size="10.00">INR_NAPI_poll_3</text>
</a>
</g>
</g>
<!-- Node1&#45;&gt;Node15 -->
<g id="edge22" class="edge"><title>Node1&#45;&gt;Node15</title>
<path fill="none" stroke="midnightblue" d="M86.9946,-281.341C104.099,-273.995 125.65,-264.857 145,-257 152.777,-253.842 161.293,-250.5 169.012,-247.514"/>
<polygon fill="midnightblue" stroke="midnightblue" points="85.2874,-278.265 77.4876,-285.435 88.0564,-284.694 85.2874,-278.265"/>
</g>
<!-- Node16 -->
<g id="node16" class="node"><title>Node16</title>
<g id="a_node16"><a xlink:href="../../d6/d03/_i_n_r-_n_a_p_i_8h.html#a5e711c1ae61572a4bab9ffefc34d0f34" target="_top" xlink:title="INR_NAPI_poll_4">
<polygon fill="white" stroke="black" points="147.5,-190.5 147.5,-209.5 242.5,-209.5 242.5,-190.5 147.5,-190.5"/>
<text text-anchor="middle" x="195" y="-197.5" font-family="Helvetica,sans-Serif" font-size="10.00">INR_NAPI_poll_4</text>
</a>
</g>
</g>
<!-- Node1&#45;&gt;Node16 -->
<g id="edge24" class="edge"><title>Node1&#45;&gt;Node16</title>
<path fill="none" stroke="midnightblue" d="M72.0451,-277.942C89.0747,-261.15 117.002,-235.667 145,-219 151.115,-215.36 158.053,-212.174 164.744,-209.503"/>
<polygon fill="midnightblue" stroke="midnightblue" points="69.1841,-275.855 64.608,-285.411 74.1443,-280.794 69.1841,-275.855"/>
</g>
<!-- Node17 -->
<g id="node17" class="node"><title>Node17</title>
<g id="a_node17"><a xlink:href="../../d6/d03/_i_n_r-_n_a_p_i_8h.html#a4c7935fe4ef401ccd186e05e1047748c" target="_top" xlink:title="INR_NAPI_poll_5">
<polygon fill="white" stroke="black" points="147.5,-152.5 147.5,-171.5 242.5,-171.5 242.5,-152.5 147.5,-152.5"/>
<text text-anchor="middle" x="195" y="-159.5" font-family="Helvetica,sans-Serif" font-size="10.00">INR_NAPI_poll_5</text>
</a>
</g>
</g>
<!-- Node1&#45;&gt;Node17 -->
<g id="edge26" class="edge"><title>Node1&#45;&gt;Node17</title>
<path fill="none" stroke="midnightblue" d="M65.6927,-276.521C80.2711,-251.64 109.3,-207.445 145,-181 150.059,-177.253 155.95,-174.145 161.858,-171.605"/>
<polygon fill="midnightblue" stroke="midnightblue" points="62.5869,-274.902 60.6693,-285.322 68.6663,-278.372 62.5869,-274.902"/>
</g>
<!-- Node18 -->
<g id="node18" class="node"><title>Node18</title>
<g id="a_node18"><a xlink:href="../../d6/d03/_i_n_r-_n_a_p_i_8h.html#a2a63c16bad3fb8de0dacd9bb0b02a40f" target="_top" xlink:title="INR_NAPI_poll_6">
<polygon fill="white" stroke="black" points="147.5,-114.5 147.5,-133.5 242.5,-133.5 242.5,-114.5 147.5,-114.5"/>
<text text-anchor="middle" x="195" y="-121.5" font-family="Helvetica,sans-Serif" font-size="10.00">INR_NAPI_poll_6</text>
</a>
</g>
</g>
<!-- Node1&#45;&gt;Node18 -->
<g id="edge28" class="edge"><title>Node1&#45;&gt;Node18</title>
<path fill="none" stroke="midnightblue" d="M62.013,-275.843C73.7556,-244.007 101.388,-180.054 145,-143 149.52,-139.16 154.903,-136.045 160.42,-133.535"/>
<polygon fill="midnightblue" stroke="midnightblue" points="58.6948,-274.728 58.6398,-285.322 65.2897,-277.075 58.6948,-274.728"/>
</g>
<!-- Node19 -->
<g id="node19" class="node"><title>Node19</title>
<g id="a_node19"><a xlink:href="../../d6/d03/_i_n_r-_n_a_p_i_8h.html#a05cb8dc7168c07cf8755dc8e4075caba" target="_top" xlink:title="INR_NAPI_poll_7">
<polygon fill="white" stroke="black" points="147.5,-76.5 147.5,-95.5 242.5,-95.5 242.5,-76.5 147.5,-76.5"/>
<text text-anchor="middle" x="195" y="-83.5" font-family="Helvetica,sans-Serif" font-size="10.00">INR_NAPI_poll_7</text>
</a>
</g>
</g>
<!-- Node1&#45;&gt;Node19 -->
<g id="edge30" class="edge"><title>Node1&#45;&gt;Node19</title>
<path fill="none" stroke="midnightblue" d="M59.6195,-275.371C68.5722,-237.356 93.2903,-153.196 145,-105 149.138,-101.143 154.146,-98.0398 159.36,-95.5515"/>
<polygon fill="midnightblue" stroke="midnightblue" points="56.1881,-274.678 57.4183,-285.201 63.0189,-276.208 56.1881,-274.678"/>
</g>
<!-- Node20 -->
<g id="node20" class="node"><title>Node20</title>
<g id="a_node20"><a xlink:href="../../d6/d03/_i_n_r-_n_a_p_i_8h.html#a56cfbbdff0a9b3fba466a06079b21ed8" target="_top" xlink:title="INR_NAPI_poll_8">
<polygon fill="white" stroke="black" points="147.5,-38.5 147.5,-57.5 242.5,-57.5 242.5,-38.5 147.5,-38.5"/>
<text text-anchor="middle" x="195" y="-45.5" font-family="Helvetica,sans-Serif" font-size="10.00">INR_NAPI_poll_8</text>
</a>
</g>
</g>
<!-- Node1&#45;&gt;Node20 -->
<g id="edge32" class="edge"><title>Node1&#45;&gt;Node20</title>
<path fill="none" stroke="midnightblue" d="M57.8985,-275.135C64.1753,-231.572 84.9787,-126.772 145,-67 148.879,-63.137 153.631,-60.0411 158.635,-57.5649"/>
<polygon fill="midnightblue" stroke="midnightblue" points="54.3995,-274.896 56.5461,-285.271 61.338,-275.822 54.3995,-274.896"/>
</g>
<!-- Node21 -->
<g id="node21" class="node"><title>Node21</title>
<g id="a_node21"><a xlink:href="../../d6/d03/_i_n_r-_n_a_p_i_8h.html#a7411c18801eb32e892612975b01d604e" target="_top" xlink:title="INR_NAPI_poll_9">
<polygon fill="white" stroke="black" points="147.5,-0.5 147.5,-19.5 242.5,-19.5 242.5,-0.5 147.5,-0.5"/>
<text text-anchor="middle" x="195" y="-7.5" font-family="Helvetica,sans-Serif" font-size="10.00">INR_NAPI_poll_9</text>
</a>
</g>
</g>
<!-- Node1&#45;&gt;Node21 -->
<g id="edge34" class="edge"><title>Node1&#45;&gt;Node21</title>
<path fill="none" stroke="midnightblue" d="M56.5956,-275.194C60.3197,-226.7 76.4367,-100.745 145,-29 148.656,-25.1742 153.171,-22.1066 157.967,-19.6502"/>
<polygon fill="midnightblue" stroke="midnightblue" points="53.0952,-275.084 55.9182,-285.296 60.0795,-275.553 53.0952,-275.084"/>
</g>
<!-- Node3 -->
<g id="node3" class="node"><title>Node3</title>
<g id="a_node3"><a xlink:href="../../d6/d03/_i_n_r-_n_a_p_i_8h.html#a4d6b9bd7496ab1a6ae8d17e5889d6adb" target="_top" xlink:title="INR_NAPI_init">
<polygon fill="white" stroke="black" points="281,-285.5 281,-304.5 363,-304.5 363,-285.5 281,-285.5"/>
<text text-anchor="middle" x="322" y="-292.5" font-family="Helvetica,sans-Serif" font-size="10.00">INR_NAPI_init</text>
</a>
</g>
</g>
<!-- Node2&#45;&gt;Node3 -->
<g id="edge2" class="edge"><title>Node2&#45;&gt;Node3</title>
<path fill="none" stroke="midnightblue" d="M240.639,-565.071C242.199,-563.82 243.662,-562.466 245,-561 316.215,-482.943 321.157,-342.599 321.139,-304.67"/>
<polygon fill="midnightblue" stroke="midnightblue" points="238.713,-562.148 232.193,-570.5 242.498,-568.037 238.713,-562.148"/>
</g>
<!-- Node4 -->
<g id="node4" class="node"><title>Node4</title>
<g id="a_node4"><a xlink:href="../../df/df2/_i_n_r-_p_c_i_8h.html#a63ce64abfe6217358041ed07e918a398" target="_top" xlink:title="INR_init_drv">
<polygon fill="white" stroke="black" points="399,-285.5 399,-304.5 470,-304.5 470,-285.5 399,-285.5"/>
<text text-anchor="middle" x="434.5" y="-292.5" font-family="Helvetica,sans-Serif" font-size="10.00">INR_init_drv</text>
</a>
</g>
</g>
<!-- Node3&#45;&gt;Node4 -->
<g id="edge3" class="edge"><title>Node3&#45;&gt;Node4</title>
<path fill="none" stroke="midnightblue" d="M373.278,-295C381.968,-295 390.823,-295 398.974,-295"/>
<polygon fill="midnightblue" stroke="midnightblue" points="373.206,-291.5 363.206,-295 373.206,-298.5 373.206,-291.5"/>
</g>
<!-- Node5 -->
<g id="node5" class="node"><title>Node5</title>
<g id="a_node5"><a xlink:href="../../d0/d29/main_8c.html#a1f2bd07aac6fb1d9a27f635dac28669b" target="_top" xlink:title="probe">
<polygon fill="white" stroke="black" points="506,-285.5 506,-304.5 547,-304.5 547,-285.5 506,-285.5"/>
<text text-anchor="middle" x="526.5" y="-292.5" font-family="Helvetica,sans-Serif" font-size="10.00">probe</text>
</a>
</g>
</g>
<!-- Node4&#45;&gt;Node5 -->
<g id="edge4" class="edge"><title>Node4&#45;&gt;Node5</title>
<path fill="none" stroke="midnightblue" d="M480.123,-295C489.131,-295 498.159,-295 505.763,-295"/>
<polygon fill="midnightblue" stroke="midnightblue" points="480.039,-291.5 470.039,-295 480.039,-298.5 480.039,-291.5"/>
</g>
<!-- Node6 -->
<g id="node6" class="node"><title>Node6</title>
<g id="a_node6"><a xlink:href="../../d0/d29/main_8c.html#a28d5841b26c9924ab02d6adb235e9848" target="_top" xlink:title="remove">
<polygon fill="white" stroke="black" points="583,-285.5 583,-304.5 632,-304.5 632,-285.5 583,-285.5"/>
<text text-anchor="middle" x="607.5" y="-292.5" font-family="Helvetica,sans-Serif" font-size="10.00">remove</text>
</a>
</g>
</g>
<!-- Node5&#45;&gt;Node6 -->
<g id="edge5" class="edge"><title>Node5&#45;&gt;Node6</title>
<path fill="none" stroke="midnightblue" d="M557.31,-295C565.797,-295 574.92,-295 582.976,-295"/>
<polygon fill="midnightblue" stroke="midnightblue" points="557.028,-291.5 547.028,-295 557.028,-298.5 557.028,-291.5"/>
</g>
<!-- Node7&#45;&gt;Node3 -->
<g id="edge7" class="edge"><title>Node7&#45;&gt;Node3</title>
<path fill="none" stroke="midnightblue" d="M240.56,-526.997C242.141,-525.766 243.631,-524.437 245,-523 307.463,-457.454 318.639,-339.206 320.595,-304.699"/>
<polygon fill="midnightblue" stroke="midnightblue" points="238.64,-524.069 232.042,-532.359 242.37,-529.993 238.64,-524.069"/>
</g>
<!-- Node8&#45;&gt;Node3 -->
<g id="edge9" class="edge"><title>Node8&#45;&gt;Node3</title>
<path fill="none" stroke="midnightblue" d="M240.289,-489.018C241.959,-487.781 243.541,-486.444 245,-485 298.792,-431.776 315.684,-335.587 319.841,-304.776"/>
<polygon fill="midnightblue" stroke="midnightblue" points="238.099,-486.252 231.343,-494.413 241.714,-492.246 238.099,-486.252"/>
</g>
<!-- Node9&#45;&gt;Node3 -->
<g id="edge11" class="edge"><title>Node9&#45;&gt;Node3</title>
<path fill="none" stroke="midnightblue" d="M239.432,-451.352C241.402,-450.02 243.273,-448.572 245,-447 290.379,-405.687 312.189,-331.164 318.772,-304.67"/>
<polygon fill="midnightblue" stroke="midnightblue" points="237.31,-448.53 230.31,-456.484 240.742,-454.631 237.31,-448.53"/>
</g>
<!-- Node10&#45;&gt;Node3 -->
<g id="edge13" class="edge"><title>Node10&#45;&gt;Node3</title>
<path fill="none" stroke="midnightblue" d="M237.808,-413.929C240.341,-412.433 242.765,-410.794 245,-409 282.101,-379.221 307.618,-326.392 317.007,-304.704"/>
<polygon fill="midnightblue" stroke="midnightblue" points="236.208,-410.817 228.892,-418.48 239.39,-417.052 236.208,-410.817"/>
</g>
<!-- Node11&#45;&gt;Node3 -->
<g id="edge15" class="edge"><title>Node11&#45;&gt;Node3</title>
<path fill="none" stroke="midnightblue" d="M235.723,-376.27C238.948,-374.658 242.083,-372.901 245,-371 274.076,-352.048 301.021,-320.516 313.582,-304.689"/>
<polygon fill="midnightblue" stroke="midnightblue" points="234.178,-373.127 226.507,-380.435 237.061,-379.506 234.178,-373.127"/>
</g>
<!-- Node12&#45;&gt;Node3 -->
<g id="edge17" class="edge"><title>Node12&#45;&gt;Node3</title>
<path fill="none" stroke="midnightblue" d="M231.269,-338.782C235.915,-336.907 240.591,-334.952 245,-333 265.234,-324.042 287.848,-312.536 303.107,-304.542"/>
<polygon fill="midnightblue" stroke="midnightblue" points="229.889,-335.564 221.871,-342.489 232.458,-342.075 229.889,-335.564"/>
</g>
<!-- Node13&#45;&gt;Node3 -->
<g id="edge19" class="edge"><title>Node13&#45;&gt;Node3</title>
<path fill="none" stroke="midnightblue" d="M255.207,-305C263.933,-303.674 272.745,-302.335 280.959,-301.086"/>
<polygon fill="midnightblue" stroke="midnightblue" points="254.405,-301.582 245.045,-306.545 255.457,-308.503 254.405,-301.582"/>
</g>
<!-- Node14&#45;&gt;Node3 -->
<g id="edge21" class="edge"><title>Node14&#45;&gt;Node3</title>
<path fill="none" stroke="midnightblue" d="M252.463,-284.582C262.085,-286.045 271.899,-287.537 280.982,-288.917"/>
<polygon fill="midnightblue" stroke="midnightblue" points="252.958,-281.117 242.545,-283.075 251.906,-288.038 252.958,-281.117"/>
</g>
<!-- Node15&#45;&gt;Node3 -->
<g id="edge23" class="edge"><title>Node15&#45;&gt;Node3</title>
<path fill="none" stroke="midnightblue" d="M231.269,-251.218C235.915,-253.093 240.591,-255.048 245,-257 265.234,-265.958 287.848,-277.464 303.107,-285.458"/>
<polygon fill="midnightblue" stroke="midnightblue" points="232.458,-247.925 221.871,-247.511 229.889,-254.436 232.458,-247.925"/>
</g>
<!-- Node16&#45;&gt;Node3 -->
<g id="edge25" class="edge"><title>Node16&#45;&gt;Node3</title>
<path fill="none" stroke="midnightblue" d="M235.723,-213.73C238.948,-215.342 242.083,-217.099 245,-219 274.076,-237.952 301.021,-269.484 313.582,-285.311"/>
<polygon fill="midnightblue" stroke="midnightblue" points="237.061,-210.494 226.507,-209.565 234.178,-216.873 237.061,-210.494"/>
</g>
<!-- Node17&#45;&gt;Node3 -->
<g id="edge27" class="edge"><title>Node17&#45;&gt;Node3</title>
<path fill="none" stroke="midnightblue" d="M237.808,-176.071C240.341,-177.567 242.765,-179.206 245,-181 282.101,-210.779 307.618,-263.608 317.007,-285.296"/>
<polygon fill="midnightblue" stroke="midnightblue" points="239.39,-172.948 228.892,-171.52 236.208,-179.183 239.39,-172.948"/>
</g>
<!-- Node18&#45;&gt;Node3 -->
<g id="edge29" class="edge"><title>Node18&#45;&gt;Node3</title>
<path fill="none" stroke="midnightblue" d="M239.432,-138.648C241.402,-139.98 243.273,-141.428 245,-143 290.379,-184.313 312.189,-258.836 318.772,-285.33"/>
<polygon fill="midnightblue" stroke="midnightblue" points="240.742,-135.369 230.31,-133.516 237.31,-141.47 240.742,-135.369"/>
</g>
<!-- Node19&#45;&gt;Node3 -->
<g id="edge31" class="edge"><title>Node19&#45;&gt;Node3</title>
<path fill="none" stroke="midnightblue" d="M240.289,-100.982C241.959,-102.219 243.541,-103.556 245,-105 298.792,-158.224 315.684,-254.413 319.841,-285.224"/>
<polygon fill="midnightblue" stroke="midnightblue" points="241.714,-97.7542 231.343,-95.5869 238.099,-103.748 241.714,-97.7542"/>
</g>
<!-- Node20&#45;&gt;Node3 -->
<g id="edge33" class="edge"><title>Node20&#45;&gt;Node3</title>
<path fill="none" stroke="midnightblue" d="M240.56,-63.0032C242.141,-64.2337 243.631,-65.5634 245,-67 307.463,-132.546 318.639,-250.794 320.595,-285.301"/>
<polygon fill="midnightblue" stroke="midnightblue" points="242.37,-60.0066 232.042,-57.6409 238.64,-65.9305 242.37,-60.0066"/>
</g>
<!-- Node21&#45;&gt;Node3 -->
<g id="edge35" class="edge"><title>Node21&#45;&gt;Node3</title>
<path fill="none" stroke="midnightblue" d="M240.639,-24.9294C242.199,-26.1799 243.662,-27.534 245,-29 316.215,-107.057 321.157,-247.401 321.139,-285.33"/>
<polygon fill="midnightblue" stroke="midnightblue" points="242.498,-21.9633 232.193,-19.5002 238.713,-27.8517 242.498,-21.9633"/>
</g>
</g>
</svg>
        <g id="navigator" transform="translate(0 0)" fill="#404254">
                <rect fill="#f2f5e9" fill-opacity="0.5" stroke="#606060" stroke-width=".5" x="0" y="0" width="60" height="60"/>
                <use id="zoomplus" xlink:href="#zoomPlus" x="17" y="9" onmousedown="handleZoom(evt,'in')"/>
                <use id="zoomminus" xlink:href="#zoomMin" x="42" y="9" onmousedown="handleZoom(evt,'out')"/>
                <use id="reset" xlink:href="#resetDef" x="30" y="36" onmousedown="handleReset()"/>
                <g id="arrowUp" xlink:href="#dirArrow" transform="translate(30 24)" onmousedown="handlePan(0,-1)">
                  <use xlink:href="#rim" fill="#404040">
                        <set attributeName="fill" to="#808080" begin="arrowUp.mouseover" end="arrowUp.mouseout"/>
                  </use>
                  <path fill="none" stroke="white" stroke-width="1.5" d="M0,-3.0v7 M-2.5,-0.5L0,-3.0L2.5,-0.5"/>
                </g>
                <g id="arrowRight" xlink:href="#dirArrow" transform="rotate(90) translate(36 -43)" onmousedown="handlePan(1,0)">
                  <use xlink:href="#rim" fill="#404040">
                        <set attributeName="fill" to="#808080" begin="arrowRight.mouseover" end="arrowRight.mouseout"/>
                  </use>
                  <path fill="none" stroke="white" stroke-width="1.5" d="M0,-3.0v7 M-2.5,-0.5L0,-3.0L2.5,-0.5"/>
                </g>
                <g id="arrowDown" xlink:href="#dirArrow" transform="rotate(180) translate(-30 -48)" onmousedown="handlePan(0,1)">
                  <use xlink:href="#rim" fill="#404040">
                        <set attributeName="fill" to="#808080" begin="arrowDown.mouseover" end="arrowDown.mouseout"/>
                  </use>
                  <path fill="none" stroke="white" stroke-width="1.5" d="M0,-3.0v7 M-2.5,-0.5L0,-3.0L2.5,-0.5"/>
                </g>
                <g id="arrowLeft" xlink:href="#dirArrow" transform="rotate(270) translate(-36 17)" onmousedown="handlePan(-1,0)">
                  <use xlink:href="#rim" fill="#404040">
                        <set attributeName="fill" to="#808080" begin="arrowLeft.mouseover" end="arrowLeft.mouseout"/>
                  </use>
                  <path fill="none" stroke="white" stroke-width="1.5" d="M0,-3.0v7 M-2.5,-0.5L0,-3.0L2.5,-0.5"/>
                </g>
        </g>
        <svg viewBox="0 0 15 15" width="100%" height="30px" preserveAspectRatio="xMaxYMin meet">
         <g id="arrow_out" transform="scale(0.3 0.3)">
          <a xlink:href="_i_n_r-_n_a_p_i_8c_a517ed25d9d1f3ee1c648633b74f4469b_icgraph_org.svg" target="_base">
           <rect id="button" ry="5" rx="5" y="6" x="6" height="38" width="38"
                fill="#f2f5e9" fill-opacity="0.5" stroke="#606060" stroke-width="1.0"/>
           <path id="arrow"
             d="M 11.500037,31.436501 C 11.940474,20.09759 22.043105,11.32322 32.158766,21.979434 L 37.068811,17.246167 C 37.068811,17.246167 37.088388,32 37.088388,32 L 22.160133,31.978069 C 22.160133,31.978069 26.997745,27.140456 26.997745,27.140456 C 18.528582,18.264221 13.291696,25.230495 11.500037,31.436501 z"
             style="fill:#404040;"/>
          </a>
         </g>
        </svg>
</svg>
