<?xml version="1.0" encoding="UTF-8" standalone="no"?>
<!DOCTYPE svg PUBLIC "-//W3C//DTD SVG 1.1//EN"
 "http://www.w3.org/Graphics/SVG/1.1/DTD/svg11.dtd">
<!-- Generated by graphviz version 2.38.0 (20140413.2041)
 -->
<!-- Title: INR_NAPI_init Pages: 1 -->
<svg width="359pt" height="28pt"
 viewBox="0.00 0.00 359.00 28.00" xmlns="http://www.w3.org/2000/svg" xmlns:xlink="http://www.w3.org/1999/xlink">
<g id="graph0" class="graph" transform="scale(1 1) rotate(0) translate(4 24)">
<title>INR_NAPI_init</title>
<polygon fill="white" stroke="none" points="-4,4 -4,-24 355,-24 355,4 -4,4"/>
<!-- Node1 -->
<g id="node1" class="node"><title>Node1</title>
<polygon fill="#bfbfbf" stroke="black" points="0,-0.5 0,-19.5 82,-19.5 82,-0.5 0,-0.5"/>
<text text-anchor="middle" x="41" y="-7.5" font-family="Helvetica,sans-Serif" font-size="10.00">INR_NAPI_init</text>
</g>
<!-- Node2 -->
<g id="node2" class="node"><title>Node2</title>
<g id="a_node2"><a xlink:href="../../df/df2/_i_n_r-_p_c_i_8h.html#a63ce64abfe6217358041ed07e918a398" target="_top" xlink:title="INR_init_drv">
<polygon fill="white" stroke="black" points="118,-0.5 118,-19.5 189,-19.5 189,-0.5 118,-0.5"/>
<text text-anchor="middle" x="153.5" y="-7.5" font-family="Helvetica,sans-Serif" font-size="10.00">INR_init_drv</text>
</a>
</g>
</g>
<!-- Node1&#45;&gt;Node2 -->
<g id="edge1" class="edge"><title>Node1&#45;&gt;Node2</title>
<path fill="none" stroke="midnightblue" d="M92.2784,-10C100.968,-10 109.823,-10 117.974,-10"/>
<polygon fill="midnightblue" stroke="midnightblue" points="92.2057,-6.5001 82.2056,-10 92.2056,-13.5001 92.2057,-6.5001"/>
</g>
<!-- Node3 -->
<g id="node3" class="node"><title>Node3</title>
<g id="a_node3"><a xlink:href="../../d0/d29/main_8c.html#a1f2bd07aac6fb1d9a27f635dac28669b" target="_top" xlink:title="probe">
<polygon fill="white" stroke="black" points="225,-0.5 225,-19.5 266,-19.5 266,-0.5 225,-0.5"/>
<text text-anchor="middle" x="245.5" y="-7.5" font-family="Helvetica,sans-Serif" font-size="10.00">probe</text>
</a>
</g>
</g>
<!-- Node2&#45;&gt;Node3 -->
<g id="edge2" class="edge"><title>Node2&#45;&gt;Node3</title>
<path fill="none" stroke="midnightblue" d="M199.123,-10C208.131,-10 217.159,-10 224.763,-10"/>
<polygon fill="midnightblue" stroke="midnightblue" points="199.039,-6.5001 189.039,-10 199.039,-13.5001 199.039,-6.5001"/>
</g>
<!-- Node4 -->
<g id="node4" class="node"><title>Node4</title>
<g id="a_node4"><a xlink:href="../../d0/d29/main_8c.html#a28d5841b26c9924ab02d6adb235e9848" target="_top" xlink:title="remove">
<polygon fill="white" stroke="black" points="302,-0.5 302,-19.5 351,-19.5 351,-0.5 302,-0.5"/>
<text text-anchor="middle" x="326.5" y="-7.5" font-family="Helvetica,sans-Serif" font-size="10.00">remove</text>
</a>
</g>
</g>
<!-- Node3&#45;&gt;Node4 -->
<g id="edge3" class="edge"><title>Node3&#45;&gt;Node4</title>
<path fill="none" stroke="midnightblue" d="M276.31,-10C284.797,-10 293.92,-10 301.976,-10"/>
<polygon fill="midnightblue" stroke="midnightblue" points="276.028,-6.5001 266.028,-10 276.028,-13.5001 276.028,-6.5001"/>
</g>
</g>
</svg>
