<?xml version="1.0" encoding="UTF-8" standalone="no"?>
<!DOCTYPE svg PUBLIC "-//W3C//DTD SVG 1.1//EN"
 "http://www.w3.org/Graphics/SVG/1.1/DTD/svg11.dtd">
<!-- Generated by graphviz version 2.38.0 (20140413.2041)
 -->
<!-- Title: INR&#45;NW.h Pages: 1 -->
<svg width="305pt" height="84pt"
 viewBox="0.00 0.00 305.00 84.00" xmlns="http://www.w3.org/2000/svg" xmlns:xlink="http://www.w3.org/1999/xlink">
<g id="graph0" class="graph" transform="scale(1 1) rotate(0) translate(4 80)">
<title>INR&#45;NW.h</title>
<polygon fill="white" stroke="none" points="-4,4 -4,-80 301,-80 301,4 -4,4"/>
<!-- Node1 -->
<g id="node1" class="node"><title>Node1</title>
<polygon fill="#bfbfbf" stroke="black" points="128.5,-56.5 128.5,-75.5 191.5,-75.5 191.5,-56.5 128.5,-56.5"/>
<text text-anchor="middle" x="160" y="-63.5" font-family="Helvetica,sans-Serif" font-size="10.00">INR&#45;NW.h</text>
</g>
<!-- Node2 -->
<g id="node2" class="node"><title>Node2</title>
<g id="a_node2"><a xlink:href="../../d1/d67/_i_n_r-_n_a_p_i_8c.html" target="_top" xlink:title="Functions for NewNetworkAPI. ">
<polygon fill="white" stroke="black" points="0,-0.5 0,-19.5 70,-19.5 70,-0.5 0,-0.5"/>
<text text-anchor="middle" x="35" y="-7.5" font-family="Helvetica,sans-Serif" font-size="10.00">INR&#45;NAPI.c</text>
</a>
</g>
</g>
<!-- Node1&#45;&gt;Node2 -->
<g id="edge1" class="edge"><title>Node1&#45;&gt;Node2</title>
<path fill="none" stroke="midnightblue" d="M130.759,-52.3678C107.35,-42.2553 75.1587,-28.3486 54.714,-19.5164"/>
<polygon fill="midnightblue" stroke="midnightblue" points="129.625,-55.6907 140.193,-56.4435 132.401,-49.2647 129.625,-55.6907"/>
</g>
<!-- Node3 -->
<g id="node3" class="node"><title>Node3</title>
<g id="a_node3"><a xlink:href="../../de/dc6/_i_n_r-_n_w_8c.html" target="_top" xlink:title="Functions for the Network&#45;stack. ">
<polygon fill="white" stroke="black" points="88.5,-0.5 88.5,-19.5 151.5,-19.5 151.5,-0.5 88.5,-0.5"/>
<text text-anchor="middle" x="120" y="-7.5" font-family="Helvetica,sans-Serif" font-size="10.00">INR&#45;NW.c</text>
</a>
</g>
</g>
<!-- Node1&#45;&gt;Node3 -->
<g id="edge2" class="edge"><title>Node1&#45;&gt;Node3</title>
<path fill="none" stroke="midnightblue" d="M147.3,-47.8554C140.374,-38.5048 132.094,-27.3265 126.482,-19.7511"/>
<polygon fill="midnightblue" stroke="midnightblue" points="144.63,-50.1307 153.395,-56.083 150.255,-45.9641 144.63,-50.1307"/>
</g>
<!-- Node4 -->
<g id="node4" class="node"><title>Node4</title>
<g id="a_node4"><a xlink:href="../../dc/dc8/_i_n_r-_p_c_i_8c.html" target="_top" xlink:title="Functions for PCI communication. ">
<polygon fill="white" stroke="black" points="169.5,-0.5 169.5,-19.5 232.5,-19.5 232.5,-0.5 169.5,-0.5"/>
<text text-anchor="middle" x="201" y="-7.5" font-family="Helvetica,sans-Serif" font-size="10.00">INR&#45;PCI.c</text>
</a>
</g>
</g>
<!-- Node1&#45;&gt;Node4 -->
<g id="edge3" class="edge"><title>Node1&#45;&gt;Node4</title>
<path fill="none" stroke="midnightblue" d="M173.017,-47.8554C180.117,-38.5048 188.604,-27.3265 194.356,-19.7511"/>
<polygon fill="midnightblue" stroke="midnightblue" points="170.03,-46.002 166.77,-56.083 175.605,-50.235 170.03,-46.002"/>
</g>
<!-- Node5 -->
<g id="node5" class="node"><title>Node5</title>
<g id="a_node5"><a xlink:href="../../d0/d29/main_8c.html" target="_top" xlink:title="main driver Function M.Ulbricht 2015 ">
<polygon fill="white" stroke="black" points="251,-0.5 251,-19.5 297,-19.5 297,-0.5 251,-0.5"/>
<text text-anchor="middle" x="274" y="-7.5" font-family="Helvetica,sans-Serif" font-size="10.00">main.c</text>
</a>
</g>
</g>
<!-- Node1&#45;&gt;Node5 -->
<g id="edge4" class="edge"><title>Node1&#45;&gt;Node5</title>
<path fill="none" stroke="midnightblue" d="M187.242,-52.096C208.54,-42.0073 237.542,-28.2697 256.021,-19.5164"/>
<polygon fill="midnightblue" stroke="midnightblue" points="185.603,-48.9995 178.064,-56.4435 188.599,-55.3257 185.603,-48.9995"/>
</g>
</g>
</svg>
