<?xml version="1.0" encoding="UTF-8" standalone="no"?>
<!DOCTYPE svg PUBLIC "-//W3C//DTD SVG 1.1//EN"
 "http://www.w3.org/Graphics/SVG/1.1/DTD/svg11.dtd">
<!-- Generated by graphviz version 2.38.0 (20140413.2041)
 -->
<!-- Title: get_nwdev Pages: 1 -->
<!--zoomable 667 -->
<svg id="main" version="1.1" xmlns="http://www.w3.org/2000/svg" xmlns:xlink="http://www.w3.org/1999/xlink" xml:space="preserve" onload="init(evt)">
<style type="text/css"><![CDATA[
.edge:hover path { stroke: red; }
.edge:hover polygon { stroke: red; fill: red; }
]]></style>
<script type="text/javascript"><![CDATA[
var edges = document.getElementsByTagName('g');
if (edges && edges.length) {
  for (var i=0;i<edges.length;i++) {
    if (edges[i].id.substr(0,4)=='edge') {
      edges[i].setAttribute('class','edge');
    }
  }
}
]]></script>
        <defs>
                <circle id="rim" cx="0" cy="0" r="7"/>
                <circle id="rim2" cx="0" cy="0" r="3.5"/>
                <g id="zoomPlus">
                        <use xlink:href="#rim" fill="#404040">
                                <set attributeName="fill" to="#808080" begin="zoomplus.mouseover" end="zoomplus.mouseout"/>
                        </use>
                        <path d="M-4,0h8M0,-4v8" fill="none" stroke="white" stroke-width="1.5" pointer-events="none"/>
                </g>
                <g id="zoomMin">
                        <use xlink:href="#rim" fill="#404040">
                                <set attributeName="fill" to="#808080" begin="zoomminus.mouseover" end="zoomminus.mouseout"/>
                        </use>
                        <path d="M-4,0h8" fill="none" stroke="white" stroke-width="1.5" pointer-events="none"/>
                </g>
                <g id="dirArrow">
                        <path fill="none" stroke="white" stroke-width="1.5" d="M0,-3.0v7 M-2.5,-0.5L0,-3.0L2.5,-0.5"/>
                </g>
               <g id="resetDef">
                       <use xlink:href="#rim2" fill="#404040">
                               <set attributeName="fill" to="#808080" begin="reset.mouseover" end="reset.mouseout"/>
                       </use>
               </g>
        </defs>

<script type="text/javascript">
var viewWidth = 746;
var viewHeight = 667;
var sectionId = 'dynsection-1';
</script>
<script xlink:href="../../svgpan.js"/>
<svg id="graph" class="graph">
<g id="viewport">
<title>get_nwdev</title>
<polygon fill="white" stroke="none" points="-4,4 -4,-662.953 742,-662.953 742,4 -4,4"/>
<!-- Node1 -->
<g id="node1" class="node"><title>Node1</title>
<polygon fill="#bfbfbf" stroke="black" points="0,-304.5 0,-323.5 64,-323.5 64,-304.5 0,-304.5"/>
<text text-anchor="middle" x="32" y="-311.5" font-family="Helvetica,sans-Serif" font-size="10.00">get_nwdev</text>
</g>
<!-- Node2 -->
<g id="node2" class="node"><title>Node2</title>
<g id="a_node2"><a xlink:href="../../d6/d03/_i_n_r-_n_a_p_i_8h.html#a4d6b9bd7496ab1a6ae8d17e5889d6adb" target="_top" xlink:title="INR_NAPI_init">
<polygon fill="white" stroke="black" points="386,-323.5 386,-342.5 468,-342.5 468,-323.5 386,-323.5"/>
<text text-anchor="middle" x="427" y="-330.5" font-family="Helvetica,sans-Serif" font-size="10.00">INR_NAPI_init</text>
</a>
</g>
</g>
<!-- Node1&#45;&gt;Node2 -->
<g id="edge1" class="edge"><title>Node1&#45;&gt;Node2</title>
<path fill="none" stroke="midnightblue" d="M40.1111,-333.025C72.4886,-416.912 210.372,-744.893 349,-637 397.658,-599.13 420.491,-390.298 425.107,-342.671"/>
<polygon fill="midnightblue" stroke="midnightblue" points="43.3727,-331.755 36.544,-323.654 36.8307,-334.245 43.3727,-331.755"/>
</g>
<!-- Node6 -->
<g id="node6" class="node"><title>Node6</title>
<g id="a_node6"><a xlink:href="../../df/df2/_i_n_r-_p_c_i_8h.html#a317b7c374854b88af0059ff2a3708ce9" target="_top" xlink:title="INR_PCI_process_rx\l_descriptor_ring">
<polygon fill="white" stroke="black" points="100,-299 100,-329 210,-329 210,-299 100,-299"/>
<text text-anchor="start" x="108" y="-317" font-family="Helvetica,sans-Serif" font-size="10.00">INR_PCI_process_rx</text>
<text text-anchor="middle" x="155" y="-306" font-family="Helvetica,sans-Serif" font-size="10.00">_descriptor_ring</text>
</a>
</g>
</g>
<!-- Node1&#45;&gt;Node6 -->
<g id="edge5" class="edge"><title>Node1&#45;&gt;Node6</title>
<path fill="none" stroke="midnightblue" d="M74.281,-314C82.5381,-314 91.3281,-314 99.942,-314"/>
<polygon fill="midnightblue" stroke="midnightblue" points="74.1605,-310.5 64.1605,-314 74.1605,-317.5 74.1605,-310.5"/>
</g>
<!-- Node23 -->
<g id="node23" class="node"><title>Node23</title>
<g id="a_node23"><a xlink:href="../../dc/dc8/_i_n_r-_p_c_i_8c.html#a1c0927891fa571e8aec98ebe5fd266f6" target="_top" xlink:title="XPCIe_IRQHandler">
<polygon fill="white" stroke="black" points="246,-0.5 246,-19.5 349,-19.5 349,-0.5 246,-0.5"/>
<text text-anchor="middle" x="297.5" y="-7.5" font-family="Helvetica,sans-Serif" font-size="10.00">XPCIe_IRQHandler</text>
</a>
</g>
</g>
<!-- Node1&#45;&gt;Node23 -->
<g id="edge41" class="edge"><title>Node1&#45;&gt;Node23</title>
<path fill="none" stroke="midnightblue" d="M42.106,-295.278C67.439,-245.045 143.667,-105.896 246,-29 251.017,-25.2297 256.868,-22.1315 262.771,-19.6118"/>
<polygon fill="midnightblue" stroke="midnightblue" points="38.9165,-293.832 37.603,-304.345 45.1858,-296.946 38.9165,-293.832"/>
</g>
<!-- Node3 -->
<g id="node3" class="node"><title>Node3</title>
<g id="a_node3"><a xlink:href="../../df/df2/_i_n_r-_p_c_i_8h.html#a63ce64abfe6217358041ed07e918a398" target="_top" xlink:title="INR_init_drv">
<polygon fill="white" stroke="black" points="505,-237.5 505,-256.5 576,-256.5 576,-237.5 505,-237.5"/>
<text text-anchor="middle" x="540.5" y="-244.5" font-family="Helvetica,sans-Serif" font-size="10.00">INR_init_drv</text>
</a>
</g>
</g>
<!-- Node2&#45;&gt;Node3 -->
<g id="edge2" class="edge"><title>Node2&#45;&gt;Node3</title>
<path fill="none" stroke="midnightblue" d="M448.439,-317.235C471.433,-299.5 508.047,-271.259 527.086,-256.575"/>
<polygon fill="midnightblue" stroke="midnightblue" points="446.139,-314.589 440.358,-323.468 450.414,-320.132 446.139,-314.589"/>
</g>
<!-- Node4 -->
<g id="node4" class="node"><title>Node4</title>
<g id="a_node4"><a xlink:href="../../d0/d29/main_8c.html#a1f2bd07aac6fb1d9a27f635dac28669b" target="_top" xlink:title="probe">
<polygon fill="white" stroke="black" points="612,-237.5 612,-256.5 653,-256.5 653,-237.5 612,-237.5"/>
<text text-anchor="middle" x="632.5" y="-244.5" font-family="Helvetica,sans-Serif" font-size="10.00">probe</text>
</a>
</g>
</g>
<!-- Node3&#45;&gt;Node4 -->
<g id="edge3" class="edge"><title>Node3&#45;&gt;Node4</title>
<path fill="none" stroke="midnightblue" d="M586.123,-247C595.131,-247 604.159,-247 611.763,-247"/>
<polygon fill="midnightblue" stroke="midnightblue" points="586.039,-243.5 576.039,-247 586.039,-250.5 586.039,-243.5"/>
</g>
<!-- Node5 -->
<g id="node5" class="node"><title>Node5</title>
<g id="a_node5"><a xlink:href="../../d0/d29/main_8c.html#a28d5841b26c9924ab02d6adb235e9848" target="_top" xlink:title="remove">
<polygon fill="white" stroke="black" points="689,-237.5 689,-256.5 738,-256.5 738,-237.5 689,-237.5"/>
<text text-anchor="middle" x="713.5" y="-244.5" font-family="Helvetica,sans-Serif" font-size="10.00">remove</text>
</a>
</g>
</g>
<!-- Node4&#45;&gt;Node5 -->
<g id="edge4" class="edge"><title>Node4&#45;&gt;Node5</title>
<path fill="none" stroke="midnightblue" d="M663.31,-247C671.797,-247 680.92,-247 688.976,-247"/>
<polygon fill="midnightblue" stroke="midnightblue" points="663.028,-243.5 653.028,-247 663.028,-250.5 663.028,-243.5"/>
</g>
<!-- Node7 -->
<g id="node7" class="node"><title>Node7</title>
<g id="a_node7"><a xlink:href="../../d6/d03/_i_n_r-_n_a_p_i_8h.html#a87ec5cd355cffe8b96296dbb83278bfe" target="_top" xlink:title="INR_NAPI_poll_0">
<polygon fill="white" stroke="black" points="250,-608.5 250,-627.5 345,-627.5 345,-608.5 250,-608.5"/>
<text text-anchor="middle" x="297.5" y="-615.5" font-family="Helvetica,sans-Serif" font-size="10.00">INR_NAPI_poll_0</text>
</a>
</g>
</g>
<!-- Node6&#45;&gt;Node7 -->
<g id="edge6" class="edge"><title>Node6&#45;&gt;Node7</title>
<path fill="none" stroke="midnightblue" d="M156.868,-339.495C160.092,-394.277 175.221,-524.293 246,-599 249.672,-602.876 254.213,-605.968 259.053,-608.433"/>
<polygon fill="midnightblue" stroke="midnightblue" points="160.353,-339.099 156.357,-329.287 153.362,-339.449 160.353,-339.099"/>
</g>
<!-- Node8 -->
<g id="node8" class="node"><title>Node8</title>
<g id="a_node8"><a xlink:href="../../d6/d03/_i_n_r-_n_a_p_i_8h.html#a938e6a3d06b11a5dc3da541a5d05c0b2" target="_top" xlink:title="INR_NAPI_poll_1">
<polygon fill="white" stroke="black" points="250,-570.5 250,-589.5 345,-589.5 345,-570.5 250,-570.5"/>
<text text-anchor="middle" x="297.5" y="-577.5" font-family="Helvetica,sans-Serif" font-size="10.00">INR_NAPI_poll_1</text>
</a>
</g>
</g>
<!-- Node6&#45;&gt;Node8 -->
<g id="edge8" class="edge"><title>Node6&#45;&gt;Node8</title>
<path fill="none" stroke="midnightblue" d="M158.293,-339.14C164.086,-388.325 183.621,-497.967 246,-561 249.822,-564.862 254.504,-567.949 259.46,-570.414"/>
<polygon fill="midnightblue" stroke="midnightblue" points="161.758,-338.629 157.202,-329.064 154.799,-339.382 161.758,-338.629"/>
</g>
<!-- Node9 -->
<g id="node9" class="node"><title>Node9</title>
<g id="a_node9"><a xlink:href="../../d6/d03/_i_n_r-_n_a_p_i_8h.html#ae6bc59b863b3928700468d13efd23e27" target="_top" xlink:title="INR_NAPI_poll_2">
<polygon fill="white" stroke="black" points="250,-532.5 250,-551.5 345,-551.5 345,-532.5 250,-532.5"/>
<text text-anchor="middle" x="297.5" y="-539.5" font-family="Helvetica,sans-Serif" font-size="10.00">INR_NAPI_poll_2</text>
</a>
</g>
</g>
<!-- Node6&#45;&gt;Node9 -->
<g id="edge10" class="edge"><title>Node6&#45;&gt;Node9</title>
<path fill="none" stroke="midnightblue" d="M160.232,-339.189C168.788,-382.551 192.119,-471.582 246,-523 250.066,-526.88 255,-529.985 260.172,-532.465"/>
<polygon fill="midnightblue" stroke="midnightblue" points="163.643,-338.387 158.365,-329.2 156.762,-339.673 163.643,-338.387"/>
</g>
<!-- Node10 -->
<g id="node10" class="node"><title>Node10</title>
<g id="a_node10"><a xlink:href="../../d6/d03/_i_n_r-_n_a_p_i_8h.html#a7888221fd9575d7e7aae78ed125d8646" target="_top" xlink:title="INR_NAPI_poll_3">
<polygon fill="white" stroke="black" points="250,-494.5 250,-513.5 345,-513.5 345,-494.5 250,-494.5"/>
<text text-anchor="middle" x="297.5" y="-501.5" font-family="Helvetica,sans-Serif" font-size="10.00">INR_NAPI_poll_3</text>
</a>
</g>
</g>
<!-- Node6&#45;&gt;Node10 -->
<g id="edge12" class="edge"><title>Node6&#45;&gt;Node10</title>
<path fill="none" stroke="midnightblue" d="M162.902,-339.011C174.298,-375.883 200.442,-444.793 246,-485 250.354,-488.843 255.562,-491.939 260.953,-494.424"/>
<polygon fill="midnightblue" stroke="midnightblue" points="166.157,-337.676 159.954,-329.087 159.447,-339.67 166.157,-337.676"/>
</g>
<!-- Node11 -->
<g id="node11" class="node"><title>Node11</title>
<g id="a_node11"><a xlink:href="../../d6/d03/_i_n_r-_n_a_p_i_8h.html#a5e711c1ae61572a4bab9ffefc34d0f34" target="_top" xlink:title="INR_NAPI_poll_4">
<polygon fill="white" stroke="black" points="250,-456.5 250,-475.5 345,-475.5 345,-456.5 250,-456.5"/>
<text text-anchor="middle" x="297.5" y="-463.5" font-family="Helvetica,sans-Serif" font-size="10.00">INR_NAPI_poll_4</text>
</a>
</g>
</g>
<!-- Node6&#45;&gt;Node11 -->
<g id="edge14" class="edge"><title>Node6&#45;&gt;Node11</title>
<path fill="none" stroke="midnightblue" d="M166.871,-338.64C181.082,-368.222 208.633,-417.525 246,-447 250.854,-450.829 256.562,-453.946 262.361,-456.465"/>
<polygon fill="midnightblue" stroke="midnightblue" points="169.969,-337.002 162.568,-329.421 163.626,-339.962 169.969,-337.002"/>
</g>
<!-- Node12 -->
<g id="node12" class="node"><title>Node12</title>
<g id="a_node12"><a xlink:href="../../d6/d03/_i_n_r-_n_a_p_i_8h.html#a4c7935fe4ef401ccd186e05e1047748c" target="_top" xlink:title="INR_NAPI_poll_5">
<polygon fill="white" stroke="black" points="250,-418.5 250,-437.5 345,-437.5 345,-418.5 250,-418.5"/>
<text text-anchor="middle" x="297.5" y="-425.5" font-family="Helvetica,sans-Serif" font-size="10.00">INR_NAPI_poll_5</text>
</a>
</g>
</g>
<!-- Node6&#45;&gt;Node12 -->
<g id="edge16" class="edge"><title>Node6&#45;&gt;Node12</title>
<path fill="none" stroke="midnightblue" d="M173.092,-337.366C189.662,-358.579 216.556,-389.45 246,-409 251.619,-412.731 258.072,-415.866 264.445,-418.445"/>
<polygon fill="midnightblue" stroke="midnightblue" points="175.705,-335.021 166.852,-329.202 170.144,-339.272 175.705,-335.021"/>
</g>
<!-- Node13 -->
<g id="node13" class="node"><title>Node13</title>
<g id="a_node13"><a xlink:href="../../d6/d03/_i_n_r-_n_a_p_i_8h.html#a2a63c16bad3fb8de0dacd9bb0b02a40f" target="_top" xlink:title="INR_NAPI_poll_6">
<polygon fill="white" stroke="black" points="250,-380.5 250,-399.5 345,-399.5 345,-380.5 250,-380.5"/>
<text text-anchor="middle" x="297.5" y="-387.5" font-family="Helvetica,sans-Serif" font-size="10.00">INR_NAPI_poll_6</text>
</a>
</g>
</g>
<!-- Node6&#45;&gt;Node13 -->
<g id="edge18" class="edge"><title>Node6&#45;&gt;Node13</title>
<path fill="none" stroke="midnightblue" d="M185.559,-334.887C202.703,-346.442 224.995,-360.535 246,-371 252.959,-374.467 260.714,-377.683 268.017,-380.447"/>
<polygon fill="midnightblue" stroke="midnightblue" points="187.33,-331.858 177.098,-329.109 183.382,-337.639 187.33,-331.858"/>
</g>
<!-- Node14 -->
<g id="node14" class="node"><title>Node14</title>
<g id="a_node14"><a xlink:href="../../d6/d03/_i_n_r-_n_a_p_i_8h.html#a05cb8dc7168c07cf8755dc8e4075caba" target="_top" xlink:title="INR_NAPI_poll_7">
<polygon fill="white" stroke="black" points="250,-342.5 250,-361.5 345,-361.5 345,-342.5 250,-342.5"/>
<text text-anchor="middle" x="297.5" y="-349.5" font-family="Helvetica,sans-Serif" font-size="10.00">INR_NAPI_poll_7</text>
</a>
</g>
</g>
<!-- Node6&#45;&gt;Node14 -->
<g id="edge20" class="edge"><title>Node6&#45;&gt;Node14</title>
<path fill="none" stroke="midnightblue" d="M219.987,-331.306C234.068,-335.115 248.488,-339.014 260.958,-342.387"/>
<polygon fill="midnightblue" stroke="midnightblue" points="220.888,-327.924 210.321,-328.692 219.06,-334.681 220.888,-327.924"/>
</g>
<!-- Node15 -->
<g id="node15" class="node"><title>Node15</title>
<g id="a_node15"><a xlink:href="../../d6/d03/_i_n_r-_n_a_p_i_8h.html#a56cfbbdff0a9b3fba466a06079b21ed8" target="_top" xlink:title="INR_NAPI_poll_8">
<polygon fill="white" stroke="black" points="250,-304.5 250,-323.5 345,-323.5 345,-304.5 250,-304.5"/>
<text text-anchor="middle" x="297.5" y="-311.5" font-family="Helvetica,sans-Serif" font-size="10.00">INR_NAPI_poll_8</text>
</a>
</g>
</g>
<!-- Node6&#45;&gt;Node15 -->
<g id="edge22" class="edge"><title>Node6&#45;&gt;Node15</title>
<path fill="none" stroke="midnightblue" d="M220.475,-314C230.302,-314 240.281,-314 249.636,-314"/>
<polygon fill="midnightblue" stroke="midnightblue" points="220.321,-310.5 210.321,-314 220.321,-317.5 220.321,-310.5"/>
</g>
<!-- Node16 -->
<g id="node16" class="node"><title>Node16</title>
<g id="a_node16"><a xlink:href="../../d6/d03/_i_n_r-_n_a_p_i_8h.html#a7411c18801eb32e892612975b01d604e" target="_top" xlink:title="INR_NAPI_poll_9">
<polygon fill="white" stroke="black" points="250,-266.5 250,-285.5 345,-285.5 345,-266.5 250,-266.5"/>
<text text-anchor="middle" x="297.5" y="-273.5" font-family="Helvetica,sans-Serif" font-size="10.00">INR_NAPI_poll_9</text>
</a>
</g>
</g>
<!-- Node6&#45;&gt;Node16 -->
<g id="edge24" class="edge"><title>Node6&#45;&gt;Node16</title>
<path fill="none" stroke="midnightblue" d="M219.987,-296.694C234.068,-292.885 248.488,-288.986 260.958,-285.613"/>
<polygon fill="midnightblue" stroke="midnightblue" points="219.06,-293.319 210.321,-299.308 220.888,-300.076 219.06,-293.319"/>
</g>
<!-- Node17 -->
<g id="node17" class="node"><title>Node17</title>
<g id="a_node17"><a xlink:href="../../d6/d03/_i_n_r-_n_a_p_i_8h.html#a69ec3410fe5dc7da35e2f6a8d72acdb4" target="_top" xlink:title="INR_NAPI_poll_10">
<polygon fill="white" stroke="black" points="247.5,-228.5 247.5,-247.5 347.5,-247.5 347.5,-228.5 247.5,-228.5"/>
<text text-anchor="middle" x="297.5" y="-235.5" font-family="Helvetica,sans-Serif" font-size="10.00">INR_NAPI_poll_10</text>
</a>
</g>
</g>
<!-- Node6&#45;&gt;Node17 -->
<g id="edge26" class="edge"><title>Node6&#45;&gt;Node17</title>
<path fill="none" stroke="midnightblue" d="M185.559,-293.113C202.703,-281.558 224.995,-267.465 246,-257 252.959,-253.533 260.714,-250.317 268.017,-247.553"/>
<polygon fill="midnightblue" stroke="midnightblue" points="183.382,-290.361 177.098,-298.891 187.33,-296.142 183.382,-290.361"/>
</g>
<!-- Node18 -->
<g id="node18" class="node"><title>Node18</title>
<g id="a_node18"><a xlink:href="../../d6/d03/_i_n_r-_n_a_p_i_8h.html#a7b9c6dd796e70895de209d2803e13ccc" target="_top" xlink:title="INR_NAPI_poll_11">
<polygon fill="white" stroke="black" points="247.5,-190.5 247.5,-209.5 347.5,-209.5 347.5,-190.5 247.5,-190.5"/>
<text text-anchor="middle" x="297.5" y="-197.5" font-family="Helvetica,sans-Serif" font-size="10.00">INR_NAPI_poll_11</text>
</a>
</g>
</g>
<!-- Node6&#45;&gt;Node18 -->
<g id="edge28" class="edge"><title>Node6&#45;&gt;Node18</title>
<path fill="none" stroke="midnightblue" d="M173.092,-290.634C189.662,-269.421 216.556,-238.55 246,-219 251.619,-215.269 258.072,-212.134 264.445,-209.555"/>
<polygon fill="midnightblue" stroke="midnightblue" points="170.144,-288.728 166.852,-298.798 175.705,-292.979 170.144,-288.728"/>
</g>
<!-- Node19 -->
<g id="node19" class="node"><title>Node19</title>
<g id="a_node19"><a xlink:href="../../d6/d03/_i_n_r-_n_a_p_i_8h.html#a3a1602b0c3f015b8aabd0b978d704493" target="_top" xlink:title="INR_NAPI_poll_12">
<polygon fill="white" stroke="black" points="247.5,-152.5 247.5,-171.5 347.5,-171.5 347.5,-152.5 247.5,-152.5"/>
<text text-anchor="middle" x="297.5" y="-159.5" font-family="Helvetica,sans-Serif" font-size="10.00">INR_NAPI_poll_12</text>
</a>
</g>
</g>
<!-- Node6&#45;&gt;Node19 -->
<g id="edge30" class="edge"><title>Node6&#45;&gt;Node19</title>
<path fill="none" stroke="midnightblue" d="M166.871,-289.36C181.082,-259.778 208.633,-210.475 246,-181 250.854,-177.171 256.562,-174.054 262.361,-171.535"/>
<polygon fill="midnightblue" stroke="midnightblue" points="163.626,-288.038 162.568,-298.579 169.969,-290.998 163.626,-288.038"/>
</g>
<!-- Node20 -->
<g id="node20" class="node"><title>Node20</title>
<g id="a_node20"><a xlink:href="../../d6/d03/_i_n_r-_n_a_p_i_8h.html#a2ee390e1624519f6a631b3046c2fbd3f" target="_top" xlink:title="INR_NAPI_poll_13">
<polygon fill="white" stroke="black" points="247.5,-114.5 247.5,-133.5 347.5,-133.5 347.5,-114.5 247.5,-114.5"/>
<text text-anchor="middle" x="297.5" y="-121.5" font-family="Helvetica,sans-Serif" font-size="10.00">INR_NAPI_poll_13</text>
</a>
</g>
</g>
<!-- Node6&#45;&gt;Node20 -->
<g id="edge32" class="edge"><title>Node6&#45;&gt;Node20</title>
<path fill="none" stroke="midnightblue" d="M162.902,-288.989C174.298,-252.117 200.442,-183.207 246,-143 250.354,-139.157 255.562,-136.061 260.953,-133.576"/>
<polygon fill="midnightblue" stroke="midnightblue" points="159.447,-288.33 159.954,-298.913 166.157,-290.324 159.447,-288.33"/>
</g>
<!-- Node21 -->
<g id="node21" class="node"><title>Node21</title>
<g id="a_node21"><a xlink:href="../../d6/d03/_i_n_r-_n_a_p_i_8h.html#a2cbf12b9e0e03b3b3862a98784ecc52b" target="_top" xlink:title="INR_NAPI_poll_14">
<polygon fill="white" stroke="black" points="247.5,-76.5 247.5,-95.5 347.5,-95.5 347.5,-76.5 247.5,-76.5"/>
<text text-anchor="middle" x="297.5" y="-83.5" font-family="Helvetica,sans-Serif" font-size="10.00">INR_NAPI_poll_14</text>
</a>
</g>
</g>
<!-- Node6&#45;&gt;Node21 -->
<g id="edge34" class="edge"><title>Node6&#45;&gt;Node21</title>
<path fill="none" stroke="midnightblue" d="M163.885,-289.385C180.093,-240.101 217.983,-131.736 246,-105 250.066,-101.12 255,-98.0147 260.172,-95.5346"/>
<polygon fill="midnightblue" stroke="midnightblue" points="160.537,-288.362 160.767,-298.955 167.193,-290.531 160.537,-288.362"/>
</g>
<!-- Node22 -->
<g id="node22" class="node"><title>Node22</title>
<g id="a_node22"><a xlink:href="../../d6/d03/_i_n_r-_n_a_p_i_8h.html#a91f701f31afe930ece5c8bf5fb1a7ed6" target="_top" xlink:title="INR_NAPI_poll_15">
<polygon fill="white" stroke="black" points="247.5,-38.5 247.5,-57.5 347.5,-57.5 347.5,-38.5 247.5,-38.5"/>
<text text-anchor="middle" x="297.5" y="-45.5" font-family="Helvetica,sans-Serif" font-size="10.00">INR_NAPI_poll_15</text>
</a>
</g>
</g>
<!-- Node6&#45;&gt;Node22 -->
<g id="edge36" class="edge"><title>Node6&#45;&gt;Node22</title>
<path fill="none" stroke="midnightblue" d="M164.416,-289.184C185.185,-228.193 237.787,-75.299 246,-67 249.822,-63.1382 254.504,-60.0511 259.46,-57.5857"/>
<polygon fill="midnightblue" stroke="midnightblue" points="161.052,-288.206 161.146,-298.8 167.679,-290.459 161.052,-288.206"/>
</g>
<!-- Node6&#45;&gt;Node23 -->
<g id="edge38" class="edge"><title>Node6&#45;&gt;Node23</title>
<path fill="none" stroke="midnightblue" d="M164.844,-288.953C175.84,-257.553 194.991,-202.018 210,-154 227.248,-98.8192 206.775,-71.4716 246,-29 249.559,-25.1463 253.978,-22.0695 258.709,-19.614"/>
<polygon fill="midnightblue" stroke="midnightblue" points="161.456,-288.035 161.445,-298.63 168.061,-290.355 161.456,-288.035"/>
</g>
<!-- Node7&#45;&gt;Node2 -->
<g id="edge7" class="edge"><title>Node7&#45;&gt;Node2</title>
<path fill="none" stroke="midnightblue" d="M345.045,-602.703C346.45,-601.556 347.776,-600.324 349,-599 420.813,-521.348 426.064,-380.713 426.121,-342.695"/>
<polygon fill="midnightblue" stroke="midnightblue" points="342.773,-600.005 336.286,-608.382 346.581,-605.878 342.773,-600.005"/>
</g>
<!-- Node8&#45;&gt;Node2 -->
<g id="edge9" class="edge"><title>Node8&#45;&gt;Node2</title>
<path fill="none" stroke="midnightblue" d="M344.412,-565.068C346.044,-563.818 347.584,-562.465 349,-561 412.003,-495.807 423.522,-377.314 425.57,-342.723"/>
<polygon fill="midnightblue" stroke="midnightblue" points="342.292,-562.263 335.622,-570.495 345.97,-568.22 342.292,-562.263"/>
</g>
<!-- Node9&#45;&gt;Node2 -->
<g id="edge11" class="edge"><title>Node9&#45;&gt;Node2</title>
<path fill="none" stroke="midnightblue" d="M343.793,-527.332C345.643,-526.008 347.393,-524.568 349,-523 403.277,-470.073 420.539,-373.687 424.807,-342.801"/>
<polygon fill="midnightblue" stroke="midnightblue" points="342,-524.326 335.16,-532.417 345.552,-530.357 342,-524.326"/>
</g>
<!-- Node10&#45;&gt;Node2 -->
<g id="edge13" class="edge"><title>Node10&#45;&gt;Node2</title>
<path fill="none" stroke="midnightblue" d="M342.883,-489.662C345.05,-488.246 347.108,-486.696 349,-485 394.815,-443.927 417.012,-369.254 423.726,-342.695"/>
<polygon fill="midnightblue" stroke="midnightblue" points="341.181,-486.603 334.098,-494.483 344.549,-492.74 341.181,-486.603"/>
</g>
<!-- Node11&#45;&gt;Node2 -->
<g id="edge15" class="edge"><title>Node11&#45;&gt;Node2</title>
<path fill="none" stroke="midnightblue" d="M341.692,-451.929C344.263,-450.435 346.725,-448.796 349,-447 386.491,-417.401 412.399,-364.47 421.94,-342.73"/>
<polygon fill="midnightblue" stroke="midnightblue" points="340.012,-448.856 332.642,-456.468 343.15,-455.113 340.012,-448.856"/>
</g>
<!-- Node12&#45;&gt;Node2 -->
<g id="edge17" class="edge"><title>Node12&#45;&gt;Node2</title>
<path fill="none" stroke="midnightblue" d="M339.564,-414.26C342.842,-412.653 346.03,-410.901 349,-409 378.425,-390.166 405.74,-358.58 418.477,-342.715"/>
<polygon fill="midnightblue" stroke="midnightblue" points="337.923,-411.159 330.194,-418.405 340.755,-417.561 337.923,-411.159"/>
</g>
<!-- Node13&#45;&gt;Node2 -->
<g id="edge19" class="edge"><title>Node13&#45;&gt;Node2</title>
<path fill="none" stroke="midnightblue" d="M335.014,-376.752C339.748,-374.891 344.51,-372.947 349,-371 369.515,-362.104 392.425,-350.587 407.88,-342.574"/>
<polygon fill="midnightblue" stroke="midnightblue" points="333.512,-373.579 325.429,-380.429 336.02,-380.115 333.512,-373.579"/>
</g>
<!-- Node14&#45;&gt;Node2 -->
<g id="edge21" class="edge"><title>Node14&#45;&gt;Node2</title>
<path fill="none" stroke="midnightblue" d="M355.434,-343.516C365.737,-341.98 376.28,-340.409 385.97,-338.965"/>
<polygon fill="midnightblue" stroke="midnightblue" points="354.627,-340.097 345.252,-345.033 355.659,-347.021 354.627,-340.097"/>
</g>
<!-- Node15&#45;&gt;Node2 -->
<g id="edge23" class="edge"><title>Node15&#45;&gt;Node2</title>
<path fill="none" stroke="midnightblue" d="M355.434,-322.484C365.737,-324.02 376.28,-325.591 385.97,-327.035"/>
<polygon fill="midnightblue" stroke="midnightblue" points="355.659,-318.979 345.252,-320.967 354.627,-325.903 355.659,-318.979"/>
</g>
<!-- Node16&#45;&gt;Node2 -->
<g id="edge25" class="edge"><title>Node16&#45;&gt;Node2</title>
<path fill="none" stroke="midnightblue" d="M335.014,-289.248C339.748,-291.109 344.51,-293.053 349,-295 369.515,-303.896 392.425,-315.413 407.88,-323.426"/>
<polygon fill="midnightblue" stroke="midnightblue" points="336.02,-285.885 325.429,-285.571 333.512,-292.421 336.02,-285.885"/>
</g>
<!-- Node17&#45;&gt;Node2 -->
<g id="edge27" class="edge"><title>Node17&#45;&gt;Node2</title>
<path fill="none" stroke="midnightblue" d="M339.564,-251.74C342.842,-253.347 346.03,-255.099 349,-257 378.425,-275.834 405.74,-307.42 418.477,-323.285"/>
<polygon fill="midnightblue" stroke="midnightblue" points="340.755,-248.439 330.194,-247.595 337.923,-254.841 340.755,-248.439"/>
</g>
<!-- Node18&#45;&gt;Node2 -->
<g id="edge29" class="edge"><title>Node18&#45;&gt;Node2</title>
<path fill="none" stroke="midnightblue" d="M341.692,-214.071C344.263,-215.565 346.725,-217.204 349,-219 386.491,-248.599 412.399,-301.53 421.94,-323.27"/>
<polygon fill="midnightblue" stroke="midnightblue" points="343.15,-210.887 332.642,-209.532 340.012,-217.144 343.15,-210.887"/>
</g>
<!-- Node19&#45;&gt;Node2 -->
<g id="edge31" class="edge"><title>Node19&#45;&gt;Node2</title>
<path fill="none" stroke="midnightblue" d="M342.883,-176.338C345.05,-177.754 347.108,-179.304 349,-181 394.815,-222.073 417.012,-296.746 423.726,-323.305"/>
<polygon fill="midnightblue" stroke="midnightblue" points="344.549,-173.26 334.098,-171.517 341.181,-179.397 344.549,-173.26"/>
</g>
<!-- Node20&#45;&gt;Node2 -->
<g id="edge33" class="edge"><title>Node20&#45;&gt;Node2</title>
<path fill="none" stroke="midnightblue" d="M343.793,-138.668C345.643,-139.992 347.393,-141.432 349,-143 403.277,-195.927 420.539,-292.313 424.807,-323.199"/>
<polygon fill="midnightblue" stroke="midnightblue" points="345.552,-135.643 335.16,-133.583 342,-141.674 345.552,-135.643"/>
</g>
<!-- Node21&#45;&gt;Node2 -->
<g id="edge35" class="edge"><title>Node21&#45;&gt;Node2</title>
<path fill="none" stroke="midnightblue" d="M344.412,-100.932C346.044,-102.182 347.584,-103.535 349,-105 365.186,-121.749 411.601,-282.325 423.298,-323.446"/>
<polygon fill="midnightblue" stroke="midnightblue" points="345.97,-97.7804 335.622,-95.5048 342.292,-103.737 345.97,-97.7804"/>
</g>
<!-- Node22&#45;&gt;Node2 -->
<g id="edge37" class="edge"><title>Node22&#45;&gt;Node2</title>
<path fill="none" stroke="midnightblue" d="M345.045,-63.2971C346.45,-64.4439 347.776,-65.6761 349,-67 358.221,-76.9712 411.172,-276.646 423.455,-323.308"/>
<polygon fill="midnightblue" stroke="midnightblue" points="346.581,-60.1217 336.286,-57.6184 342.773,-65.9953 346.581,-60.1217"/>
</g>
<!-- Node24 -->
<g id="node24" class="node"><title>Node24</title>
<g id="a_node24"><a xlink:href="../../dc/dc8/_i_n_r-_p_c_i_8c.html#af7926b059a794041b841cda82ea84ca9" target="_top" xlink:title="INR_int_enable">
<polygon fill="white" stroke="black" points="385,-152.5 385,-171.5 469,-171.5 469,-152.5 385,-152.5"/>
<text text-anchor="middle" x="427" y="-159.5" font-family="Helvetica,sans-Serif" font-size="10.00">INR_int_enable</text>
</a>
</g>
</g>
<!-- Node23&#45;&gt;Node24 -->
<g id="edge39" class="edge"><title>Node23&#45;&gt;Node24</title>
<path fill="none" stroke="midnightblue" d="M342.664,-24.3997C344.899,-25.801 347.03,-27.3309 349,-29 390.73,-64.3583 415.003,-128.374 423.018,-152.478"/>
<polygon fill="midnightblue" stroke="midnightblue" points="344.126,-21.2127 333.653,-19.6092 340.84,-27.3936 344.126,-21.2127"/>
</g>
<!-- Node24&#45;&gt;Node3 -->
<g id="edge40" class="edge"><title>Node24&#45;&gt;Node3</title>
<path fill="none" stroke="midnightblue" d="M448.87,-177.91C471.796,-195.387 507.876,-222.892 526.859,-237.363"/>
<polygon fill="midnightblue" stroke="midnightblue" points="450.865,-175.03 440.79,-171.751 446.621,-180.597 450.865,-175.03"/>
</g>
</g>
</svg>
        <g id="navigator" transform="translate(0 0)" fill="#404254">
                <rect fill="#f2f5e9" fill-opacity="0.5" stroke="#606060" stroke-width=".5" x="0" y="0" width="60" height="60"/>
                <use id="zoomplus" xlink:href="#zoomPlus" x="17" y="9" onmousedown="handleZoom(evt,'in')"/>
                <use id="zoomminus" xlink:href="#zoomMin" x="42" y="9" onmousedown="handleZoom(evt,'out')"/>
                <use id="reset" xlink:href="#resetDef" x="30" y="36" onmousedown="handleReset()"/>
                <g id="arrowUp" xlink:href="#dirArrow" transform="translate(30 24)" onmousedown="handlePan(0,-1)">
                  <use xlink:href="#rim" fill="#404040">
                        <set attributeName="fill" to="#808080" begin="arrowUp.mouseover" end="arrowUp.mouseout"/>
                  </use>
                  <path fill="none" stroke="white" stroke-width="1.5" d="M0,-3.0v7 M-2.5,-0.5L0,-3.0L2.5,-0.5"/>
                </g>
                <g id="arrowRight" xlink:href="#dirArrow" transform="rotate(90) translate(36 -43)" onmousedown="handlePan(1,0)">
                  <use xlink:href="#rim" fill="#404040">
                        <set attributeName="fill" to="#808080" begin="arrowRight.mouseover" end="arrowRight.mouseout"/>
                  </use>
                  <path fill="none" stroke="white" stroke-width="1.5" d="M0,-3.0v7 M-2.5,-0.5L0,-3.0L2.5,-0.5"/>
                </g>
                <g id="arrowDown" xlink:href="#dirArrow" transform="rotate(180) translate(-30 -48)" onmousedown="handlePan(0,1)">
                  <use xlink:href="#rim" fill="#404040">
                        <set attributeName="fill" to="#808080" begin="arrowDown.mouseover" end="arrowDown.mouseout"/>
                  </use>
                  <path fill="none" stroke="white" stroke-width="1.5" d="M0,-3.0v7 M-2.5,-0.5L0,-3.0L2.5,-0.5"/>
                </g>
                <g id="arrowLeft" xlink:href="#dirArrow" transform="rotate(270) translate(-36 17)" onmousedown="handlePan(-1,0)">
                  <use xlink:href="#rim" fill="#404040">
                        <set attributeName="fill" to="#808080" begin="arrowLeft.mouseover" end="arrowLeft.mouseout"/>
                  </use>
                  <path fill="none" stroke="white" stroke-width="1.5" d="M0,-3.0v7 M-2.5,-0.5L0,-3.0L2.5,-0.5"/>
                </g>
        </g>
        <svg viewBox="0 0 15 15" width="100%" height="30px" preserveAspectRatio="xMaxYMin meet">
         <g id="arrow_out" transform="scale(0.3 0.3)">
          <a xlink:href="_i_n_r-_n_w_8c_a3be8a2ad7ead39dfd6b239b890dc1146_icgraph_org.svg" target="_base">
           <rect id="button" ry="5" rx="5" y="6" x="6" height="38" width="38"
                fill="#f2f5e9" fill-opacity="0.5" stroke="#606060" stroke-width="1.0"/>
           <path id="arrow"
             d="M 11.500037,31.436501 C 11.940474,20.09759 22.043105,11.32322 32.158766,21.979434 L 37.068811,17.246167 C 37.068811,17.246167 37.088388,32 37.088388,32 L 22.160133,31.978069 C 22.160133,31.978069 26.997745,27.140456 26.997745,27.140456 C 18.528582,18.264221 13.291696,25.230495 11.500037,31.436501 z"
             style="fill:#404040;"/>
          </a>
         </g>
        </svg>
</svg>
