<?xml version="1.0" encoding="UTF-8" standalone="no"?>
<!DOCTYPE svg PUBLIC "-//W3C//DTD SVG 1.1//EN"
 "http://www.w3.org/Graphics/SVG/1.1/DTD/svg11.dtd">
<!-- Generated by graphviz version 2.38.0 (20140413.2041)
 -->
<!-- Title: INR_NW_tx Pages: 1 -->
<svg width="358pt" height="104pt"
 viewBox="0.00 0.00 358.00 104.00" xmlns="http://www.w3.org/2000/svg" xmlns:xlink="http://www.w3.org/1999/xlink">
<g id="graph0" class="graph" transform="scale(1 1) rotate(0) translate(4 100)">
<title>INR_NW_tx</title>
<polygon fill="white" stroke="none" points="-4,4 -4,-100 354,-100 354,4 -4,4"/>
<!-- Node1 -->
<g id="node1" class="node"><title>Node1</title>
<polygon fill="#bfbfbf" stroke="black" points="0,-38.5 0,-57.5 71,-57.5 71,-38.5 0,-38.5"/>
<text text-anchor="middle" x="35.5" y="-45.5" font-family="Helvetica,sans-Serif" font-size="10.00">INR_NW_tx</text>
</g>
<!-- Node2 -->
<g id="node2" class="node"><title>Node2</title>
<g id="a_node2"><a xlink:href="../../d3/d3a/_i_n_r_8c.html#a549bff83219b80ccf76c695682e37707" target="_top" xlink:title="INR_LOG_debug">
<polygon fill="white" stroke="black" points="240,-76.5 240,-95.5 332,-95.5 332,-76.5 240,-76.5"/>
<text text-anchor="middle" x="286" y="-83.5" font-family="Helvetica,sans-Serif" font-size="10.00">INR_LOG_debug</text>
</a>
</g>
</g>
<!-- Node1&#45;&gt;Node2 -->
<g id="edge1" class="edge"><title>Node1&#45;&gt;Node2</title>
<path fill="none" stroke="midnightblue" d="M67.8423,-57.5786C79.9761,-60.9877 94.0411,-64.5776 107,-67 147.734,-74.6142 194.324,-79.4511 229.619,-82.3382"/>
<polygon fill="midnightblue" stroke="midnightblue" points="229.48,-85.838 239.725,-83.137 230.032,-78.8598 229.48,-85.838"/>
</g>
<!-- Node3 -->
<g id="node3" class="node"><title>Node3</title>
<g id="a_node3"><a xlink:href="../../d3/d3a/_i_n_r_8c.html#ac9fa7fdfdb1d1521d13b233e604123df" target="_top" xlink:title="INR_STATUS_get">
<polygon fill="white" stroke="black" points="237,-0.5 237,-19.5 335,-19.5 335,-0.5 237,-0.5"/>
<text text-anchor="middle" x="286" y="-7.5" font-family="Helvetica,sans-Serif" font-size="10.00">INR_STATUS_get</text>
</a>
</g>
</g>
<!-- Node1&#45;&gt;Node3 -->
<g id="edge2" class="edge"><title>Node1&#45;&gt;Node3</title>
<path fill="none" stroke="midnightblue" d="M67.8423,-38.4214C79.9761,-35.0123 94.0411,-31.4224 107,-29 146.621,-21.5937 191.784,-16.8151 226.703,-13.9027"/>
<polygon fill="midnightblue" stroke="midnightblue" points="227.043,-17.3867 236.73,-13.094 226.481,-10.4093 227.043,-17.3867"/>
</g>
<!-- Node4 -->
<g id="node4" class="node"><title>Node4</title>
<g id="a_node4"><a xlink:href="../../dc/dc8/_i_n_r-_p_c_i_8c.html#a4887a4c2c584fbcf488d415ba2792f6e" target="_top" xlink:title="INR_TX_push">
<polygon fill="white" stroke="black" points="107,-38.5 107,-57.5 186,-57.5 186,-38.5 107,-38.5"/>
<text text-anchor="middle" x="146.5" y="-45.5" font-family="Helvetica,sans-Serif" font-size="10.00">INR_TX_push</text>
</a>
</g>
</g>
<!-- Node1&#45;&gt;Node4 -->
<g id="edge3" class="edge"><title>Node1&#45;&gt;Node4</title>
<path fill="none" stroke="midnightblue" d="M71.288,-48C79.3495,-48 88.0761,-48 96.6167,-48"/>
<polygon fill="midnightblue" stroke="midnightblue" points="96.8849,-51.5001 106.885,-48 96.8849,-44.5001 96.8849,-51.5001"/>
</g>
<!-- Node4&#45;&gt;Node2 -->
<g id="edge6" class="edge"><title>Node4&#45;&gt;Node2</title>
<path fill="none" stroke="midnightblue" d="M182.197,-57.589C199.866,-62.4719 221.549,-68.4643 240.439,-73.685"/>
<polygon fill="midnightblue" stroke="midnightblue" points="239.743,-77.1238 250.314,-76.4141 241.608,-70.3767 239.743,-77.1238"/>
</g>
<!-- Node4&#45;&gt;Node3 -->
<g id="edge4" class="edge"><title>Node4&#45;&gt;Node3</title>
<path fill="none" stroke="midnightblue" d="M182.197,-38.411C199.866,-33.5281 221.549,-27.5357 240.439,-22.315"/>
<polygon fill="midnightblue" stroke="midnightblue" points="241.608,-25.6233 250.314,-19.5859 239.743,-18.8762 241.608,-25.6233"/>
</g>
<!-- Node5 -->
<g id="node5" class="node"><title>Node5</title>
<g id="a_node5"><a xlink:href="../../dc/dc8/_i_n_r-_p_c_i_8c.html#a962a04c34b5e83ae81e7336ae16cc9ef" target="_top" xlink:title="INR_PCI_pointerdistance">
<polygon fill="white" stroke="black" points="222,-38.5 222,-57.5 350,-57.5 350,-38.5 222,-38.5"/>
<text text-anchor="middle" x="286" y="-45.5" font-family="Helvetica,sans-Serif" font-size="10.00">INR_PCI_pointerdistance</text>
</a>
</g>
</g>
<!-- Node4&#45;&gt;Node5 -->
<g id="edge5" class="edge"><title>Node4&#45;&gt;Node5</title>
<path fill="none" stroke="midnightblue" d="M186.167,-48C194.247,-48 203.017,-48 211.885,-48"/>
<polygon fill="midnightblue" stroke="midnightblue" points="211.906,-51.5001 221.906,-48 211.906,-44.5001 211.906,-51.5001"/>
</g>
</g>
</svg>
