<?xml version="1.0" encoding="UTF-8" standalone="no"?>
<!DOCTYPE svg PUBLIC "-//W3C//DTD SVG 1.1//EN"
 "http://www.w3.org/Graphics/SVG/1.1/DTD/svg11.dtd">
<!-- Generated by graphviz version 2.38.0 (20140413.2041)
 -->
<!-- Title: set_nwdev Pages: 1 -->
<svg width="366pt" height="28pt"
 viewBox="0.00 0.00 366.00 28.00" xmlns="http://www.w3.org/2000/svg" xmlns:xlink="http://www.w3.org/1999/xlink">
<g id="graph0" class="graph" transform="scale(1 1) rotate(0) translate(4 24)">
<title>set_nwdev</title>
<polygon fill="white" stroke="none" points="-4,4 -4,-24 362,-24 362,4 -4,4"/>
<!-- Node1 -->
<g id="node1" class="node"><title>Node1</title>
<polygon fill="#bfbfbf" stroke="black" points="0,-0.5 0,-19.5 64,-19.5 64,-0.5 0,-0.5"/>
<text text-anchor="middle" x="32" y="-7.5" font-family="Helvetica,sans-Serif" font-size="10.00">set_nwdev</text>
</g>
<!-- Node2 -->
<g id="node2" class="node"><title>Node2</title>
<g id="a_node2"><a xlink:href="../../d0/d29/main_8c.html#a5445e0a15f43be1afefcce07951ceb2c" target="_top" xlink:title="init nw&#45;device ">
<polygon fill="white" stroke="black" points="100,-0.5 100,-19.5 196,-19.5 196,-0.5 100,-0.5"/>
<text text-anchor="middle" x="148" y="-7.5" font-family="Helvetica,sans-Serif" font-size="10.00">INR_NWDEV_init</text>
</a>
</g>
</g>
<!-- Node1&#45;&gt;Node2 -->
<g id="edge1" class="edge"><title>Node1&#45;&gt;Node2</title>
<path fill="none" stroke="midnightblue" d="M74.2665,-10C82.4983,-10 91.2051,-10 99.6235,-10"/>
<polygon fill="midnightblue" stroke="midnightblue" points="74.151,-6.5001 64.151,-10 74.151,-13.5001 74.151,-6.5001"/>
</g>
<!-- Node3 -->
<g id="node3" class="node"><title>Node3</title>
<g id="a_node3"><a xlink:href="../../d0/d29/main_8c.html#a1f2bd07aac6fb1d9a27f635dac28669b" target="_top" xlink:title="probe">
<polygon fill="white" stroke="black" points="232,-0.5 232,-19.5 273,-19.5 273,-0.5 232,-0.5"/>
<text text-anchor="middle" x="252.5" y="-7.5" font-family="Helvetica,sans-Serif" font-size="10.00">probe</text>
</a>
</g>
</g>
<!-- Node2&#45;&gt;Node3 -->
<g id="edge2" class="edge"><title>Node2&#45;&gt;Node3</title>
<path fill="none" stroke="midnightblue" d="M206.13,-10C215.379,-10 224.369,-10 231.873,-10"/>
<polygon fill="midnightblue" stroke="midnightblue" points="206.05,-6.5001 196.05,-10 206.05,-13.5001 206.05,-6.5001"/>
</g>
<!-- Node4 -->
<g id="node4" class="node"><title>Node4</title>
<g id="a_node4"><a xlink:href="../../d0/d29/main_8c.html#a28d5841b26c9924ab02d6adb235e9848" target="_top" xlink:title="remove">
<polygon fill="white" stroke="black" points="309,-0.5 309,-19.5 358,-19.5 358,-0.5 309,-0.5"/>
<text text-anchor="middle" x="333.5" y="-7.5" font-family="Helvetica,sans-Serif" font-size="10.00">remove</text>
</a>
</g>
</g>
<!-- Node3&#45;&gt;Node4 -->
<g id="edge3" class="edge"><title>Node3&#45;&gt;Node4</title>
<path fill="none" stroke="midnightblue" d="M283.31,-10C291.797,-10 300.92,-10 308.976,-10"/>
<polygon fill="midnightblue" stroke="midnightblue" points="283.028,-6.5001 273.028,-10 283.028,-13.5001 283.028,-6.5001"/>
</g>
</g>
</svg>
