<?xml version="1.0" encoding="UTF-8" standalone="no"?>
<!DOCTYPE svg PUBLIC "-//W3C//DTD SVG 1.1//EN"
 "http://www.w3.org/Graphics/SVG/1.1/DTD/svg11.dtd">
<!-- Generated by graphviz version 2.38.0 (20140413.2041)
 -->
<!-- Title: INR_int_enable Pages: 1 -->
<svg width="1014pt" height="223pt"
 viewBox="0.00 0.00 1014.00 222.50" xmlns="http://www.w3.org/2000/svg" xmlns:xlink="http://www.w3.org/1999/xlink">
<g id="graph0" class="graph" transform="scale(1 1) rotate(0) translate(4 218.5)">
<title>INR_int_enable</title>
<polygon fill="white" stroke="none" points="-4,4 -4,-218.5 1010,-218.5 1010,4 -4,4"/>
<!-- Node1 -->
<g id="node1" class="node"><title>Node1</title>
<polygon fill="#bfbfbf" stroke="black" points="0,-167 0,-186 84,-186 84,-167 0,-167"/>
<text text-anchor="middle" x="42" y="-174" font-family="Helvetica,sans-Serif" font-size="10.00">INR_int_enable</text>
</g>
<!-- Node2 -->
<g id="node2" class="node"><title>Node2</title>
<g id="a_node2"><a xlink:href="../../d3/d3a/_i_n_r_8c.html#a549bff83219b80ccf76c695682e37707" target="_top" xlink:title="INR_LOG_debug">
<polygon fill="white" stroke="black" points="914,-88 914,-107 1006,-107 1006,-88 914,-88"/>
<text text-anchor="middle" x="960" y="-95" font-family="Helvetica,sans-Serif" font-size="10.00">INR_LOG_debug</text>
</a>
</g>
</g>
<!-- Node1&#45;&gt;Node2 -->
<g id="edge1" class="edge"><title>Node1&#45;&gt;Node2</title>
<path fill="none" stroke="midnightblue" d="M77.2748,-186.078C90.5325,-189.487 105.887,-193.077 120,-195.5 204.95,-210.084 226.808,-214.5 313,-214.5 313,-214.5 313,-214.5 653,-214.5 765.742,-214.5 887.355,-144.351 936.505,-112.688"/>
<polygon fill="midnightblue" stroke="midnightblue" points="938.632,-115.479 945.083,-107.075 934.799,-109.621 938.632,-115.479"/>
</g>
<!-- Node3 -->
<g id="node3" class="node"><title>Node3</title>
<g id="a_node3"><a xlink:href="../../d3/d3a/_i_n_r_8c.html#af47261efd77bbc66a759860ab782f170" target="_top" xlink:title="INR_STATUS_set">
<polygon fill="white" stroke="black" points="122.5,-167 122.5,-186 220.5,-186 220.5,-167 122.5,-167"/>
<text text-anchor="middle" x="171.5" y="-174" font-family="Helvetica,sans-Serif" font-size="10.00">INR_STATUS_set</text>
</a>
</g>
</g>
<!-- Node1&#45;&gt;Node3 -->
<g id="edge2" class="edge"><title>Node1&#45;&gt;Node3</title>
<path fill="none" stroke="midnightblue" d="M84.0436,-176.5C93.025,-176.5 102.698,-176.5 112.208,-176.5"/>
<polygon fill="midnightblue" stroke="midnightblue" points="112.423,-180 122.423,-176.5 112.423,-173 112.423,-180"/>
</g>
<!-- Node4 -->
<g id="node4" class="node"><title>Node4</title>
<g id="a_node4"><a xlink:href="../../dc/dc8/_i_n_r-_p_c_i_8c.html#a1c0927891fa571e8aec98ebe5fd266f6" target="_top" xlink:title="XPCIe_IRQHandler">
<polygon fill="white" stroke="black" points="120,-129 120,-148 223,-148 223,-129 120,-129"/>
<text text-anchor="middle" x="171.5" y="-136" font-family="Helvetica,sans-Serif" font-size="10.00">XPCIe_IRQHandler</text>
</a>
</g>
</g>
<!-- Node1&#45;&gt;Node4 -->
<g id="edge3" class="edge"><title>Node1&#45;&gt;Node4</title>
<path fill="none" stroke="midnightblue" d="M75.1736,-166.911C91.3307,-162.096 111.108,-156.201 128.452,-151.032"/>
<polygon fill="midnightblue" stroke="midnightblue" points="129.753,-154.296 138.337,-148.086 127.754,-147.588 129.753,-154.296"/>
</g>
<!-- Node5 -->
<g id="node5" class="node"><title>Node5</title>
<g id="a_node5"><a xlink:href="../../de/dc6/_i_n_r-_n_w_8c.html#a3be8a2ad7ead39dfd6b239b890dc1146" target="_top" xlink:title="get_nwdev">
<polygon fill="white" stroke="black" points="443,-166 443,-185 507,-185 507,-166 443,-166"/>
<text text-anchor="middle" x="475" y="-173" font-family="Helvetica,sans-Serif" font-size="10.00">get_nwdev</text>
</a>
</g>
</g>
<!-- Node4&#45;&gt;Node5 -->
<g id="edge4" class="edge"><title>Node4&#45;&gt;Node5</title>
<path fill="none" stroke="midnightblue" d="M210.62,-148.017C225.617,-151.46 243.037,-155.089 259,-157.5 319.049,-166.568 389.274,-171.37 432.699,-173.672"/>
<polygon fill="midnightblue" stroke="midnightblue" points="432.708,-177.177 442.874,-174.191 433.065,-170.186 432.708,-177.177"/>
</g>
<!-- Node6 -->
<g id="node6" class="node"><title>Node6</title>
<g id="a_node6"><a xlink:href="../../d1/d67/_i_n_r-_n_a_p_i_8c.html#ab0128b9e2aa3db2fe73ce3475130d2d2" target="_top" xlink:title="INR_NAPI_schedule">
<polygon fill="white" stroke="black" points="260,-129 260,-148 368,-148 368,-129 260,-129"/>
<text text-anchor="middle" x="314" y="-136" font-family="Helvetica,sans-Serif" font-size="10.00">INR_NAPI_schedule</text>
</a>
</g>
</g>
<!-- Node4&#45;&gt;Node6 -->
<g id="edge5" class="edge"><title>Node4&#45;&gt;Node6</title>
<path fill="none" stroke="midnightblue" d="M223.224,-138.5C231.904,-138.5 241.017,-138.5 249.972,-138.5"/>
<polygon fill="midnightblue" stroke="midnightblue" points="249.983,-142 259.983,-138.5 249.983,-135 249.983,-142"/>
</g>
<!-- Node7 -->
<g id="node7" class="node"><title>Node7</title>
<g id="a_node7"><a xlink:href="../../dc/dc8/_i_n_r-_p_c_i_8c.html#a317b7c374854b88af0059ff2a3708ce9" target="_top" xlink:title="INR_PCI_process_rx\l_descriptor_ring">
<polygon fill="white" stroke="black" points="259,-79.5 259,-109.5 369,-109.5 369,-79.5 259,-79.5"/>
<text text-anchor="start" x="267" y="-97.5" font-family="Helvetica,sans-Serif" font-size="10.00">INR_PCI_process_rx</text>
<text text-anchor="middle" x="314" y="-86.5" font-family="Helvetica,sans-Serif" font-size="10.00">_descriptor_ring</text>
</a>
</g>
</g>
<!-- Node4&#45;&gt;Node7 -->
<g id="edge6" class="edge"><title>Node4&#45;&gt;Node7</title>
<path fill="none" stroke="midnightblue" d="M202.986,-128.953C218.24,-124.176 237.223,-118.231 255.104,-112.631"/>
<polygon fill="midnightblue" stroke="midnightblue" points="256.397,-115.894 264.894,-109.565 254.305,-109.214 256.397,-115.894"/>
</g>
<!-- Node7&#45;&gt;Node2 -->
<g id="edge9" class="edge"><title>Node7&#45;&gt;Node2</title>
<path fill="none" stroke="midnightblue" d="M369.078,-105.396C380.874,-107.413 393.321,-109.269 405,-110.5 614.065,-132.535 668.863,-132.842 878,-111.5 886.368,-110.646 895.175,-109.443 903.778,-108.098"/>
<polygon fill="midnightblue" stroke="midnightblue" points="904.44,-111.536 913.742,-106.464 903.308,-104.628 904.44,-111.536"/>
</g>
<!-- Node7&#45;&gt;Node5 -->
<g id="edge10" class="edge"><title>Node7&#45;&gt;Node5</title>
<path fill="none" stroke="midnightblue" d="M351.134,-109.628C357.244,-112.634 363.413,-115.965 369,-119.5 386.6,-130.637 387.004,-139.015 405,-149.5 413.793,-154.623 423.78,-159.072 433.37,-162.771"/>
<polygon fill="midnightblue" stroke="midnightblue" points="432.175,-166.061 442.769,-166.217 434.585,-159.489 432.175,-166.061"/>
</g>
<!-- Node8 -->
<g id="node8" class="node"><title>Node8</title>
<g id="a_node8"><a xlink:href="../../d3/d3a/_i_n_r_8c.html#a055451b31abceb46e8c92789d0523980" target="_top" xlink:title="INR_CHECK_fpga_read_val">
<polygon fill="white" stroke="black" points="581,-88 581,-107 723,-107 723,-88 581,-88"/>
<text text-anchor="middle" x="652" y="-95" font-family="Helvetica,sans-Serif" font-size="10.00">INR_CHECK_fpga_read_val</text>
</a>
</g>
</g>
<!-- Node7&#45;&gt;Node8 -->
<g id="edge7" class="edge"><title>Node7&#45;&gt;Node8</title>
<path fill="none" stroke="midnightblue" d="M369.358,-94.9853C423.899,-95.4723 508.522,-96.2279 570.78,-96.7838"/>
<polygon fill="midnightblue" stroke="midnightblue" points="570.93,-100.285 580.961,-96.8747 570.993,-93.2854 570.93,-100.285"/>
</g>
<!-- Node9 -->
<g id="node9" class="node"><title>Node9</title>
<g id="a_node9"><a xlink:href="../../dc/dc8/_i_n_r-_p_c_i_8c.html#a03f960f01f96c2f664301c6830461c7f" target="_top" xlink:title="INR_PCI_alloc_new_rx_skb">
<polygon fill="white" stroke="black" points="405,-46 405,-65 545,-65 545,-46 405,-46"/>
<text text-anchor="middle" x="475" y="-53" font-family="Helvetica,sans-Serif" font-size="10.00">INR_PCI_alloc_new_rx_skb</text>
</a>
</g>
</g>
<!-- Node7&#45;&gt;Node9 -->
<g id="edge11" class="edge"><title>Node7&#45;&gt;Node9</title>
<path fill="none" stroke="midnightblue" d="M369.274,-81.1875C387.323,-76.7604 407.307,-71.8587 424.938,-67.534"/>
<polygon fill="midnightblue" stroke="midnightblue" points="426.137,-70.8438 435.015,-65.0623 424.469,-64.0454 426.137,-70.8438"/>
</g>
<!-- Node8&#45;&gt;Node2 -->
<g id="edge8" class="edge"><title>Node8&#45;&gt;Node2</title>
<path fill="none" stroke="midnightblue" d="M723.203,-97.5C778.008,-97.5 853.096,-97.5 903.689,-97.5"/>
<polygon fill="midnightblue" stroke="midnightblue" points="903.782,-101 913.782,-97.5 903.782,-94.0001 903.782,-101"/>
</g>
<!-- Node10 -->
<g id="node10" class="node"><title>Node10</title>
<g id="a_node10"><a xlink:href="../../dc/dc8/_i_n_r-_p_c_i_8c.html#af88a9db4ef6451751a395e1207fd7066" target="_top" xlink:title="INR_PCI_get_new_rx\l_descriptor_ring_entry">
<polygon fill="white" stroke="black" points="595.5,-38.5 595.5,-68.5 708.5,-68.5 708.5,-38.5 595.5,-38.5"/>
<text text-anchor="start" x="603.5" y="-56.5" font-family="Helvetica,sans-Serif" font-size="10.00">INR_PCI_get_new_rx</text>
<text text-anchor="middle" x="652" y="-45.5" font-family="Helvetica,sans-Serif" font-size="10.00">_descriptor_ring_entry</text>
</a>
</g>
</g>
<!-- Node9&#45;&gt;Node10 -->
<g id="edge12" class="edge"><title>Node9&#45;&gt;Node10</title>
<path fill="none" stroke="midnightblue" d="M545.165,-54.7095C558.282,-54.5596 571.974,-54.4031 584.991,-54.2544"/>
<polygon fill="midnightblue" stroke="midnightblue" points="585.301,-57.7512 595.261,-54.137 585.221,-50.7516 585.301,-57.7512"/>
</g>
<!-- Node10&#45;&gt;Node2 -->
<g id="edge15" class="edge"><title>Node10&#45;&gt;Node2</title>
<path fill="none" stroke="midnightblue" d="M708.769,-61.5191C764.108,-69.4763 848.423,-81.6001 903.624,-89.5375"/>
<polygon fill="midnightblue" stroke="midnightblue" points="903.183,-93.0099 913.579,-90.9689 904.179,-86.0812 903.183,-93.0099"/>
</g>
<!-- Node11 -->
<g id="node11" class="node"><title>Node11</title>
<g id="a_node11"><a xlink:href="../../dc/dc8/_i_n_r-_p_c_i_8c.html#adbea73204b38d31f4b80feb56a27b810" target="_top" xlink:title="INR_PCI_rx_descriptor\l_pool_refill">
<polygon fill="white" stroke="black" points="759,-0.5 759,-30.5 878,-30.5 878,-0.5 759,-0.5"/>
<text text-anchor="start" x="767" y="-18.5" font-family="Helvetica,sans-Serif" font-size="10.00">INR_PCI_rx_descriptor</text>
<text text-anchor="middle" x="818.5" y="-7.5" font-family="Helvetica,sans-Serif" font-size="10.00">_pool_refill</text>
</a>
</g>
</g>
<!-- Node10&#45;&gt;Node11 -->
<g id="edge13" class="edge"><title>Node10&#45;&gt;Node11</title>
<path fill="none" stroke="midnightblue" d="M708.692,-40.6349C721.542,-37.6666 735.36,-34.4745 748.694,-31.3944"/>
<polygon fill="midnightblue" stroke="midnightblue" points="749.817,-34.7273 758.772,-29.0663 748.241,-27.9069 749.817,-34.7273"/>
</g>
<!-- Node11&#45;&gt;Node2 -->
<g id="edge14" class="edge"><title>Node11&#45;&gt;Node2</title>
<path fill="none" stroke="midnightblue" d="M850.162,-30.5193C859.224,-35.1463 869.097,-40.3755 878,-45.5 898.098,-57.0681 920.207,-71.3738 936.242,-82.0504"/>
<polygon fill="midnightblue" stroke="midnightblue" points="934.665,-85.207 944.92,-87.8691 938.563,-79.393 934.665,-85.207"/>
</g>
</g>
</svg>
