<?xml version="1.0" encoding="UTF-8" standalone="no"?>
<!DOCTYPE svg PUBLIC "-//W3C//DTD SVG 1.1//EN"
 "http://www.w3.org/Graphics/SVG/1.1/DTD/svg11.dtd">
<!-- Generated by graphviz version 2.38.0 (20140413.2041)
 -->
<!-- Title: INR_remove_drv Pages: 1 -->
<svg width="361pt" height="79pt"
 viewBox="0.00 0.00 361.00 78.77" xmlns="http://www.w3.org/2000/svg" xmlns:xlink="http://www.w3.org/1999/xlink">
<g id="graph0" class="graph" transform="scale(1 1) rotate(0) translate(4 74.7699)">
<title>INR_remove_drv</title>
<polygon fill="white" stroke="none" points="-4,4 -4,-74.7699 357,-74.7699 357,4 -4,4"/>
<!-- Node1 -->
<g id="node1" class="node"><title>Node1</title>
<polygon fill="#bfbfbf" stroke="black" points="0,-38.5 0,-57.5 91,-57.5 91,-38.5 0,-38.5"/>
<text text-anchor="middle" x="45.5" y="-45.5" font-family="Helvetica,sans-Serif" font-size="10.00">INR_remove_drv</text>
</g>
<!-- Node2 -->
<g id="node2" class="node"><title>Node2</title>
<g id="a_node2"><a xlink:href="../../d3/d3a/_i_n_r_8c.html#a549bff83219b80ccf76c695682e37707" target="_top" xlink:title="INR_LOG_debug">
<polygon fill="white" stroke="black" points="261,-38.5 261,-57.5 353,-57.5 353,-38.5 261,-38.5"/>
<text text-anchor="middle" x="307" y="-45.5" font-family="Helvetica,sans-Serif" font-size="10.00">INR_LOG_debug</text>
</a>
</g>
</g>
<!-- Node1&#45;&gt;Node2 -->
<g id="edge1" class="edge"><title>Node1&#45;&gt;Node2</title>
<path fill="none" stroke="midnightblue" d="M79.0938,-57.5067C93.6199,-61.2711 111.025,-65.1403 127,-67 170.263,-72.0364 181.733,-72.0066 225,-67 237.555,-65.5472 250.99,-62.8679 263.237,-59.9702"/>
<polygon fill="midnightblue" stroke="midnightblue" points="264.332,-63.3049 273.2,-57.5069 262.652,-56.5095 264.332,-63.3049"/>
</g>
<!-- Node3 -->
<g id="node3" class="node"><title>Node3</title>
<g id="a_node3"><a xlink:href="../../d3/d3a/_i_n_r_8c.html#ac9fa7fdfdb1d1521d13b233e604123df" target="_top" xlink:title="INR_STATUS_get">
<polygon fill="white" stroke="black" points="127,-38.5 127,-57.5 225,-57.5 225,-38.5 127,-38.5"/>
<text text-anchor="middle" x="176" y="-45.5" font-family="Helvetica,sans-Serif" font-size="10.00">INR_STATUS_get</text>
</a>
</g>
</g>
<!-- Node1&#45;&gt;Node3 -->
<g id="edge2" class="edge"><title>Node1&#45;&gt;Node3</title>
<path fill="none" stroke="midnightblue" d="M91.0824,-48C99.4186,-48 108.244,-48 116.917,-48"/>
<polygon fill="midnightblue" stroke="midnightblue" points="116.991,-51.5001 126.991,-48 116.991,-44.5001 116.991,-51.5001"/>
</g>
<!-- Node4 -->
<g id="node4" class="node"><title>Node4</title>
<g id="a_node4"><a xlink:href="../../dc/dc8/_i_n_r-_p_c_i_8c.html#aca9adda5e45573439054262d994907eb" target="_top" xlink:title="INR_UNMAP_all">
<polygon fill="white" stroke="black" points="130,-0.5 130,-19.5 222,-19.5 222,-0.5 130,-0.5"/>
<text text-anchor="middle" x="176" y="-7.5" font-family="Helvetica,sans-Serif" font-size="10.00">INR_UNMAP_all</text>
</a>
</g>
</g>
<!-- Node1&#45;&gt;Node4 -->
<g id="edge3" class="edge"><title>Node1&#45;&gt;Node4</title>
<path fill="none" stroke="midnightblue" d="M78.926,-38.411C95.2097,-33.5956 115.142,-27.7012 132.622,-22.532"/>
<polygon fill="midnightblue" stroke="midnightblue" points="133.987,-25.7781 142.584,-19.5859 132.002,-19.0655 133.987,-25.7781"/>
</g>
<!-- Node4&#45;&gt;Node2 -->
<g id="edge4" class="edge"><title>Node4&#45;&gt;Node2</title>
<path fill="none" stroke="midnightblue" d="M209.552,-19.589C225.899,-24.4044 245.909,-30.2988 263.457,-35.468"/>
<polygon fill="midnightblue" stroke="midnightblue" points="262.877,-38.9457 273.458,-38.4141 264.855,-32.2309 262.877,-38.9457"/>
</g>
</g>
</svg>
