<?xml version="1.0" encoding="UTF-8" standalone="no"?>
<!DOCTYPE svg PUBLIC "-//W3C//DTD SVG 1.1//EN"
 "http://www.w3.org/Graphics/SVG/1.1/DTD/svg11.dtd">
<!-- Generated by graphviz version 2.38.0 (20140413.2041)
 -->
<!-- Title: INR_PCI_rx_descriptor_pool_refill Pages: 1 -->
<!--zoomable 668 -->
<svg id="main" version="1.1" xmlns="http://www.w3.org/2000/svg" xmlns:xlink="http://www.w3.org/1999/xlink" xml:space="preserve" onload="init(evt)">
<style type="text/css"><![CDATA[
.edge:hover path { stroke: red; }
.edge:hover polygon { stroke: red; fill: red; }
]]></style>
<script type="text/javascript"><![CDATA[
var edges = document.getElementsByTagName('g');
if (edges && edges.length) {
  for (var i=0;i<edges.length;i++) {
    if (edges[i].id.substr(0,4)=='edge') {
      edges[i].setAttribute('class','edge');
    }
  }
}
]]></script>
        <defs>
                <circle id="rim" cx="0" cy="0" r="7"/>
                <circle id="rim2" cx="0" cy="0" r="3.5"/>
                <g id="zoomPlus">
                        <use xlink:href="#rim" fill="#404040">
                                <set attributeName="fill" to="#808080" begin="zoomplus.mouseover" end="zoomplus.mouseout"/>
                        </use>
                        <path d="M-4,0h8M0,-4v8" fill="none" stroke="white" stroke-width="1.5" pointer-events="none"/>
                </g>
                <g id="zoomMin">
                        <use xlink:href="#rim" fill="#404040">
                                <set attributeName="fill" to="#808080" begin="zoomminus.mouseover" end="zoomminus.mouseout"/>
                        </use>
                        <path d="M-4,0h8" fill="none" stroke="white" stroke-width="1.5" pointer-events="none"/>
                </g>
                <g id="dirArrow">
                        <path fill="none" stroke="white" stroke-width="1.5" d="M0,-3.0v7 M-2.5,-0.5L0,-3.0L2.5,-0.5"/>
                </g>
               <g id="resetDef">
                       <use xlink:href="#rim2" fill="#404040">
                               <set attributeName="fill" to="#808080" begin="reset.mouseover" end="reset.mouseout"/>
                       </use>
               </g>
        </defs>

<script type="text/javascript">
var viewWidth = 1126;
var viewHeight = 668;
var sectionId = 'dynsection-11';
</script>
<script xlink:href="../../svgpan.js"/>
<svg id="graph" class="graph">
<g id="viewport">
<title>INR_PCI_rx_descriptor_pool_refill</title>
<polygon fill="white" stroke="none" points="-4,4 -4,-663.961 1122,-663.961 1122,4 -4,4"/>
<!-- Node1 -->
<g id="node1" class="node"><title>Node1</title>
<polygon fill="#bfbfbf" stroke="black" points="0,-224.961 0,-254.961 119,-254.961 119,-224.961 0,-224.961"/>
<text text-anchor="start" x="8" y="-242.961" font-family="Helvetica,sans-Serif" font-size="10.00">INR_PCI_rx_descriptor</text>
<text text-anchor="middle" x="59.5" y="-231.961" font-family="Helvetica,sans-Serif" font-size="10.00">_pool_refill</text>
</g>
<!-- Node2 -->
<g id="node2" class="node"><title>Node2</title>
<g id="a_node2"><a xlink:href="../../dc/dc8/_i_n_r-_p_c_i_8c.html#af88a9db4ef6451751a395e1207fd7066" target="_top" xlink:title="INR_PCI_get_new_rx\l_descriptor_ring_entry">
<polygon fill="white" stroke="black" points="155,-224.961 155,-254.961 268,-254.961 268,-224.961 155,-224.961"/>
<text text-anchor="start" x="163" y="-242.961" font-family="Helvetica,sans-Serif" font-size="10.00">INR_PCI_get_new_rx</text>
<text text-anchor="middle" x="211.5" y="-231.961" font-family="Helvetica,sans-Serif" font-size="10.00">_descriptor_ring_entry</text>
</a>
</g>
</g>
<!-- Node1&#45;&gt;Node2 -->
<g id="edge1" class="edge"><title>Node1&#45;&gt;Node2</title>
<path fill="none" stroke="midnightblue" d="M129.568,-239.961C138.008,-239.961 146.547,-239.961 154.757,-239.961"/>
<polygon fill="midnightblue" stroke="midnightblue" points="129.353,-236.461 119.353,-239.961 129.353,-243.461 129.353,-236.461"/>
</g>
<!-- Node3 -->
<g id="node3" class="node"><title>Node3</title>
<g id="a_node3"><a xlink:href="../../dc/dc8/_i_n_r-_p_c_i_8c.html#a03f960f01f96c2f664301c6830461c7f" target="_top" xlink:title="INR_PCI_alloc_new_rx_skb">
<polygon fill="white" stroke="black" points="304,-230.461 304,-249.461 444,-249.461 444,-230.461 304,-230.461"/>
<text text-anchor="middle" x="374" y="-237.461" font-family="Helvetica,sans-Serif" font-size="10.00">INR_PCI_alloc_new_rx_skb</text>
</a>
</g>
</g>
<!-- Node2&#45;&gt;Node3 -->
<g id="edge2" class="edge"><title>Node2&#45;&gt;Node3</title>
<path fill="none" stroke="midnightblue" d="M278.317,-239.961C286.734,-239.961 295.369,-239.961 303.837,-239.961"/>
<polygon fill="midnightblue" stroke="midnightblue" points="278.185,-236.461 268.185,-239.961 278.185,-243.461 278.185,-236.461"/>
</g>
<!-- Node4 -->
<g id="node4" class="node"><title>Node4</title>
<g id="a_node4"><a xlink:href="../../dc/dc8/_i_n_r-_p_c_i_8c.html#a317b7c374854b88af0059ff2a3708ce9" target="_top" xlink:title="INR_PCI_process_rx\l_descriptor_ring">
<polygon fill="white" stroke="black" points="480,-311.961 480,-341.961 590,-341.961 590,-311.961 480,-311.961"/>
<text text-anchor="start" x="488" y="-329.961" font-family="Helvetica,sans-Serif" font-size="10.00">INR_PCI_process_rx</text>
<text text-anchor="middle" x="535" y="-318.961" font-family="Helvetica,sans-Serif" font-size="10.00">_descriptor_ring</text>
</a>
</g>
</g>
<!-- Node3&#45;&gt;Node4 -->
<g id="edge3" class="edge"><title>Node3&#45;&gt;Node4</title>
<path fill="none" stroke="midnightblue" d="M401.401,-254.407C430.456,-270.305 476.945,-295.742 506.45,-311.887"/>
<polygon fill="midnightblue" stroke="midnightblue" points="403.076,-251.334 392.623,-249.604 399.716,-257.475 403.076,-251.334"/>
</g>
<!-- Node27 -->
<g id="node27" class="node"><title>Node27</title>
<g id="a_node27"><a xlink:href="../../dc/dc8/_i_n_r-_p_c_i_8c.html#a7b6c1bb3d3c608c7a226531d7a6f0965" target="_top" xlink:title="INR_RX_RING_init">
<polygon fill="white" stroke="black" points="483.5,-143.461 483.5,-162.461 586.5,-162.461 586.5,-143.461 483.5,-143.461"/>
<text text-anchor="middle" x="535" y="-150.461" font-family="Helvetica,sans-Serif" font-size="10.00">INR_RX_RING_init</text>
</a>
</g>
</g>
<!-- Node3&#45;&gt;Node27 -->
<g id="edge42" class="edge"><title>Node3&#45;&gt;Node27</title>
<path fill="none" stroke="midnightblue" d="M401.588,-225.413C434.158,-207.592 488.431,-177.896 516.298,-162.647"/>
<polygon fill="midnightblue" stroke="midnightblue" points="399.716,-222.448 392.623,-230.318 403.076,-228.589 399.716,-222.448"/>
</g>
<!-- Node5 -->
<g id="node5" class="node"><title>Node5</title>
<g id="a_node5"><a xlink:href="../../d1/d67/_i_n_r-_n_a_p_i_8c.html#a87ec5cd355cffe8b96296dbb83278bfe" target="_top" xlink:title="INR_NAPI_poll_0">
<polygon fill="white" stroke="black" points="630,-640.461 630,-659.461 725,-659.461 725,-640.461 630,-640.461"/>
<text text-anchor="middle" x="677.5" y="-647.461" font-family="Helvetica,sans-Serif" font-size="10.00">INR_NAPI_poll_0</text>
</a>
</g>
</g>
<!-- Node4&#45;&gt;Node5 -->
<g id="edge4" class="edge"><title>Node4&#45;&gt;Node5</title>
<path fill="none" stroke="midnightblue" d="M536.266,-352.534C538.241,-409.936 550.953,-550.305 626,-630.961 629.637,-634.87 634.158,-637.981 638.989,-640.454"/>
<polygon fill="midnightblue" stroke="midnightblue" points="539.756,-352.108 535.999,-342.202 532.759,-352.289 539.756,-352.108"/>
</g>
<!-- Node10 -->
<g id="node10" class="node"><title>Node10</title>
<g id="a_node10"><a xlink:href="../../d1/d67/_i_n_r-_n_a_p_i_8c.html#a938e6a3d06b11a5dc3da541a5d05c0b2" target="_top" xlink:title="INR_NAPI_poll_1">
<polygon fill="white" stroke="black" points="630,-602.461 630,-621.461 725,-621.461 725,-602.461 630,-602.461"/>
<text text-anchor="middle" x="677.5" y="-609.461" font-family="Helvetica,sans-Serif" font-size="10.00">INR_NAPI_poll_1</text>
</a>
</g>
</g>
<!-- Node4&#45;&gt;Node10 -->
<g id="edge9" class="edge"><title>Node4&#45;&gt;Node10</title>
<path fill="none" stroke="midnightblue" d="M537.532,-352.212C542.015,-404.201 559.401,-524.086 626,-592.961 629.777,-596.867 634.434,-599.978 639.38,-602.455"/>
<polygon fill="midnightblue" stroke="midnightblue" points="541.018,-351.892 536.758,-342.191 534.039,-352.431 541.018,-351.892"/>
</g>
<!-- Node11 -->
<g id="node11" class="node"><title>Node11</title>
<g id="a_node11"><a xlink:href="../../d1/d67/_i_n_r-_n_a_p_i_8c.html#a69ec3410fe5dc7da35e2f6a8d72acdb4" target="_top" xlink:title="INR_NAPI_poll_10">
<polygon fill="white" stroke="black" points="627.5,-564.461 627.5,-583.461 727.5,-583.461 727.5,-564.461 627.5,-564.461"/>
<text text-anchor="middle" x="677.5" y="-571.461" font-family="Helvetica,sans-Serif" font-size="10.00">INR_NAPI_poll_10</text>
</a>
</g>
</g>
<!-- Node4&#45;&gt;Node11 -->
<g id="edge11" class="edge"><title>Node4&#45;&gt;Node11</title>
<path fill="none" stroke="midnightblue" d="M539.183,-352.104C546.337,-398.434 567.871,-497.761 626,-554.961 629.939,-558.838 634.745,-561.937 639.809,-564.41"/>
<polygon fill="midnightblue" stroke="midnightblue" points="542.622,-351.429 537.729,-342.032 535.694,-352.43 542.622,-351.429"/>
</g>
<!-- Node12 -->
<g id="node12" class="node"><title>Node12</title>
<g id="a_node12"><a xlink:href="../../d1/d67/_i_n_r-_n_a_p_i_8c.html#a7b9c6dd796e70895de209d2803e13ccc" target="_top" xlink:title="INR_NAPI_poll_11">
<polygon fill="white" stroke="black" points="627.5,-526.461 627.5,-545.461 727.5,-545.461 727.5,-526.461 627.5,-526.461"/>
<text text-anchor="middle" x="677.5" y="-533.461" font-family="Helvetica,sans-Serif" font-size="10.00">INR_NAPI_poll_11</text>
</a>
</g>
</g>
<!-- Node4&#45;&gt;Node12 -->
<g id="edge13" class="edge"><title>Node4&#45;&gt;Node12</title>
<path fill="none" stroke="midnightblue" d="M541.396,-351.865C551.329,-392.001 576.209,-471.118 626,-516.961 630.204,-520.832 635.271,-523.936 640.553,-526.421"/>
<polygon fill="midnightblue" stroke="midnightblue" points="544.792,-351.016 539.084,-342.091 537.98,-352.628 544.792,-351.016"/>
</g>
<!-- Node13 -->
<g id="node13" class="node"><title>Node13</title>
<g id="a_node13"><a xlink:href="../../d1/d67/_i_n_r-_n_a_p_i_8c.html#a3a1602b0c3f015b8aabd0b978d704493" target="_top" xlink:title="INR_NAPI_poll_12">
<polygon fill="white" stroke="black" points="627.5,-488.461 627.5,-507.461 727.5,-507.461 727.5,-488.461 627.5,-488.461"/>
<text text-anchor="middle" x="677.5" y="-495.461" font-family="Helvetica,sans-Serif" font-size="10.00">INR_NAPI_poll_12</text>
</a>
</g>
</g>
<!-- Node4&#45;&gt;Node13 -->
<g id="edge15" class="edge"><title>Node4&#45;&gt;Node13</title>
<path fill="none" stroke="midnightblue" d="M544.603,-351.644C557.396,-384.955 584.48,-444.129 626,-478.961 630.593,-482.814 636.046,-485.928 641.641,-488.432"/>
<polygon fill="midnightblue" stroke="midnightblue" points="547.855,-350.347 541.091,-342.192 541.293,-352.785 547.855,-350.347"/>
</g>
<!-- Node14 -->
<g id="node14" class="node"><title>Node14</title>
<g id="a_node14"><a xlink:href="../../d1/d67/_i_n_r-_n_a_p_i_8c.html#a2ee390e1624519f6a631b3046c2fbd3f" target="_top" xlink:title="INR_NAPI_poll_13">
<polygon fill="white" stroke="black" points="627.5,-450.461 627.5,-469.461 727.5,-469.461 727.5,-450.461 627.5,-450.461"/>
<text text-anchor="middle" x="677.5" y="-457.461" font-family="Helvetica,sans-Serif" font-size="10.00">INR_NAPI_poll_13</text>
</a>
</g>
</g>
<!-- Node4&#45;&gt;Node14 -->
<g id="edge17" class="edge"><title>Node4&#45;&gt;Node14</title>
<path fill="none" stroke="midnightblue" d="M549.364,-350.737C564.81,-376.263 592.457,-416.444 626,-440.961 631.143,-444.72 637.116,-447.823 643.117,-450.352"/>
<polygon fill="midnightblue" stroke="midnightblue" points="552.335,-348.884 544.238,-342.052 546.307,-352.442 552.335,-348.884"/>
</g>
<!-- Node15 -->
<g id="node15" class="node"><title>Node15</title>
<g id="a_node15"><a xlink:href="../../d1/d67/_i_n_r-_n_a_p_i_8c.html#a2cbf12b9e0e03b3b3862a98784ecc52b" target="_top" xlink:title="INR_NAPI_poll_14">
<polygon fill="white" stroke="black" points="627.5,-412.461 627.5,-431.461 727.5,-431.461 727.5,-412.461 627.5,-412.461"/>
<text text-anchor="middle" x="677.5" y="-419.461" font-family="Helvetica,sans-Serif" font-size="10.00">INR_NAPI_poll_14</text>
</a>
</g>
</g>
<!-- Node4&#45;&gt;Node15 -->
<g id="edge19" class="edge"><title>Node4&#45;&gt;Node15</title>
<path fill="none" stroke="midnightblue" d="M558.038,-349.333C575.314,-365.89 600.608,-388.065 626,-402.961 632.221,-406.611 639.269,-409.784 646.083,-412.437"/>
<polygon fill="midnightblue" stroke="midnightblue" points="560.295,-346.645 550.693,-342.167 555.406,-351.655 560.295,-346.645"/>
</g>
<!-- Node16 -->
<g id="node16" class="node"><title>Node16</title>
<g id="a_node16"><a xlink:href="../../d1/d67/_i_n_r-_n_a_p_i_8c.html#a91f701f31afe930ece5c8bf5fb1a7ed6" target="_top" xlink:title="INR_NAPI_poll_15">
<polygon fill="white" stroke="black" points="627.5,-374.461 627.5,-393.461 727.5,-393.461 727.5,-374.461 627.5,-374.461"/>
<text text-anchor="middle" x="677.5" y="-381.461" font-family="Helvetica,sans-Serif" font-size="10.00">INR_NAPI_poll_15</text>
</a>
</g>
</g>
<!-- Node4&#45;&gt;Node16 -->
<g id="edge21" class="edge"><title>Node4&#45;&gt;Node16</title>
<path fill="none" stroke="midnightblue" d="M580.188,-346.03C594.729,-352.195 611.01,-358.98 626,-364.961 633.917,-368.121 642.587,-371.435 650.474,-374.394"/>
<polygon fill="midnightblue" stroke="midnightblue" points="581.487,-342.779 570.915,-342.083 578.745,-349.22 581.487,-342.779"/>
</g>
<!-- Node17 -->
<g id="node17" class="node"><title>Node17</title>
<g id="a_node17"><a xlink:href="../../d1/d67/_i_n_r-_n_a_p_i_8c.html#ae6bc59b863b3928700468d13efd23e27" target="_top" xlink:title="INR_NAPI_poll_2">
<polygon fill="white" stroke="black" points="630,-336.461 630,-355.461 725,-355.461 725,-336.461 630,-336.461"/>
<text text-anchor="middle" x="677.5" y="-343.461" font-family="Helvetica,sans-Serif" font-size="10.00">INR_NAPI_poll_2</text>
</a>
</g>
</g>
<!-- Node4&#45;&gt;Node17 -->
<g id="edge23" class="edge"><title>Node4&#45;&gt;Node17</title>
<path fill="none" stroke="midnightblue" d="M600.475,-335.68C610.302,-337.009 620.281,-338.359 629.636,-339.624"/>
<polygon fill="midnightblue" stroke="midnightblue" points="600.7,-332.179 590.321,-334.307 599.762,-339.116 600.7,-332.179"/>
</g>
<!-- Node18 -->
<g id="node18" class="node"><title>Node18</title>
<g id="a_node18"><a xlink:href="../../d1/d67/_i_n_r-_n_a_p_i_8c.html#a7888221fd9575d7e7aae78ed125d8646" target="_top" xlink:title="INR_NAPI_poll_3">
<polygon fill="white" stroke="black" points="630,-298.461 630,-317.461 725,-317.461 725,-298.461 630,-298.461"/>
<text text-anchor="middle" x="677.5" y="-305.461" font-family="Helvetica,sans-Serif" font-size="10.00">INR_NAPI_poll_3</text>
</a>
</g>
</g>
<!-- Node4&#45;&gt;Node18 -->
<g id="edge25" class="edge"><title>Node4&#45;&gt;Node18</title>
<path fill="none" stroke="midnightblue" d="M600.475,-318.242C610.302,-316.913 620.281,-315.564 629.636,-314.299"/>
<polygon fill="midnightblue" stroke="midnightblue" points="599.762,-314.807 590.321,-319.615 600.7,-321.744 599.762,-314.807"/>
</g>
<!-- Node19 -->
<g id="node19" class="node"><title>Node19</title>
<g id="a_node19"><a xlink:href="../../d1/d67/_i_n_r-_n_a_p_i_8c.html#a5e711c1ae61572a4bab9ffefc34d0f34" target="_top" xlink:title="INR_NAPI_poll_4">
<polygon fill="white" stroke="black" points="630,-260.461 630,-279.461 725,-279.461 725,-260.461 630,-260.461"/>
<text text-anchor="middle" x="677.5" y="-267.461" font-family="Helvetica,sans-Serif" font-size="10.00">INR_NAPI_poll_4</text>
</a>
</g>
</g>
<!-- Node4&#45;&gt;Node19 -->
<g id="edge27" class="edge"><title>Node4&#45;&gt;Node19</title>
<path fill="none" stroke="midnightblue" d="M580.188,-307.893C594.729,-301.728 611.01,-294.943 626,-288.961 633.917,-285.802 642.587,-282.488 650.474,-279.528"/>
<polygon fill="midnightblue" stroke="midnightblue" points="578.745,-304.703 570.915,-311.84 581.487,-311.144 578.745,-304.703"/>
</g>
<!-- Node20 -->
<g id="node20" class="node"><title>Node20</title>
<g id="a_node20"><a xlink:href="../../d1/d67/_i_n_r-_n_a_p_i_8c.html#a4c7935fe4ef401ccd186e05e1047748c" target="_top" xlink:title="INR_NAPI_poll_5">
<polygon fill="white" stroke="black" points="630,-222.461 630,-241.461 725,-241.461 725,-222.461 630,-222.461"/>
<text text-anchor="middle" x="677.5" y="-229.461" font-family="Helvetica,sans-Serif" font-size="10.00">INR_NAPI_poll_5</text>
</a>
</g>
</g>
<!-- Node4&#45;&gt;Node20 -->
<g id="edge29" class="edge"><title>Node4&#45;&gt;Node20</title>
<path fill="none" stroke="midnightblue" d="M558.038,-304.59C575.314,-288.033 600.608,-265.858 626,-250.961 632.221,-247.312 639.269,-244.138 646.083,-241.485"/>
<polygon fill="midnightblue" stroke="midnightblue" points="555.406,-302.267 550.693,-311.756 560.295,-307.278 555.406,-302.267"/>
</g>
<!-- Node21 -->
<g id="node21" class="node"><title>Node21</title>
<g id="a_node21"><a xlink:href="../../d1/d67/_i_n_r-_n_a_p_i_8c.html#a2a63c16bad3fb8de0dacd9bb0b02a40f" target="_top" xlink:title="INR_NAPI_poll_6">
<polygon fill="white" stroke="black" points="630,-184.461 630,-203.461 725,-203.461 725,-184.461 630,-184.461"/>
<text text-anchor="middle" x="677.5" y="-191.461" font-family="Helvetica,sans-Serif" font-size="10.00">INR_NAPI_poll_6</text>
</a>
</g>
</g>
<!-- Node4&#45;&gt;Node21 -->
<g id="edge31" class="edge"><title>Node4&#45;&gt;Node21</title>
<path fill="none" stroke="midnightblue" d="M549.364,-303.186C564.81,-277.66 592.457,-237.478 626,-212.961 631.143,-209.203 637.116,-206.1 643.117,-203.57"/>
<polygon fill="midnightblue" stroke="midnightblue" points="546.307,-301.48 544.238,-311.871 552.335,-305.039 546.307,-301.48"/>
</g>
<!-- Node22 -->
<g id="node22" class="node"><title>Node22</title>
<g id="a_node22"><a xlink:href="../../d1/d67/_i_n_r-_n_a_p_i_8c.html#a05cb8dc7168c07cf8755dc8e4075caba" target="_top" xlink:title="INR_NAPI_poll_7">
<polygon fill="white" stroke="black" points="630,-146.461 630,-165.461 725,-165.461 725,-146.461 630,-146.461"/>
<text text-anchor="middle" x="677.5" y="-153.461" font-family="Helvetica,sans-Serif" font-size="10.00">INR_NAPI_poll_7</text>
</a>
</g>
</g>
<!-- Node4&#45;&gt;Node22 -->
<g id="edge33" class="edge"><title>Node4&#45;&gt;Node22</title>
<path fill="none" stroke="midnightblue" d="M544.603,-302.278C557.396,-268.968 584.48,-209.793 626,-174.961 630.593,-171.108 636.046,-167.994 641.641,-165.49"/>
<polygon fill="midnightblue" stroke="midnightblue" points="541.293,-301.137 541.091,-311.73 547.855,-303.575 541.293,-301.137"/>
</g>
<!-- Node23 -->
<g id="node23" class="node"><title>Node23</title>
<g id="a_node23"><a xlink:href="../../d1/d67/_i_n_r-_n_a_p_i_8c.html#a56cfbbdff0a9b3fba466a06079b21ed8" target="_top" xlink:title="INR_NAPI_poll_8">
<polygon fill="white" stroke="black" points="630,-108.461 630,-127.461 725,-127.461 725,-108.461 630,-108.461"/>
<text text-anchor="middle" x="677.5" y="-115.461" font-family="Helvetica,sans-Serif" font-size="10.00">INR_NAPI_poll_8</text>
</a>
</g>
</g>
<!-- Node4&#45;&gt;Node23 -->
<g id="edge35" class="edge"><title>Node4&#45;&gt;Node23</title>
<path fill="none" stroke="midnightblue" d="M541.396,-302.058C551.329,-261.922 576.209,-182.804 626,-136.961 630.204,-133.091 635.271,-129.986 640.553,-127.502"/>
<polygon fill="midnightblue" stroke="midnightblue" points="537.98,-301.295 539.084,-311.832 544.792,-302.906 537.98,-301.295"/>
</g>
<!-- Node24 -->
<g id="node24" class="node"><title>Node24</title>
<g id="a_node24"><a xlink:href="../../d1/d67/_i_n_r-_n_a_p_i_8c.html#a7411c18801eb32e892612975b01d604e" target="_top" xlink:title="INR_NAPI_poll_9">
<polygon fill="white" stroke="black" points="630,-70.4613 630,-89.4613 725,-89.4613 725,-70.4613 630,-70.4613"/>
<text text-anchor="middle" x="677.5" y="-77.4613" font-family="Helvetica,sans-Serif" font-size="10.00">INR_NAPI_poll_9</text>
</a>
</g>
</g>
<!-- Node4&#45;&gt;Node24 -->
<g id="edge37" class="edge"><title>Node4&#45;&gt;Node24</title>
<path fill="none" stroke="midnightblue" d="M544.434,-302.373C563.754,-246.567 610.723,-113.994 626,-98.9613 629.939,-95.0849 634.745,-91.9861 639.809,-89.5123"/>
<polygon fill="midnightblue" stroke="midnightblue" points="541.116,-301.259 541.162,-311.854 547.733,-303.542 541.116,-301.259"/>
</g>
<!-- Node25 -->
<g id="node25" class="node"><title>Node25</title>
<g id="a_node25"><a xlink:href="../../dc/dc8/_i_n_r-_p_c_i_8c.html#a1c0927891fa571e8aec98ebe5fd266f6" target="_top" xlink:title="XPCIe_IRQHandler">
<polygon fill="white" stroke="black" points="626,-32.4613 626,-51.4613 729,-51.4613 729,-32.4613 626,-32.4613"/>
<text text-anchor="middle" x="677.5" y="-39.4613" font-family="Helvetica,sans-Serif" font-size="10.00">XPCIe_IRQHandler</text>
</a>
</g>
</g>
<!-- Node4&#45;&gt;Node25 -->
<g id="edge39" class="edge"><title>Node4&#45;&gt;Node25</title>
<path fill="none" stroke="midnightblue" d="M544.825,-302.161C555.657,-271.604 574.494,-218.067 590,-171.961 606.532,-122.804 590.185,-98.472 626,-60.9613 629.687,-57.0995 634.236,-54.0155 639.08,-51.5544"/>
<polygon fill="midnightblue" stroke="midnightblue" points="541.522,-301.004 541.476,-311.599 548.119,-303.346 541.522,-301.004"/>
</g>
<!-- Node6 -->
<g id="node6" class="node"><title>Node6</title>
<g id="a_node6"><a xlink:href="../../d1/d67/_i_n_r-_n_a_p_i_8c.html#a4d6b9bd7496ab1a6ae8d17e5889d6adb" target="_top" xlink:title="INR_NAPI_init">
<polygon fill="white" stroke="black" points="766,-336.461 766,-355.461 848,-355.461 848,-336.461 766,-336.461"/>
<text text-anchor="middle" x="807" y="-343.461" font-family="Helvetica,sans-Serif" font-size="10.00">INR_NAPI_init</text>
</a>
</g>
</g>
<!-- Node5&#45;&gt;Node6 -->
<g id="edge5" class="edge"><title>Node5&#45;&gt;Node6</title>
<path fill="none" stroke="midnightblue" d="M725.075,-634.692C726.472,-633.538 727.788,-632.296 729,-630.961 805.332,-546.928 807.218,-394.952 806.341,-355.516"/>
<polygon fill="midnightblue" stroke="midnightblue" points="722.802,-631.997 716.349,-640.401 726.634,-637.855 722.802,-631.997"/>
</g>
<!-- Node7 -->
<g id="node7" class="node"><title>Node7</title>
<g id="a_node7"><a xlink:href="../../dc/dc8/_i_n_r-_p_c_i_8c.html#a63ce64abfe6217358041ed07e918a398" target="_top" xlink:title="INR_init_drv">
<polygon fill="white" stroke="black" points="885,-32.4613 885,-51.4613 956,-51.4613 956,-32.4613 885,-32.4613"/>
<text text-anchor="middle" x="920.5" y="-39.4613" font-family="Helvetica,sans-Serif" font-size="10.00">INR_init_drv</text>
</a>
</g>
</g>
<!-- Node6&#45;&gt;Node7 -->
<g id="edge6" class="edge"><title>Node6&#45;&gt;Node7</title>
<path fill="none" stroke="midnightblue" d="M815.074,-326.674C836.52,-268.202 900.299,-94.3109 915.985,-51.5437"/>
<polygon fill="midnightblue" stroke="midnightblue" points="811.741,-325.597 811.584,-336.191 818.313,-328.008 811.741,-325.597"/>
</g>
<!-- Node8 -->
<g id="node8" class="node"><title>Node8</title>
<g id="a_node8"><a xlink:href="../../d0/d29/main_8c.html#a1f2bd07aac6fb1d9a27f635dac28669b" target="_top" xlink:title="probe">
<polygon fill="white" stroke="black" points="992,-32.4613 992,-51.4613 1033,-51.4613 1033,-32.4613 992,-32.4613"/>
<text text-anchor="middle" x="1012.5" y="-39.4613" font-family="Helvetica,sans-Serif" font-size="10.00">probe</text>
</a>
</g>
</g>
<!-- Node7&#45;&gt;Node8 -->
<g id="edge7" class="edge"><title>Node7&#45;&gt;Node8</title>
<path fill="none" stroke="midnightblue" d="M966.123,-41.9613C975.131,-41.9613 984.159,-41.9613 991.763,-41.9613"/>
<polygon fill="midnightblue" stroke="midnightblue" points="966.039,-38.4614 956.039,-41.9613 966.039,-45.4614 966.039,-38.4614"/>
</g>
<!-- Node9 -->
<g id="node9" class="node"><title>Node9</title>
<g id="a_node9"><a xlink:href="../../d0/d29/main_8c.html#a28d5841b26c9924ab02d6adb235e9848" target="_top" xlink:title="remove">
<polygon fill="white" stroke="black" points="1069,-32.4613 1069,-51.4613 1118,-51.4613 1118,-32.4613 1069,-32.4613"/>
<text text-anchor="middle" x="1093.5" y="-39.4613" font-family="Helvetica,sans-Serif" font-size="10.00">remove</text>
</a>
</g>
</g>
<!-- Node8&#45;&gt;Node9 -->
<g id="edge8" class="edge"><title>Node8&#45;&gt;Node9</title>
<path fill="none" stroke="midnightblue" d="M1043.31,-41.9613C1051.8,-41.9613 1060.92,-41.9613 1068.98,-41.9613"/>
<polygon fill="midnightblue" stroke="midnightblue" points="1043.03,-38.4614 1033.03,-41.9613 1043.03,-45.4614 1043.03,-38.4614"/>
</g>
<!-- Node10&#45;&gt;Node6 -->
<g id="edge10" class="edge"><title>Node10&#45;&gt;Node6</title>
<path fill="none" stroke="midnightblue" d="M724.539,-597.006C726.129,-595.763 727.626,-594.417 729,-592.961 796.523,-521.428 804.869,-391.522 805.871,-355.466"/>
<polygon fill="midnightblue" stroke="midnightblue" points="722.558,-594.117 715.96,-602.406 726.287,-600.041 722.558,-594.117"/>
</g>
<!-- Node11&#45;&gt;Node6 -->
<g id="edge12" class="edge"><title>Node11&#45;&gt;Node6</title>
<path fill="none" stroke="midnightblue" d="M724.362,-558.981C726.008,-557.744 727.564,-556.407 729,-554.961 787.585,-495.972 802.077,-388.651 805.216,-355.788"/>
<polygon fill="midnightblue" stroke="midnightblue" points="722.246,-556.171 715.527,-564.363 725.888,-562.149 722.246,-556.171"/>
</g>
<!-- Node12&#45;&gt;Node6 -->
<g id="edge14" class="edge"><title>Node12&#45;&gt;Node6</title>
<path fill="none" stroke="midnightblue" d="M723.625,-521.283C725.53,-519.961 727.335,-518.524 729,-516.961 779.089,-469.944 798.918,-384.265 804.342,-355.597"/>
<polygon fill="midnightblue" stroke="midnightblue" points="721.7,-518.352 714.772,-526.368 725.187,-524.422 721.7,-518.352"/>
</g>
<!-- Node13&#45;&gt;Node6 -->
<g id="edge16" class="edge"><title>Node13&#45;&gt;Node6</title>
<path fill="none" stroke="midnightblue" d="M722.664,-483.562C724.899,-482.16 727.03,-480.63 729,-478.961 770.73,-443.603 795.003,-379.587 803.018,-355.484"/>
<polygon fill="midnightblue" stroke="midnightblue" points="720.84,-480.568 713.653,-488.352 724.126,-486.749 720.84,-480.568"/>
</g>
<!-- Node14&#45;&gt;Node6 -->
<g id="edge18" class="edge"><title>Node14&#45;&gt;Node6</title>
<path fill="none" stroke="midnightblue" d="M720.884,-446.001C723.724,-444.469 726.461,-442.793 729,-440.961 762.407,-416.871 789.401,-374.736 800.517,-355.74"/>
<polygon fill="midnightblue" stroke="midnightblue" points="719.118,-442.965 711.58,-450.41 722.115,-449.291 719.118,-442.965"/>
</g>
<!-- Node15&#45;&gt;Node6 -->
<g id="edge20" class="edge"><title>Node15&#45;&gt;Node6</title>
<path fill="none" stroke="midnightblue" d="M717.322,-408.624C721.337,-406.871 725.298,-404.977 729,-402.961 754.418,-389.124 780.855,-367.764 795.184,-355.5"/>
<polygon fill="midnightblue" stroke="midnightblue" points="715.89,-405.428 707.955,-412.449 718.536,-411.909 715.89,-405.428"/>
</g>
<!-- Node16&#45;&gt;Node6 -->
<g id="edge22" class="edge"><title>Node16&#45;&gt;Node6</title>
<path fill="none" stroke="midnightblue" d="M720.559,-371.426C737.904,-366.257 757.681,-360.362 773.837,-355.547"/>
<polygon fill="midnightblue" stroke="midnightblue" points="719.257,-368.162 710.674,-374.372 721.257,-374.87 719.257,-368.162"/>
</g>
<!-- Node17&#45;&gt;Node6 -->
<g id="edge24" class="edge"><title>Node17&#45;&gt;Node6</title>
<path fill="none" stroke="midnightblue" d="M735.434,-345.961C745.737,-345.961 756.28,-345.961 765.97,-345.961"/>
<polygon fill="midnightblue" stroke="midnightblue" points="735.252,-342.461 725.252,-345.961 735.252,-349.461 735.252,-342.461"/>
</g>
<!-- Node18&#45;&gt;Node6 -->
<g id="edge26" class="edge"><title>Node18&#45;&gt;Node6</title>
<path fill="none" stroke="midnightblue" d="M720.559,-320.497C737.904,-325.666 757.681,-331.56 773.837,-336.375"/>
<polygon fill="midnightblue" stroke="midnightblue" points="721.257,-317.052 710.674,-317.55 719.257,-323.761 721.257,-317.052"/>
</g>
<!-- Node19&#45;&gt;Node6 -->
<g id="edge28" class="edge"><title>Node19&#45;&gt;Node6</title>
<path fill="none" stroke="midnightblue" d="M717.322,-283.299C721.337,-285.052 725.298,-286.946 729,-288.961 754.418,-302.799 780.855,-324.159 795.184,-336.422"/>
<polygon fill="midnightblue" stroke="midnightblue" points="718.536,-280.014 707.955,-279.474 715.89,-286.494 718.536,-280.014"/>
</g>
<!-- Node20&#45;&gt;Node6 -->
<g id="edge30" class="edge"><title>Node20&#45;&gt;Node6</title>
<path fill="none" stroke="midnightblue" d="M720.884,-245.922C723.724,-247.453 726.461,-249.13 729,-250.961 762.407,-275.052 789.401,-317.187 800.517,-336.183"/>
<polygon fill="midnightblue" stroke="midnightblue" points="722.115,-242.632 711.58,-241.513 719.118,-248.958 722.115,-242.632"/>
</g>
<!-- Node21&#45;&gt;Node6 -->
<g id="edge32" class="edge"><title>Node21&#45;&gt;Node6</title>
<path fill="none" stroke="midnightblue" d="M722.664,-208.361C724.899,-209.762 727.03,-211.292 729,-212.961 770.73,-248.32 795.003,-312.336 803.018,-336.439"/>
<polygon fill="midnightblue" stroke="midnightblue" points="724.126,-205.174 713.653,-203.571 720.84,-211.355 724.126,-205.174"/>
</g>
<!-- Node22&#45;&gt;Node6 -->
<g id="edge34" class="edge"><title>Node22&#45;&gt;Node6</title>
<path fill="none" stroke="midnightblue" d="M723.625,-170.64C725.53,-171.961 727.335,-173.399 729,-174.961 779.089,-221.978 798.918,-307.657 804.342,-336.326"/>
<polygon fill="midnightblue" stroke="midnightblue" points="725.187,-167.5 714.772,-165.555 721.7,-173.57 725.187,-167.5"/>
</g>
<!-- Node23&#45;&gt;Node6 -->
<g id="edge36" class="edge"><title>Node23&#45;&gt;Node6</title>
<path fill="none" stroke="midnightblue" d="M724.362,-132.942C726.008,-134.179 727.564,-135.516 729,-136.961 787.585,-195.95 802.077,-303.272 805.216,-336.135"/>
<polygon fill="midnightblue" stroke="midnightblue" points="725.888,-129.773 715.527,-127.559 722.246,-135.751 725.888,-129.773"/>
</g>
<!-- Node24&#45;&gt;Node6 -->
<g id="edge38" class="edge"><title>Node24&#45;&gt;Node6</title>
<path fill="none" stroke="midnightblue" d="M724.539,-94.9169C726.129,-96.1599 727.626,-97.5053 729,-98.9613 796.523,-170.495 804.869,-300.4 805.871,-336.457"/>
<polygon fill="midnightblue" stroke="midnightblue" points="726.287,-91.8818 715.96,-89.5163 722.558,-97.8057 726.287,-91.8818"/>
</g>
<!-- Node26 -->
<g id="node26" class="node"><title>Node26</title>
<g id="a_node26"><a xlink:href="../../dc/dc8/_i_n_r-_p_c_i_8c.html#af7926b059a794041b841cda82ea84ca9" target="_top" xlink:title="INR_int_enable">
<polygon fill="white" stroke="black" points="765,-32.4613 765,-51.4613 849,-51.4613 849,-32.4613 765,-32.4613"/>
<text text-anchor="middle" x="807" y="-39.4613" font-family="Helvetica,sans-Serif" font-size="10.00">INR_int_enable</text>
</a>
</g>
</g>
<!-- Node25&#45;&gt;Node26 -->
<g id="edge40" class="edge"><title>Node25&#45;&gt;Node26</title>
<path fill="none" stroke="midnightblue" d="M739.328,-41.9613C747.967,-41.9613 756.677,-41.9613 764.823,-41.9613"/>
<polygon fill="midnightblue" stroke="midnightblue" points="739.258,-38.4614 729.258,-41.9613 739.258,-45.4614 739.258,-38.4614"/>
</g>
<!-- Node26&#45;&gt;Node7 -->
<g id="edge41" class="edge"><title>Node26&#45;&gt;Node7</title>
<path fill="none" stroke="midnightblue" d="M859.209,-41.9613C867.833,-41.9613 876.603,-41.9613 884.687,-41.9613"/>
<polygon fill="midnightblue" stroke="midnightblue" points="859.202,-38.4614 849.202,-41.9613 859.202,-45.4614 859.202,-38.4614"/>
</g>
<!-- Node27&#45;&gt;Node7 -->
<g id="edge43" class="edge"><title>Node27&#45;&gt;Node7</title>
<path fill="none" stroke="midnightblue" d="M542.668,-133.635C554.235,-103.528 581.173,-46.4485 626,-22.9613 715.78,24.0792 842.792,-13.2532 895.319,-32.3968"/>
<polygon fill="midnightblue" stroke="midnightblue" points="539.247,-132.801 539.098,-143.395 545.82,-135.206 539.247,-132.801"/>
</g>
</g>
</svg>
        <g id="navigator" transform="translate(0 0)" fill="#404254">
                <rect fill="#f2f5e9" fill-opacity="0.5" stroke="#606060" stroke-width=".5" x="0" y="0" width="60" height="60"/>
                <use id="zoomplus" xlink:href="#zoomPlus" x="17" y="9" onmousedown="handleZoom(evt,'in')"/>
                <use id="zoomminus" xlink:href="#zoomMin" x="42" y="9" onmousedown="handleZoom(evt,'out')"/>
                <use id="reset" xlink:href="#resetDef" x="30" y="36" onmousedown="handleReset()"/>
                <g id="arrowUp" xlink:href="#dirArrow" transform="translate(30 24)" onmousedown="handlePan(0,-1)">
                  <use xlink:href="#rim" fill="#404040">
                        <set attributeName="fill" to="#808080" begin="arrowUp.mouseover" end="arrowUp.mouseout"/>
                  </use>
                  <path fill="none" stroke="white" stroke-width="1.5" d="M0,-3.0v7 M-2.5,-0.5L0,-3.0L2.5,-0.5"/>
                </g>
                <g id="arrowRight" xlink:href="#dirArrow" transform="rotate(90) translate(36 -43)" onmousedown="handlePan(1,0)">
                  <use xlink:href="#rim" fill="#404040">
                        <set attributeName="fill" to="#808080" begin="arrowRight.mouseover" end="arrowRight.mouseout"/>
                  </use>
                  <path fill="none" stroke="white" stroke-width="1.5" d="M0,-3.0v7 M-2.5,-0.5L0,-3.0L2.5,-0.5"/>
                </g>
                <g id="arrowDown" xlink:href="#dirArrow" transform="rotate(180) translate(-30 -48)" onmousedown="handlePan(0,1)">
                  <use xlink:href="#rim" fill="#404040">
                        <set attributeName="fill" to="#808080" begin="arrowDown.mouseover" end="arrowDown.mouseout"/>
                  </use>
                  <path fill="none" stroke="white" stroke-width="1.5" d="M0,-3.0v7 M-2.5,-0.5L0,-3.0L2.5,-0.5"/>
                </g>
                <g id="arrowLeft" xlink:href="#dirArrow" transform="rotate(270) translate(-36 17)" onmousedown="handlePan(-1,0)">
                  <use xlink:href="#rim" fill="#404040">
                        <set attributeName="fill" to="#808080" begin="arrowLeft.mouseover" end="arrowLeft.mouseout"/>
                  </use>
                  <path fill="none" stroke="white" stroke-width="1.5" d="M0,-3.0v7 M-2.5,-0.5L0,-3.0L2.5,-0.5"/>
                </g>
        </g>
        <svg viewBox="0 0 15 15" width="100%" height="30px" preserveAspectRatio="xMaxYMin meet">
         <g id="arrow_out" transform="scale(0.3 0.3)">
          <a xlink:href="_i_n_r-_p_c_i_8c_a53c4912b34d834dc1a712266274806ed_icgraph_org.svg" target="_base">
           <rect id="button" ry="5" rx="5" y="6" x="6" height="38" width="38"
                fill="#f2f5e9" fill-opacity="0.5" stroke="#606060" stroke-width="1.0"/>
           <path id="arrow"
             d="M 11.500037,31.436501 C 11.940474,20.09759 22.043105,11.32322 32.158766,21.979434 L 37.068811,17.246167 C 37.068811,17.246167 37.088388,32 37.088388,32 L 22.160133,31.978069 C 22.160133,31.978069 26.997745,27.140456 26.997745,27.140456 C 18.528582,18.264221 13.291696,25.230495 11.500037,31.436501 z"
             style="fill:#404040;"/>
          </a>
         </g>
        </svg>
</svg>
