<?xml version="1.0" encoding="UTF-8" standalone="no"?>
<!DOCTYPE svg PUBLIC "-//W3C//DTD SVG 1.1//EN"
 "http://www.w3.org/Graphics/SVG/1.1/DTD/svg11.dtd">
<!-- Generated by graphviz version 2.38.0 (20140413.2041)
 -->
<!-- Title: INR_PCI_alloc_new_rx_skb Pages: 1 -->
<svg width="580pt" height="61pt"
 viewBox="0.00 0.00 580.00 61.00" xmlns="http://www.w3.org/2000/svg" xmlns:xlink="http://www.w3.org/1999/xlink">
<g id="graph0" class="graph" transform="scale(1 1) rotate(0) translate(4 57)">
<title>INR_PCI_alloc_new_rx_skb</title>
<polygon fill="white" stroke="none" points="-4,4 -4,-57 576,-57 576,4 -4,4"/>
<!-- Node1 -->
<g id="node1" class="node"><title>Node1</title>
<polygon fill="#bfbfbf" stroke="black" points="0,-6 0,-25 140,-25 140,-6 0,-6"/>
<text text-anchor="middle" x="70" y="-13" font-family="Helvetica,sans-Serif" font-size="10.00">INR_PCI_alloc_new_rx_skb</text>
</g>
<!-- Node2 -->
<g id="node2" class="node"><title>Node2</title>
<g id="a_node2"><a xlink:href="../../dc/dc8/_i_n_r-_p_c_i_8c.html#af88a9db4ef6451751a395e1207fd7066" target="_top" xlink:title="INR_PCI_get_new_rx\l_descriptor_ring_entry">
<polygon fill="white" stroke="black" points="176,-0.5 176,-30.5 289,-30.5 289,-0.5 176,-0.5"/>
<text text-anchor="start" x="184" y="-18.5" font-family="Helvetica,sans-Serif" font-size="10.00">INR_PCI_get_new_rx</text>
<text text-anchor="middle" x="232.5" y="-7.5" font-family="Helvetica,sans-Serif" font-size="10.00">_descriptor_ring_entry</text>
</a>
</g>
</g>
<!-- Node1&#45;&gt;Node2 -->
<g id="edge1" class="edge"><title>Node1&#45;&gt;Node2</title>
<path fill="none" stroke="midnightblue" d="M140.464,-15.5C148.897,-15.5 157.491,-15.5 165.865,-15.5"/>
<polygon fill="midnightblue" stroke="midnightblue" points="165.945,-19.0001 175.945,-15.5 165.945,-12.0001 165.945,-19.0001"/>
</g>
<!-- Node3 -->
<g id="node3" class="node"><title>Node3</title>
<g id="a_node3"><a xlink:href="../../dc/dc8/_i_n_r-_p_c_i_8c.html#adbea73204b38d31f4b80feb56a27b810" target="_top" xlink:title="INR_PCI_rx_descriptor\l_pool_refill">
<polygon fill="white" stroke="black" points="325,-22.5 325,-52.5 444,-52.5 444,-22.5 325,-22.5"/>
<text text-anchor="start" x="333" y="-40.5" font-family="Helvetica,sans-Serif" font-size="10.00">INR_PCI_rx_descriptor</text>
<text text-anchor="middle" x="384.5" y="-29.5" font-family="Helvetica,sans-Serif" font-size="10.00">_pool_refill</text>
</a>
</g>
</g>
<!-- Node2&#45;&gt;Node3 -->
<g id="edge2" class="edge"><title>Node2&#45;&gt;Node3</title>
<path fill="none" stroke="midnightblue" d="M289.354,-23.692C297.676,-24.9125 306.335,-26.1825 314.882,-27.4361"/>
<polygon fill="midnightblue" stroke="midnightblue" points="314.436,-30.908 324.838,-28.8963 315.452,-23.9821 314.436,-30.908"/>
</g>
<!-- Node4 -->
<g id="node4" class="node"><title>Node4</title>
<g id="a_node4"><a xlink:href="../../d3/d3a/_i_n_r_8c.html#a549bff83219b80ccf76c695682e37707" target="_top" xlink:title="INR_LOG_debug">
<polygon fill="white" stroke="black" points="480,-6 480,-25 572,-25 572,-6 480,-6"/>
<text text-anchor="middle" x="526" y="-13" font-family="Helvetica,sans-Serif" font-size="10.00">INR_LOG_debug</text>
</a>
</g>
</g>
<!-- Node2&#45;&gt;Node4 -->
<g id="edge4" class="edge"><title>Node2&#45;&gt;Node4</title>
<path fill="none" stroke="midnightblue" d="M289.142,-14.0894C300.978,-13.8438 313.402,-13.6267 325,-13.5 377.886,-12.9221 391.115,-12.8472 444,-13.5 452.2,-13.6012 460.866,-13.7601 469.36,-13.945"/>
<polygon fill="midnightblue" stroke="midnightblue" points="469.515,-17.4494 479.593,-14.1815 469.676,-10.4513 469.515,-17.4494"/>
</g>
<!-- Node3&#45;&gt;Node4 -->
<g id="edge3" class="edge"><title>Node3&#45;&gt;Node4</title>
<path fill="none" stroke="midnightblue" d="M444.256,-28.2338C452.726,-26.898 461.418,-25.5272 469.815,-24.203"/>
<polygon fill="midnightblue" stroke="midnightblue" points="470.544,-27.6313 479.877,-22.6162 469.454,-20.7168 470.544,-27.6313"/>
</g>
</g>
</svg>
