<?xml version="1.0" encoding="UTF-8" standalone="no"?>
<!DOCTYPE svg PUBLIC "-//W3C//DTD SVG 1.1//EN"
 "http://www.w3.org/Graphics/SVG/1.1/DTD/svg11.dtd">
<!-- Generated by graphviz version 2.38.0 (20140413.2041)
 -->
<!-- Title: INR_PCI_get_new_rx_descriptor_ring_entry Pages: 1 -->
<svg width="404pt" height="61pt"
 viewBox="0.00 0.00 404.00 61.00" xmlns="http://www.w3.org/2000/svg" xmlns:xlink="http://www.w3.org/1999/xlink">
<g id="graph0" class="graph" transform="scale(1 1) rotate(0) translate(4 57)">
<title>INR_PCI_get_new_rx_descriptor_ring_entry</title>
<polygon fill="white" stroke="none" points="-4,4 -4,-57 400,-57 400,4 -4,4"/>
<!-- Node1 -->
<g id="node1" class="node"><title>Node1</title>
<polygon fill="#bfbfbf" stroke="black" points="0,-22.5 0,-52.5 113,-52.5 113,-22.5 0,-22.5"/>
<text text-anchor="start" x="8" y="-40.5" font-family="Helvetica,sans-Serif" font-size="10.00">INR_PCI_get_new_rx</text>
<text text-anchor="middle" x="56.5" y="-29.5" font-family="Helvetica,sans-Serif" font-size="10.00">_descriptor_ring_entry</text>
</g>
<!-- Node2 -->
<g id="node2" class="node"><title>Node2</title>
<g id="a_node2"><a xlink:href="../../d3/d3a/_i_n_r_8c.html#a549bff83219b80ccf76c695682e37707" target="_top" xlink:title="INR_LOG_debug">
<polygon fill="white" stroke="black" points="304,-28 304,-47 396,-47 396,-28 304,-28"/>
<text text-anchor="middle" x="350" y="-35" font-family="Helvetica,sans-Serif" font-size="10.00">INR_LOG_debug</text>
</a>
</g>
</g>
<!-- Node1&#45;&gt;Node2 -->
<g id="edge1" class="edge"><title>Node1&#45;&gt;Node2</title>
<path fill="none" stroke="midnightblue" d="M113.138,-39.6158C124.974,-39.9842 137.399,-40.3099 149,-40.5 201.882,-41.3667 215.12,-41.4789 268,-40.5 276.202,-40.3482 284.869,-40.1099 293.364,-39.8325"/>
<polygon fill="midnightblue" stroke="midnightblue" points="293.725,-43.3222 303.598,-39.4778 293.482,-36.3264 293.725,-43.3222"/>
</g>
<!-- Node3 -->
<g id="node3" class="node"><title>Node3</title>
<g id="a_node3"><a xlink:href="../../dc/dc8/_i_n_r-_p_c_i_8c.html#adbea73204b38d31f4b80feb56a27b810" target="_top" xlink:title="INR_PCI_rx_descriptor\l_pool_refill">
<polygon fill="white" stroke="black" points="149,-0.5 149,-30.5 268,-30.5 268,-0.5 149,-0.5"/>
<text text-anchor="start" x="157" y="-18.5" font-family="Helvetica,sans-Serif" font-size="10.00">INR_PCI_rx_descriptor</text>
<text text-anchor="middle" x="208.5" y="-7.5" font-family="Helvetica,sans-Serif" font-size="10.00">_pool_refill</text>
</a>
</g>
</g>
<!-- Node1&#45;&gt;Node3 -->
<g id="edge2" class="edge"><title>Node1&#45;&gt;Node3</title>
<path fill="none" stroke="midnightblue" d="M113.354,-29.308C121.676,-28.0875 130.335,-26.8175 138.882,-25.5639"/>
<polygon fill="midnightblue" stroke="midnightblue" points="139.452,-29.0179 148.838,-24.1037 138.436,-22.092 139.452,-29.0179"/>
</g>
<!-- Node3&#45;&gt;Node2 -->
<g id="edge3" class="edge"><title>Node3&#45;&gt;Node2</title>
<path fill="none" stroke="midnightblue" d="M268.256,-24.7662C276.726,-26.102 285.418,-27.4728 293.815,-28.797"/>
<polygon fill="midnightblue" stroke="midnightblue" points="293.454,-32.2832 303.877,-30.3838 294.544,-25.3687 293.454,-32.2832"/>
</g>
</g>
</svg>
