<?xml version="1.0" encoding="UTF-8" standalone="no"?>
<!DOCTYPE svg PUBLIC "-//W3C//DTD SVG 1.1//EN"
 "http://www.w3.org/Graphics/SVG/1.1/DTD/svg11.dtd">
<!-- Generated by graphviz version 2.38.0 (20140413.2041)
 -->
<!-- Title: INR_PCI_get_new_rx_descriptor_ring_entry Pages: 1 -->
<!--zoomable 668 -->
<svg id="main" version="1.1" xmlns="http://www.w3.org/2000/svg" xmlns:xlink="http://www.w3.org/1999/xlink" xml:space="preserve" onload="init(evt)">
<style type="text/css"><![CDATA[
.edge:hover path { stroke: red; }
.edge:hover polygon { stroke: red; fill: red; }
]]></style>
<script type="text/javascript"><![CDATA[
var edges = document.getElementsByTagName('g');
if (edges && edges.length) {
  for (var i=0;i<edges.length;i++) {
    if (edges[i].id.substr(0,4)=='edge') {
      edges[i].setAttribute('class','edge');
    }
  }
}
]]></script>
        <defs>
                <circle id="rim" cx="0" cy="0" r="7"/>
                <circle id="rim2" cx="0" cy="0" r="3.5"/>
                <g id="zoomPlus">
                        <use xlink:href="#rim" fill="#404040">
                                <set attributeName="fill" to="#808080" begin="zoomplus.mouseover" end="zoomplus.mouseout"/>
                        </use>
                        <path d="M-4,0h8M0,-4v8" fill="none" stroke="white" stroke-width="1.5" pointer-events="none"/>
                </g>
                <g id="zoomMin">
                        <use xlink:href="#rim" fill="#404040">
                                <set attributeName="fill" to="#808080" begin="zoomminus.mouseover" end="zoomminus.mouseout"/>
                        </use>
                        <path d="M-4,0h8" fill="none" stroke="white" stroke-width="1.5" pointer-events="none"/>
                </g>
                <g id="dirArrow">
                        <path fill="none" stroke="white" stroke-width="1.5" d="M0,-3.0v7 M-2.5,-0.5L0,-3.0L2.5,-0.5"/>
                </g>
               <g id="resetDef">
                       <use xlink:href="#rim2" fill="#404040">
                               <set attributeName="fill" to="#808080" begin="reset.mouseover" end="reset.mouseout"/>
                       </use>
               </g>
        </defs>

<script type="text/javascript">
var viewWidth = 971;
var viewHeight = 668;
var sectionId = 'dynsection-8';
</script>
<script xlink:href="../../svgpan.js"/>
<svg id="graph" class="graph">
<g id="viewport">
<title>INR_PCI_get_new_rx_descriptor_ring_entry</title>
<polygon fill="white" stroke="none" points="-4,4 -4,-663.961 967,-663.961 967,4 -4,4"/>
<!-- Node1 -->
<g id="node1" class="node"><title>Node1</title>
<polygon fill="#bfbfbf" stroke="black" points="0,-224.961 0,-254.961 113,-254.961 113,-224.961 0,-224.961"/>
<text text-anchor="start" x="8" y="-242.961" font-family="Helvetica,sans-Serif" font-size="10.00">INR_PCI_get_new_rx</text>
<text text-anchor="middle" x="56.5" y="-231.961" font-family="Helvetica,sans-Serif" font-size="10.00">_descriptor_ring_entry</text>
</g>
<!-- Node2 -->
<g id="node2" class="node"><title>Node2</title>
<g id="a_node2"><a xlink:href="../../df/df2/_i_n_r-_p_c_i_8h.html#a03f960f01f96c2f664301c6830461c7f" target="_top" xlink:title="INR_PCI_alloc_new_rx_skb">
<polygon fill="white" stroke="black" points="149,-230.461 149,-249.461 289,-249.461 289,-230.461 149,-230.461"/>
<text text-anchor="middle" x="219" y="-237.461" font-family="Helvetica,sans-Serif" font-size="10.00">INR_PCI_alloc_new_rx_skb</text>
</a>
</g>
</g>
<!-- Node1&#45;&gt;Node2 -->
<g id="edge1" class="edge"><title>Node1&#45;&gt;Node2</title>
<path fill="none" stroke="midnightblue" d="M123.317,-239.961C131.734,-239.961 140.369,-239.961 148.837,-239.961"/>
<polygon fill="midnightblue" stroke="midnightblue" points="123.185,-236.461 113.185,-239.961 123.185,-243.461 123.185,-236.461"/>
</g>
<!-- Node3 -->
<g id="node3" class="node"><title>Node3</title>
<g id="a_node3"><a xlink:href="../../df/df2/_i_n_r-_p_c_i_8h.html#a317b7c374854b88af0059ff2a3708ce9" target="_top" xlink:title="INR_PCI_process_rx\l_descriptor_ring">
<polygon fill="white" stroke="black" points="325,-311.961 325,-341.961 435,-341.961 435,-311.961 325,-311.961"/>
<text text-anchor="start" x="333" y="-329.961" font-family="Helvetica,sans-Serif" font-size="10.00">INR_PCI_process_rx</text>
<text text-anchor="middle" x="380" y="-318.961" font-family="Helvetica,sans-Serif" font-size="10.00">_descriptor_ring</text>
</a>
</g>
</g>
<!-- Node2&#45;&gt;Node3 -->
<g id="edge2" class="edge"><title>Node2&#45;&gt;Node3</title>
<path fill="none" stroke="midnightblue" d="M246.401,-254.407C275.456,-270.305 321.945,-295.742 351.45,-311.887"/>
<polygon fill="midnightblue" stroke="midnightblue" points="248.076,-251.334 237.623,-249.604 244.716,-257.475 248.076,-251.334"/>
</g>
<!-- Node26 -->
<g id="node26" class="node"><title>Node26</title>
<g id="a_node26"><a xlink:href="../../dc/dc8/_i_n_r-_p_c_i_8c.html#a7b6c1bb3d3c608c7a226531d7a6f0965" target="_top" xlink:title="INR_RX_RING_init">
<polygon fill="white" stroke="black" points="328.5,-143.461 328.5,-162.461 431.5,-162.461 431.5,-143.461 328.5,-143.461"/>
<text text-anchor="middle" x="380" y="-150.461" font-family="Helvetica,sans-Serif" font-size="10.00">INR_RX_RING_init</text>
</a>
</g>
</g>
<!-- Node2&#45;&gt;Node26 -->
<g id="edge41" class="edge"><title>Node2&#45;&gt;Node26</title>
<path fill="none" stroke="midnightblue" d="M246.588,-225.413C279.158,-207.592 333.431,-177.896 361.298,-162.647"/>
<polygon fill="midnightblue" stroke="midnightblue" points="244.716,-222.448 237.623,-230.318 248.076,-228.589 244.716,-222.448"/>
</g>
<!-- Node4 -->
<g id="node4" class="node"><title>Node4</title>
<g id="a_node4"><a xlink:href="../../d6/d03/_i_n_r-_n_a_p_i_8h.html#a87ec5cd355cffe8b96296dbb83278bfe" target="_top" xlink:title="INR_NAPI_poll_0">
<polygon fill="white" stroke="black" points="475,-640.461 475,-659.461 570,-659.461 570,-640.461 475,-640.461"/>
<text text-anchor="middle" x="522.5" y="-647.461" font-family="Helvetica,sans-Serif" font-size="10.00">INR_NAPI_poll_0</text>
</a>
</g>
</g>
<!-- Node3&#45;&gt;Node4 -->
<g id="edge3" class="edge"><title>Node3&#45;&gt;Node4</title>
<path fill="none" stroke="midnightblue" d="M381.266,-352.534C383.241,-409.936 395.953,-550.305 471,-630.961 474.637,-634.87 479.158,-637.981 483.989,-640.454"/>
<polygon fill="midnightblue" stroke="midnightblue" points="384.756,-352.108 380.999,-342.202 377.759,-352.289 384.756,-352.108"/>
</g>
<!-- Node9 -->
<g id="node9" class="node"><title>Node9</title>
<g id="a_node9"><a xlink:href="../../d6/d03/_i_n_r-_n_a_p_i_8h.html#a938e6a3d06b11a5dc3da541a5d05c0b2" target="_top" xlink:title="INR_NAPI_poll_1">
<polygon fill="white" stroke="black" points="475,-602.461 475,-621.461 570,-621.461 570,-602.461 475,-602.461"/>
<text text-anchor="middle" x="522.5" y="-609.461" font-family="Helvetica,sans-Serif" font-size="10.00">INR_NAPI_poll_1</text>
</a>
</g>
</g>
<!-- Node3&#45;&gt;Node9 -->
<g id="edge8" class="edge"><title>Node3&#45;&gt;Node9</title>
<path fill="none" stroke="midnightblue" d="M382.532,-352.212C387.015,-404.201 404.401,-524.086 471,-592.961 474.777,-596.867 479.434,-599.978 484.38,-602.455"/>
<polygon fill="midnightblue" stroke="midnightblue" points="386.018,-351.892 381.758,-342.191 379.039,-352.431 386.018,-351.892"/>
</g>
<!-- Node10 -->
<g id="node10" class="node"><title>Node10</title>
<g id="a_node10"><a xlink:href="../../d6/d03/_i_n_r-_n_a_p_i_8h.html#ae6bc59b863b3928700468d13efd23e27" target="_top" xlink:title="INR_NAPI_poll_2">
<polygon fill="white" stroke="black" points="475,-564.461 475,-583.461 570,-583.461 570,-564.461 475,-564.461"/>
<text text-anchor="middle" x="522.5" y="-571.461" font-family="Helvetica,sans-Serif" font-size="10.00">INR_NAPI_poll_2</text>
</a>
</g>
</g>
<!-- Node3&#45;&gt;Node10 -->
<g id="edge10" class="edge"><title>Node3&#45;&gt;Node10</title>
<path fill="none" stroke="midnightblue" d="M384.183,-352.104C391.337,-398.434 412.871,-497.761 471,-554.961 474.939,-558.838 479.745,-561.937 484.809,-564.41"/>
<polygon fill="midnightblue" stroke="midnightblue" points="387.622,-351.429 382.729,-342.032 380.694,-352.43 387.622,-351.429"/>
</g>
<!-- Node11 -->
<g id="node11" class="node"><title>Node11</title>
<g id="a_node11"><a xlink:href="../../d6/d03/_i_n_r-_n_a_p_i_8h.html#a7888221fd9575d7e7aae78ed125d8646" target="_top" xlink:title="INR_NAPI_poll_3">
<polygon fill="white" stroke="black" points="475,-526.461 475,-545.461 570,-545.461 570,-526.461 475,-526.461"/>
<text text-anchor="middle" x="522.5" y="-533.461" font-family="Helvetica,sans-Serif" font-size="10.00">INR_NAPI_poll_3</text>
</a>
</g>
</g>
<!-- Node3&#45;&gt;Node11 -->
<g id="edge12" class="edge"><title>Node3&#45;&gt;Node11</title>
<path fill="none" stroke="midnightblue" d="M386.396,-351.865C396.329,-392.001 421.209,-471.118 471,-516.961 475.204,-520.832 480.271,-523.936 485.553,-526.421"/>
<polygon fill="midnightblue" stroke="midnightblue" points="389.792,-351.016 384.084,-342.091 382.98,-352.628 389.792,-351.016"/>
</g>
<!-- Node12 -->
<g id="node12" class="node"><title>Node12</title>
<g id="a_node12"><a xlink:href="../../d6/d03/_i_n_r-_n_a_p_i_8h.html#a5e711c1ae61572a4bab9ffefc34d0f34" target="_top" xlink:title="INR_NAPI_poll_4">
<polygon fill="white" stroke="black" points="475,-488.461 475,-507.461 570,-507.461 570,-488.461 475,-488.461"/>
<text text-anchor="middle" x="522.5" y="-495.461" font-family="Helvetica,sans-Serif" font-size="10.00">INR_NAPI_poll_4</text>
</a>
</g>
</g>
<!-- Node3&#45;&gt;Node12 -->
<g id="edge14" class="edge"><title>Node3&#45;&gt;Node12</title>
<path fill="none" stroke="midnightblue" d="M389.603,-351.644C402.396,-384.955 429.48,-444.129 471,-478.961 475.593,-482.814 481.046,-485.928 486.641,-488.432"/>
<polygon fill="midnightblue" stroke="midnightblue" points="392.855,-350.347 386.091,-342.192 386.293,-352.785 392.855,-350.347"/>
</g>
<!-- Node13 -->
<g id="node13" class="node"><title>Node13</title>
<g id="a_node13"><a xlink:href="../../d6/d03/_i_n_r-_n_a_p_i_8h.html#a4c7935fe4ef401ccd186e05e1047748c" target="_top" xlink:title="INR_NAPI_poll_5">
<polygon fill="white" stroke="black" points="475,-450.461 475,-469.461 570,-469.461 570,-450.461 475,-450.461"/>
<text text-anchor="middle" x="522.5" y="-457.461" font-family="Helvetica,sans-Serif" font-size="10.00">INR_NAPI_poll_5</text>
</a>
</g>
</g>
<!-- Node3&#45;&gt;Node13 -->
<g id="edge16" class="edge"><title>Node3&#45;&gt;Node13</title>
<path fill="none" stroke="midnightblue" d="M394.364,-350.737C409.81,-376.263 437.457,-416.444 471,-440.961 476.143,-444.72 482.116,-447.823 488.117,-450.352"/>
<polygon fill="midnightblue" stroke="midnightblue" points="397.335,-348.884 389.238,-342.052 391.307,-352.442 397.335,-348.884"/>
</g>
<!-- Node14 -->
<g id="node14" class="node"><title>Node14</title>
<g id="a_node14"><a xlink:href="../../d6/d03/_i_n_r-_n_a_p_i_8h.html#a2a63c16bad3fb8de0dacd9bb0b02a40f" target="_top" xlink:title="INR_NAPI_poll_6">
<polygon fill="white" stroke="black" points="475,-412.461 475,-431.461 570,-431.461 570,-412.461 475,-412.461"/>
<text text-anchor="middle" x="522.5" y="-419.461" font-family="Helvetica,sans-Serif" font-size="10.00">INR_NAPI_poll_6</text>
</a>
</g>
</g>
<!-- Node3&#45;&gt;Node14 -->
<g id="edge18" class="edge"><title>Node3&#45;&gt;Node14</title>
<path fill="none" stroke="midnightblue" d="M403.038,-349.333C420.314,-365.89 445.608,-388.065 471,-402.961 477.221,-406.611 484.269,-409.784 491.083,-412.437"/>
<polygon fill="midnightblue" stroke="midnightblue" points="405.295,-346.645 395.693,-342.167 400.406,-351.655 405.295,-346.645"/>
</g>
<!-- Node15 -->
<g id="node15" class="node"><title>Node15</title>
<g id="a_node15"><a xlink:href="../../d6/d03/_i_n_r-_n_a_p_i_8h.html#a05cb8dc7168c07cf8755dc8e4075caba" target="_top" xlink:title="INR_NAPI_poll_7">
<polygon fill="white" stroke="black" points="475,-374.461 475,-393.461 570,-393.461 570,-374.461 475,-374.461"/>
<text text-anchor="middle" x="522.5" y="-381.461" font-family="Helvetica,sans-Serif" font-size="10.00">INR_NAPI_poll_7</text>
</a>
</g>
</g>
<!-- Node3&#45;&gt;Node15 -->
<g id="edge20" class="edge"><title>Node3&#45;&gt;Node15</title>
<path fill="none" stroke="midnightblue" d="M425.188,-346.03C439.729,-352.195 456.01,-358.98 471,-364.961 478.917,-368.121 487.587,-371.435 495.474,-374.394"/>
<polygon fill="midnightblue" stroke="midnightblue" points="426.487,-342.779 415.915,-342.083 423.745,-349.22 426.487,-342.779"/>
</g>
<!-- Node16 -->
<g id="node16" class="node"><title>Node16</title>
<g id="a_node16"><a xlink:href="../../d6/d03/_i_n_r-_n_a_p_i_8h.html#a56cfbbdff0a9b3fba466a06079b21ed8" target="_top" xlink:title="INR_NAPI_poll_8">
<polygon fill="white" stroke="black" points="475,-336.461 475,-355.461 570,-355.461 570,-336.461 475,-336.461"/>
<text text-anchor="middle" x="522.5" y="-343.461" font-family="Helvetica,sans-Serif" font-size="10.00">INR_NAPI_poll_8</text>
</a>
</g>
</g>
<!-- Node3&#45;&gt;Node16 -->
<g id="edge22" class="edge"><title>Node3&#45;&gt;Node16</title>
<path fill="none" stroke="midnightblue" d="M445.475,-335.68C455.302,-337.009 465.281,-338.359 474.636,-339.624"/>
<polygon fill="midnightblue" stroke="midnightblue" points="445.7,-332.179 435.321,-334.307 444.762,-339.116 445.7,-332.179"/>
</g>
<!-- Node17 -->
<g id="node17" class="node"><title>Node17</title>
<g id="a_node17"><a xlink:href="../../d6/d03/_i_n_r-_n_a_p_i_8h.html#a7411c18801eb32e892612975b01d604e" target="_top" xlink:title="INR_NAPI_poll_9">
<polygon fill="white" stroke="black" points="475,-298.461 475,-317.461 570,-317.461 570,-298.461 475,-298.461"/>
<text text-anchor="middle" x="522.5" y="-305.461" font-family="Helvetica,sans-Serif" font-size="10.00">INR_NAPI_poll_9</text>
</a>
</g>
</g>
<!-- Node3&#45;&gt;Node17 -->
<g id="edge24" class="edge"><title>Node3&#45;&gt;Node17</title>
<path fill="none" stroke="midnightblue" d="M445.475,-318.242C455.302,-316.913 465.281,-315.564 474.636,-314.299"/>
<polygon fill="midnightblue" stroke="midnightblue" points="444.762,-314.807 435.321,-319.615 445.7,-321.744 444.762,-314.807"/>
</g>
<!-- Node18 -->
<g id="node18" class="node"><title>Node18</title>
<g id="a_node18"><a xlink:href="../../d6/d03/_i_n_r-_n_a_p_i_8h.html#a69ec3410fe5dc7da35e2f6a8d72acdb4" target="_top" xlink:title="INR_NAPI_poll_10">
<polygon fill="white" stroke="black" points="472.5,-260.461 472.5,-279.461 572.5,-279.461 572.5,-260.461 472.5,-260.461"/>
<text text-anchor="middle" x="522.5" y="-267.461" font-family="Helvetica,sans-Serif" font-size="10.00">INR_NAPI_poll_10</text>
</a>
</g>
</g>
<!-- Node3&#45;&gt;Node18 -->
<g id="edge26" class="edge"><title>Node3&#45;&gt;Node18</title>
<path fill="none" stroke="midnightblue" d="M425.188,-307.893C439.729,-301.728 456.01,-294.943 471,-288.961 478.917,-285.802 487.587,-282.488 495.474,-279.528"/>
<polygon fill="midnightblue" stroke="midnightblue" points="423.745,-304.703 415.915,-311.84 426.487,-311.144 423.745,-304.703"/>
</g>
<!-- Node19 -->
<g id="node19" class="node"><title>Node19</title>
<g id="a_node19"><a xlink:href="../../d6/d03/_i_n_r-_n_a_p_i_8h.html#a7b9c6dd796e70895de209d2803e13ccc" target="_top" xlink:title="INR_NAPI_poll_11">
<polygon fill="white" stroke="black" points="472.5,-222.461 472.5,-241.461 572.5,-241.461 572.5,-222.461 472.5,-222.461"/>
<text text-anchor="middle" x="522.5" y="-229.461" font-family="Helvetica,sans-Serif" font-size="10.00">INR_NAPI_poll_11</text>
</a>
</g>
</g>
<!-- Node3&#45;&gt;Node19 -->
<g id="edge28" class="edge"><title>Node3&#45;&gt;Node19</title>
<path fill="none" stroke="midnightblue" d="M403.038,-304.59C420.314,-288.033 445.608,-265.858 471,-250.961 477.221,-247.312 484.269,-244.138 491.083,-241.485"/>
<polygon fill="midnightblue" stroke="midnightblue" points="400.406,-302.267 395.693,-311.756 405.295,-307.278 400.406,-302.267"/>
</g>
<!-- Node20 -->
<g id="node20" class="node"><title>Node20</title>
<g id="a_node20"><a xlink:href="../../d6/d03/_i_n_r-_n_a_p_i_8h.html#a3a1602b0c3f015b8aabd0b978d704493" target="_top" xlink:title="INR_NAPI_poll_12">
<polygon fill="white" stroke="black" points="472.5,-184.461 472.5,-203.461 572.5,-203.461 572.5,-184.461 472.5,-184.461"/>
<text text-anchor="middle" x="522.5" y="-191.461" font-family="Helvetica,sans-Serif" font-size="10.00">INR_NAPI_poll_12</text>
</a>
</g>
</g>
<!-- Node3&#45;&gt;Node20 -->
<g id="edge30" class="edge"><title>Node3&#45;&gt;Node20</title>
<path fill="none" stroke="midnightblue" d="M394.364,-303.186C409.81,-277.66 437.457,-237.478 471,-212.961 476.143,-209.203 482.116,-206.1 488.117,-203.57"/>
<polygon fill="midnightblue" stroke="midnightblue" points="391.307,-301.48 389.238,-311.871 397.335,-305.039 391.307,-301.48"/>
</g>
<!-- Node21 -->
<g id="node21" class="node"><title>Node21</title>
<g id="a_node21"><a xlink:href="../../d6/d03/_i_n_r-_n_a_p_i_8h.html#a2ee390e1624519f6a631b3046c2fbd3f" target="_top" xlink:title="INR_NAPI_poll_13">
<polygon fill="white" stroke="black" points="472.5,-146.461 472.5,-165.461 572.5,-165.461 572.5,-146.461 472.5,-146.461"/>
<text text-anchor="middle" x="522.5" y="-153.461" font-family="Helvetica,sans-Serif" font-size="10.00">INR_NAPI_poll_13</text>
</a>
</g>
</g>
<!-- Node3&#45;&gt;Node21 -->
<g id="edge32" class="edge"><title>Node3&#45;&gt;Node21</title>
<path fill="none" stroke="midnightblue" d="M389.603,-302.278C402.396,-268.968 429.48,-209.793 471,-174.961 475.593,-171.108 481.046,-167.994 486.641,-165.49"/>
<polygon fill="midnightblue" stroke="midnightblue" points="386.293,-301.137 386.091,-311.73 392.855,-303.575 386.293,-301.137"/>
</g>
<!-- Node22 -->
<g id="node22" class="node"><title>Node22</title>
<g id="a_node22"><a xlink:href="../../d6/d03/_i_n_r-_n_a_p_i_8h.html#a2cbf12b9e0e03b3b3862a98784ecc52b" target="_top" xlink:title="INR_NAPI_poll_14">
<polygon fill="white" stroke="black" points="472.5,-108.461 472.5,-127.461 572.5,-127.461 572.5,-108.461 472.5,-108.461"/>
<text text-anchor="middle" x="522.5" y="-115.461" font-family="Helvetica,sans-Serif" font-size="10.00">INR_NAPI_poll_14</text>
</a>
</g>
</g>
<!-- Node3&#45;&gt;Node22 -->
<g id="edge34" class="edge"><title>Node3&#45;&gt;Node22</title>
<path fill="none" stroke="midnightblue" d="M386.396,-302.058C396.329,-261.922 421.209,-182.804 471,-136.961 475.204,-133.091 480.271,-129.986 485.553,-127.502"/>
<polygon fill="midnightblue" stroke="midnightblue" points="382.98,-301.295 384.084,-311.832 389.792,-302.906 382.98,-301.295"/>
</g>
<!-- Node23 -->
<g id="node23" class="node"><title>Node23</title>
<g id="a_node23"><a xlink:href="../../d6/d03/_i_n_r-_n_a_p_i_8h.html#a91f701f31afe930ece5c8bf5fb1a7ed6" target="_top" xlink:title="INR_NAPI_poll_15">
<polygon fill="white" stroke="black" points="472.5,-70.4613 472.5,-89.4613 572.5,-89.4613 572.5,-70.4613 472.5,-70.4613"/>
<text text-anchor="middle" x="522.5" y="-77.4613" font-family="Helvetica,sans-Serif" font-size="10.00">INR_NAPI_poll_15</text>
</a>
</g>
</g>
<!-- Node3&#45;&gt;Node23 -->
<g id="edge36" class="edge"><title>Node3&#45;&gt;Node23</title>
<path fill="none" stroke="midnightblue" d="M389.434,-302.373C408.754,-246.567 455.723,-113.994 471,-98.9613 474.939,-95.0849 479.745,-91.9861 484.809,-89.5123"/>
<polygon fill="midnightblue" stroke="midnightblue" points="386.116,-301.259 386.162,-311.854 392.733,-303.542 386.116,-301.259"/>
</g>
<!-- Node24 -->
<g id="node24" class="node"><title>Node24</title>
<g id="a_node24"><a xlink:href="../../dc/dc8/_i_n_r-_p_c_i_8c.html#a1c0927891fa571e8aec98ebe5fd266f6" target="_top" xlink:title="XPCIe_IRQHandler">
<polygon fill="white" stroke="black" points="471,-32.4613 471,-51.4613 574,-51.4613 574,-32.4613 471,-32.4613"/>
<text text-anchor="middle" x="522.5" y="-39.4613" font-family="Helvetica,sans-Serif" font-size="10.00">XPCIe_IRQHandler</text>
</a>
</g>
</g>
<!-- Node3&#45;&gt;Node24 -->
<g id="edge38" class="edge"><title>Node3&#45;&gt;Node24</title>
<path fill="none" stroke="midnightblue" d="M389.825,-302.161C400.657,-271.604 419.494,-218.067 435,-171.961 451.532,-122.804 435.185,-98.472 471,-60.9613 474.687,-57.0995 479.236,-54.0155 484.08,-51.5544"/>
<polygon fill="midnightblue" stroke="midnightblue" points="386.522,-301.004 386.476,-311.599 393.119,-303.346 386.522,-301.004"/>
</g>
<!-- Node5 -->
<g id="node5" class="node"><title>Node5</title>
<g id="a_node5"><a xlink:href="../../d6/d03/_i_n_r-_n_a_p_i_8h.html#a4d6b9bd7496ab1a6ae8d17e5889d6adb" target="_top" xlink:title="INR_NAPI_init">
<polygon fill="white" stroke="black" points="611,-336.461 611,-355.461 693,-355.461 693,-336.461 611,-336.461"/>
<text text-anchor="middle" x="652" y="-343.461" font-family="Helvetica,sans-Serif" font-size="10.00">INR_NAPI_init</text>
</a>
</g>
</g>
<!-- Node4&#45;&gt;Node5 -->
<g id="edge4" class="edge"><title>Node4&#45;&gt;Node5</title>
<path fill="none" stroke="midnightblue" d="M570.075,-634.692C571.472,-633.538 572.788,-632.296 574,-630.961 650.332,-546.928 652.218,-394.952 651.341,-355.516"/>
<polygon fill="midnightblue" stroke="midnightblue" points="567.802,-631.997 561.349,-640.401 571.634,-637.855 567.802,-631.997"/>
</g>
<!-- Node6 -->
<g id="node6" class="node"><title>Node6</title>
<g id="a_node6"><a xlink:href="../../df/df2/_i_n_r-_p_c_i_8h.html#a63ce64abfe6217358041ed07e918a398" target="_top" xlink:title="INR_init_drv">
<polygon fill="white" stroke="black" points="730,-32.4613 730,-51.4613 801,-51.4613 801,-32.4613 730,-32.4613"/>
<text text-anchor="middle" x="765.5" y="-39.4613" font-family="Helvetica,sans-Serif" font-size="10.00">INR_init_drv</text>
</a>
</g>
</g>
<!-- Node5&#45;&gt;Node6 -->
<g id="edge5" class="edge"><title>Node5&#45;&gt;Node6</title>
<path fill="none" stroke="midnightblue" d="M660.074,-326.674C681.52,-268.202 745.299,-94.3109 760.985,-51.5437"/>
<polygon fill="midnightblue" stroke="midnightblue" points="656.741,-325.597 656.584,-336.191 663.313,-328.008 656.741,-325.597"/>
</g>
<!-- Node7 -->
<g id="node7" class="node"><title>Node7</title>
<g id="a_node7"><a xlink:href="../../d0/d29/main_8c.html#a1f2bd07aac6fb1d9a27f635dac28669b" target="_top" xlink:title="probe">
<polygon fill="white" stroke="black" points="837,-32.4613 837,-51.4613 878,-51.4613 878,-32.4613 837,-32.4613"/>
<text text-anchor="middle" x="857.5" y="-39.4613" font-family="Helvetica,sans-Serif" font-size="10.00">probe</text>
</a>
</g>
</g>
<!-- Node6&#45;&gt;Node7 -->
<g id="edge6" class="edge"><title>Node6&#45;&gt;Node7</title>
<path fill="none" stroke="midnightblue" d="M811.123,-41.9613C820.131,-41.9613 829.159,-41.9613 836.763,-41.9613"/>
<polygon fill="midnightblue" stroke="midnightblue" points="811.039,-38.4614 801.039,-41.9613 811.039,-45.4614 811.039,-38.4614"/>
</g>
<!-- Node8 -->
<g id="node8" class="node"><title>Node8</title>
<g id="a_node8"><a xlink:href="../../d0/d29/main_8c.html#a28d5841b26c9924ab02d6adb235e9848" target="_top" xlink:title="remove">
<polygon fill="white" stroke="black" points="914,-32.4613 914,-51.4613 963,-51.4613 963,-32.4613 914,-32.4613"/>
<text text-anchor="middle" x="938.5" y="-39.4613" font-family="Helvetica,sans-Serif" font-size="10.00">remove</text>
</a>
</g>
</g>
<!-- Node7&#45;&gt;Node8 -->
<g id="edge7" class="edge"><title>Node7&#45;&gt;Node8</title>
<path fill="none" stroke="midnightblue" d="M888.31,-41.9613C896.797,-41.9613 905.92,-41.9613 913.976,-41.9613"/>
<polygon fill="midnightblue" stroke="midnightblue" points="888.028,-38.4614 878.028,-41.9613 888.028,-45.4614 888.028,-38.4614"/>
</g>
<!-- Node9&#45;&gt;Node5 -->
<g id="edge9" class="edge"><title>Node9&#45;&gt;Node5</title>
<path fill="none" stroke="midnightblue" d="M569.539,-597.006C571.129,-595.763 572.626,-594.417 574,-592.961 641.523,-521.428 649.869,-391.522 650.871,-355.466"/>
<polygon fill="midnightblue" stroke="midnightblue" points="567.558,-594.117 560.96,-602.406 571.287,-600.041 567.558,-594.117"/>
</g>
<!-- Node10&#45;&gt;Node5 -->
<g id="edge11" class="edge"><title>Node10&#45;&gt;Node5</title>
<path fill="none" stroke="midnightblue" d="M569.362,-558.981C571.008,-557.744 572.564,-556.407 574,-554.961 632.585,-495.972 647.077,-388.651 650.216,-355.788"/>
<polygon fill="midnightblue" stroke="midnightblue" points="567.246,-556.171 560.527,-564.363 570.888,-562.149 567.246,-556.171"/>
</g>
<!-- Node11&#45;&gt;Node5 -->
<g id="edge13" class="edge"><title>Node11&#45;&gt;Node5</title>
<path fill="none" stroke="midnightblue" d="M568.625,-521.283C570.53,-519.961 572.335,-518.524 574,-516.961 624.089,-469.944 643.918,-384.265 649.342,-355.597"/>
<polygon fill="midnightblue" stroke="midnightblue" points="566.7,-518.352 559.772,-526.368 570.187,-524.422 566.7,-518.352"/>
</g>
<!-- Node12&#45;&gt;Node5 -->
<g id="edge15" class="edge"><title>Node12&#45;&gt;Node5</title>
<path fill="none" stroke="midnightblue" d="M567.664,-483.562C569.899,-482.16 572.03,-480.63 574,-478.961 615.73,-443.603 640.003,-379.587 648.018,-355.484"/>
<polygon fill="midnightblue" stroke="midnightblue" points="565.84,-480.568 558.653,-488.352 569.126,-486.749 565.84,-480.568"/>
</g>
<!-- Node13&#45;&gt;Node5 -->
<g id="edge17" class="edge"><title>Node13&#45;&gt;Node5</title>
<path fill="none" stroke="midnightblue" d="M565.884,-446.001C568.724,-444.469 571.461,-442.793 574,-440.961 607.407,-416.871 634.401,-374.736 645.517,-355.74"/>
<polygon fill="midnightblue" stroke="midnightblue" points="564.118,-442.965 556.58,-450.41 567.115,-449.291 564.118,-442.965"/>
</g>
<!-- Node14&#45;&gt;Node5 -->
<g id="edge19" class="edge"><title>Node14&#45;&gt;Node5</title>
<path fill="none" stroke="midnightblue" d="M562.322,-408.624C566.337,-406.871 570.298,-404.977 574,-402.961 599.418,-389.124 625.855,-367.764 640.184,-355.5"/>
<polygon fill="midnightblue" stroke="midnightblue" points="560.89,-405.428 552.955,-412.449 563.536,-411.909 560.89,-405.428"/>
</g>
<!-- Node15&#45;&gt;Node5 -->
<g id="edge21" class="edge"><title>Node15&#45;&gt;Node5</title>
<path fill="none" stroke="midnightblue" d="M565.559,-371.426C582.904,-366.257 602.681,-360.362 618.837,-355.547"/>
<polygon fill="midnightblue" stroke="midnightblue" points="564.257,-368.162 555.674,-374.372 566.257,-374.87 564.257,-368.162"/>
</g>
<!-- Node16&#45;&gt;Node5 -->
<g id="edge23" class="edge"><title>Node16&#45;&gt;Node5</title>
<path fill="none" stroke="midnightblue" d="M580.434,-345.961C590.737,-345.961 601.28,-345.961 610.97,-345.961"/>
<polygon fill="midnightblue" stroke="midnightblue" points="580.252,-342.461 570.252,-345.961 580.252,-349.461 580.252,-342.461"/>
</g>
<!-- Node17&#45;&gt;Node5 -->
<g id="edge25" class="edge"><title>Node17&#45;&gt;Node5</title>
<path fill="none" stroke="midnightblue" d="M565.559,-320.497C582.904,-325.666 602.681,-331.56 618.837,-336.375"/>
<polygon fill="midnightblue" stroke="midnightblue" points="566.257,-317.052 555.674,-317.55 564.257,-323.761 566.257,-317.052"/>
</g>
<!-- Node18&#45;&gt;Node5 -->
<g id="edge27" class="edge"><title>Node18&#45;&gt;Node5</title>
<path fill="none" stroke="midnightblue" d="M562.322,-283.299C566.337,-285.052 570.298,-286.946 574,-288.961 599.418,-302.799 625.855,-324.159 640.184,-336.422"/>
<polygon fill="midnightblue" stroke="midnightblue" points="563.536,-280.014 552.955,-279.474 560.89,-286.494 563.536,-280.014"/>
</g>
<!-- Node19&#45;&gt;Node5 -->
<g id="edge29" class="edge"><title>Node19&#45;&gt;Node5</title>
<path fill="none" stroke="midnightblue" d="M565.884,-245.922C568.724,-247.453 571.461,-249.13 574,-250.961 607.407,-275.052 634.401,-317.187 645.517,-336.183"/>
<polygon fill="midnightblue" stroke="midnightblue" points="567.115,-242.632 556.58,-241.513 564.118,-248.958 567.115,-242.632"/>
</g>
<!-- Node20&#45;&gt;Node5 -->
<g id="edge31" class="edge"><title>Node20&#45;&gt;Node5</title>
<path fill="none" stroke="midnightblue" d="M567.664,-208.361C569.899,-209.762 572.03,-211.292 574,-212.961 615.73,-248.32 640.003,-312.336 648.018,-336.439"/>
<polygon fill="midnightblue" stroke="midnightblue" points="569.126,-205.174 558.653,-203.571 565.84,-211.355 569.126,-205.174"/>
</g>
<!-- Node21&#45;&gt;Node5 -->
<g id="edge33" class="edge"><title>Node21&#45;&gt;Node5</title>
<path fill="none" stroke="midnightblue" d="M568.625,-170.64C570.53,-171.961 572.335,-173.399 574,-174.961 624.089,-221.978 643.918,-307.657 649.342,-336.326"/>
<polygon fill="midnightblue" stroke="midnightblue" points="570.187,-167.5 559.772,-165.555 566.7,-173.57 570.187,-167.5"/>
</g>
<!-- Node22&#45;&gt;Node5 -->
<g id="edge35" class="edge"><title>Node22&#45;&gt;Node5</title>
<path fill="none" stroke="midnightblue" d="M569.362,-132.942C571.008,-134.179 572.564,-135.516 574,-136.961 632.585,-195.95 647.077,-303.272 650.216,-336.135"/>
<polygon fill="midnightblue" stroke="midnightblue" points="570.888,-129.773 560.527,-127.559 567.246,-135.751 570.888,-129.773"/>
</g>
<!-- Node23&#45;&gt;Node5 -->
<g id="edge37" class="edge"><title>Node23&#45;&gt;Node5</title>
<path fill="none" stroke="midnightblue" d="M569.539,-94.9169C571.129,-96.1599 572.626,-97.5053 574,-98.9613 641.523,-170.495 649.869,-300.4 650.871,-336.457"/>
<polygon fill="midnightblue" stroke="midnightblue" points="571.287,-91.8818 560.96,-89.5163 567.558,-97.8057 571.287,-91.8818"/>
</g>
<!-- Node25 -->
<g id="node25" class="node"><title>Node25</title>
<g id="a_node25"><a xlink:href="../../dc/dc8/_i_n_r-_p_c_i_8c.html#af7926b059a794041b841cda82ea84ca9" target="_top" xlink:title="INR_int_enable">
<polygon fill="white" stroke="black" points="610,-32.4613 610,-51.4613 694,-51.4613 694,-32.4613 610,-32.4613"/>
<text text-anchor="middle" x="652" y="-39.4613" font-family="Helvetica,sans-Serif" font-size="10.00">INR_int_enable</text>
</a>
</g>
</g>
<!-- Node24&#45;&gt;Node25 -->
<g id="edge39" class="edge"><title>Node24&#45;&gt;Node25</title>
<path fill="none" stroke="midnightblue" d="M584.328,-41.9613C592.967,-41.9613 601.677,-41.9613 609.823,-41.9613"/>
<polygon fill="midnightblue" stroke="midnightblue" points="584.258,-38.4614 574.258,-41.9613 584.258,-45.4614 584.258,-38.4614"/>
</g>
<!-- Node25&#45;&gt;Node6 -->
<g id="edge40" class="edge"><title>Node25&#45;&gt;Node6</title>
<path fill="none" stroke="midnightblue" d="M704.209,-41.9613C712.833,-41.9613 721.603,-41.9613 729.687,-41.9613"/>
<polygon fill="midnightblue" stroke="midnightblue" points="704.202,-38.4614 694.202,-41.9613 704.202,-45.4614 704.202,-38.4614"/>
</g>
<!-- Node26&#45;&gt;Node6 -->
<g id="edge42" class="edge"><title>Node26&#45;&gt;Node6</title>
<path fill="none" stroke="midnightblue" d="M387.668,-133.635C399.235,-103.528 426.173,-46.4485 471,-22.9613 560.78,24.0792 687.792,-13.2532 740.319,-32.3968"/>
<polygon fill="midnightblue" stroke="midnightblue" points="384.247,-132.801 384.098,-143.395 390.82,-135.206 384.247,-132.801"/>
</g>
</g>
</svg>
        <g id="navigator" transform="translate(0 0)" fill="#404254">
                <rect fill="#f2f5e9" fill-opacity="0.5" stroke="#606060" stroke-width=".5" x="0" y="0" width="60" height="60"/>
                <use id="zoomplus" xlink:href="#zoomPlus" x="17" y="9" onmousedown="handleZoom(evt,'in')"/>
                <use id="zoomminus" xlink:href="#zoomMin" x="42" y="9" onmousedown="handleZoom(evt,'out')"/>
                <use id="reset" xlink:href="#resetDef" x="30" y="36" onmousedown="handleReset()"/>
                <g id="arrowUp" xlink:href="#dirArrow" transform="translate(30 24)" onmousedown="handlePan(0,-1)">
                  <use xlink:href="#rim" fill="#404040">
                        <set attributeName="fill" to="#808080" begin="arrowUp.mouseover" end="arrowUp.mouseout"/>
                  </use>
                  <path fill="none" stroke="white" stroke-width="1.5" d="M0,-3.0v7 M-2.5,-0.5L0,-3.0L2.5,-0.5"/>
                </g>
                <g id="arrowRight" xlink:href="#dirArrow" transform="rotate(90) translate(36 -43)" onmousedown="handlePan(1,0)">
                  <use xlink:href="#rim" fill="#404040">
                        <set attributeName="fill" to="#808080" begin="arrowRight.mouseover" end="arrowRight.mouseout"/>
                  </use>
                  <path fill="none" stroke="white" stroke-width="1.5" d="M0,-3.0v7 M-2.5,-0.5L0,-3.0L2.5,-0.5"/>
                </g>
                <g id="arrowDown" xlink:href="#dirArrow" transform="rotate(180) translate(-30 -48)" onmousedown="handlePan(0,1)">
                  <use xlink:href="#rim" fill="#404040">
                        <set attributeName="fill" to="#808080" begin="arrowDown.mouseover" end="arrowDown.mouseout"/>
                  </use>
                  <path fill="none" stroke="white" stroke-width="1.5" d="M0,-3.0v7 M-2.5,-0.5L0,-3.0L2.5,-0.5"/>
                </g>
                <g id="arrowLeft" xlink:href="#dirArrow" transform="rotate(270) translate(-36 17)" onmousedown="handlePan(-1,0)">
                  <use xlink:href="#rim" fill="#404040">
                        <set attributeName="fill" to="#808080" begin="arrowLeft.mouseover" end="arrowLeft.mouseout"/>
                  </use>
                  <path fill="none" stroke="white" stroke-width="1.5" d="M0,-3.0v7 M-2.5,-0.5L0,-3.0L2.5,-0.5"/>
                </g>
        </g>
        <svg viewBox="0 0 15 15" width="100%" height="30px" preserveAspectRatio="xMaxYMin meet">
         <g id="arrow_out" transform="scale(0.3 0.3)">
          <a xlink:href="_i_n_r-_p_c_i_8c_af88a9db4ef6451751a395e1207fd7066_icgraph_org.svg" target="_base">
           <rect id="button" ry="5" rx="5" y="6" x="6" height="38" width="38"
                fill="#f2f5e9" fill-opacity="0.5" stroke="#606060" stroke-width="1.0"/>
           <path id="arrow"
             d="M 11.500037,31.436501 C 11.940474,20.09759 22.043105,11.32322 32.158766,21.979434 L 37.068811,17.246167 C 37.068811,17.246167 37.088388,32 37.088388,32 L 22.160133,31.978069 C 22.160133,31.978069 26.997745,27.140456 26.997745,27.140456 C 18.528582,18.264221 13.291696,25.230495 11.500037,31.436501 z"
             style="fill:#404040;"/>
          </a>
         </g>
        </svg>
</svg>
