<?xml version="1.0" encoding="UTF-8" standalone="no"?>
<!DOCTYPE svg PUBLIC "-//W3C//DTD SVG 1.1//EN"
 "http://www.w3.org/Graphics/SVG/1.1/DTD/svg11.dtd">
<!-- Generated by graphviz version 2.38.0 (20140413.2041)
 -->
<!-- Title: INR_TX_RING_init Pages: 1 -->
<svg width="378pt" height="28pt"
 viewBox="0.00 0.00 378.00 28.00" xmlns="http://www.w3.org/2000/svg" xmlns:xlink="http://www.w3.org/1999/xlink">
<g id="graph0" class="graph" transform="scale(1 1) rotate(0) translate(4 24)">
<title>INR_TX_RING_init</title>
<polygon fill="white" stroke="none" points="-4,4 -4,-24 374,-24 374,4 -4,4"/>
<!-- Node1 -->
<g id="node1" class="node"><title>Node1</title>
<polygon fill="#bfbfbf" stroke="black" points="0,-0.5 0,-19.5 101,-19.5 101,-0.5 0,-0.5"/>
<text text-anchor="middle" x="50.5" y="-7.5" font-family="Helvetica,sans-Serif" font-size="10.00">INR_TX_RING_init</text>
</g>
<!-- Node2 -->
<g id="node2" class="node"><title>Node2</title>
<g id="a_node2"><a xlink:href="../../df/df2/_i_n_r-_p_c_i_8h.html#a63ce64abfe6217358041ed07e918a398" target="_top" xlink:title="INR_init_drv">
<polygon fill="white" stroke="black" points="137,-0.5 137,-19.5 208,-19.5 208,-0.5 137,-0.5"/>
<text text-anchor="middle" x="172.5" y="-7.5" font-family="Helvetica,sans-Serif" font-size="10.00">INR_init_drv</text>
</a>
</g>
</g>
<!-- Node1&#45;&gt;Node2 -->
<g id="edge1" class="edge"><title>Node1&#45;&gt;Node2</title>
<path fill="none" stroke="midnightblue" d="M111.226,-10C119.977,-10 128.736,-10 136.758,-10"/>
<polygon fill="midnightblue" stroke="midnightblue" points="111.001,-6.5001 101.001,-10 111.001,-13.5001 111.001,-6.5001"/>
</g>
<!-- Node3 -->
<g id="node3" class="node"><title>Node3</title>
<g id="a_node3"><a xlink:href="../../d0/d29/main_8c.html#a1f2bd07aac6fb1d9a27f635dac28669b" target="_top" xlink:title="probe">
<polygon fill="white" stroke="black" points="244,-0.5 244,-19.5 285,-19.5 285,-0.5 244,-0.5"/>
<text text-anchor="middle" x="264.5" y="-7.5" font-family="Helvetica,sans-Serif" font-size="10.00">probe</text>
</a>
</g>
</g>
<!-- Node2&#45;&gt;Node3 -->
<g id="edge2" class="edge"><title>Node2&#45;&gt;Node3</title>
<path fill="none" stroke="midnightblue" d="M218.123,-10C227.131,-10 236.159,-10 243.763,-10"/>
<polygon fill="midnightblue" stroke="midnightblue" points="218.039,-6.5001 208.039,-10 218.039,-13.5001 218.039,-6.5001"/>
</g>
<!-- Node4 -->
<g id="node4" class="node"><title>Node4</title>
<g id="a_node4"><a xlink:href="../../d0/d29/main_8c.html#a28d5841b26c9924ab02d6adb235e9848" target="_top" xlink:title="remove">
<polygon fill="white" stroke="black" points="321,-0.5 321,-19.5 370,-19.5 370,-0.5 321,-0.5"/>
<text text-anchor="middle" x="345.5" y="-7.5" font-family="Helvetica,sans-Serif" font-size="10.00">remove</text>
</a>
</g>
</g>
<!-- Node3&#45;&gt;Node4 -->
<g id="edge3" class="edge"><title>Node3&#45;&gt;Node4</title>
<path fill="none" stroke="midnightblue" d="M295.31,-10C303.797,-10 312.92,-10 320.976,-10"/>
<polygon fill="midnightblue" stroke="midnightblue" points="295.028,-6.5001 285.028,-10 295.028,-13.5001 295.028,-6.5001"/>
</g>
</g>
</svg>
