<?xml version="1.0" encoding="UTF-8" standalone="no"?>
<!DOCTYPE svg PUBLIC "-//W3C//DTD SVG 1.1//EN"
 "http://www.w3.org/Graphics/SVG/1.1/DTD/svg11.dtd">
<!-- Generated by graphviz version 2.38.0 (20140413.2041)
 -->
<!-- Title: INR_PCI_process_rx_descriptor_ring Pages: 1 -->
<svg width="755pt" height="192pt"
 viewBox="0.00 0.00 755.00 191.50" xmlns="http://www.w3.org/2000/svg" xmlns:xlink="http://www.w3.org/1999/xlink">
<g id="graph0" class="graph" transform="scale(1 1) rotate(0) translate(4 187.5)">
<title>INR_PCI_process_rx_descriptor_ring</title>
<polygon fill="white" stroke="none" points="-4,4 -4,-187.5 751,-187.5 751,4 -4,4"/>
<!-- Node1 -->
<g id="node1" class="node"><title>Node1</title>
<polygon fill="#bfbfbf" stroke="black" points="0,-101.5 0,-131.5 110,-131.5 110,-101.5 0,-101.5"/>
<text text-anchor="start" x="8" y="-119.5" font-family="Helvetica,sans-Serif" font-size="10.00">INR_PCI_process_rx</text>
<text text-anchor="middle" x="55" y="-108.5" font-family="Helvetica,sans-Serif" font-size="10.00">_descriptor_ring</text>
</g>
<!-- Node2 -->
<g id="node2" class="node"><title>Node2</title>
<g id="a_node2"><a xlink:href="../../de/dc6/_i_n_r-_n_w_8c.html#a3be8a2ad7ead39dfd6b239b890dc1146" target="_top" xlink:title="get_nwdev">
<polygon fill="white" stroke="black" points="184,-164 184,-183 248,-183 248,-164 184,-164"/>
<text text-anchor="middle" x="216" y="-171" font-family="Helvetica,sans-Serif" font-size="10.00">get_nwdev</text>
</a>
</g>
</g>
<!-- Node1&#45;&gt;Node2 -->
<g id="edge1" class="edge"><title>Node1&#45;&gt;Node2</title>
<path fill="none" stroke="midnightblue" d="M96.718,-131.593C112.135,-137.265 129.858,-143.734 146,-149.5 156.228,-153.154 167.334,-157.048 177.586,-160.614"/>
<polygon fill="midnightblue" stroke="midnightblue" points="176.502,-163.943 187.097,-163.913 178.797,-157.329 176.502,-163.943"/>
</g>
<!-- Node3 -->
<g id="node3" class="node"><title>Node3</title>
<g id="a_node3"><a xlink:href="../../d3/d3a/_i_n_r_8c.html#a055451b31abceb46e8c92789d0523980" target="_top" xlink:title="INR_CHECK_fpga_read_val">
<polygon fill="white" stroke="black" points="322,-126 322,-145 464,-145 464,-126 322,-126"/>
<text text-anchor="middle" x="393" y="-133" font-family="Helvetica,sans-Serif" font-size="10.00">INR_CHECK_fpga_read_val</text>
</a>
</g>
</g>
<!-- Node1&#45;&gt;Node3 -->
<g id="edge2" class="edge"><title>Node1&#45;&gt;Node3</title>
<path fill="none" stroke="midnightblue" d="M110.358,-119.574C164.899,-122.658 249.522,-127.443 311.78,-130.964"/>
<polygon fill="midnightblue" stroke="midnightblue" points="311.78,-134.469 321.961,-131.539 312.175,-127.48 311.78,-134.469"/>
</g>
<!-- Node4 -->
<g id="node4" class="node"><title>Node4</title>
<g id="a_node4"><a xlink:href="../../d3/d3a/_i_n_r_8c.html#a549bff83219b80ccf76c695682e37707" target="_top" xlink:title="INR_LOG_debug">
<polygon fill="white" stroke="black" points="655,-69 655,-88 747,-88 747,-69 655,-69"/>
<text text-anchor="middle" x="701" y="-76" font-family="Helvetica,sans-Serif" font-size="10.00">INR_LOG_debug</text>
</a>
</g>
</g>
<!-- Node1&#45;&gt;Node4 -->
<g id="edge4" class="edge"><title>Node1&#45;&gt;Node4</title>
<path fill="none" stroke="midnightblue" d="M110.075,-113.309C230.991,-106.174 522.189,-88.992 644.463,-81.777"/>
<polygon fill="midnightblue" stroke="midnightblue" points="644.939,-85.2551 654.716,-81.1721 644.527,-78.2673 644.939,-85.2551"/>
</g>
<!-- Node5 -->
<g id="node5" class="node"><title>Node5</title>
<g id="a_node5"><a xlink:href="../../dc/dc8/_i_n_r-_p_c_i_8c.html#a03f960f01f96c2f664301c6830461c7f" target="_top" xlink:title="INR_PCI_alloc_new_rx_skb">
<polygon fill="white" stroke="black" points="146,-47 146,-66 286,-66 286,-47 146,-47"/>
<text text-anchor="middle" x="216" y="-54" font-family="Helvetica,sans-Serif" font-size="10.00">INR_PCI_alloc_new_rx_skb</text>
</a>
</g>
</g>
<!-- Node1&#45;&gt;Node5 -->
<g id="edge5" class="edge"><title>Node1&#45;&gt;Node5</title>
<path fill="none" stroke="midnightblue" d="M96.1224,-101.359C122.112,-91.5522 155.612,-78.9106 180.423,-69.548"/>
<polygon fill="midnightblue" stroke="midnightblue" points="181.686,-72.8124 189.806,-66.0072 179.214,-66.2632 181.686,-72.8124"/>
</g>
<!-- Node3&#45;&gt;Node4 -->
<g id="edge3" class="edge"><title>Node3&#45;&gt;Node4</title>
<path fill="none" stroke="midnightblue" d="M464.066,-133.082C508.918,-130.3 568.047,-124.325 619,-111.5 636.998,-106.97 656.275,-99.243 671.506,-92.4046"/>
<polygon fill="midnightblue" stroke="midnightblue" points="673.262,-95.4488 680.877,-88.0816 670.33,-89.0926 673.262,-95.4488"/>
</g>
<!-- Node6 -->
<g id="node6" class="node"><title>Node6</title>
<g id="a_node6"><a xlink:href="../../dc/dc8/_i_n_r-_p_c_i_8c.html#af88a9db4ef6451751a395e1207fd7066" target="_top" xlink:title="INR_PCI_get_new_rx\l_descriptor_ring_entry">
<polygon fill="white" stroke="black" points="336.5,-38.5 336.5,-68.5 449.5,-68.5 449.5,-38.5 336.5,-38.5"/>
<text text-anchor="start" x="344.5" y="-56.5" font-family="Helvetica,sans-Serif" font-size="10.00">INR_PCI_get_new_rx</text>
<text text-anchor="middle" x="393" y="-45.5" font-family="Helvetica,sans-Serif" font-size="10.00">_descriptor_ring_entry</text>
</a>
</g>
</g>
<!-- Node5&#45;&gt;Node6 -->
<g id="edge6" class="edge"><title>Node5&#45;&gt;Node6</title>
<path fill="none" stroke="midnightblue" d="M286.165,-55.3143C299.282,-55.0895 312.974,-54.8547 325.991,-54.6316"/>
<polygon fill="midnightblue" stroke="midnightblue" points="326.322,-58.1265 336.261,-54.4555 326.202,-51.1275 326.322,-58.1265"/>
</g>
<!-- Node6&#45;&gt;Node4 -->
<g id="edge7" class="edge"><title>Node6&#45;&gt;Node4</title>
<path fill="none" stroke="midnightblue" d="M449.769,-58.0563C504.993,-62.5681 589.073,-69.4374 644.28,-73.9477"/>
<polygon fill="midnightblue" stroke="midnightblue" points="644.327,-77.4631 654.579,-74.7891 644.897,-70.4864 644.327,-77.4631"/>
</g>
<!-- Node7 -->
<g id="node7" class="node"><title>Node7</title>
<g id="a_node7"><a xlink:href="../../dc/dc8/_i_n_r-_p_c_i_8c.html#adbea73204b38d31f4b80feb56a27b810" target="_top" xlink:title="INR_PCI_rx_descriptor\l_pool_refill">
<polygon fill="white" stroke="black" points="500,-0.5 500,-30.5 619,-30.5 619,-0.5 500,-0.5"/>
<text text-anchor="start" x="508" y="-18.5" font-family="Helvetica,sans-Serif" font-size="10.00">INR_PCI_rx_descriptor</text>
<text text-anchor="middle" x="559.5" y="-7.5" font-family="Helvetica,sans-Serif" font-size="10.00">_pool_refill</text>
</a>
</g>
</g>
<!-- Node6&#45;&gt;Node7 -->
<g id="edge8" class="edge"><title>Node6&#45;&gt;Node7</title>
<path fill="none" stroke="midnightblue" d="M449.692,-40.6349C462.542,-37.6666 476.36,-34.4745 489.694,-31.3944"/>
<polygon fill="midnightblue" stroke="midnightblue" points="490.817,-34.7273 499.772,-29.0663 489.241,-27.9069 490.817,-34.7273"/>
</g>
<!-- Node7&#45;&gt;Node4 -->
<g id="edge9" class="edge"><title>Node7&#45;&gt;Node4</title>
<path fill="none" stroke="midnightblue" d="M593.914,-30.5901C616.804,-40.9275 646.937,-54.5362 669.238,-64.6073"/>
<polygon fill="midnightblue" stroke="midnightblue" points="668.02,-67.8978 678.574,-68.8239 670.901,-61.5182 668.02,-67.8978"/>
</g>
</g>
</svg>
