<?xml version="1.0" encoding="UTF-8" standalone="no"?>
<!DOCTYPE svg PUBLIC "-//W3C//DTD SVG 1.1//EN"
 "http://www.w3.org/Graphics/SVG/1.1/DTD/svg11.dtd">
<!-- Generated by graphviz version 2.38.0 (20140413.2041)
 -->
<!-- Title: INR_RX_RING_init Pages: 1 -->
<svg width="719pt" height="98pt"
 viewBox="0.00 0.00 719.00 97.52" xmlns="http://www.w3.org/2000/svg" xmlns:xlink="http://www.w3.org/1999/xlink">
<g id="graph0" class="graph" transform="scale(1 1) rotate(0) translate(4 93.5231)">
<title>INR_RX_RING_init</title>
<polygon fill="white" stroke="none" points="-4,4 -4,-93.5231 715,-93.5231 715,4 -4,4"/>
<!-- Node1 -->
<g id="node1" class="node"><title>Node1</title>
<polygon fill="#bfbfbf" stroke="black" points="0,-47 0,-66 103,-66 103,-47 0,-47"/>
<text text-anchor="middle" x="51.5" y="-54" font-family="Helvetica,sans-Serif" font-size="10.00">INR_RX_RING_init</text>
</g>
<!-- Node2 -->
<g id="node2" class="node"><title>Node2</title>
<g id="a_node2"><a xlink:href="../../d3/d3a/_i_n_r_8c.html#a549bff83219b80ccf76c695682e37707" target="_top" xlink:title="INR_LOG_debug">
<polygon fill="white" stroke="black" points="619,-50 619,-69 711,-69 711,-50 619,-50"/>
<text text-anchor="middle" x="665" y="-57" font-family="Helvetica,sans-Serif" font-size="10.00">INR_LOG_debug</text>
</a>
</g>
</g>
<!-- Node1&#45;&gt;Node2 -->
<g id="edge1" class="edge"><title>Node1&#45;&gt;Node2</title>
<path fill="none" stroke="midnightblue" d="M87.996,-66.0164C103.529,-69.7327 122.044,-73.5622 139,-75.5 335.065,-97.9073 386.509,-89.8036 583,-71.5 591.342,-70.7229 600.137,-69.6675 608.733,-68.5033"/>
<polygon fill="midnightblue" stroke="midnightblue" points="609.282,-71.9606 618.694,-67.0967 608.303,-65.0294 609.282,-71.9606"/>
</g>
<!-- Node3 -->
<g id="node3" class="node"><title>Node3</title>
<g id="a_node3"><a xlink:href="../../dc/dc8/_i_n_r-_p_c_i_8c.html#a03f960f01f96c2f664301c6830461c7f" target="_top" xlink:title="INR_PCI_alloc_new_rx_skb">
<polygon fill="white" stroke="black" points="139,-47 139,-66 279,-66 279,-47 139,-47"/>
<text text-anchor="middle" x="209" y="-54" font-family="Helvetica,sans-Serif" font-size="10.00">INR_PCI_alloc_new_rx_skb</text>
</a>
</g>
</g>
<!-- Node1&#45;&gt;Node3 -->
<g id="edge2" class="edge"><title>Node1&#45;&gt;Node3</title>
<path fill="none" stroke="midnightblue" d="M103.417,-56.5C111.565,-56.5 120.163,-56.5 128.784,-56.5"/>
<polygon fill="midnightblue" stroke="midnightblue" points="128.89,-60.0001 138.89,-56.5 128.89,-53.0001 128.89,-60.0001"/>
</g>
<!-- Node6 -->
<g id="node6" class="node"><title>Node6</title>
<g id="a_node6"><a xlink:href="../../d3/d3a/_i_n_r_8c.html#af47261efd77bbc66a759860ab782f170" target="_top" xlink:title="INR_STATUS_set">
<polygon fill="white" stroke="black" points="160,-9 160,-28 258,-28 258,-9 160,-9"/>
<text text-anchor="middle" x="209" y="-16" font-family="Helvetica,sans-Serif" font-size="10.00">INR_STATUS_set</text>
</a>
</g>
</g>
<!-- Node1&#45;&gt;Node6 -->
<g id="edge7" class="edge"><title>Node1&#45;&gt;Node6</title>
<path fill="none" stroke="midnightblue" d="M91.7392,-46.911C112.259,-41.8965 137.567,-35.7119 159.325,-30.3947"/>
<polygon fill="midnightblue" stroke="midnightblue" points="160.16,-33.794 169.043,-28.0201 158.498,-26.994 160.16,-33.794"/>
</g>
<!-- Node4 -->
<g id="node4" class="node"><title>Node4</title>
<g id="a_node4"><a xlink:href="../../dc/dc8/_i_n_r-_p_c_i_8c.html#af88a9db4ef6451751a395e1207fd7066" target="_top" xlink:title="INR_PCI_get_new_rx\l_descriptor_ring_entry">
<polygon fill="white" stroke="black" points="315,-38.5 315,-68.5 428,-68.5 428,-38.5 315,-38.5"/>
<text text-anchor="start" x="323" y="-56.5" font-family="Helvetica,sans-Serif" font-size="10.00">INR_PCI_get_new_rx</text>
<text text-anchor="middle" x="371.5" y="-45.5" font-family="Helvetica,sans-Serif" font-size="10.00">_descriptor_ring_entry</text>
</a>
</g>
</g>
<!-- Node3&#45;&gt;Node4 -->
<g id="edge3" class="edge"><title>Node3&#45;&gt;Node4</title>
<path fill="none" stroke="midnightblue" d="M279.464,-55.2016C287.897,-55.044 296.491,-54.8834 304.865,-54.7268"/>
<polygon fill="midnightblue" stroke="midnightblue" points="305.013,-58.2248 314.945,-54.5384 304.882,-51.226 305.013,-58.2248"/>
</g>
<!-- Node4&#45;&gt;Node2 -->
<g id="edge4" class="edge"><title>Node4&#45;&gt;Node2</title>
<path fill="none" stroke="midnightblue" d="M428.015,-54.6427C479.894,-55.7105 556.92,-57.296 608.723,-58.3622"/>
<polygon fill="midnightblue" stroke="midnightblue" points="608.662,-61.8616 618.732,-58.5682 608.806,-54.8631 608.662,-61.8616"/>
</g>
<!-- Node5 -->
<g id="node5" class="node"><title>Node5</title>
<g id="a_node5"><a xlink:href="../../dc/dc8/_i_n_r-_p_c_i_8c.html#adbea73204b38d31f4b80feb56a27b810" target="_top" xlink:title="INR_PCI_rx_descriptor\l_pool_refill">
<polygon fill="white" stroke="black" points="464,-0.5 464,-30.5 583,-30.5 583,-0.5 464,-0.5"/>
<text text-anchor="start" x="472" y="-18.5" font-family="Helvetica,sans-Serif" font-size="10.00">INR_PCI_rx_descriptor</text>
<text text-anchor="middle" x="523.5" y="-7.5" font-family="Helvetica,sans-Serif" font-size="10.00">_pool_refill</text>
</a>
</g>
</g>
<!-- Node4&#45;&gt;Node5 -->
<g id="edge5" class="edge"><title>Node4&#45;&gt;Node5</title>
<path fill="none" stroke="midnightblue" d="M428.354,-39.3502C436.676,-37.242 445.335,-35.0485 453.882,-32.8832"/>
<polygon fill="midnightblue" stroke="midnightblue" points="455.004,-36.2097 463.838,-30.361 453.285,-29.424 455.004,-36.2097"/>
</g>
<!-- Node5&#45;&gt;Node2 -->
<g id="edge6" class="edge"><title>Node5&#45;&gt;Node2</title>
<path fill="none" stroke="midnightblue" d="M572.118,-30.5192C588.982,-35.8383 607.771,-41.7647 623.942,-46.8654"/>
<polygon fill="midnightblue" stroke="midnightblue" points="623.043,-50.2515 633.632,-49.9217 625.148,-43.5757 623.043,-50.2515"/>
</g>
</g>
</svg>
