<?xml version="1.0" encoding="UTF-8" standalone="no"?>
<!DOCTYPE svg PUBLIC "-//W3C//DTD SVG 1.1//EN"
 "http://www.w3.org/Graphics/SVG/1.1/DTD/svg11.dtd">
<!-- Generated by graphviz version 2.38.0 (20140413.2041)
 -->
<!-- Title: INR_init_drv Pages: 1 -->
<svg width="1155pt" height="1033pt"
 viewBox="0.00 0.00 1155.00 1032.96" xmlns="http://www.w3.org/2000/svg" xmlns:xlink="http://www.w3.org/1999/xlink">
<g id="graph0" class="graph" transform="scale(1 1) rotate(0) translate(4 1028.96)">
<title>INR_init_drv</title>
<polygon fill="white" stroke="none" points="-4,4 -4,-1028.96 1151,-1028.96 1151,4 -4,4"/>
<!-- Node1 -->
<g id="node1" class="node"><title>Node1</title>
<polygon fill="#bfbfbf" stroke="black" points="0,-198.457 0,-217.457 71,-217.457 71,-198.457 0,-198.457"/>
<text text-anchor="middle" x="35.5" y="-205.457" font-family="Helvetica,sans-Serif" font-size="10.00">INR_init_drv</text>
</g>
<!-- Node2 -->
<g id="node2" class="node"><title>Node2</title>
<g id="a_node2"><a xlink:href="../../dc/dc8/_i_n_r-_p_c_i_8c.html#af7926b059a794041b841cda82ea84ca9" target="_top" xlink:title="INR_int_enable">
<polygon fill="white" stroke="black" points="116.5,-768.457 116.5,-787.457 200.5,-787.457 200.5,-768.457 116.5,-768.457"/>
<text text-anchor="middle" x="158.5" y="-775.457" font-family="Helvetica,sans-Serif" font-size="10.00">INR_int_enable</text>
</a>
</g>
</g>
<!-- Node1&#45;&gt;Node2 -->
<g id="edge1" class="edge"><title>Node1&#45;&gt;Node2</title>
<path fill="none" stroke="midnightblue" d="M38.0265,-217.702C44.8948,-261.172 74.0375,-441.661 107,-587.957 121.148,-650.752 141.857,-724.14 151.782,-758.435"/>
<polygon fill="midnightblue" stroke="midnightblue" points="148.45,-759.509 154.604,-768.133 155.171,-757.554 148.45,-759.509"/>
</g>
<!-- Node3 -->
<g id="node3" class="node"><title>Node3</title>
<g id="a_node3"><a xlink:href="../../d3/d3a/_i_n_r_8c.html#a549bff83219b80ccf76c695682e37707" target="_top" xlink:title="INR_LOG_debug">
<polygon fill="white" stroke="black" points="1055,-293.457 1055,-312.457 1147,-312.457 1147,-293.457 1055,-293.457"/>
<text text-anchor="middle" x="1101" y="-300.457" font-family="Helvetica,sans-Serif" font-size="10.00">INR_LOG_debug</text>
</a>
</g>
</g>
<!-- Node1&#45;&gt;Node3 -->
<g id="edge17" class="edge"><title>Node1&#45;&gt;Node3</title>
<path fill="none" stroke="midnightblue" d="M37.021,-217.765C40.7153,-285.492 64.0548,-684.376 107,-796.957 153.962,-920.069 164.736,-1024.96 296.5,-1024.96 296.5,-1024.96 296.5,-1024.96 779,-1024.96 861.073,-1024.96 1015.06,-901.037 1019,-894.957 1082.4,-797.049 1096.92,-414.329 1099.51,-322.733"/>
<polygon fill="midnightblue" stroke="midnightblue" points="1103.01,-322.713 1099.78,-312.623 1096.01,-322.525 1103.01,-322.713"/>
</g>
<!-- Node4 -->
<g id="node4" class="node"><title>Node4</title>
<g id="a_node4"><a xlink:href="../../d3/d3a/_i_n_r_8c.html#af47261efd77bbc66a759860ab782f170" target="_top" xlink:title="INR_STATUS_set">
<polygon fill="white" stroke="black" points="248.5,-217.457 248.5,-236.457 346.5,-236.457 346.5,-217.457 248.5,-217.457"/>
<text text-anchor="middle" x="297.5" y="-224.457" font-family="Helvetica,sans-Serif" font-size="10.00">INR_STATUS_set</text>
</a>
</g>
</g>
<!-- Node1&#45;&gt;Node4 -->
<g id="edge77" class="edge"><title>Node1&#45;&gt;Node4</title>
<path fill="none" stroke="midnightblue" d="M71.026,-210.481C113.543,-213.588 186.426,-218.914 237.8,-222.668"/>
<polygon fill="midnightblue" stroke="midnightblue" points="237.866,-226.182 248.095,-223.42 238.377,-219.201 237.866,-226.182"/>
</g>
<!-- Node13 -->
<g id="node13" class="node"><title>Node13</title>
<g id="a_node13"><a xlink:href="../../d1/d67/_i_n_r-_n_a_p_i_8c.html#a4d6b9bd7496ab1a6ae8d17e5889d6adb" target="_top" xlink:title="INR_NAPI_init">
<polygon fill="white" stroke="black" points="117.5,-559.457 117.5,-578.457 199.5,-578.457 199.5,-559.457 117.5,-559.457"/>
<text text-anchor="middle" x="158.5" y="-566.457" font-family="Helvetica,sans-Serif" font-size="10.00">INR_NAPI_init</text>
</a>
</g>
</g>
<!-- Node1&#45;&gt;Node13 -->
<g id="edge18" class="edge"><title>Node1&#45;&gt;Node13</title>
<path fill="none" stroke="midnightblue" d="M39.7365,-217.613C56.0061,-266.153 128.951,-483.782 151.101,-549.867"/>
<polygon fill="midnightblue" stroke="midnightblue" points="147.813,-551.07 154.31,-559.439 154.45,-548.846 147.813,-551.07"/>
</g>
<!-- Node31 -->
<g id="node31" class="node"><title>Node31</title>
<g id="a_node31"><a xlink:href="../../dc/dc8/_i_n_r-_p_c_i_8c.html#a685365e1ba25ceedc4e7b048495a9f20" target="_top" xlink:title="INR_PCI_rx_pageallocator">
<polygon fill="white" stroke="black" points="885,-65.4575 885,-84.4575 1019,-84.4575 1019,-65.4575 885,-65.4575"/>
<text text-anchor="middle" x="952" y="-72.4575" font-family="Helvetica,sans-Serif" font-size="10.00">INR_PCI_rx_pageallocator</text>
</a>
</g>
</g>
<!-- Node1&#45;&gt;Node31 -->
<g id="edge69" class="edge"><title>Node1&#45;&gt;Node31</title>
<path fill="none" stroke="midnightblue" d="M42.88,-198.251C53.9878,-182.109 78.4421,-149.765 107,-131.957 181.63,-85.4223 208.55,-74.9575 296.5,-74.9575 296.5,-74.9575 296.5,-74.9575 602,-74.9575 695.844,-74.9575 803.882,-74.9575 874.589,-74.9575"/>
<polygon fill="midnightblue" stroke="midnightblue" points="874.744,-78.4576 884.744,-74.9575 874.744,-71.4576 874.744,-78.4576"/>
</g>
<!-- Node32 -->
<g id="node32" class="node"><title>Node32</title>
<g id="a_node32"><a xlink:href="../../dc/dc8/_i_n_r-_p_c_i_8c.html#a0b7439594b7f5e4f197f42e2ad25de9f" target="_top" xlink:title="INR_PROBE_dma">
<polygon fill="white" stroke="black" points="551.5,-27.4575 551.5,-46.4575 650.5,-46.4575 650.5,-27.4575 551.5,-27.4575"/>
<text text-anchor="middle" x="601" y="-34.4575" font-family="Helvetica,sans-Serif" font-size="10.00">INR_PROBE_dma</text>
</a>
</g>
</g>
<!-- Node1&#45;&gt;Node32 -->
<g id="edge71" class="edge"><title>Node1&#45;&gt;Node32</title>
<path fill="none" stroke="midnightblue" d="M37.773,-198.221C41.9147,-170.951 57.7181,-93.6786 107,-60.9575 247.027,32.0147 461.898,-3.39405 554.718,-25.0334"/>
<polygon fill="midnightblue" stroke="midnightblue" points="554.092,-28.4823 564.632,-27.4014 555.718,-21.6738 554.092,-28.4823"/>
</g>
<!-- Node33 -->
<g id="node33" class="node"><title>Node33</title>
<g id="a_node33"><a xlink:href="../../dc/dc8/_i_n_r-_p_c_i_8c.html#a7b6c1bb3d3c608c7a226531d7a6f0965" target="_top" xlink:title="INR_RX_RING_init">
<polygon fill="white" stroke="black" points="107,-179.457 107,-198.457 210,-198.457 210,-179.457 107,-179.457"/>
<text text-anchor="middle" x="158.5" y="-186.457" font-family="Helvetica,sans-Serif" font-size="10.00">INR_RX_RING_init</text>
</a>
</g>
</g>
<!-- Node1&#45;&gt;Node33 -->
<g id="edge73" class="edge"><title>Node1&#45;&gt;Node33</title>
<path fill="none" stroke="midnightblue" d="M71.1737,-202.513C79.1043,-201.268 87.7638,-199.908 96.4386,-198.546"/>
<polygon fill="midnightblue" stroke="midnightblue" points="97.2505,-201.961 106.586,-196.952 96.1645,-195.046 97.2505,-201.961"/>
</g>
<!-- Node34 -->
<g id="node34" class="node"><title>Node34</title>
<g id="a_node34"><a xlink:href="../../dc/dc8/_i_n_r-_p_c_i_8c.html#a30bfb6d989886092253041816a123bb4" target="_top" xlink:title="INR_TX_RING_init">
<polygon fill="white" stroke="black" points="108,-141.457 108,-160.457 209,-160.457 209,-141.457 108,-141.457"/>
<text text-anchor="middle" x="158.5" y="-148.457" font-family="Helvetica,sans-Serif" font-size="10.00">INR_TX_RING_init</text>
</a>
</g>
</g>
<!-- Node1&#45;&gt;Node34 -->
<g id="edge78" class="edge"><title>Node1&#45;&gt;Node34</title>
<path fill="none" stroke="midnightblue" d="M52.707,-198.413C66.7962,-190.313 87.8905,-178.655 107,-169.957 111.354,-167.976 115.979,-166.029 120.596,-164.182"/>
<polygon fill="midnightblue" stroke="midnightblue" points="121.908,-167.427 129.968,-160.551 119.379,-160.9 121.908,-167.427"/>
</g>
<!-- Node2&#45;&gt;Node3 -->
<g id="edge2" class="edge"><title>Node2&#45;&gt;Node3</title>
<path fill="none" stroke="midnightblue" d="M160.568,-787.529C164.686,-819.423 182.618,-922.627 246,-967.957 316.107,-1018.1 352.808,-986.957 439,-986.957 439,-986.957 439,-986.957 779,-986.957 1080.53,-986.957 1099.37,-435.486 1100.07,-322.888"/>
<polygon fill="midnightblue" stroke="midnightblue" points="1103.57,-322.633 1100.09,-312.627 1096.57,-322.62 1103.57,-322.633"/>
</g>
<!-- Node2&#45;&gt;Node4 -->
<g id="edge3" class="edge"><title>Node2&#45;&gt;Node4</title>
<path fill="none" stroke="midnightblue" d="M162.628,-768.181C171.424,-740.324 196.61,-658.024 210,-587.957 235.539,-454.321 190.343,-408.108 246,-283.957 253.05,-268.231 266.015,-253.74 277.043,-243.305"/>
<polygon fill="midnightblue" stroke="midnightblue" points="279.542,-245.764 284.618,-236.464 274.851,-240.569 279.542,-245.764"/>
</g>
<!-- Node5 -->
<g id="node5" class="node"><title>Node5</title>
<g id="a_node5"><a xlink:href="../../dc/dc8/_i_n_r-_p_c_i_8c.html#a1c0927891fa571e8aec98ebe5fd266f6" target="_top" xlink:title="XPCIe_IRQHandler">
<polygon fill="white" stroke="black" points="246,-939.457 246,-958.457 349,-958.457 349,-939.457 246,-939.457"/>
<text text-anchor="middle" x="297.5" y="-946.457" font-family="Helvetica,sans-Serif" font-size="10.00">XPCIe_IRQHandler</text>
</a>
</g>
</g>
<!-- Node2&#45;&gt;Node5 -->
<g id="edge4" class="edge"><title>Node2&#45;&gt;Node5</title>
<path fill="none" stroke="midnightblue" d="M162.825,-787.503C172.137,-813.001 200.788,-883.568 246,-924.957 250.117,-928.726 254.932,-932.013 259.924,-934.844"/>
<polygon fill="midnightblue" stroke="midnightblue" points="258.488,-938.04 268.989,-939.453 261.661,-931.8 258.488,-938.04"/>
</g>
<!-- Node6 -->
<g id="node6" class="node"><title>Node6</title>
<g id="a_node6"><a xlink:href="../../de/dc6/_i_n_r-_n_w_8c.html#a3be8a2ad7ead39dfd6b239b890dc1146" target="_top" xlink:title="get_nwdev">
<polygon fill="white" stroke="black" points="569,-863.457 569,-882.457 633,-882.457 633,-863.457 569,-863.457"/>
<text text-anchor="middle" x="601" y="-870.457" font-family="Helvetica,sans-Serif" font-size="10.00">get_nwdev</text>
</a>
</g>
</g>
<!-- Node5&#45;&gt;Node6 -->
<g id="edge5" class="edge"><title>Node5&#45;&gt;Node6</title>
<path fill="none" stroke="midnightblue" d="M336.38,-939.409C393.225,-925.08 500.171,-898.122 558.863,-883.327"/>
<polygon fill="midnightblue" stroke="midnightblue" points="560.051,-886.637 568.892,-880.799 558.34,-879.849 560.051,-886.637"/>
</g>
<!-- Node7 -->
<g id="node7" class="node"><title>Node7</title>
<g id="a_node7"><a xlink:href="../../d1/d67/_i_n_r-_n_a_p_i_8c.html#ab0128b9e2aa3db2fe73ce3475130d2d2" target="_top" xlink:title="INR_NAPI_schedule">
<polygon fill="white" stroke="black" points="386,-939.457 386,-958.457 494,-958.457 494,-939.457 386,-939.457"/>
<text text-anchor="middle" x="440" y="-946.457" font-family="Helvetica,sans-Serif" font-size="10.00">INR_NAPI_schedule</text>
</a>
</g>
</g>
<!-- Node5&#45;&gt;Node7 -->
<g id="edge6" class="edge"><title>Node5&#45;&gt;Node7</title>
<path fill="none" stroke="midnightblue" d="M349.224,-948.957C357.904,-948.957 367.017,-948.957 375.972,-948.957"/>
<polygon fill="midnightblue" stroke="midnightblue" points="375.983,-952.458 385.983,-948.957 375.983,-945.458 375.983,-952.458"/>
</g>
<!-- Node8 -->
<g id="node8" class="node"><title>Node8</title>
<g id="a_node8"><a xlink:href="../../dc/dc8/_i_n_r-_p_c_i_8c.html#a317b7c374854b88af0059ff2a3708ce9" target="_top" xlink:title="INR_PCI_process_rx\l_descriptor_ring">
<polygon fill="white" stroke="black" points="385,-591.957 385,-621.957 495,-621.957 495,-591.957 385,-591.957"/>
<text text-anchor="start" x="393" y="-609.957" font-family="Helvetica,sans-Serif" font-size="10.00">INR_PCI_process_rx</text>
<text text-anchor="middle" x="440" y="-598.957" font-family="Helvetica,sans-Serif" font-size="10.00">_descriptor_ring</text>
</a>
</g>
</g>
<!-- Node5&#45;&gt;Node8 -->
<g id="edge7" class="edge"><title>Node5&#45;&gt;Node8</title>
<path fill="none" stroke="midnightblue" d="M309.656,-939.083C321.024,-928.468 338.443,-910.593 349,-891.957 399.144,-803.446 425.269,-683.351 434.755,-631.96"/>
<polygon fill="midnightblue" stroke="midnightblue" points="438.208,-632.534 436.529,-622.073 431.318,-631.298 438.208,-632.534"/>
</g>
<!-- Node8&#45;&gt;Node3 -->
<g id="edge10" class="edge"><title>Node8&#45;&gt;Node3</title>
<path fill="none" stroke="midnightblue" d="M480.362,-591.947C485.575,-589.063 490.622,-585.739 495,-581.957 517.11,-562.861 507.748,-544.646 531,-526.957 712.225,-389.098 819.599,-480.899 1019,-370.957 1043.92,-357.218 1068.35,-335.191 1083.76,-319.947"/>
<polygon fill="midnightblue" stroke="midnightblue" points="1086.41,-322.247 1090.94,-312.674 1081.43,-317.327 1086.41,-322.247"/>
</g>
<!-- Node8&#45;&gt;Node6 -->
<g id="edge11" class="edge"><title>Node8&#45;&gt;Node6</title>
<path fill="none" stroke="midnightblue" d="M450.004,-622.021C477.349,-667.768 559.372,-804.988 589.094,-854.711"/>
<polygon fill="midnightblue" stroke="midnightblue" points="586.174,-856.649 594.309,-863.437 592.182,-853.057 586.174,-856.649"/>
</g>
<!-- Node9 -->
<g id="node9" class="node"><title>Node9</title>
<g id="a_node9"><a xlink:href="../../d3/d3a/_i_n_r_8c.html#a055451b31abceb46e8c92789d0523980" target="_top" xlink:title="INR_CHECK_fpga_read_val">
<polygon fill="white" stroke="black" points="707,-486.457 707,-505.457 849,-505.457 849,-486.457 707,-486.457"/>
<text text-anchor="middle" x="778" y="-493.457" font-family="Helvetica,sans-Serif" font-size="10.00">INR_CHECK_fpga_read_val</text>
</a>
</g>
</g>
<!-- Node8&#45;&gt;Node9 -->
<g id="edge8" class="edge"><title>Node8&#45;&gt;Node9</title>
<path fill="none" stroke="midnightblue" d="M486.664,-591.872C553.292,-569.861 675.989,-529.327 738.382,-508.715"/>
<polygon fill="midnightblue" stroke="midnightblue" points="739.824,-511.925 748.221,-505.465 737.628,-505.278 739.824,-511.925"/>
</g>
<!-- Node10 -->
<g id="node10" class="node"><title>Node10</title>
<g id="a_node10"><a xlink:href="../../dc/dc8/_i_n_r-_p_c_i_8c.html#a03f960f01f96c2f664301c6830461c7f" target="_top" xlink:title="INR_PCI_alloc_new_rx_skb">
<polygon fill="white" stroke="black" points="531,-318.457 531,-337.457 671,-337.457 671,-318.457 531,-318.457"/>
<text text-anchor="middle" x="601" y="-325.457" font-family="Helvetica,sans-Serif" font-size="10.00">INR_PCI_alloc_new_rx_skb</text>
</a>
</g>
</g>
<!-- Node8&#45;&gt;Node10 -->
<g id="edge12" class="edge"><title>Node8&#45;&gt;Node10</title>
<path fill="none" stroke="midnightblue" d="M483.847,-591.906C488.039,-589.106 491.885,-585.816 495,-581.957 540.79,-525.247 500.796,-488.294 531,-421.957 544.409,-392.507 567.974,-363.187 583.784,-345.316"/>
<polygon fill="midnightblue" stroke="midnightblue" points="586.731,-347.276 590.844,-337.512 581.54,-342.579 586.731,-347.276"/>
</g>
<!-- Node9&#45;&gt;Node3 -->
<g id="edge9" class="edge"><title>Node9&#45;&gt;Node3</title>
<path fill="none" stroke="midnightblue" d="M849.043,-497.835C900.541,-495.825 969.831,-485.677 1019,-449.957 1062.86,-418.092 1085.75,-354.894 1094.99,-322.742"/>
<polygon fill="midnightblue" stroke="midnightblue" points="1098.45,-323.334 1097.7,-312.766 1091.7,-321.5 1098.45,-323.334"/>
</g>
<!-- Node11 -->
<g id="node11" class="node"><title>Node11</title>
<g id="a_node11"><a xlink:href="../../dc/dc8/_i_n_r-_p_c_i_8c.html#af88a9db4ef6451751a395e1207fd7066" target="_top" xlink:title="INR_PCI_get_new_rx\l_descriptor_ring_entry">
<polygon fill="white" stroke="black" points="721.5,-312.957 721.5,-342.957 834.5,-342.957 834.5,-312.957 721.5,-312.957"/>
<text text-anchor="start" x="729.5" y="-330.957" font-family="Helvetica,sans-Serif" font-size="10.00">INR_PCI_get_new_rx</text>
<text text-anchor="middle" x="778" y="-319.957" font-family="Helvetica,sans-Serif" font-size="10.00">_descriptor_ring_entry</text>
</a>
</g>
</g>
<!-- Node10&#45;&gt;Node11 -->
<g id="edge13" class="edge"><title>Node10&#45;&gt;Node11</title>
<path fill="none" stroke="midnightblue" d="M671.165,-327.957C684.282,-327.957 697.974,-327.957 710.991,-327.957"/>
<polygon fill="midnightblue" stroke="midnightblue" points="711.261,-331.458 721.261,-327.957 711.261,-324.458 711.261,-331.458"/>
</g>
<!-- Node11&#45;&gt;Node3 -->
<g id="edge16" class="edge"><title>Node11&#45;&gt;Node3</title>
<path fill="none" stroke="midnightblue" d="M834.547,-323.631C893.456,-319.043 985.956,-311.839 1044.75,-307.26"/>
<polygon fill="midnightblue" stroke="midnightblue" points="1045.26,-310.731 1054.96,-306.465 1044.72,-303.752 1045.26,-310.731"/>
</g>
<!-- Node12 -->
<g id="node12" class="node"><title>Node12</title>
<g id="a_node12"><a xlink:href="../../dc/dc8/_i_n_r-_p_c_i_8c.html#adbea73204b38d31f4b80feb56a27b810" target="_top" xlink:title="INR_PCI_rx_descriptor\l_pool_refill">
<polygon fill="white" stroke="black" points="892.5,-331.957 892.5,-361.957 1011.5,-361.957 1011.5,-331.957 892.5,-331.957"/>
<text text-anchor="start" x="900.5" y="-349.957" font-family="Helvetica,sans-Serif" font-size="10.00">INR_PCI_rx_descriptor</text>
<text text-anchor="middle" x="952" y="-338.957" font-family="Helvetica,sans-Serif" font-size="10.00">_pool_refill</text>
</a>
</g>
</g>
<!-- Node11&#45;&gt;Node12 -->
<g id="edge14" class="edge"><title>Node11&#45;&gt;Node12</title>
<path fill="none" stroke="midnightblue" d="M834.843,-334.126C849.971,-335.797 866.524,-337.626 882.271,-339.365"/>
<polygon fill="midnightblue" stroke="midnightblue" points="882.156,-342.874 892.48,-340.493 882.925,-335.916 882.156,-342.874"/>
</g>
<!-- Node12&#45;&gt;Node3 -->
<g id="edge15" class="edge"><title>Node12&#45;&gt;Node3</title>
<path fill="none" stroke="midnightblue" d="M1003.18,-331.938C1021.12,-326.569 1041.12,-320.581 1058.27,-315.448"/>
<polygon fill="midnightblue" stroke="midnightblue" points="1059.42,-318.756 1068,-312.536 1057.42,-312.05 1059.42,-318.756"/>
</g>
<!-- Node13&#45;&gt;Node3 -->
<g id="edge20" class="edge"><title>Node13&#45;&gt;Node3</title>
<path fill="none" stroke="midnightblue" d="M158.987,-559.343C157.38,-518.348 157.058,-356.936 246,-283.957 312.633,-229.284 352.808,-264.957 439,-264.957 439,-264.957 439,-264.957 779,-264.957 872.693,-264.957 980.708,-281.12 1044.51,-292.363"/>
<polygon fill="midnightblue" stroke="midnightblue" points="1044.29,-295.879 1054.75,-294.192 1045.52,-288.988 1044.29,-295.879"/>
</g>
<!-- Node13&#45;&gt;Node6 -->
<g id="edge19" class="edge"><title>Node13&#45;&gt;Node6</title>
<path fill="none" stroke="midnightblue" d="M162.062,-578.604C176.31,-632.236 245.174,-891.324 246,-891.957 258.226,-901.34 468.072,-884.405 558.779,-876.595"/>
<polygon fill="midnightblue" stroke="midnightblue" points="559.312,-880.062 568.973,-875.712 558.708,-873.088 559.312,-880.062"/>
</g>
<!-- Node14 -->
<g id="node14" class="node"><title>Node14</title>
<g id="a_node14"><a xlink:href="../../d1/d67/_i_n_r-_n_a_p_i_8c.html#a87ec5cd355cffe8b96296dbb83278bfe" target="_top" xlink:title="INR_NAPI_poll_0">
<polygon fill="white" stroke="black" points="250,-711.457 250,-730.457 345,-730.457 345,-711.457 250,-711.457"/>
<text text-anchor="middle" x="297.5" y="-718.457" font-family="Helvetica,sans-Serif" font-size="10.00">INR_NAPI_poll_0</text>
</a>
</g>
</g>
<!-- Node13&#45;&gt;Node14 -->
<g id="edge21" class="edge"><title>Node13&#45;&gt;Node14</title>
<path fill="none" stroke="midnightblue" d="M163.191,-578.478C172.996,-602.577 201.988,-666.584 246,-701.957 248.15,-703.686 250.475,-705.268 252.904,-706.715"/>
<polygon fill="midnightblue" stroke="midnightblue" points="251.541,-709.949 262.039,-711.38 254.725,-703.715 251.541,-709.949"/>
</g>
<!-- Node16 -->
<g id="node16" class="node"><title>Node16</title>
<g id="a_node16"><a xlink:href="../../d1/d67/_i_n_r-_n_a_p_i_8c.html#a938e6a3d06b11a5dc3da541a5d05c0b2" target="_top" xlink:title="INR_NAPI_poll_1">
<polygon fill="white" stroke="black" points="250,-673.457 250,-692.457 345,-692.457 345,-673.457 250,-673.457"/>
<text text-anchor="middle" x="297.5" y="-680.457" font-family="Helvetica,sans-Serif" font-size="10.00">INR_NAPI_poll_1</text>
</a>
</g>
</g>
<!-- Node13&#45;&gt;Node16 -->
<g id="edge24" class="edge"><title>Node13&#45;&gt;Node16</title>
<path fill="none" stroke="midnightblue" d="M165.962,-578.701C178.979,-597.635 210.188,-639.666 246,-663.957 248.752,-665.824 251.712,-667.539 254.769,-669.107"/>
<polygon fill="midnightblue" stroke="midnightblue" points="253.572,-672.408 264.122,-673.38 256.481,-666.041 253.572,-672.408"/>
</g>
<!-- Node17 -->
<g id="node17" class="node"><title>Node17</title>
<g id="a_node17"><a xlink:href="../../d1/d67/_i_n_r-_n_a_p_i_8c.html#a69ec3410fe5dc7da35e2f6a8d72acdb4" target="_top" xlink:title="INR_NAPI_poll_10">
<polygon fill="white" stroke="black" points="247.5,-635.457 247.5,-654.457 347.5,-654.457 347.5,-635.457 247.5,-635.457"/>
<text text-anchor="middle" x="297.5" y="-642.457" font-family="Helvetica,sans-Serif" font-size="10.00">INR_NAPI_poll_10</text>
</a>
</g>
</g>
<!-- Node13&#45;&gt;Node17 -->
<g id="edge27" class="edge"><title>Node13&#45;&gt;Node17</title>
<path fill="none" stroke="midnightblue" d="M172.14,-578.593C188.521,-590.767 218.278,-611.832 246,-625.957 249.85,-627.919 253.952,-629.791 258.09,-631.541"/>
<polygon fill="midnightblue" stroke="midnightblue" points="257.125,-634.925 267.71,-635.39 259.726,-628.426 257.125,-634.925"/>
</g>
<!-- Node18 -->
<g id="node18" class="node"><title>Node18</title>
<g id="a_node18"><a xlink:href="../../d1/d67/_i_n_r-_n_a_p_i_8c.html#a7b9c6dd796e70895de209d2803e13ccc" target="_top" xlink:title="INR_NAPI_poll_11">
<polygon fill="white" stroke="black" points="247.5,-597.457 247.5,-616.457 347.5,-616.457 347.5,-597.457 247.5,-597.457"/>
<text text-anchor="middle" x="297.5" y="-604.457" font-family="Helvetica,sans-Serif" font-size="10.00">INR_NAPI_poll_11</text>
</a>
</g>
</g>
<!-- Node13&#45;&gt;Node18 -->
<g id="edge30" class="edge"><title>Node13&#45;&gt;Node18</title>
<path fill="none" stroke="midnightblue" d="M194.071,-578.546C211.675,-583.429 233.279,-589.422 252.101,-594.642"/>
<polygon fill="midnightblue" stroke="midnightblue" points="251.368,-598.071 261.94,-597.372 253.239,-591.326 251.368,-598.071"/>
</g>
<!-- Node19 -->
<g id="node19" class="node"><title>Node19</title>
<g id="a_node19"><a xlink:href="../../d1/d67/_i_n_r-_n_a_p_i_8c.html#a3a1602b0c3f015b8aabd0b978d704493" target="_top" xlink:title="INR_NAPI_poll_12">
<polygon fill="white" stroke="black" points="247.5,-559.457 247.5,-578.457 347.5,-578.457 347.5,-559.457 247.5,-559.457"/>
<text text-anchor="middle" x="297.5" y="-566.457" font-family="Helvetica,sans-Serif" font-size="10.00">INR_NAPI_poll_12</text>
</a>
</g>
</g>
<!-- Node13&#45;&gt;Node19 -->
<g id="edge33" class="edge"><title>Node13&#45;&gt;Node19</title>
<path fill="none" stroke="midnightblue" d="M199.864,-568.957C211.456,-568.957 224.35,-568.957 236.845,-568.957"/>
<polygon fill="midnightblue" stroke="midnightblue" points="237.209,-572.458 247.209,-568.957 237.209,-565.458 237.209,-572.458"/>
</g>
<!-- Node20 -->
<g id="node20" class="node"><title>Node20</title>
<g id="a_node20"><a xlink:href="../../d1/d67/_i_n_r-_n_a_p_i_8c.html#a2ee390e1624519f6a631b3046c2fbd3f" target="_top" xlink:title="INR_NAPI_poll_13">
<polygon fill="white" stroke="black" points="247.5,-521.457 247.5,-540.457 347.5,-540.457 347.5,-521.457 247.5,-521.457"/>
<text text-anchor="middle" x="297.5" y="-528.457" font-family="Helvetica,sans-Serif" font-size="10.00">INR_NAPI_poll_13</text>
</a>
</g>
</g>
<!-- Node13&#45;&gt;Node20 -->
<g id="edge36" class="edge"><title>Node13&#45;&gt;Node20</title>
<path fill="none" stroke="midnightblue" d="M194.071,-559.368C211.675,-554.486 233.279,-548.493 252.101,-543.273"/>
<polygon fill="midnightblue" stroke="midnightblue" points="253.239,-546.589 261.94,-540.543 251.368,-539.844 253.239,-546.589"/>
</g>
<!-- Node21 -->
<g id="node21" class="node"><title>Node21</title>
<g id="a_node21"><a xlink:href="../../d1/d67/_i_n_r-_n_a_p_i_8c.html#a2cbf12b9e0e03b3b3862a98784ecc52b" target="_top" xlink:title="INR_NAPI_poll_14">
<polygon fill="white" stroke="black" points="247.5,-483.457 247.5,-502.457 347.5,-502.457 347.5,-483.457 247.5,-483.457"/>
<text text-anchor="middle" x="297.5" y="-490.457" font-family="Helvetica,sans-Serif" font-size="10.00">INR_NAPI_poll_14</text>
</a>
</g>
</g>
<!-- Node13&#45;&gt;Node21 -->
<g id="edge39" class="edge"><title>Node13&#45;&gt;Node21</title>
<path fill="none" stroke="midnightblue" d="M172.14,-559.322C188.521,-547.148 218.278,-526.083 246,-511.957 249.85,-509.996 253.952,-508.124 258.09,-506.374"/>
<polygon fill="midnightblue" stroke="midnightblue" points="259.726,-509.489 267.71,-502.525 257.125,-502.99 259.726,-509.489"/>
</g>
<!-- Node22 -->
<g id="node22" class="node"><title>Node22</title>
<g id="a_node22"><a xlink:href="../../d1/d67/_i_n_r-_n_a_p_i_8c.html#a91f701f31afe930ece5c8bf5fb1a7ed6" target="_top" xlink:title="INR_NAPI_poll_15">
<polygon fill="white" stroke="black" points="247.5,-445.457 247.5,-464.457 347.5,-464.457 347.5,-445.457 247.5,-445.457"/>
<text text-anchor="middle" x="297.5" y="-452.457" font-family="Helvetica,sans-Serif" font-size="10.00">INR_NAPI_poll_15</text>
</a>
</g>
</g>
<!-- Node13&#45;&gt;Node22 -->
<g id="edge42" class="edge"><title>Node13&#45;&gt;Node22</title>
<path fill="none" stroke="midnightblue" d="M165.962,-559.214C178.979,-540.28 210.188,-498.249 246,-473.957 248.752,-472.091 251.712,-470.376 254.769,-468.808"/>
<polygon fill="midnightblue" stroke="midnightblue" points="256.481,-471.874 264.122,-464.534 253.572,-465.507 256.481,-471.874"/>
</g>
<!-- Node23 -->
<g id="node23" class="node"><title>Node23</title>
<g id="a_node23"><a xlink:href="../../d1/d67/_i_n_r-_n_a_p_i_8c.html#ae6bc59b863b3928700468d13efd23e27" target="_top" xlink:title="INR_NAPI_poll_2">
<polygon fill="white" stroke="black" points="250,-407.457 250,-426.457 345,-426.457 345,-407.457 250,-407.457"/>
<text text-anchor="middle" x="297.5" y="-414.457" font-family="Helvetica,sans-Serif" font-size="10.00">INR_NAPI_poll_2</text>
</a>
</g>
</g>
<!-- Node13&#45;&gt;Node23 -->
<g id="edge45" class="edge"><title>Node13&#45;&gt;Node23</title>
<path fill="none" stroke="midnightblue" d="M163.191,-559.437C172.996,-535.338 201.988,-471.331 246,-435.957 248.15,-434.229 250.475,-432.647 252.904,-431.2"/>
<polygon fill="midnightblue" stroke="midnightblue" points="254.725,-434.2 262.039,-426.535 251.541,-427.966 254.725,-434.2"/>
</g>
<!-- Node24 -->
<g id="node24" class="node"><title>Node24</title>
<g id="a_node24"><a xlink:href="../../d1/d67/_i_n_r-_n_a_p_i_8c.html#a7888221fd9575d7e7aae78ed125d8646" target="_top" xlink:title="INR_NAPI_poll_3">
<polygon fill="white" stroke="black" points="250,-369.457 250,-388.457 345,-388.457 345,-369.457 250,-369.457"/>
<text text-anchor="middle" x="297.5" y="-376.457" font-family="Helvetica,sans-Serif" font-size="10.00">INR_NAPI_poll_3</text>
</a>
</g>
</g>
<!-- Node13&#45;&gt;Node24 -->
<g id="edge48" class="edge"><title>Node13&#45;&gt;Node24</title>
<path fill="none" stroke="midnightblue" d="M161.735,-559.309C168.866,-530.603 193.744,-444.832 246,-397.957 247.891,-396.261 249.949,-394.71 252.116,-393.294"/>
<polygon fill="midnightblue" stroke="midnightblue" points="253.818,-396.353 260.9,-388.473 250.449,-390.217 253.818,-396.353"/>
</g>
<!-- Node25 -->
<g id="node25" class="node"><title>Node25</title>
<g id="a_node25"><a xlink:href="../../d1/d67/_i_n_r-_n_a_p_i_8c.html#a5e711c1ae61572a4bab9ffefc34d0f34" target="_top" xlink:title="INR_NAPI_poll_4">
<polygon fill="white" stroke="black" points="250,-331.457 250,-350.457 345,-350.457 345,-331.457 250,-331.457"/>
<text text-anchor="middle" x="297.5" y="-338.457" font-family="Helvetica,sans-Serif" font-size="10.00">INR_NAPI_poll_4</text>
</a>
</g>
</g>
<!-- Node13&#45;&gt;Node25 -->
<g id="edge51" class="edge"><title>Node13&#45;&gt;Node25</title>
<path fill="none" stroke="midnightblue" d="M160.777,-559.111C165.557,-526.182 185.335,-418.679 246,-359.957 247.613,-358.396 249.367,-356.96 251.221,-355.64"/>
<polygon fill="midnightblue" stroke="midnightblue" points="253.013,-358.647 259.865,-350.566 249.47,-352.61 253.013,-358.647"/>
</g>
<!-- Node26 -->
<g id="node26" class="node"><title>Node26</title>
<g id="a_node26"><a xlink:href="../../d1/d67/_i_n_r-_n_a_p_i_8c.html#a4c7935fe4ef401ccd186e05e1047748c" target="_top" xlink:title="INR_NAPI_poll_5">
<polygon fill="white" stroke="black" points="250,-293.457 250,-312.457 345,-312.457 345,-293.457 250,-293.457"/>
<text text-anchor="middle" x="297.5" y="-300.457" font-family="Helvetica,sans-Serif" font-size="10.00">INR_NAPI_poll_5</text>
</a>
</g>
</g>
<!-- Node13&#45;&gt;Node26 -->
<g id="edge54" class="edge"><title>Node13&#45;&gt;Node26</title>
<path fill="none" stroke="midnightblue" d="M160.04,-559.43C162.594,-523.29 176.454,-393.122 246,-321.957 247.424,-320.5 248.971,-319.154 250.609,-317.909"/>
<polygon fill="midnightblue" stroke="midnightblue" points="252.727,-320.716 259.417,-312.5 249.064,-314.751 252.727,-320.716"/>
</g>
<!-- Node27 -->
<g id="node27" class="node"><title>Node27</title>
<g id="a_node27"><a xlink:href="../../d1/d67/_i_n_r-_n_a_p_i_8c.html#a2a63c16bad3fb8de0dacd9bb0b02a40f" target="_top" xlink:title="INR_NAPI_poll_6">
<polygon fill="white" stroke="black" points="250,-863.457 250,-882.457 345,-882.457 345,-863.457 250,-863.457"/>
<text text-anchor="middle" x="297.5" y="-870.457" font-family="Helvetica,sans-Serif" font-size="10.00">INR_NAPI_poll_6</text>
</a>
</g>
</g>
<!-- Node13&#45;&gt;Node27 -->
<g id="edge57" class="edge"><title>Node13&#45;&gt;Node27</title>
<path fill="none" stroke="midnightblue" d="M161.884,-578.588C173.673,-625.932 225.982,-832.59 246,-853.957 247.369,-855.419 248.861,-856.768 250.447,-858.015"/>
<polygon fill="midnightblue" stroke="midnightblue" points="248.69,-861.045 259.013,-863.427 252.429,-855.127 248.69,-861.045"/>
</g>
<!-- Node28 -->
<g id="node28" class="node"><title>Node28</title>
<g id="a_node28"><a xlink:href="../../d1/d67/_i_n_r-_n_a_p_i_8c.html#a05cb8dc7168c07cf8755dc8e4075caba" target="_top" xlink:title="INR_NAPI_poll_7">
<polygon fill="white" stroke="black" points="250,-825.457 250,-844.457 345,-844.457 345,-825.457 250,-825.457"/>
<text text-anchor="middle" x="297.5" y="-832.457" font-family="Helvetica,sans-Serif" font-size="10.00">INR_NAPI_poll_7</text>
</a>
</g>
</g>
<!-- Node13&#45;&gt;Node28 -->
<g id="edge60" class="edge"><title>Node13&#45;&gt;Node28</title>
<path fill="none" stroke="midnightblue" d="M161.741,-578.682C171.411,-619.911 210.671,-779.807 246,-815.957 247.424,-817.415 248.971,-818.761 250.609,-820.006"/>
<polygon fill="midnightblue" stroke="midnightblue" points="249.064,-823.164 259.417,-825.415 252.727,-817.199 249.064,-823.164"/>
</g>
<!-- Node29 -->
<g id="node29" class="node"><title>Node29</title>
<g id="a_node29"><a xlink:href="../../d1/d67/_i_n_r-_n_a_p_i_8c.html#a56cfbbdff0a9b3fba466a06079b21ed8" target="_top" xlink:title="INR_NAPI_poll_8">
<polygon fill="white" stroke="black" points="250,-787.457 250,-806.457 345,-806.457 345,-787.457 250,-787.457"/>
<text text-anchor="middle" x="297.5" y="-794.457" font-family="Helvetica,sans-Serif" font-size="10.00">INR_NAPI_poll_8</text>
</a>
</g>
</g>
<!-- Node13&#45;&gt;Node29 -->
<g id="edge63" class="edge"><title>Node13&#45;&gt;Node29</title>
<path fill="none" stroke="midnightblue" d="M160.777,-578.804C165.557,-611.733 185.335,-719.236 246,-777.957 247.613,-779.519 249.367,-780.955 251.221,-782.275"/>
<polygon fill="midnightblue" stroke="midnightblue" points="249.47,-785.305 259.865,-787.349 253.013,-779.268 249.47,-785.305"/>
</g>
<!-- Node30 -->
<g id="node30" class="node"><title>Node30</title>
<g id="a_node30"><a xlink:href="../../d1/d67/_i_n_r-_n_a_p_i_8c.html#a7411c18801eb32e892612975b01d604e" target="_top" xlink:title="INR_NAPI_poll_9">
<polygon fill="white" stroke="black" points="250,-749.457 250,-768.457 345,-768.457 345,-749.457 250,-749.457"/>
<text text-anchor="middle" x="297.5" y="-756.457" font-family="Helvetica,sans-Serif" font-size="10.00">INR_NAPI_poll_9</text>
</a>
</g>
</g>
<!-- Node13&#45;&gt;Node30 -->
<g id="edge66" class="edge"><title>Node13&#45;&gt;Node30</title>
<path fill="none" stroke="midnightblue" d="M161.735,-578.606C168.866,-607.312 193.744,-693.083 246,-739.957 247.891,-741.654 249.949,-743.205 252.116,-744.621"/>
<polygon fill="midnightblue" stroke="midnightblue" points="250.449,-747.698 260.9,-749.442 253.818,-741.562 250.449,-747.698"/>
</g>
<!-- Node14&#45;&gt;Node8 -->
<g id="edge23" class="edge"><title>Node14&#45;&gt;Node8</title>
<path fill="none" stroke="midnightblue" d="M330.555,-711.403C336.928,-708.823 343.381,-705.688 349,-701.957 378.444,-682.407 405.338,-651.536 421.908,-630.323"/>
<polygon fill="midnightblue" stroke="midnightblue" points="424.856,-632.23 428.148,-622.16 419.295,-627.978 424.856,-632.23"/>
</g>
<!-- Node15 -->
<g id="node15" class="node"><title>Node15</title>
<g id="a_node15"><a xlink:href="../../d1/d67/_i_n_r-_n_a_p_i_8c.html#a517ed25d9d1f3ee1c648633b74f4469b" target="_top" xlink:title="INR_NAPI_complete">
<polygon fill="white" stroke="black" points="385.5,-553.457 385.5,-572.457 494.5,-572.457 494.5,-553.457 385.5,-553.457"/>
<text text-anchor="middle" x="440" y="-560.457" font-family="Helvetica,sans-Serif" font-size="10.00">INR_NAPI_complete</text>
</a>
</g>
</g>
<!-- Node14&#45;&gt;Node15 -->
<g id="edge22" class="edge"><title>Node14&#45;&gt;Node15</title>
<path fill="none" stroke="midnightblue" d="M335.99,-711.43C340.824,-708.96 345.351,-705.856 349,-701.957 386.76,-661.616 347.136,-623.202 385,-582.957 386.798,-581.046 388.796,-579.317 390.932,-577.751"/>
<polygon fill="midnightblue" stroke="midnightblue" points="392.945,-580.626 399.737,-572.494 389.356,-574.616 392.945,-580.626"/>
</g>
<!-- Node16&#45;&gt;Node8 -->
<g id="edge26" class="edge"><title>Node16&#45;&gt;Node8</title>
<path fill="none" stroke="midnightblue" d="M326.983,-673.404C334.286,-670.641 342.041,-667.425 349,-663.957 370.005,-653.493 392.297,-639.399 409.441,-627.844"/>
<polygon fill="midnightblue" stroke="midnightblue" points="411.618,-630.596 417.902,-622.066 407.67,-624.815 411.618,-630.596"/>
</g>
<!-- Node16&#45;&gt;Node15 -->
<g id="edge25" class="edge"><title>Node16&#45;&gt;Node15</title>
<path fill="none" stroke="midnightblue" d="M334.788,-673.381C339.965,-670.907 344.911,-667.814 349,-663.957 377.658,-636.925 356.273,-609.916 385,-582.957 387.153,-580.937 389.528,-579.117 392.044,-577.477"/>
<polygon fill="midnightblue" stroke="midnightblue" points="393.932,-580.434 401.033,-572.571 390.578,-574.29 393.932,-580.434"/>
</g>
<!-- Node17&#45;&gt;Node8 -->
<g id="edge29" class="edge"><title>Node17&#45;&gt;Node8</title>
<path fill="none" stroke="midnightblue" d="M333.954,-635.368C346.504,-631.974 361.035,-628.044 375.213,-624.21"/>
<polygon fill="midnightblue" stroke="midnightblue" points="376.203,-627.567 384.943,-621.578 374.376,-620.81 376.203,-627.567"/>
</g>
<!-- Node17&#45;&gt;Node15 -->
<g id="edge28" class="edge"><title>Node17&#45;&gt;Node15</title>
<path fill="none" stroke="midnightblue" d="M331.267,-635.449C337.452,-632.89 343.651,-629.75 349,-625.957 369.332,-611.54 364.631,-597.322 385,-582.957 388.262,-580.657 391.819,-578.588 395.501,-576.734"/>
<polygon fill="midnightblue" stroke="midnightblue" points="397.12,-579.844 404.812,-572.558 394.255,-573.457 397.12,-579.844"/>
</g>
<!-- Node18&#45;&gt;Node8 -->
<g id="edge32" class="edge"><title>Node18&#45;&gt;Node8</title>
<path fill="none" stroke="midnightblue" d="M347.64,-606.957C356.379,-606.957 365.599,-606.957 374.685,-606.957"/>
<polygon fill="midnightblue" stroke="midnightblue" points="374.855,-610.458 384.855,-606.957 374.855,-603.458 374.855,-610.458"/>
</g>
<!-- Node18&#45;&gt;Node15 -->
<g id="edge31" class="edge"><title>Node18&#45;&gt;Node15</title>
<path fill="none" stroke="midnightblue" d="M328.986,-597.41C349.423,-591.01 376.554,-582.513 398.759,-575.56"/>
<polygon fill="midnightblue" stroke="midnightblue" points="400.076,-578.815 408.573,-572.486 397.984,-572.135 400.076,-578.815"/>
</g>
<!-- Node19&#45;&gt;Node8 -->
<g id="edge35" class="edge"><title>Node19&#45;&gt;Node8</title>
<path fill="none" stroke="midnightblue" d="M333.954,-578.546C346.504,-581.941 361.035,-585.871 375.213,-589.705"/>
<polygon fill="midnightblue" stroke="midnightblue" points="374.376,-593.105 384.943,-592.337 376.203,-586.348 374.376,-593.105"/>
</g>
<!-- Node19&#45;&gt;Node15 -->
<g id="edge34" class="edge"><title>Node19&#45;&gt;Node15</title>
<path fill="none" stroke="midnightblue" d="M347.64,-566.859C356.59,-566.477 366.043,-566.073 375.341,-565.676"/>
<polygon fill="midnightblue" stroke="midnightblue" points="375.496,-569.173 385.338,-565.249 375.198,-562.179 375.496,-569.173"/>
</g>
<!-- Node20&#45;&gt;Node8 -->
<g id="edge38" class="edge"><title>Node20&#45;&gt;Node8</title>
<path fill="none" stroke="midnightblue" d="M329.252,-540.47C335.979,-543.108 342.906,-546.277 349,-549.957 367.325,-561.023 367.095,-570.224 385,-581.957 387.722,-583.741 390.591,-585.464 393.531,-587.115"/>
<polygon fill="midnightblue" stroke="midnightblue" points="392.006,-590.268 402.484,-591.837 395.272,-584.076 392.006,-590.268"/>
</g>
<!-- Node20&#45;&gt;Node15 -->
<g id="edge37" class="edge"><title>Node20&#45;&gt;Node15</title>
<path fill="none" stroke="midnightblue" d="M340.274,-540.472C355.005,-543.827 371.747,-547.64 387.205,-551.161"/>
<polygon fill="midnightblue" stroke="midnightblue" points="386.617,-554.616 397.144,-553.424 388.171,-547.791 386.617,-554.616"/>
</g>
<!-- Node21&#45;&gt;Node8 -->
<g id="edge41" class="edge"><title>Node21&#45;&gt;Node8</title>
<path fill="none" stroke="midnightblue" d="M334.078,-502.498C339.466,-504.987 344.664,-508.094 349,-511.957 375.12,-535.231 359.755,-557.738 385,-581.957 386.482,-583.379 388.059,-584.73 389.707,-586.014"/>
<polygon fill="midnightblue" stroke="midnightblue" points="388.186,-589.208 398.439,-591.879 392.089,-583.398 388.186,-589.208"/>
</g>
<!-- Node21&#45;&gt;Node15 -->
<g id="edge40" class="edge"><title>Node21&#45;&gt;Node15</title>
<path fill="none" stroke="midnightblue" d="M326.342,-502.547C333.798,-505.354 341.788,-508.583 349,-511.957 372.132,-522.783 397.338,-537.319 415.174,-548.103"/>
<polygon fill="midnightblue" stroke="midnightblue" points="413.422,-551.134 423.78,-553.361 417.071,-545.16 413.422,-551.134"/>
</g>
<!-- Node22&#45;&gt;Node8 -->
<g id="edge44" class="edge"><title>Node22&#45;&gt;Node8</title>
<path fill="none" stroke="midnightblue" d="M335.892,-464.578C340.74,-467.035 345.297,-470.111 349,-473.957 384.089,-510.41 351.278,-544.237 385,-581.957 386.183,-583.281 387.451,-584.54 388.787,-585.736"/>
<polygon fill="midnightblue" stroke="midnightblue" points="386.959,-588.74 397.063,-591.927 391.152,-583.134 386.959,-588.74"/>
</g>
<!-- Node22&#45;&gt;Node15 -->
<g id="edge43" class="edge"><title>Node22&#45;&gt;Node15</title>
<path fill="none" stroke="midnightblue" d="M330.196,-464.548C336.662,-467.138 343.242,-470.268 349,-473.957 379.945,-493.785 408.871,-525.693 425.207,-545.433"/>
<polygon fill="midnightblue" stroke="midnightblue" points="422.583,-547.754 431.598,-553.319 428.021,-543.346 422.583,-547.754"/>
</g>
<!-- Node23&#45;&gt;Node8 -->
<g id="edge47" class="edge"><title>Node23&#45;&gt;Node8</title>
<path fill="none" stroke="midnightblue" d="M336.681,-426.58C341.296,-429.032 345.578,-432.106 349,-435.957 393.386,-485.922 342.485,-530.391 385,-581.957 385.986,-583.153 387.041,-584.295 388.155,-585.384"/>
<polygon fill="midnightblue" stroke="midnightblue" points="386.235,-588.33 396.231,-591.842 390.607,-582.863 386.235,-588.33"/>
</g>
<!-- Node23&#45;&gt;Node15 -->
<g id="edge46" class="edge"><title>Node23&#45;&gt;Node15</title>
<path fill="none" stroke="midnightblue" d="M332.308,-426.466C338.203,-428.996 344.031,-432.124 349,-435.957 387.515,-465.669 416.364,-516.387 430.098,-543.882"/>
<polygon fill="midnightblue" stroke="midnightblue" points="427.098,-545.718 434.61,-553.19 433.397,-542.664 427.098,-545.718"/>
</g>
<!-- Node24&#45;&gt;Node8 -->
<g id="edge50" class="edge"><title>Node24&#45;&gt;Node8</title>
<path fill="none" stroke="midnightblue" d="M337.105,-388.564C341.598,-391.017 345.733,-394.095 349,-397.957 402.814,-461.579 333.568,-516.396 385,-581.957 385.937,-583.151 386.943,-584.29 388.009,-585.377"/>
<polygon fill="midnightblue" stroke="midnightblue" points="385.85,-588.133 395.785,-591.815 390.314,-582.742 385.85,-588.133"/>
</g>
<!-- Node24&#45;&gt;Node15 -->
<g id="edge49" class="edge"><title>Node24&#45;&gt;Node15</title>
<path fill="none" stroke="midnightblue" d="M333.736,-388.47C339.226,-390.969 344.546,-394.085 349,-397.957 395.662,-438.526 422.556,-509.44 433.381,-543.549"/>
<polygon fill="midnightblue" stroke="midnightblue" points="430.073,-544.699 436.336,-553.245 436.769,-542.659 430.073,-544.699"/>
</g>
<!-- Node25&#45;&gt;Node8 -->
<g id="edge53" class="edge"><title>Node25&#45;&gt;Node8</title>
<path fill="none" stroke="midnightblue" d="M337.223,-350.466C341.697,-352.934 345.796,-356.043 349,-359.957 412.305,-437.311 324.589,-502.323 385,-581.957 385.917,-583.166 386.907,-584.319 387.957,-585.417"/>
<polygon fill="midnightblue" stroke="midnightblue" points="385.759,-588.141 395.66,-591.911 390.271,-582.79 385.759,-588.141"/>
</g>
<!-- Node25&#45;&gt;Node15 -->
<g id="edge52" class="edge"><title>Node25&#45;&gt;Node15</title>
<path fill="none" stroke="midnightblue" d="M334.791,-350.53C339.968,-353.006 344.913,-356.099 349,-359.957 403.971,-411.858 427.535,-503.364 435.553,-543.343"/>
<polygon fill="midnightblue" stroke="midnightblue" points="432.154,-544.208 437.452,-553.383 439.032,-542.907 432.154,-544.208"/>
</g>
<!-- Node26&#45;&gt;Node8 -->
<g id="edge56" class="edge"><title>Node26&#45;&gt;Node8</title>
<path fill="none" stroke="midnightblue" d="M337.802,-312.675C342.07,-315.109 345.959,-318.152 349,-321.957 421.832,-413.087 315.576,-488.206 385,-581.957 385.795,-583.032 386.648,-584.061 387.551,-585.047"/>
<polygon fill="midnightblue" stroke="midnightblue" points="385.471,-587.877 395.313,-591.799 390.065,-582.595 385.471,-587.877"/>
</g>
<!-- Node26&#45;&gt;Node15 -->
<g id="edge55" class="edge"><title>Node26&#45;&gt;Node15</title>
<path fill="none" stroke="midnightblue" d="M335.512,-312.571C340.472,-315.032 345.163,-318.111 349,-321.957 412.391,-385.504 431.719,-497.801 437.099,-543.145"/>
<polygon fill="midnightblue" stroke="midnightblue" points="433.627,-543.596 438.185,-553.16 440.587,-542.841 433.627,-543.596"/>
</g>
<!-- Node27&#45;&gt;Node8 -->
<g id="edge59" class="edge"><title>Node27&#45;&gt;Node8</title>
<path fill="none" stroke="midnightblue" d="M335.54,-863.372C340.496,-860.906 345.178,-857.819 349,-853.957 411.379,-790.925 430.914,-681.283 436.707,-632.097"/>
<polygon fill="midnightblue" stroke="midnightblue" points="440.201,-632.34 437.798,-622.021 433.242,-631.586 440.201,-632.34"/>
</g>
<!-- Node27&#45;&gt;Node15 -->
<g id="edge58" class="edge"><title>Node27&#45;&gt;Node15</title>
<path fill="none" stroke="midnightblue" d="M337.822,-863.256C342.086,-860.819 345.969,-857.771 349,-853.957 424.595,-758.835 309.161,-677.885 385,-582.957 386.31,-581.317 387.769,-579.811 389.343,-578.429"/>
<polygon fill="midnightblue" stroke="midnightblue" points="391.741,-581.03 398.02,-572.496 387.79,-575.252 391.741,-581.03"/>
</g>
<!-- Node28&#45;&gt;Node8 -->
<g id="edge62" class="edge"><title>Node28&#45;&gt;Node8</title>
<path fill="none" stroke="midnightblue" d="M334.828,-825.423C340,-822.943 344.934,-819.838 349,-815.957 402.881,-764.539 426.212,-675.508 434.768,-632.147"/>
<polygon fill="midnightblue" stroke="midnightblue" points="438.238,-632.63 436.635,-622.157 431.357,-631.344 438.238,-632.63"/>
</g>
<!-- Node28&#45;&gt;Node15 -->
<g id="edge61" class="edge"><title>Node28&#45;&gt;Node15</title>
<path fill="none" stroke="midnightblue" d="M337.745,-825.194C342.022,-822.768 345.929,-819.739 349,-815.957 415.06,-734.62 318.731,-664.125 385,-582.957 386.438,-581.196 388.048,-579.589 389.786,-578.124"/>
<polygon fill="midnightblue" stroke="midnightblue" points="391.735,-581.031 398.105,-572.564 387.846,-575.211 391.735,-581.031"/>
</g>
<!-- Node29&#45;&gt;Node8 -->
<g id="edge65" class="edge"><title>Node29&#45;&gt;Node8</title>
<path fill="none" stroke="midnightblue" d="M334.047,-787.382C339.438,-784.896 344.646,-781.8 349,-777.957 394.558,-737.75 420.702,-668.841 432.098,-631.969"/>
<polygon fill="midnightblue" stroke="midnightblue" points="435.553,-632.627 435.046,-622.045 428.843,-630.634 435.553,-632.627"/>
</g>
<!-- Node29&#45;&gt;Node15 -->
<g id="edge64" class="edge"><title>Node29&#45;&gt;Node15</title>
<path fill="none" stroke="midnightblue" d="M337.144,-787.383C341.63,-784.925 345.754,-781.837 349,-777.957 405.556,-710.367 328.27,-650.402 385,-582.957 386.49,-581.186 388.153,-579.571 389.944,-578.099"/>
<polygon fill="midnightblue" stroke="midnightblue" points="392.03,-580.917 398.489,-572.519 388.202,-575.057 392.03,-580.917"/>
</g>
<!-- Node30&#45;&gt;Node8 -->
<g id="edge68" class="edge"><title>Node30&#45;&gt;Node8</title>
<path fill="none" stroke="midnightblue" d="M332.639,-749.422C338.438,-746.904 344.146,-743.786 349,-739.957 386.367,-710.483 413.918,-661.18 428.129,-631.597"/>
<polygon fill="midnightblue" stroke="midnightblue" points="431.374,-632.92 432.432,-622.378 425.031,-629.959 431.374,-632.92"/>
</g>
<!-- Node30&#45;&gt;Node15 -->
<g id="edge67" class="edge"><title>Node30&#45;&gt;Node15</title>
<path fill="none" stroke="midnightblue" d="M336.99,-749.252C341.5,-746.814 345.672,-743.766 349,-739.957 396.106,-686.051 337.755,-636.743 385,-582.957 386.555,-581.188 388.28,-579.574 390.133,-578.103"/>
<polygon fill="midnightblue" stroke="midnightblue" points="392.358,-580.837 398.927,-572.525 388.608,-574.926 392.358,-580.837"/>
</g>
<!-- Node31&#45;&gt;Node3 -->
<g id="edge70" class="edge"><title>Node31&#45;&gt;Node3</title>
<path fill="none" stroke="midnightblue" d="M995.83,-84.5693C1004.28,-88.0143 1012.53,-92.6715 1019,-98.9575 1072.61,-151.021 1091.62,-243.028 1097.58,-283.231"/>
<polygon fill="midnightblue" stroke="midnightblue" points="1094.13,-283.894 1098.96,-293.328 1101.07,-282.946 1094.13,-283.894"/>
</g>
<!-- Node32&#45;&gt;Node3 -->
<g id="edge72" class="edge"><title>Node32&#45;&gt;Node3</title>
<path fill="none" stroke="midnightblue" d="M633.994,-27.3917C709.716,-6.86342 902.291,32.7137 1019,-55.9575 1092.19,-111.563 1100.19,-235.033 1100.4,-283.186"/>
<polygon fill="midnightblue" stroke="midnightblue" points="1096.9,-283.217 1100.34,-293.241 1103.9,-283.265 1096.9,-283.217"/>
</g>
<!-- Node33&#45;&gt;Node3 -->
<g id="edge74" class="edge"><title>Node33&#45;&gt;Node3</title>
<path fill="none" stroke="midnightblue" d="M202.824,-179.368C257.554,-168.111 354.77,-150.957 439,-150.957 439,-150.957 439,-150.957 779,-150.957 904.965,-150.957 1034.3,-247.749 1081.42,-286.855"/>
<polygon fill="midnightblue" stroke="midnightblue" points="1079.33,-289.679 1089.24,-293.449 1083.85,-284.327 1079.33,-289.679"/>
</g>
<!-- Node33&#45;&gt;Node4 -->
<g id="edge75" class="edge"><title>Node33&#45;&gt;Node4</title>
<path fill="none" stroke="midnightblue" d="M194.071,-198.546C211.675,-203.429 233.279,-209.422 252.101,-214.642"/>
<polygon fill="midnightblue" stroke="midnightblue" points="251.368,-218.071 261.94,-217.372 253.239,-211.326 251.368,-218.071"/>
</g>
<!-- Node33&#45;&gt;Node10 -->
<g id="edge76" class="edge"><title>Node33&#45;&gt;Node10</title>
<path fill="none" stroke="midnightblue" d="M210.249,-189.315C248.922,-190.715 303.15,-195.123 349,-207.957 437.399,-232.703 532.884,-286.846 576.212,-313.098"/>
<polygon fill="midnightblue" stroke="midnightblue" points="574.527,-316.17 584.883,-318.403 578.18,-310.199 574.527,-316.17"/>
</g>
<!-- Node34&#45;&gt;Node3 -->
<g id="edge79" class="edge"><title>Node34&#45;&gt;Node3</title>
<path fill="none" stroke="midnightblue" d="M202.824,-141.368C257.554,-130.111 354.77,-112.957 439,-112.957 439,-112.957 439,-112.957 779,-112.957 888.634,-112.957 930.314,-105.503 1019,-169.957 1058.93,-198.977 1083.1,-254.254 1093.69,-283.574"/>
<polygon fill="midnightblue" stroke="midnightblue" points="1090.4,-284.793 1096.97,-293.105 1097.02,-282.51 1090.4,-284.793"/>
</g>
<!-- Node34&#45;&gt;Node4 -->
<g id="edge80" class="edge"><title>Node34&#45;&gt;Node4</title>
<path fill="none" stroke="midnightblue" d="M188.29,-160.525C195.515,-163.268 203.156,-166.47 210,-169.957 233.607,-181.986 258.69,-199.047 275.732,-211.365"/>
<polygon fill="midnightblue" stroke="midnightblue" points="273.725,-214.234 283.86,-217.322 277.863,-208.588 273.725,-214.234"/>
</g>
</g>
</svg>
