<?xml version="1.0" encoding="UTF-8" standalone="no"?>
<!DOCTYPE svg PUBLIC "-//W3C//DTD SVG 1.1//EN"
 "http://www.w3.org/Graphics/SVG/1.1/DTD/svg11.dtd">
<!-- Generated by graphviz version 2.38.0 (20140413.2041)
 -->
<!-- Title: XPCIe_IRQHandler Pages: 1 -->
<!--zoomable 195 -->
<svg id="main" version="1.1" xmlns="http://www.w3.org/2000/svg" xmlns:xlink="http://www.w3.org/1999/xlink" xml:space="preserve" onload="init(evt)">
<style type="text/css"><![CDATA[
.edge:hover path { stroke: red; }
.edge:hover polygon { stroke: red; fill: red; }
]]></style>
<script type="text/javascript"><![CDATA[
var edges = document.getElementsByTagName('g');
if (edges && edges.length) {
  for (var i=0;i<edges.length;i++) {
    if (edges[i].id.substr(0,4)=='edge') {
      edges[i].setAttribute('class','edge');
    }
  }
}
]]></script>
        <defs>
                <circle id="rim" cx="0" cy="0" r="7"/>
                <circle id="rim2" cx="0" cy="0" r="3.5"/>
                <g id="zoomPlus">
                        <use xlink:href="#rim" fill="#404040">
                                <set attributeName="fill" to="#808080" begin="zoomplus.mouseover" end="zoomplus.mouseout"/>
                        </use>
                        <path d="M-4,0h8M0,-4v8" fill="none" stroke="white" stroke-width="1.5" pointer-events="none"/>
                </g>
                <g id="zoomMin">
                        <use xlink:href="#rim" fill="#404040">
                                <set attributeName="fill" to="#808080" begin="zoomminus.mouseover" end="zoomminus.mouseout"/>
                        </use>
                        <path d="M-4,0h8" fill="none" stroke="white" stroke-width="1.5" pointer-events="none"/>
                </g>
                <g id="dirArrow">
                        <path fill="none" stroke="white" stroke-width="1.5" d="M0,-3.0v7 M-2.5,-0.5L0,-3.0L2.5,-0.5"/>
                </g>
               <g id="resetDef">
                       <use xlink:href="#rim2" fill="#404040">
                               <set attributeName="fill" to="#808080" begin="reset.mouseover" end="reset.mouseout"/>
                       </use>
               </g>
        </defs>

<script type="text/javascript">
var viewWidth = 894;
var viewHeight = 195;
var sectionId = 'dynsection-29';
</script>
<script xlink:href="../../svgpan.js"/>
<svg id="graph" class="graph">
<g id="viewport">
<title>XPCIe_IRQHandler</title>
<polygon fill="white" stroke="none" points="-4,4 -4,-190.5 890,-190.5 890,4 -4,4"/>
<!-- Node1 -->
<g id="node1" class="node"><title>Node1</title>
<polygon fill="#bfbfbf" stroke="black" points="0,-132 0,-151 103,-151 103,-132 0,-132"/>
<text text-anchor="middle" x="51.5" y="-139" font-family="Helvetica,sans-Serif" font-size="10.00">XPCIe_IRQHandler</text>
</g>
<!-- Node2 -->
<g id="node2" class="node"><title>Node2</title>
<g id="a_node2"><a xlink:href="../../de/dc6/_i_n_r-_n_w_8c.html#a3be8a2ad7ead39dfd6b239b890dc1146" target="_top" xlink:title="get_nwdev">
<polygon fill="white" stroke="black" points="323,-167 323,-186 387,-186 387,-167 323,-167"/>
<text text-anchor="middle" x="355" y="-174" font-family="Helvetica,sans-Serif" font-size="10.00">get_nwdev</text>
</a>
</g>
</g>
<!-- Node1&#45;&gt;Node2 -->
<g id="edge1" class="edge"><title>Node1&#45;&gt;Node2</title>
<path fill="none" stroke="midnightblue" d="M90.6088,-151.094C105.604,-154.547 123.026,-158.163 139,-160.5 199.046,-169.284 269.272,-173.359 312.698,-175.167"/>
<polygon fill="midnightblue" stroke="midnightblue" points="312.742,-178.671 322.873,-175.569 313.019,-171.677 312.742,-178.671"/>
</g>
<!-- Node3 -->
<g id="node3" class="node"><title>Node3</title>
<g id="a_node3"><a xlink:href="../../d1/d67/_i_n_r-_n_a_p_i_8c.html#ab0128b9e2aa3db2fe73ce3475130d2d2" target="_top" xlink:title="INR_NAPI_schedule">
<polygon fill="white" stroke="black" points="140,-132 140,-151 248,-151 248,-132 140,-132"/>
<text text-anchor="middle" x="194" y="-139" font-family="Helvetica,sans-Serif" font-size="10.00">INR_NAPI_schedule</text>
</a>
</g>
</g>
<!-- Node1&#45;&gt;Node3 -->
<g id="edge2" class="edge"><title>Node1&#45;&gt;Node3</title>
<path fill="none" stroke="midnightblue" d="M103.224,-141.5C111.904,-141.5 121.017,-141.5 129.972,-141.5"/>
<polygon fill="midnightblue" stroke="midnightblue" points="129.983,-145 139.983,-141.5 129.983,-138 129.983,-145"/>
</g>
<!-- Node4 -->
<g id="node4" class="node"><title>Node4</title>
<g id="a_node4"><a xlink:href="../../dc/dc8/_i_n_r-_p_c_i_8c.html#a317b7c374854b88af0059ff2a3708ce9" target="_top" xlink:title="INR_PCI_process_rx\l_descriptor_ring">
<polygon fill="white" stroke="black" points="139,-82.5 139,-112.5 249,-112.5 249,-82.5 139,-82.5"/>
<text text-anchor="start" x="147" y="-100.5" font-family="Helvetica,sans-Serif" font-size="10.00">INR_PCI_process_rx</text>
<text text-anchor="middle" x="194" y="-89.5" font-family="Helvetica,sans-Serif" font-size="10.00">_descriptor_ring</text>
</a>
</g>
</g>
<!-- Node1&#45;&gt;Node4 -->
<g id="edge3" class="edge"><title>Node1&#45;&gt;Node4</title>
<path fill="none" stroke="midnightblue" d="M82.9864,-131.953C98.2401,-127.176 117.223,-121.231 135.104,-115.631"/>
<polygon fill="midnightblue" stroke="midnightblue" points="136.397,-118.894 144.894,-112.565 134.305,-112.214 136.397,-118.894"/>
</g>
<!-- Node4&#45;&gt;Node2 -->
<g id="edge4" class="edge"><title>Node4&#45;&gt;Node2</title>
<path fill="none" stroke="midnightblue" d="M230.41,-112.593C236.722,-115.647 243.147,-119.003 249,-122.5 266.169,-132.758 267.528,-139.767 285,-149.5 294.368,-154.718 304.951,-159.401 314.964,-163.344"/>
<polygon fill="midnightblue" stroke="midnightblue" points="313.741,-166.623 324.333,-166.89 316.22,-160.076 313.741,-166.623"/>
</g>
<!-- Node5 -->
<g id="node5" class="node"><title>Node5</title>
<g id="a_node5"><a xlink:href="../../d3/d3a/_i_n_r_8c.html#a055451b31abceb46e8c92789d0523980" target="_top" xlink:title="INR_CHECK_fpga_read_val">
<polygon fill="white" stroke="black" points="461,-126 461,-145 603,-145 603,-126 461,-126"/>
<text text-anchor="middle" x="532" y="-133" font-family="Helvetica,sans-Serif" font-size="10.00">INR_CHECK_fpga_read_val</text>
</a>
</g>
</g>
<!-- Node4&#45;&gt;Node5 -->
<g id="edge5" class="edge"><title>Node4&#45;&gt;Node5</title>
<path fill="none" stroke="midnightblue" d="M249.184,-106.441C260.973,-108.243 273.391,-110.032 285,-111.5 340.246,-118.486 402.694,-124.556 450.847,-128.844"/>
<polygon fill="midnightblue" stroke="midnightblue" points="450.628,-132.339 460.898,-129.732 451.244,-125.366 450.628,-132.339"/>
</g>
<!-- Node6 -->
<g id="node6" class="node"><title>Node6</title>
<g id="a_node6"><a xlink:href="../../d3/d3a/_i_n_r_8c.html#a549bff83219b80ccf76c695682e37707" target="_top" xlink:title="INR_LOG_debug">
<polygon fill="white" stroke="black" points="794,-69 794,-88 886,-88 886,-69 794,-69"/>
<text text-anchor="middle" x="840" y="-76" font-family="Helvetica,sans-Serif" font-size="10.00">INR_LOG_debug</text>
</a>
</g>
</g>
<!-- Node4&#45;&gt;Node6 -->
<g id="edge7" class="edge"><title>Node4&#45;&gt;Node6</title>
<path fill="none" stroke="midnightblue" d="M249.354,-96.1108C349.812,-93.5088 571.335,-87.6091 758,-81.5 766.199,-81.2317 774.865,-80.93 783.359,-80.624"/>
<polygon fill="midnightblue" stroke="midnightblue" points="783.726,-84.113 793.592,-80.2507 783.471,-77.1177 783.726,-84.113"/>
</g>
<!-- Node7 -->
<g id="node7" class="node"><title>Node7</title>
<g id="a_node7"><a xlink:href="../../dc/dc8/_i_n_r-_p_c_i_8c.html#a03f960f01f96c2f664301c6830461c7f" target="_top" xlink:title="INR_PCI_alloc_new_rx_skb">
<polygon fill="white" stroke="black" points="285,-47 285,-66 425,-66 425,-47 285,-47"/>
<text text-anchor="middle" x="355" y="-54" font-family="Helvetica,sans-Serif" font-size="10.00">INR_PCI_alloc_new_rx_skb</text>
</a>
</g>
</g>
<!-- Node4&#45;&gt;Node7 -->
<g id="edge8" class="edge"><title>Node4&#45;&gt;Node7</title>
<path fill="none" stroke="midnightblue" d="M249.274,-83.5048C268.099,-78.6506 289.029,-73.2536 307.199,-68.5682"/>
<polygon fill="midnightblue" stroke="midnightblue" points="308.169,-71.9325 316.979,-66.0464 306.421,-65.1543 308.169,-71.9325"/>
</g>
<!-- Node5&#45;&gt;Node6 -->
<g id="edge6" class="edge"><title>Node5&#45;&gt;Node6</title>
<path fill="none" stroke="midnightblue" d="M603.066,-133.082C647.918,-130.3 707.047,-124.325 758,-111.5 775.998,-106.97 795.275,-99.243 810.506,-92.4046"/>
<polygon fill="midnightblue" stroke="midnightblue" points="812.262,-95.4488 819.877,-88.0816 809.33,-89.0926 812.262,-95.4488"/>
</g>
<!-- Node8 -->
<g id="node8" class="node"><title>Node8</title>
<g id="a_node8"><a xlink:href="../../dc/dc8/_i_n_r-_p_c_i_8c.html#af88a9db4ef6451751a395e1207fd7066" target="_top" xlink:title="INR_PCI_get_new_rx\l_descriptor_ring_entry">
<polygon fill="white" stroke="black" points="475.5,-38.5 475.5,-68.5 588.5,-68.5 588.5,-38.5 475.5,-38.5"/>
<text text-anchor="start" x="483.5" y="-56.5" font-family="Helvetica,sans-Serif" font-size="10.00">INR_PCI_get_new_rx</text>
<text text-anchor="middle" x="532" y="-45.5" font-family="Helvetica,sans-Serif" font-size="10.00">_descriptor_ring_entry</text>
</a>
</g>
</g>
<!-- Node7&#45;&gt;Node8 -->
<g id="edge9" class="edge"><title>Node7&#45;&gt;Node8</title>
<path fill="none" stroke="midnightblue" d="M425.165,-55.3143C438.282,-55.0895 451.974,-54.8547 464.991,-54.6316"/>
<polygon fill="midnightblue" stroke="midnightblue" points="465.322,-58.1265 475.261,-54.4555 465.202,-51.1275 465.322,-58.1265"/>
</g>
<!-- Node8&#45;&gt;Node6 -->
<g id="edge10" class="edge"><title>Node8&#45;&gt;Node6</title>
<path fill="none" stroke="midnightblue" d="M588.769,-58.0563C643.993,-62.5681 728.073,-69.4374 783.28,-73.9477"/>
<polygon fill="midnightblue" stroke="midnightblue" points="783.327,-77.4631 793.579,-74.7891 783.897,-70.4864 783.327,-77.4631"/>
</g>
<!-- Node9 -->
<g id="node9" class="node"><title>Node9</title>
<g id="a_node9"><a xlink:href="../../dc/dc8/_i_n_r-_p_c_i_8c.html#adbea73204b38d31f4b80feb56a27b810" target="_top" xlink:title="INR_PCI_rx_descriptor\l_pool_refill">
<polygon fill="white" stroke="black" points="639,-0.5 639,-30.5 758,-30.5 758,-0.5 639,-0.5"/>
<text text-anchor="start" x="647" y="-18.5" font-family="Helvetica,sans-Serif" font-size="10.00">INR_PCI_rx_descriptor</text>
<text text-anchor="middle" x="698.5" y="-7.5" font-family="Helvetica,sans-Serif" font-size="10.00">_pool_refill</text>
</a>
</g>
</g>
<!-- Node8&#45;&gt;Node9 -->
<g id="edge11" class="edge"><title>Node8&#45;&gt;Node9</title>
<path fill="none" stroke="midnightblue" d="M588.692,-40.6349C601.542,-37.6666 615.36,-34.4745 628.694,-31.3944"/>
<polygon fill="midnightblue" stroke="midnightblue" points="629.817,-34.7273 638.772,-29.0663 628.241,-27.9069 629.817,-34.7273"/>
</g>
<!-- Node9&#45;&gt;Node6 -->
<g id="edge12" class="edge"><title>Node9&#45;&gt;Node6</title>
<path fill="none" stroke="midnightblue" d="M732.914,-30.5901C755.804,-40.9275 785.937,-54.5362 808.238,-64.6073"/>
<polygon fill="midnightblue" stroke="midnightblue" points="807.02,-67.8978 817.574,-68.8239 809.901,-61.5182 807.02,-67.8978"/>
</g>
</g>
</svg>
        <g id="navigator" transform="translate(0 0)" fill="#404254">
                <rect fill="#f2f5e9" fill-opacity="0.5" stroke="#606060" stroke-width=".5" x="0" y="0" width="60" height="60"/>
                <use id="zoomplus" xlink:href="#zoomPlus" x="17" y="9" onmousedown="handleZoom(evt,'in')"/>
                <use id="zoomminus" xlink:href="#zoomMin" x="42" y="9" onmousedown="handleZoom(evt,'out')"/>
                <use id="reset" xlink:href="#resetDef" x="30" y="36" onmousedown="handleReset()"/>
                <g id="arrowUp" xlink:href="#dirArrow" transform="translate(30 24)" onmousedown="handlePan(0,-1)">
                  <use xlink:href="#rim" fill="#404040">
                        <set attributeName="fill" to="#808080" begin="arrowUp.mouseover" end="arrowUp.mouseout"/>
                  </use>
                  <path fill="none" stroke="white" stroke-width="1.5" d="M0,-3.0v7 M-2.5,-0.5L0,-3.0L2.5,-0.5"/>
                </g>
                <g id="arrowRight" xlink:href="#dirArrow" transform="rotate(90) translate(36 -43)" onmousedown="handlePan(1,0)">
                  <use xlink:href="#rim" fill="#404040">
                        <set attributeName="fill" to="#808080" begin="arrowRight.mouseover" end="arrowRight.mouseout"/>
                  </use>
                  <path fill="none" stroke="white" stroke-width="1.5" d="M0,-3.0v7 M-2.5,-0.5L0,-3.0L2.5,-0.5"/>
                </g>
                <g id="arrowDown" xlink:href="#dirArrow" transform="rotate(180) translate(-30 -48)" onmousedown="handlePan(0,1)">
                  <use xlink:href="#rim" fill="#404040">
                        <set attributeName="fill" to="#808080" begin="arrowDown.mouseover" end="arrowDown.mouseout"/>
                  </use>
                  <path fill="none" stroke="white" stroke-width="1.5" d="M0,-3.0v7 M-2.5,-0.5L0,-3.0L2.5,-0.5"/>
                </g>
                <g id="arrowLeft" xlink:href="#dirArrow" transform="rotate(270) translate(-36 17)" onmousedown="handlePan(-1,0)">
                  <use xlink:href="#rim" fill="#404040">
                        <set attributeName="fill" to="#808080" begin="arrowLeft.mouseover" end="arrowLeft.mouseout"/>
                  </use>
                  <path fill="none" stroke="white" stroke-width="1.5" d="M0,-3.0v7 M-2.5,-0.5L0,-3.0L2.5,-0.5"/>
                </g>
        </g>
        <svg viewBox="0 0 15 15" width="100%" height="30px" preserveAspectRatio="xMaxYMin meet">
         <g id="arrow_out" transform="scale(0.3 0.3)">
          <a xlink:href="_i_n_r-_p_c_i_8c_a1c0927891fa571e8aec98ebe5fd266f6_cgraph_org.svg" target="_base">
           <rect id="button" ry="5" rx="5" y="6" x="6" height="38" width="38"
                fill="#f2f5e9" fill-opacity="0.5" stroke="#606060" stroke-width="1.0"/>
           <path id="arrow"
             d="M 11.500037,31.436501 C 11.940474,20.09759 22.043105,11.32322 32.158766,21.979434 L 37.068811,17.246167 C 37.068811,17.246167 37.088388,32 37.088388,32 L 22.160133,31.978069 C 22.160133,31.978069 26.997745,27.140456 26.997745,27.140456 C 18.528582,18.264221 13.291696,25.230495 11.500037,31.436501 z"
             style="fill:#404040;"/>
          </a>
         </g>
        </svg>
</svg>
