<?xml version="1.0" encoding="UTF-8" standalone="no"?>
<!DOCTYPE svg PUBLIC "-//W3C//DTD SVG 1.1//EN"
 "http://www.w3.org/Graphics/SVG/1.1/DTD/svg11.dtd">
<!-- Generated by graphviz version 2.38.0 (20140413.2041)
 -->
<!-- Title: INR.c Pages: 1 -->
<svg width="815pt" height="84pt"
 viewBox="0.00 0.00 814.50 84.00" xmlns="http://www.w3.org/2000/svg" xmlns:xlink="http://www.w3.org/1999/xlink">
<g id="graph0" class="graph" transform="scale(1 1) rotate(0) translate(4 80)">
<title>INR.c</title>
<polygon fill="white" stroke="none" points="-4,4 -4,-80 810.5,-80 810.5,4 -4,4"/>
<!-- Node1 -->
<g id="node1" class="node"><title>Node1</title>
<polygon fill="#bfbfbf" stroke="black" points="368.5,-56.5 368.5,-75.5 411.5,-75.5 411.5,-56.5 368.5,-56.5"/>
<text text-anchor="middle" x="390" y="-63.5" font-family="Helvetica,sans-Serif" font-size="10.00">INR.c</text>
</g>
<!-- Node2 -->
<g id="node2" class="node"><title>Node2</title>
<polygon fill="white" stroke="#bfbfbf" points="0,-0.5 0,-19.5 74,-19.5 74,-0.5 0,-0.5"/>
<text text-anchor="middle" x="37" y="-7.5" font-family="Helvetica,sans-Serif" font-size="10.00">linux/kernel.h</text>
</g>
<!-- Node1&#45;&gt;Node2 -->
<g id="edge1" class="edge"><title>Node1&#45;&gt;Node2</title>
<path fill="none" stroke="midnightblue" d="M368.356,-62.1886C319.587,-55.7772 197.181,-39.2581 84.3197,-20.1582"/>
<polygon fill="midnightblue" stroke="midnightblue" points="84.575,-16.6514 74.1292,-18.422 83.3992,-23.5519 84.575,-16.6514"/>
</g>
<!-- Node3 -->
<g id="node3" class="node"><title>Node3</title>
<polygon fill="white" stroke="#bfbfbf" points="92,-0.5 92,-19.5 172,-19.5 172,-0.5 92,-0.5"/>
<text text-anchor="middle" x="132" y="-7.5" font-family="Helvetica,sans-Serif" font-size="10.00">linux/module.h</text>
</g>
<!-- Node1&#45;&gt;Node3 -->
<g id="edge2" class="edge"><title>Node1&#45;&gt;Node3</title>
<path fill="none" stroke="midnightblue" d="M368.447,-60.4889C327.66,-51.9521 238.228,-33.2338 181.793,-21.4217"/>
<polygon fill="midnightblue" stroke="midnightblue" points="182.507,-17.9954 172.002,-19.3725 181.073,-24.847 182.507,-17.9954"/>
</g>
<!-- Node4 -->
<g id="node4" class="node"><title>Node4</title>
<polygon fill="white" stroke="#bfbfbf" points="190.5,-0.5 190.5,-19.5 251.5,-19.5 251.5,-0.5 190.5,-0.5"/>
<text text-anchor="middle" x="221" y="-7.5" font-family="Helvetica,sans-Serif" font-size="10.00">linux/pci.h</text>
</g>
<!-- Node1&#45;&gt;Node4 -->
<g id="edge3" class="edge"><title>Node1&#45;&gt;Node4</title>
<path fill="none" stroke="midnightblue" d="M368.252,-58.051C340.298,-49.119 291.355,-33.4802 257.615,-22.6994"/>
<polygon fill="midnightblue" stroke="midnightblue" points="258.263,-19.2323 247.672,-19.5225 256.132,-25.9002 258.263,-19.2323"/>
</g>
<!-- Node5 -->
<g id="node5" class="node"><title>Node5</title>
<polygon fill="white" stroke="#bfbfbf" points="269.5,-0.5 269.5,-19.5 330.5,-19.5 330.5,-0.5 269.5,-0.5"/>
<text text-anchor="middle" x="300" y="-7.5" font-family="Helvetica,sans-Serif" font-size="10.00">linux/init.h</text>
</g>
<!-- Node1&#45;&gt;Node5 -->
<g id="edge4" class="edge"><title>Node1&#45;&gt;Node5</title>
<path fill="none" stroke="midnightblue" d="M375.54,-56.324C361.5,-47.9002 339.952,-34.9709 323.457,-25.0741"/>
<polygon fill="midnightblue" stroke="midnightblue" points="324.8,-21.7983 314.424,-19.6545 321.198,-27.8007 324.8,-21.7983"/>
</g>
<!-- Node6 -->
<g id="node6" class="node"><title>Node6</title>
<polygon fill="white" stroke="#bfbfbf" points="348.5,-0.5 348.5,-19.5 431.5,-19.5 431.5,-0.5 348.5,-0.5"/>
<text text-anchor="middle" x="390" y="-7.5" font-family="Helvetica,sans-Serif" font-size="10.00">linux/interrupt.h</text>
</g>
<!-- Node1&#45;&gt;Node6 -->
<g id="edge5" class="edge"><title>Node1&#45;&gt;Node6</title>
<path fill="none" stroke="midnightblue" d="M390,-56.083C390,-49.0059 390,-38.8611 390,-29.9865"/>
<polygon fill="midnightblue" stroke="midnightblue" points="393.5,-29.751 390,-19.7511 386.5,-29.7511 393.5,-29.751"/>
</g>
<!-- Node7 -->
<g id="node7" class="node"><title>Node7</title>
<polygon fill="white" stroke="#bfbfbf" points="449.5,-0.5 449.5,-19.5 520.5,-19.5 520.5,-0.5 449.5,-0.5"/>
<text text-anchor="middle" x="485" y="-7.5" font-family="Helvetica,sans-Serif" font-size="10.00">linux/delay.h</text>
</g>
<!-- Node1&#45;&gt;Node7 -->
<g id="edge6" class="edge"><title>Node1&#45;&gt;Node7</title>
<path fill="none" stroke="midnightblue" d="M405.263,-56.324C420.221,-47.8215 443.255,-34.7288 460.727,-24.7975"/>
<polygon fill="midnightblue" stroke="midnightblue" points="462.81,-27.639 469.774,-19.6545 459.351,-21.5534 462.81,-27.639"/>
</g>
<!-- Node8 -->
<g id="node8" class="node"><title>Node8</title>
<polygon fill="white" stroke="#bfbfbf" points="539,-0.5 539,-19.5 629,-19.5 629,-0.5 539,-0.5"/>
<text text-anchor="middle" x="584" y="-7.5" font-family="Helvetica,sans-Serif" font-size="10.00">linux/netdevice.h</text>
</g>
<!-- Node1&#45;&gt;Node8 -->
<g id="edge7" class="edge"><title>Node1&#45;&gt;Node8</title>
<path fill="none" stroke="midnightblue" d="M411.503,-59.0147C443.243,-50.1799 503.207,-33.4888 543.39,-22.3037"/>
<polygon fill="midnightblue" stroke="midnightblue" points="544.456,-25.6402 553.151,-19.5868 542.579,-18.8966 544.456,-25.6402"/>
</g>
<!-- Node9 -->
<g id="node9" class="node"><title>Node9</title>
<polygon fill="white" stroke="#bfbfbf" points="647,-0.5 647,-19.5 745,-19.5 745,-0.5 647,-0.5"/>
<text text-anchor="middle" x="696" y="-7.5" font-family="Helvetica,sans-Serif" font-size="10.00">linux/etherdevice.h</text>
</g>
<!-- Node1&#45;&gt;Node9 -->
<g id="edge8" class="edge"><title>Node1&#45;&gt;Node9</title>
<path fill="none" stroke="midnightblue" d="M411.517,-61.2028C457.906,-53.0166 568.691,-33.4663 637.519,-21.3202"/>
<polygon fill="midnightblue" stroke="midnightblue" points="638.533,-24.6954 647.773,-19.5107 637.316,-17.8019 638.533,-24.6954"/>
</g>
<!-- Node10 -->
<g id="node10" class="node"><title>Node10</title>
<g id="a_node10"><a xlink:href="../../db/d87/_i_n_r_8h.html" target="_top" xlink:title="basic settings and definitions ">
<polygon fill="white" stroke="black" points="763.5,-0.5 763.5,-19.5 806.5,-19.5 806.5,-0.5 763.5,-0.5"/>
<text text-anchor="middle" x="785" y="-7.5" font-family="Helvetica,sans-Serif" font-size="10.00">INR.h</text>
</a>
</g>
</g>
<!-- Node1&#45;&gt;Node10 -->
<g id="edge9" class="edge"><title>Node1&#45;&gt;Node10</title>
<path fill="none" stroke="midnightblue" d="M411.529,-63.5439C466.731,-59.5573 617.89,-47.0483 753.296,-19.8117"/>
<polygon fill="midnightblue" stroke="midnightblue" points="754.334,-23.1719 763.43,-17.7391 752.931,-16.3138 754.334,-23.1719"/>
</g>
</g>
</svg>
