<?xml version="1.0" encoding="UTF-8" standalone="no"?>
<!DOCTYPE svg PUBLIC "-//W3C//DTD SVG 1.1//EN"
 "http://www.w3.org/Graphics/SVG/1.1/DTD/svg11.dtd">
<!-- Generated by graphviz version 2.38.0 (20140413.2041)
 -->
<!-- Title: INR&#45;PCI.c Pages: 1 -->
<svg width="1801pt" height="84pt"
 viewBox="0.00 0.00 1801.00 84.00" xmlns="http://www.w3.org/2000/svg" xmlns:xlink="http://www.w3.org/1999/xlink">
<g id="graph0" class="graph" transform="scale(1 1) rotate(0) translate(4 80)">
<title>INR&#45;PCI.c</title>
<polygon fill="white" stroke="none" points="-4,4 -4,-80 1797,-80 1797,4 -4,4"/>
<!-- Node1 -->
<g id="node1" class="node"><title>Node1</title>
<polygon fill="#bfbfbf" stroke="black" points="907.5,-56.5 907.5,-75.5 970.5,-75.5 970.5,-56.5 907.5,-56.5"/>
<text text-anchor="middle" x="939" y="-63.5" font-family="Helvetica,sans-Serif" font-size="10.00">INR&#45;PCI.c</text>
</g>
<!-- Node2 -->
<g id="node2" class="node"><title>Node2</title>
<polygon fill="white" stroke="#bfbfbf" points="0,-0.5 0,-19.5 74,-19.5 74,-0.5 0,-0.5"/>
<text text-anchor="middle" x="37" y="-7.5" font-family="Helvetica,sans-Serif" font-size="10.00">linux/kernel.h</text>
</g>
<!-- Node1&#45;&gt;Node2 -->
<g id="edge1" class="edge"><title>Node1&#45;&gt;Node2</title>
<path fill="none" stroke="midnightblue" d="M907.38,-64.9388C795.956,-64.3869 411.131,-59.6311 84.2265,-19.9648"/>
<polygon fill="midnightblue" stroke="midnightblue" points="84.437,-16.4644 74.0852,-18.7207 83.5846,-23.4124 84.437,-16.4644"/>
</g>
<!-- Node3 -->
<g id="node3" class="node"><title>Node3</title>
<polygon fill="white" stroke="#bfbfbf" points="92,-0.5 92,-19.5 172,-19.5 172,-0.5 92,-0.5"/>
<text text-anchor="middle" x="132" y="-7.5" font-family="Helvetica,sans-Serif" font-size="10.00">linux/module.h</text>
</g>
<!-- Node1&#45;&gt;Node3 -->
<g id="edge2" class="edge"><title>Node1&#45;&gt;Node3</title>
<path fill="none" stroke="midnightblue" d="M907.467,-64.5083C804.599,-62.6134 469.379,-54.1463 182.244,-19.9943"/>
<polygon fill="midnightblue" stroke="midnightblue" points="182.397,-16.4876 172.05,-18.7686 181.561,-23.4375 182.397,-16.4876"/>
</g>
<!-- Node4 -->
<g id="node4" class="node"><title>Node4</title>
<polygon fill="white" stroke="#bfbfbf" points="190.5,-0.5 190.5,-19.5 251.5,-19.5 251.5,-0.5 190.5,-0.5"/>
<text text-anchor="middle" x="221" y="-7.5" font-family="Helvetica,sans-Serif" font-size="10.00">linux/pci.h</text>
</g>
<!-- Node1&#45;&gt;Node4 -->
<g id="edge3" class="edge"><title>Node1&#45;&gt;Node4</title>
<path fill="none" stroke="midnightblue" d="M907.335,-64.7043C811.392,-63.4282 515.427,-56.6958 261.714,-20.0287"/>
<polygon fill="midnightblue" stroke="midnightblue" points="261.97,-16.5289 251.568,-18.543 260.956,-23.4551 261.97,-16.5289"/>
</g>
<!-- Node5 -->
<g id="node5" class="node"><title>Node5</title>
<polygon fill="white" stroke="#bfbfbf" points="269.5,-0.5 269.5,-19.5 330.5,-19.5 330.5,-0.5 269.5,-0.5"/>
<text text-anchor="middle" x="300" y="-7.5" font-family="Helvetica,sans-Serif" font-size="10.00">linux/init.h</text>
</g>
<!-- Node1&#45;&gt;Node5 -->
<g id="edge4" class="edge"><title>Node1&#45;&gt;Node5</title>
<path fill="none" stroke="midnightblue" d="M907.258,-64.3155C818.894,-62.0514 562.504,-53.0436 340.771,-20.0556"/>
<polygon fill="midnightblue" stroke="midnightblue" points="340.982,-16.548 330.572,-18.5175 339.938,-23.4697 340.982,-16.548"/>
</g>
<!-- Node6 -->
<g id="node6" class="node"><title>Node6</title>
<polygon fill="white" stroke="#bfbfbf" points="348.5,-0.5 348.5,-19.5 431.5,-19.5 431.5,-0.5 348.5,-0.5"/>
<text text-anchor="middle" x="390" y="-7.5" font-family="Helvetica,sans-Serif" font-size="10.00">linux/interrupt.h</text>
</g>
<!-- Node1&#45;&gt;Node6 -->
<g id="edge5" class="edge"><title>Node1&#45;&gt;Node6</title>
<path fill="none" stroke="midnightblue" d="M907.365,-63.1189C829.739,-58.2961 623.488,-44.2301 441.706,-20.1299"/>
<polygon fill="midnightblue" stroke="midnightblue" points="442.075,-16.648 431.698,-18.7894 441.145,-23.5861 442.075,-16.648"/>
</g>
<!-- Node7 -->
<g id="node7" class="node"><title>Node7</title>
<polygon fill="white" stroke="#bfbfbf" points="449.5,-0.5 449.5,-19.5 520.5,-19.5 520.5,-0.5 449.5,-0.5"/>
<text text-anchor="middle" x="485" y="-7.5" font-family="Helvetica,sans-Serif" font-size="10.00">linux/delay.h</text>
</g>
<!-- Node1&#45;&gt;Node7 -->
<g id="edge6" class="edge"><title>Node1&#45;&gt;Node7</title>
<path fill="none" stroke="midnightblue" d="M907.316,-62.4687C839.976,-56.8844 677.474,-42.3258 530.889,-20.0077"/>
<polygon fill="midnightblue" stroke="midnightblue" points="531.227,-16.5186 520.811,-18.457 530.162,-23.4372 531.227,-16.5186"/>
</g>
<!-- Node8 -->
<g id="node8" class="node"><title>Node8</title>
<polygon fill="white" stroke="#bfbfbf" points="539,-0.5 539,-19.5 629,-19.5 629,-0.5 539,-0.5"/>
<text text-anchor="middle" x="584" y="-7.5" font-family="Helvetica,sans-Serif" font-size="10.00">linux/netdevice.h</text>
</g>
<!-- Node1&#45;&gt;Node8 -->
<g id="edge7" class="edge"><title>Node1&#45;&gt;Node8</title>
<path fill="none" stroke="midnightblue" d="M907.338,-60.4445C854.171,-52.7563 743.328,-36.5631 639.133,-20.158"/>
<polygon fill="midnightblue" stroke="midnightblue" points="639.495,-16.672 629.072,-18.57 638.404,-23.5864 639.495,-16.672"/>
</g>
<!-- Node9 -->
<g id="node9" class="node"><title>Node9</title>
<polygon fill="white" stroke="#bfbfbf" points="647,-0.5 647,-19.5 745,-19.5 745,-0.5 647,-0.5"/>
<text text-anchor="middle" x="696" y="-7.5" font-family="Helvetica,sans-Serif" font-size="10.00">linux/etherdevice.h</text>
</g>
<!-- Node1&#45;&gt;Node9 -->
<g id="edge8" class="edge"><title>Node1&#45;&gt;Node9</title>
<path fill="none" stroke="midnightblue" d="M907.232,-57.9404C865.796,-48.7324 792.899,-32.5332 744.523,-21.7829"/>
<polygon fill="midnightblue" stroke="midnightblue" points="745.113,-18.3288 734.592,-19.576 743.595,-25.1621 745.113,-18.3288"/>
</g>
<!-- Node10 -->
<g id="node10" class="node"><title>Node10</title>
<polygon fill="white" stroke="#bfbfbf" points="763,-0.5 763,-19.5 881,-19.5 881,-0.5 763,-0.5"/>
<text text-anchor="middle" x="822" y="-7.5" font-family="Helvetica,sans-Serif" font-size="10.00">linux/netdev_features.h</text>
</g>
<!-- Node1&#45;&gt;Node10 -->
<g id="edge9" class="edge"><title>Node1&#45;&gt;Node10</title>
<path fill="none" stroke="midnightblue" d="M920.461,-56.4435C901.377,-47.6356 871.425,-33.8116 849.564,-23.722"/>
<polygon fill="midnightblue" stroke="midnightblue" points="850.999,-20.5292 840.452,-19.5164 848.065,-26.8849 850.999,-20.5292"/>
</g>
<!-- Node11 -->
<g id="node11" class="node"><title>Node11</title>
<polygon fill="white" stroke="#bfbfbf" points="899,-0.5 899,-19.5 979,-19.5 979,-0.5 899,-0.5"/>
<text text-anchor="middle" x="939" y="-7.5" font-family="Helvetica,sans-Serif" font-size="10.00">linux/kthread.h</text>
</g>
<!-- Node1&#45;&gt;Node11 -->
<g id="edge10" class="edge"><title>Node1&#45;&gt;Node11</title>
<path fill="none" stroke="midnightblue" d="M939,-56.083C939,-49.0059 939,-38.8611 939,-29.9865"/>
<polygon fill="midnightblue" stroke="midnightblue" points="942.5,-29.751 939,-19.7511 935.5,-29.7511 942.5,-29.751"/>
</g>
<!-- Node12 -->
<g id="node12" class="node"><title>Node12</title>
<polygon fill="white" stroke="#bfbfbf" points="997.5,-0.5 997.5,-19.5 1072.5,-19.5 1072.5,-0.5 997.5,-0.5"/>
<text text-anchor="middle" x="1035" y="-7.5" font-family="Helvetica,sans-Serif" font-size="10.00">linux/skbuff.h</text>
</g>
<!-- Node1&#45;&gt;Node12 -->
<g id="edge11" class="edge"><title>Node1&#45;&gt;Node12</title>
<path fill="none" stroke="midnightblue" d="M954.424,-56.324C969.54,-47.8215 992.815,-34.7288 1010.47,-24.7975"/>
<polygon fill="midnightblue" stroke="midnightblue" points="1012.61,-27.6077 1019.61,-19.6545 1009.18,-21.5066 1012.61,-27.6077"/>
</g>
<!-- Node13 -->
<g id="node13" class="node"><title>Node13</title>
<polygon fill="white" stroke="#bfbfbf" points="1091,-0.5 1091,-19.5 1165,-19.5 1165,-0.5 1091,-0.5"/>
<text text-anchor="middle" x="1128" y="-7.5" font-family="Helvetica,sans-Serif" font-size="10.00">linux/unistd.h</text>
</g>
<!-- Node1&#45;&gt;Node13 -->
<g id="edge12" class="edge"><title>Node1&#45;&gt;Node13</title>
<path fill="none" stroke="midnightblue" d="M968.948,-56.4435C1001.16,-47.2406 1052.53,-32.5617 1088.14,-22.3879"/>
<polygon fill="midnightblue" stroke="midnightblue" points="1089.54,-25.629 1098.19,-19.5164 1087.62,-18.8984 1089.54,-25.629"/>
</g>
<!-- Node14 -->
<g id="node14" class="node"><title>Node14</title>
<g id="a_node14"><a xlink:href="../../db/d87/_i_n_r_8h.html" target="_top" xlink:title="basic settings and definitions ">
<polygon fill="white" stroke="black" points="1183.5,-0.5 1183.5,-19.5 1226.5,-19.5 1226.5,-0.5 1183.5,-0.5"/>
<text text-anchor="middle" x="1205" y="-7.5" font-family="Helvetica,sans-Serif" font-size="10.00">INR.h</text>
</a>
</g>
</g>
<!-- Node1&#45;&gt;Node14 -->
<g id="edge13" class="edge"><title>Node1&#45;&gt;Node14</title>
<path fill="none" stroke="midnightblue" d="M970.75,-59.8889C1014.24,-52.6782 1094.93,-38.5495 1173.34,-19.9626"/>
<polygon fill="midnightblue" stroke="midnightblue" points="1174.48,-23.2892 1183.39,-17.5535 1172.85,-16.4823 1174.48,-23.2892"/>
</g>
<!-- Node15 -->
<g id="node15" class="node"><title>Node15</title>
<g id="a_node15"><a xlink:href="../../dd/de5/_i_n_r-_n_w_8h.html" target="_top" xlink:title="settings and definitions Netork communication ">
<polygon fill="white" stroke="black" points="1244.5,-0.5 1244.5,-19.5 1307.5,-19.5 1307.5,-0.5 1244.5,-0.5"/>
<text text-anchor="middle" x="1276" y="-7.5" font-family="Helvetica,sans-Serif" font-size="10.00">INR&#45;NW.h</text>
</a>
</g>
</g>
<!-- Node1&#45;&gt;Node15 -->
<g id="edge14" class="edge"><title>Node1&#45;&gt;Node15</title>
<path fill="none" stroke="midnightblue" d="M970.772,-60.9394C1023.49,-54.0388 1132.57,-39.0735 1234.06,-20.268"/>
<polygon fill="midnightblue" stroke="midnightblue" points="1234.98,-23.6558 1244.17,-18.3767 1233.69,-16.7752 1234.98,-23.6558"/>
</g>
<!-- Node16 -->
<g id="node16" class="node"><title>Node16</title>
<g id="a_node16"><a xlink:href="../../df/df2/_i_n_r-_p_c_i_8h.html" target="_top" xlink:title="settings and definitions PCI communication ">
<polygon fill="white" stroke="black" points="1325.5,-0.5 1325.5,-19.5 1388.5,-19.5 1388.5,-0.5 1325.5,-0.5"/>
<text text-anchor="middle" x="1357" y="-7.5" font-family="Helvetica,sans-Serif" font-size="10.00">INR&#45;PCI.h</text>
</a>
</g>
</g>
<!-- Node1&#45;&gt;Node16 -->
<g id="edge15" class="edge"><title>Node1&#45;&gt;Node16</title>
<path fill="none" stroke="midnightblue" d="M970.52,-62.3523C1033.99,-56.7842 1181.88,-42.6167 1315.2,-20.1698"/>
<polygon fill="midnightblue" stroke="midnightblue" points="1315.91,-23.5992 1325.18,-18.469 1314.74,-16.6987 1315.91,-23.5992"/>
</g>
<!-- Node17 -->
<g id="node17" class="node"><title>Node17</title>
<g id="a_node17"><a xlink:href="../../d6/d03/_i_n_r-_n_a_p_i_8h.html" target="_top" xlink:title="settings and definitions NAPI ">
<polygon fill="white" stroke="black" points="1407,-0.5 1407,-19.5 1477,-19.5 1477,-0.5 1407,-0.5"/>
<text text-anchor="middle" x="1442" y="-7.5" font-family="Helvetica,sans-Serif" font-size="10.00">INR&#45;NAPI.h</text>
</a>
</g>
</g>
<!-- Node1&#45;&gt;Node17 -->
<g id="edge16" class="edge"><title>Node1&#45;&gt;Node17</title>
<path fill="none" stroke="midnightblue" d="M970.582,-63.0407C1043.77,-58.2579 1230.77,-44.6453 1397.08,-19.989"/>
<polygon fill="midnightblue" stroke="midnightblue" points="1397.62,-23.4468 1406.99,-18.5024 1396.59,-16.5242 1397.62,-23.4468"/>
</g>
<!-- Node18 -->
<g id="node18" class="node"><title>Node18</title>
<polygon fill="white" stroke="#bfbfbf" points="1495,-0.5 1495,-19.5 1567,-19.5 1567,-0.5 1495,-0.5"/>
<text text-anchor="middle" x="1531" y="-7.5" font-family="Helvetica,sans-Serif" font-size="10.00">asm/signal.h</text>
</g>
<!-- Node1&#45;&gt;Node18 -->
<g id="edge17" class="edge"><title>Node1&#45;&gt;Node18</title>
<path fill="none" stroke="midnightblue" d="M970.59,-63.6773C1053.34,-59.9417 1283.34,-47.8181 1484.55,-20.0507"/>
<polygon fill="midnightblue" stroke="midnightblue" points="1485.29,-23.4807 1494.71,-18.631 1484.32,-16.548 1485.29,-23.4807"/>
</g>
<!-- Node19 -->
<g id="node19" class="node"><title>Node19</title>
<polygon fill="white" stroke="#bfbfbf" points="1585,-0.5 1585,-19.5 1681,-19.5 1681,-0.5 1585,-0.5"/>
<text text-anchor="middle" x="1633" y="-7.5" font-family="Helvetica,sans-Serif" font-size="10.00">linux/semaphore.h</text>
</g>
<!-- Node1&#45;&gt;Node19 -->
<g id="edge18" class="edge"><title>Node1&#45;&gt;Node19</title>
<path fill="none" stroke="midnightblue" d="M970.572,-63.7329C1062.24,-59.8501 1336.49,-46.7915 1574.6,-20.0633"/>
<polygon fill="midnightblue" stroke="midnightblue" points="1575.3,-23.507 1584.84,-18.9031 1574.51,-16.5515 1575.3,-23.507"/>
</g>
<!-- Node20 -->
<g id="node20" class="node"><title>Node20</title>
<polygon fill="white" stroke="#bfbfbf" points="1699,-0.5 1699,-19.5 1793,-19.5 1793,-0.5 1699,-0.5"/>
<text text-anchor="middle" x="1746" y="-7.5" font-family="Helvetica,sans-Serif" font-size="10.00">asm/cacheflush.h</text>
</g>
<!-- Node1&#45;&gt;Node20 -->
<g id="edge19" class="edge"><title>Node1&#45;&gt;Node20</title>
<path fill="none" stroke="midnightblue" d="M970.575,-64.2325C1072.83,-61.51 1404.27,-50.8283 1688.89,-20.0076"/>
<polygon fill="midnightblue" stroke="midnightblue" points="1689.43,-23.469 1698.99,-18.9027 1688.67,-16.5105 1689.43,-23.469"/>
</g>
</g>
</svg>
