<?xml version="1.0" encoding="UTF-8" standalone="no"?>
<!DOCTYPE svg PUBLIC "-//W3C//DTD SVG 1.1//EN"
 "http://www.w3.org/Graphics/SVG/1.1/DTD/svg11.dtd">
<!-- Generated by graphviz version 2.38.0 (20140413.2041)
 -->
<!-- Title: INR&#45;PCI.h Pages: 1 -->
<svg width="379pt" height="84pt"
 viewBox="0.00 0.00 379.00 84.00" xmlns="http://www.w3.org/2000/svg" xmlns:xlink="http://www.w3.org/1999/xlink">
<g id="graph0" class="graph" transform="scale(1 1) rotate(0) translate(4 80)">
<title>INR&#45;PCI.h</title>
<polygon fill="white" stroke="none" points="-4,4 -4,-80 375,-80 375,4 -4,4"/>
<!-- Node1 -->
<g id="node1" class="node"><title>Node1</title>
<polygon fill="#bfbfbf" stroke="black" points="162.5,-56.5 162.5,-75.5 225.5,-75.5 225.5,-56.5 162.5,-56.5"/>
<text text-anchor="middle" x="194" y="-63.5" font-family="Helvetica,sans-Serif" font-size="10.00">INR&#45;PCI.h</text>
</g>
<!-- Node2 -->
<g id="node2" class="node"><title>Node2</title>
<g id="a_node2"><a xlink:href="../../d2/d08/_i_n_r-ctl_8c.html" target="_top" xlink:title="Functions for Proc&#45;filesystem. ">
<polygon fill="white" stroke="black" points="0,-0.5 0,-19.5 56,-19.5 56,-0.5 0,-0.5"/>
<text text-anchor="middle" x="28" y="-7.5" font-family="Helvetica,sans-Serif" font-size="10.00">INR&#45;ctl.c</text>
</a>
</g>
</g>
<!-- Node1&#45;&gt;Node2 -->
<g id="edge1" class="edge"><title>Node1&#45;&gt;Node2</title>
<path fill="none" stroke="midnightblue" d="M158.047,-53.3044C126.768,-43.1294 82.1793,-28.6246 54.1801,-19.5164"/>
<polygon fill="midnightblue" stroke="midnightblue" points="157.105,-56.6783 167.697,-56.4435 159.27,-50.0217 157.105,-56.6783"/>
</g>
<!-- Node3 -->
<g id="node3" class="node"><title>Node3</title>
<g id="a_node3"><a xlink:href="../../d1/d67/_i_n_r-_n_a_p_i_8c.html" target="_top" xlink:title="Functions for NewNetworkAPI. ">
<polygon fill="white" stroke="black" points="74,-0.5 74,-19.5 144,-19.5 144,-0.5 74,-0.5"/>
<text text-anchor="middle" x="109" y="-7.5" font-family="Helvetica,sans-Serif" font-size="10.00">INR&#45;NAPI.c</text>
</a>
</g>
</g>
<!-- Node1&#45;&gt;Node3 -->
<g id="edge2" class="edge"><title>Node1&#45;&gt;Node3</title>
<path fill="none" stroke="midnightblue" d="M171.806,-50.9005C156.22,-40.9986 135.87,-28.0705 122.623,-19.6545"/>
<polygon fill="midnightblue" stroke="midnightblue" points="170.026,-53.9158 180.343,-56.324 173.779,-48.0073 170.026,-53.9158"/>
</g>
<!-- Node4 -->
<g id="node4" class="node"><title>Node4</title>
<g id="a_node4"><a xlink:href="../../de/dc6/_i_n_r-_n_w_8c.html" target="_top" xlink:title="Functions for the Network&#45;stack. ">
<polygon fill="white" stroke="black" points="162.5,-0.5 162.5,-19.5 225.5,-19.5 225.5,-0.5 162.5,-0.5"/>
<text text-anchor="middle" x="194" y="-7.5" font-family="Helvetica,sans-Serif" font-size="10.00">INR&#45;NW.c</text>
</a>
</g>
</g>
<!-- Node1&#45;&gt;Node4 -->
<g id="edge3" class="edge"><title>Node1&#45;&gt;Node4</title>
<path fill="none" stroke="midnightblue" d="M194,-45.8045C194,-36.9102 194,-26.7798 194,-19.7511"/>
<polygon fill="midnightblue" stroke="midnightblue" points="190.5,-46.083 194,-56.083 197.5,-46.083 190.5,-46.083"/>
</g>
<!-- Node5 -->
<g id="node5" class="node"><title>Node5</title>
<g id="a_node5"><a xlink:href="../../dc/dc8/_i_n_r-_p_c_i_8c.html" target="_top" xlink:title="Functions for PCI communication. ">
<polygon fill="white" stroke="black" points="243.5,-0.5 243.5,-19.5 306.5,-19.5 306.5,-0.5 243.5,-0.5"/>
<text text-anchor="middle" x="275" y="-7.5" font-family="Helvetica,sans-Serif" font-size="10.00">INR&#45;PCI.c</text>
</a>
</g>
</g>
<!-- Node1&#45;&gt;Node5 -->
<g id="edge4" class="edge"><title>Node1&#45;&gt;Node5</title>
<path fill="none" stroke="midnightblue" d="M215.567,-50.6221C230.364,-40.7574 249.512,-27.9919 262.018,-19.6545"/>
<polygon fill="midnightblue" stroke="midnightblue" points="213.393,-47.8647 207.014,-56.324 217.276,-53.6891 213.393,-47.8647"/>
</g>
<!-- Node6 -->
<g id="node6" class="node"><title>Node6</title>
<g id="a_node6"><a xlink:href="../../d0/d29/main_8c.html" target="_top" xlink:title="main driver Function M.Ulbricht 2015 ">
<polygon fill="white" stroke="black" points="325,-0.5 325,-19.5 371,-19.5 371,-0.5 325,-0.5"/>
<text text-anchor="middle" x="348" y="-7.5" font-family="Helvetica,sans-Serif" font-size="10.00">main.c</text>
</a>
</g>
</g>
<!-- Node1&#45;&gt;Node6 -->
<g id="edge5" class="edge"><title>Node1&#45;&gt;Node6</title>
<path fill="none" stroke="midnightblue" d="M227.847,-53.1314C257.219,-42.8323 298.963,-28.1949 324.72,-19.1629"/>
<polygon fill="midnightblue" stroke="midnightblue" points="226.68,-49.8317 218.402,-56.4435 228.997,-56.4373 226.68,-49.8317"/>
</g>
</g>
</svg>
