<?xml version="1.0" encoding="UTF-8" standalone="no"?>
<!DOCTYPE svg PUBLIC "-//W3C//DTD SVG 1.1//EN"
 "http://www.w3.org/Graphics/SVG/1.1/DTD/svg11.dtd">
<!-- Generated by graphviz version 2.38.0 (20140413.2041)
 -->
<!-- Title: INR_PCI_alloc_new_rx_skb Pages: 1 -->
<!--zoomable 668 -->
<svg id="main" version="1.1" xmlns="http://www.w3.org/2000/svg" xmlns:xlink="http://www.w3.org/1999/xlink" xml:space="preserve" onload="init(evt)">
<style type="text/css"><![CDATA[
.edge:hover path { stroke: red; }
.edge:hover polygon { stroke: red; fill: red; }
]]></style>
<script type="text/javascript"><![CDATA[
var edges = document.getElementsByTagName('g');
if (edges && edges.length) {
  for (var i=0;i<edges.length;i++) {
    if (edges[i].id.substr(0,4)=='edge') {
      edges[i].setAttribute('class','edge');
    }
  }
}
]]></script>
        <defs>
                <circle id="rim" cx="0" cy="0" r="7"/>
                <circle id="rim2" cx="0" cy="0" r="3.5"/>
                <g id="zoomPlus">
                        <use xlink:href="#rim" fill="#404040">
                                <set attributeName="fill" to="#808080" begin="zoomplus.mouseover" end="zoomplus.mouseout"/>
                        </use>
                        <path d="M-4,0h8M0,-4v8" fill="none" stroke="white" stroke-width="1.5" pointer-events="none"/>
                </g>
                <g id="zoomMin">
                        <use xlink:href="#rim" fill="#404040">
                                <set attributeName="fill" to="#808080" begin="zoomminus.mouseover" end="zoomminus.mouseout"/>
                        </use>
                        <path d="M-4,0h8" fill="none" stroke="white" stroke-width="1.5" pointer-events="none"/>
                </g>
                <g id="dirArrow">
                        <path fill="none" stroke="white" stroke-width="1.5" d="M0,-3.0v7 M-2.5,-0.5L0,-3.0L2.5,-0.5"/>
                </g>
               <g id="resetDef">
                       <use xlink:href="#rim2" fill="#404040">
                               <set attributeName="fill" to="#808080" begin="reset.mouseover" end="reset.mouseout"/>
                       </use>
               </g>
        </defs>

<script type="text/javascript">
var viewWidth = 822;
var viewHeight = 668;
var sectionId = 'dynsection-4';
</script>
<script xlink:href="../../svgpan.js"/>
<svg id="graph" class="graph">
<g id="viewport">
<title>INR_PCI_alloc_new_rx_skb</title>
<polygon fill="white" stroke="none" points="-4,4 -4,-663.961 818,-663.961 818,4 -4,4"/>
<!-- Node1 -->
<g id="node1" class="node"><title>Node1</title>
<polygon fill="#bfbfbf" stroke="black" points="0,-230.461 0,-249.461 140,-249.461 140,-230.461 0,-230.461"/>
<text text-anchor="middle" x="70" y="-237.461" font-family="Helvetica,sans-Serif" font-size="10.00">INR_PCI_alloc_new_rx_skb</text>
</g>
<!-- Node2 -->
<g id="node2" class="node"><title>Node2</title>
<g id="a_node2"><a xlink:href="../../df/df2/_i_n_r-_p_c_i_8h.html#a317b7c374854b88af0059ff2a3708ce9" target="_top" xlink:title="INR_PCI_process_rx\l_descriptor_ring">
<polygon fill="white" stroke="black" points="176,-311.961 176,-341.961 286,-341.961 286,-311.961 176,-311.961"/>
<text text-anchor="start" x="184" y="-329.961" font-family="Helvetica,sans-Serif" font-size="10.00">INR_PCI_process_rx</text>
<text text-anchor="middle" x="231" y="-318.961" font-family="Helvetica,sans-Serif" font-size="10.00">_descriptor_ring</text>
</a>
</g>
</g>
<!-- Node1&#45;&gt;Node2 -->
<g id="edge1" class="edge"><title>Node1&#45;&gt;Node2</title>
<path fill="none" stroke="midnightblue" d="M97.4007,-254.407C126.456,-270.305 172.945,-295.742 202.45,-311.887"/>
<polygon fill="midnightblue" stroke="midnightblue" points="99.076,-251.334 88.6233,-249.604 95.7159,-257.475 99.076,-251.334"/>
</g>
<!-- Node25 -->
<g id="node25" class="node"><title>Node25</title>
<g id="a_node25"><a xlink:href="../../dc/dc8/_i_n_r-_p_c_i_8c.html#a7b6c1bb3d3c608c7a226531d7a6f0965" target="_top" xlink:title="INR_RX_RING_init">
<polygon fill="white" stroke="black" points="179.5,-143.461 179.5,-162.461 282.5,-162.461 282.5,-143.461 179.5,-143.461"/>
<text text-anchor="middle" x="231" y="-150.461" font-family="Helvetica,sans-Serif" font-size="10.00">INR_RX_RING_init</text>
</a>
</g>
</g>
<!-- Node1&#45;&gt;Node25 -->
<g id="edge40" class="edge"><title>Node1&#45;&gt;Node25</title>
<path fill="none" stroke="midnightblue" d="M97.5879,-225.413C130.158,-207.592 184.431,-177.896 212.298,-162.647"/>
<polygon fill="midnightblue" stroke="midnightblue" points="95.7159,-222.448 88.6233,-230.318 99.076,-228.589 95.7159,-222.448"/>
</g>
<!-- Node3 -->
<g id="node3" class="node"><title>Node3</title>
<g id="a_node3"><a xlink:href="../../d6/d03/_i_n_r-_n_a_p_i_8h.html#a87ec5cd355cffe8b96296dbb83278bfe" target="_top" xlink:title="INR_NAPI_poll_0">
<polygon fill="white" stroke="black" points="326,-640.461 326,-659.461 421,-659.461 421,-640.461 326,-640.461"/>
<text text-anchor="middle" x="373.5" y="-647.461" font-family="Helvetica,sans-Serif" font-size="10.00">INR_NAPI_poll_0</text>
</a>
</g>
</g>
<!-- Node2&#45;&gt;Node3 -->
<g id="edge2" class="edge"><title>Node2&#45;&gt;Node3</title>
<path fill="none" stroke="midnightblue" d="M232.266,-352.534C234.241,-409.936 246.953,-550.305 322,-630.961 325.637,-634.87 330.158,-637.981 334.989,-640.454"/>
<polygon fill="midnightblue" stroke="midnightblue" points="235.756,-352.108 231.999,-342.202 228.759,-352.289 235.756,-352.108"/>
</g>
<!-- Node8 -->
<g id="node8" class="node"><title>Node8</title>
<g id="a_node8"><a xlink:href="../../d6/d03/_i_n_r-_n_a_p_i_8h.html#a938e6a3d06b11a5dc3da541a5d05c0b2" target="_top" xlink:title="INR_NAPI_poll_1">
<polygon fill="white" stroke="black" points="326,-602.461 326,-621.461 421,-621.461 421,-602.461 326,-602.461"/>
<text text-anchor="middle" x="373.5" y="-609.461" font-family="Helvetica,sans-Serif" font-size="10.00">INR_NAPI_poll_1</text>
</a>
</g>
</g>
<!-- Node2&#45;&gt;Node8 -->
<g id="edge7" class="edge"><title>Node2&#45;&gt;Node8</title>
<path fill="none" stroke="midnightblue" d="M233.532,-352.212C238.015,-404.201 255.401,-524.086 322,-592.961 325.777,-596.867 330.434,-599.978 335.38,-602.455"/>
<polygon fill="midnightblue" stroke="midnightblue" points="237.018,-351.892 232.758,-342.191 230.039,-352.431 237.018,-351.892"/>
</g>
<!-- Node9 -->
<g id="node9" class="node"><title>Node9</title>
<g id="a_node9"><a xlink:href="../../d6/d03/_i_n_r-_n_a_p_i_8h.html#ae6bc59b863b3928700468d13efd23e27" target="_top" xlink:title="INR_NAPI_poll_2">
<polygon fill="white" stroke="black" points="326,-564.461 326,-583.461 421,-583.461 421,-564.461 326,-564.461"/>
<text text-anchor="middle" x="373.5" y="-571.461" font-family="Helvetica,sans-Serif" font-size="10.00">INR_NAPI_poll_2</text>
</a>
</g>
</g>
<!-- Node2&#45;&gt;Node9 -->
<g id="edge9" class="edge"><title>Node2&#45;&gt;Node9</title>
<path fill="none" stroke="midnightblue" d="M235.183,-352.104C242.337,-398.434 263.871,-497.761 322,-554.961 325.939,-558.838 330.745,-561.937 335.809,-564.41"/>
<polygon fill="midnightblue" stroke="midnightblue" points="238.622,-351.429 233.729,-342.032 231.694,-352.43 238.622,-351.429"/>
</g>
<!-- Node10 -->
<g id="node10" class="node"><title>Node10</title>
<g id="a_node10"><a xlink:href="../../d6/d03/_i_n_r-_n_a_p_i_8h.html#a7888221fd9575d7e7aae78ed125d8646" target="_top" xlink:title="INR_NAPI_poll_3">
<polygon fill="white" stroke="black" points="326,-526.461 326,-545.461 421,-545.461 421,-526.461 326,-526.461"/>
<text text-anchor="middle" x="373.5" y="-533.461" font-family="Helvetica,sans-Serif" font-size="10.00">INR_NAPI_poll_3</text>
</a>
</g>
</g>
<!-- Node2&#45;&gt;Node10 -->
<g id="edge11" class="edge"><title>Node2&#45;&gt;Node10</title>
<path fill="none" stroke="midnightblue" d="M237.396,-351.865C247.329,-392.001 272.209,-471.118 322,-516.961 326.204,-520.832 331.271,-523.936 336.553,-526.421"/>
<polygon fill="midnightblue" stroke="midnightblue" points="240.792,-351.016 235.084,-342.091 233.98,-352.628 240.792,-351.016"/>
</g>
<!-- Node11 -->
<g id="node11" class="node"><title>Node11</title>
<g id="a_node11"><a xlink:href="../../d6/d03/_i_n_r-_n_a_p_i_8h.html#a5e711c1ae61572a4bab9ffefc34d0f34" target="_top" xlink:title="INR_NAPI_poll_4">
<polygon fill="white" stroke="black" points="326,-488.461 326,-507.461 421,-507.461 421,-488.461 326,-488.461"/>
<text text-anchor="middle" x="373.5" y="-495.461" font-family="Helvetica,sans-Serif" font-size="10.00">INR_NAPI_poll_4</text>
</a>
</g>
</g>
<!-- Node2&#45;&gt;Node11 -->
<g id="edge13" class="edge"><title>Node2&#45;&gt;Node11</title>
<path fill="none" stroke="midnightblue" d="M240.603,-351.644C253.396,-384.955 280.48,-444.129 322,-478.961 326.593,-482.814 332.046,-485.928 337.641,-488.432"/>
<polygon fill="midnightblue" stroke="midnightblue" points="243.855,-350.347 237.091,-342.192 237.293,-352.785 243.855,-350.347"/>
</g>
<!-- Node12 -->
<g id="node12" class="node"><title>Node12</title>
<g id="a_node12"><a xlink:href="../../d6/d03/_i_n_r-_n_a_p_i_8h.html#a4c7935fe4ef401ccd186e05e1047748c" target="_top" xlink:title="INR_NAPI_poll_5">
<polygon fill="white" stroke="black" points="326,-450.461 326,-469.461 421,-469.461 421,-450.461 326,-450.461"/>
<text text-anchor="middle" x="373.5" y="-457.461" font-family="Helvetica,sans-Serif" font-size="10.00">INR_NAPI_poll_5</text>
</a>
</g>
</g>
<!-- Node2&#45;&gt;Node12 -->
<g id="edge15" class="edge"><title>Node2&#45;&gt;Node12</title>
<path fill="none" stroke="midnightblue" d="M245.364,-350.737C260.81,-376.263 288.457,-416.444 322,-440.961 327.143,-444.72 333.116,-447.823 339.117,-450.352"/>
<polygon fill="midnightblue" stroke="midnightblue" points="248.335,-348.884 240.238,-342.052 242.307,-352.442 248.335,-348.884"/>
</g>
<!-- Node13 -->
<g id="node13" class="node"><title>Node13</title>
<g id="a_node13"><a xlink:href="../../d6/d03/_i_n_r-_n_a_p_i_8h.html#a2a63c16bad3fb8de0dacd9bb0b02a40f" target="_top" xlink:title="INR_NAPI_poll_6">
<polygon fill="white" stroke="black" points="326,-412.461 326,-431.461 421,-431.461 421,-412.461 326,-412.461"/>
<text text-anchor="middle" x="373.5" y="-419.461" font-family="Helvetica,sans-Serif" font-size="10.00">INR_NAPI_poll_6</text>
</a>
</g>
</g>
<!-- Node2&#45;&gt;Node13 -->
<g id="edge17" class="edge"><title>Node2&#45;&gt;Node13</title>
<path fill="none" stroke="midnightblue" d="M254.038,-349.333C271.314,-365.89 296.608,-388.065 322,-402.961 328.221,-406.611 335.269,-409.784 342.083,-412.437"/>
<polygon fill="midnightblue" stroke="midnightblue" points="256.295,-346.645 246.693,-342.167 251.406,-351.655 256.295,-346.645"/>
</g>
<!-- Node14 -->
<g id="node14" class="node"><title>Node14</title>
<g id="a_node14"><a xlink:href="../../d6/d03/_i_n_r-_n_a_p_i_8h.html#a05cb8dc7168c07cf8755dc8e4075caba" target="_top" xlink:title="INR_NAPI_poll_7">
<polygon fill="white" stroke="black" points="326,-374.461 326,-393.461 421,-393.461 421,-374.461 326,-374.461"/>
<text text-anchor="middle" x="373.5" y="-381.461" font-family="Helvetica,sans-Serif" font-size="10.00">INR_NAPI_poll_7</text>
</a>
</g>
</g>
<!-- Node2&#45;&gt;Node14 -->
<g id="edge19" class="edge"><title>Node2&#45;&gt;Node14</title>
<path fill="none" stroke="midnightblue" d="M276.188,-346.03C290.729,-352.195 307.01,-358.98 322,-364.961 329.917,-368.121 338.587,-371.435 346.474,-374.394"/>
<polygon fill="midnightblue" stroke="midnightblue" points="277.487,-342.779 266.915,-342.083 274.745,-349.22 277.487,-342.779"/>
</g>
<!-- Node15 -->
<g id="node15" class="node"><title>Node15</title>
<g id="a_node15"><a xlink:href="../../d6/d03/_i_n_r-_n_a_p_i_8h.html#a56cfbbdff0a9b3fba466a06079b21ed8" target="_top" xlink:title="INR_NAPI_poll_8">
<polygon fill="white" stroke="black" points="326,-336.461 326,-355.461 421,-355.461 421,-336.461 326,-336.461"/>
<text text-anchor="middle" x="373.5" y="-343.461" font-family="Helvetica,sans-Serif" font-size="10.00">INR_NAPI_poll_8</text>
</a>
</g>
</g>
<!-- Node2&#45;&gt;Node15 -->
<g id="edge21" class="edge"><title>Node2&#45;&gt;Node15</title>
<path fill="none" stroke="midnightblue" d="M296.475,-335.68C306.302,-337.009 316.281,-338.359 325.636,-339.624"/>
<polygon fill="midnightblue" stroke="midnightblue" points="296.7,-332.179 286.321,-334.307 295.762,-339.116 296.7,-332.179"/>
</g>
<!-- Node16 -->
<g id="node16" class="node"><title>Node16</title>
<g id="a_node16"><a xlink:href="../../d6/d03/_i_n_r-_n_a_p_i_8h.html#a7411c18801eb32e892612975b01d604e" target="_top" xlink:title="INR_NAPI_poll_9">
<polygon fill="white" stroke="black" points="326,-298.461 326,-317.461 421,-317.461 421,-298.461 326,-298.461"/>
<text text-anchor="middle" x="373.5" y="-305.461" font-family="Helvetica,sans-Serif" font-size="10.00">INR_NAPI_poll_9</text>
</a>
</g>
</g>
<!-- Node2&#45;&gt;Node16 -->
<g id="edge23" class="edge"><title>Node2&#45;&gt;Node16</title>
<path fill="none" stroke="midnightblue" d="M296.475,-318.242C306.302,-316.913 316.281,-315.564 325.636,-314.299"/>
<polygon fill="midnightblue" stroke="midnightblue" points="295.762,-314.807 286.321,-319.615 296.7,-321.744 295.762,-314.807"/>
</g>
<!-- Node17 -->
<g id="node17" class="node"><title>Node17</title>
<g id="a_node17"><a xlink:href="../../d6/d03/_i_n_r-_n_a_p_i_8h.html#a69ec3410fe5dc7da35e2f6a8d72acdb4" target="_top" xlink:title="INR_NAPI_poll_10">
<polygon fill="white" stroke="black" points="323.5,-260.461 323.5,-279.461 423.5,-279.461 423.5,-260.461 323.5,-260.461"/>
<text text-anchor="middle" x="373.5" y="-267.461" font-family="Helvetica,sans-Serif" font-size="10.00">INR_NAPI_poll_10</text>
</a>
</g>
</g>
<!-- Node2&#45;&gt;Node17 -->
<g id="edge25" class="edge"><title>Node2&#45;&gt;Node17</title>
<path fill="none" stroke="midnightblue" d="M276.188,-307.893C290.729,-301.728 307.01,-294.943 322,-288.961 329.917,-285.802 338.587,-282.488 346.474,-279.528"/>
<polygon fill="midnightblue" stroke="midnightblue" points="274.745,-304.703 266.915,-311.84 277.487,-311.144 274.745,-304.703"/>
</g>
<!-- Node18 -->
<g id="node18" class="node"><title>Node18</title>
<g id="a_node18"><a xlink:href="../../d6/d03/_i_n_r-_n_a_p_i_8h.html#a7b9c6dd796e70895de209d2803e13ccc" target="_top" xlink:title="INR_NAPI_poll_11">
<polygon fill="white" stroke="black" points="323.5,-222.461 323.5,-241.461 423.5,-241.461 423.5,-222.461 323.5,-222.461"/>
<text text-anchor="middle" x="373.5" y="-229.461" font-family="Helvetica,sans-Serif" font-size="10.00">INR_NAPI_poll_11</text>
</a>
</g>
</g>
<!-- Node2&#45;&gt;Node18 -->
<g id="edge27" class="edge"><title>Node2&#45;&gt;Node18</title>
<path fill="none" stroke="midnightblue" d="M254.038,-304.59C271.314,-288.033 296.608,-265.858 322,-250.961 328.221,-247.312 335.269,-244.138 342.083,-241.485"/>
<polygon fill="midnightblue" stroke="midnightblue" points="251.406,-302.267 246.693,-311.756 256.295,-307.278 251.406,-302.267"/>
</g>
<!-- Node19 -->
<g id="node19" class="node"><title>Node19</title>
<g id="a_node19"><a xlink:href="../../d6/d03/_i_n_r-_n_a_p_i_8h.html#a3a1602b0c3f015b8aabd0b978d704493" target="_top" xlink:title="INR_NAPI_poll_12">
<polygon fill="white" stroke="black" points="323.5,-184.461 323.5,-203.461 423.5,-203.461 423.5,-184.461 323.5,-184.461"/>
<text text-anchor="middle" x="373.5" y="-191.461" font-family="Helvetica,sans-Serif" font-size="10.00">INR_NAPI_poll_12</text>
</a>
</g>
</g>
<!-- Node2&#45;&gt;Node19 -->
<g id="edge29" class="edge"><title>Node2&#45;&gt;Node19</title>
<path fill="none" stroke="midnightblue" d="M245.364,-303.186C260.81,-277.66 288.457,-237.478 322,-212.961 327.143,-209.203 333.116,-206.1 339.117,-203.57"/>
<polygon fill="midnightblue" stroke="midnightblue" points="242.307,-301.48 240.238,-311.871 248.335,-305.039 242.307,-301.48"/>
</g>
<!-- Node20 -->
<g id="node20" class="node"><title>Node20</title>
<g id="a_node20"><a xlink:href="../../d6/d03/_i_n_r-_n_a_p_i_8h.html#a2ee390e1624519f6a631b3046c2fbd3f" target="_top" xlink:title="INR_NAPI_poll_13">
<polygon fill="white" stroke="black" points="323.5,-146.461 323.5,-165.461 423.5,-165.461 423.5,-146.461 323.5,-146.461"/>
<text text-anchor="middle" x="373.5" y="-153.461" font-family="Helvetica,sans-Serif" font-size="10.00">INR_NAPI_poll_13</text>
</a>
</g>
</g>
<!-- Node2&#45;&gt;Node20 -->
<g id="edge31" class="edge"><title>Node2&#45;&gt;Node20</title>
<path fill="none" stroke="midnightblue" d="M240.603,-302.278C253.396,-268.968 280.48,-209.793 322,-174.961 326.593,-171.108 332.046,-167.994 337.641,-165.49"/>
<polygon fill="midnightblue" stroke="midnightblue" points="237.293,-301.137 237.091,-311.73 243.855,-303.575 237.293,-301.137"/>
</g>
<!-- Node21 -->
<g id="node21" class="node"><title>Node21</title>
<g id="a_node21"><a xlink:href="../../d6/d03/_i_n_r-_n_a_p_i_8h.html#a2cbf12b9e0e03b3b3862a98784ecc52b" target="_top" xlink:title="INR_NAPI_poll_14">
<polygon fill="white" stroke="black" points="323.5,-108.461 323.5,-127.461 423.5,-127.461 423.5,-108.461 323.5,-108.461"/>
<text text-anchor="middle" x="373.5" y="-115.461" font-family="Helvetica,sans-Serif" font-size="10.00">INR_NAPI_poll_14</text>
</a>
</g>
</g>
<!-- Node2&#45;&gt;Node21 -->
<g id="edge33" class="edge"><title>Node2&#45;&gt;Node21</title>
<path fill="none" stroke="midnightblue" d="M237.396,-302.058C247.329,-261.922 272.209,-182.804 322,-136.961 326.204,-133.091 331.271,-129.986 336.553,-127.502"/>
<polygon fill="midnightblue" stroke="midnightblue" points="233.98,-301.295 235.084,-311.832 240.792,-302.906 233.98,-301.295"/>
</g>
<!-- Node22 -->
<g id="node22" class="node"><title>Node22</title>
<g id="a_node22"><a xlink:href="../../d6/d03/_i_n_r-_n_a_p_i_8h.html#a91f701f31afe930ece5c8bf5fb1a7ed6" target="_top" xlink:title="INR_NAPI_poll_15">
<polygon fill="white" stroke="black" points="323.5,-70.4613 323.5,-89.4613 423.5,-89.4613 423.5,-70.4613 323.5,-70.4613"/>
<text text-anchor="middle" x="373.5" y="-77.4613" font-family="Helvetica,sans-Serif" font-size="10.00">INR_NAPI_poll_15</text>
</a>
</g>
</g>
<!-- Node2&#45;&gt;Node22 -->
<g id="edge35" class="edge"><title>Node2&#45;&gt;Node22</title>
<path fill="none" stroke="midnightblue" d="M240.434,-302.373C259.754,-246.567 306.723,-113.994 322,-98.9613 325.939,-95.0849 330.745,-91.9861 335.809,-89.5123"/>
<polygon fill="midnightblue" stroke="midnightblue" points="237.116,-301.259 237.162,-311.854 243.733,-303.542 237.116,-301.259"/>
</g>
<!-- Node23 -->
<g id="node23" class="node"><title>Node23</title>
<g id="a_node23"><a xlink:href="../../dc/dc8/_i_n_r-_p_c_i_8c.html#a1c0927891fa571e8aec98ebe5fd266f6" target="_top" xlink:title="XPCIe_IRQHandler">
<polygon fill="white" stroke="black" points="322,-32.4613 322,-51.4613 425,-51.4613 425,-32.4613 322,-32.4613"/>
<text text-anchor="middle" x="373.5" y="-39.4613" font-family="Helvetica,sans-Serif" font-size="10.00">XPCIe_IRQHandler</text>
</a>
</g>
</g>
<!-- Node2&#45;&gt;Node23 -->
<g id="edge37" class="edge"><title>Node2&#45;&gt;Node23</title>
<path fill="none" stroke="midnightblue" d="M240.825,-302.161C251.657,-271.604 270.494,-218.067 286,-171.961 302.532,-122.804 286.185,-98.472 322,-60.9613 325.687,-57.0995 330.236,-54.0155 335.08,-51.5544"/>
<polygon fill="midnightblue" stroke="midnightblue" points="237.522,-301.004 237.476,-311.599 244.119,-303.346 237.522,-301.004"/>
</g>
<!-- Node4 -->
<g id="node4" class="node"><title>Node4</title>
<g id="a_node4"><a xlink:href="../../d6/d03/_i_n_r-_n_a_p_i_8h.html#a4d6b9bd7496ab1a6ae8d17e5889d6adb" target="_top" xlink:title="INR_NAPI_init">
<polygon fill="white" stroke="black" points="462,-336.461 462,-355.461 544,-355.461 544,-336.461 462,-336.461"/>
<text text-anchor="middle" x="503" y="-343.461" font-family="Helvetica,sans-Serif" font-size="10.00">INR_NAPI_init</text>
</a>
</g>
</g>
<!-- Node3&#45;&gt;Node4 -->
<g id="edge3" class="edge"><title>Node3&#45;&gt;Node4</title>
<path fill="none" stroke="midnightblue" d="M421.075,-634.692C422.472,-633.538 423.788,-632.296 425,-630.961 501.332,-546.928 503.218,-394.952 502.341,-355.516"/>
<polygon fill="midnightblue" stroke="midnightblue" points="418.802,-631.997 412.349,-640.401 422.634,-637.855 418.802,-631.997"/>
</g>
<!-- Node5 -->
<g id="node5" class="node"><title>Node5</title>
<g id="a_node5"><a xlink:href="../../df/df2/_i_n_r-_p_c_i_8h.html#a63ce64abfe6217358041ed07e918a398" target="_top" xlink:title="INR_init_drv">
<polygon fill="white" stroke="black" points="581,-32.4613 581,-51.4613 652,-51.4613 652,-32.4613 581,-32.4613"/>
<text text-anchor="middle" x="616.5" y="-39.4613" font-family="Helvetica,sans-Serif" font-size="10.00">INR_init_drv</text>
</a>
</g>
</g>
<!-- Node4&#45;&gt;Node5 -->
<g id="edge4" class="edge"><title>Node4&#45;&gt;Node5</title>
<path fill="none" stroke="midnightblue" d="M511.074,-326.674C532.52,-268.202 596.299,-94.3109 611.985,-51.5437"/>
<polygon fill="midnightblue" stroke="midnightblue" points="507.741,-325.597 507.584,-336.191 514.313,-328.008 507.741,-325.597"/>
</g>
<!-- Node6 -->
<g id="node6" class="node"><title>Node6</title>
<g id="a_node6"><a xlink:href="../../d0/d29/main_8c.html#a1f2bd07aac6fb1d9a27f635dac28669b" target="_top" xlink:title="probe">
<polygon fill="white" stroke="black" points="688,-32.4613 688,-51.4613 729,-51.4613 729,-32.4613 688,-32.4613"/>
<text text-anchor="middle" x="708.5" y="-39.4613" font-family="Helvetica,sans-Serif" font-size="10.00">probe</text>
</a>
</g>
</g>
<!-- Node5&#45;&gt;Node6 -->
<g id="edge5" class="edge"><title>Node5&#45;&gt;Node6</title>
<path fill="none" stroke="midnightblue" d="M662.123,-41.9613C671.131,-41.9613 680.159,-41.9613 687.763,-41.9613"/>
<polygon fill="midnightblue" stroke="midnightblue" points="662.039,-38.4614 652.039,-41.9613 662.039,-45.4614 662.039,-38.4614"/>
</g>
<!-- Node7 -->
<g id="node7" class="node"><title>Node7</title>
<g id="a_node7"><a xlink:href="../../d0/d29/main_8c.html#a28d5841b26c9924ab02d6adb235e9848" target="_top" xlink:title="remove">
<polygon fill="white" stroke="black" points="765,-32.4613 765,-51.4613 814,-51.4613 814,-32.4613 765,-32.4613"/>
<text text-anchor="middle" x="789.5" y="-39.4613" font-family="Helvetica,sans-Serif" font-size="10.00">remove</text>
</a>
</g>
</g>
<!-- Node6&#45;&gt;Node7 -->
<g id="edge6" class="edge"><title>Node6&#45;&gt;Node7</title>
<path fill="none" stroke="midnightblue" d="M739.31,-41.9613C747.797,-41.9613 756.92,-41.9613 764.976,-41.9613"/>
<polygon fill="midnightblue" stroke="midnightblue" points="739.028,-38.4614 729.028,-41.9613 739.028,-45.4614 739.028,-38.4614"/>
</g>
<!-- Node8&#45;&gt;Node4 -->
<g id="edge8" class="edge"><title>Node8&#45;&gt;Node4</title>
<path fill="none" stroke="midnightblue" d="M420.539,-597.006C422.129,-595.763 423.626,-594.417 425,-592.961 492.523,-521.428 500.869,-391.522 501.871,-355.466"/>
<polygon fill="midnightblue" stroke="midnightblue" points="418.558,-594.117 411.96,-602.406 422.287,-600.041 418.558,-594.117"/>
</g>
<!-- Node9&#45;&gt;Node4 -->
<g id="edge10" class="edge"><title>Node9&#45;&gt;Node4</title>
<path fill="none" stroke="midnightblue" d="M420.362,-558.981C422.008,-557.744 423.564,-556.407 425,-554.961 483.585,-495.972 498.077,-388.651 501.216,-355.788"/>
<polygon fill="midnightblue" stroke="midnightblue" points="418.246,-556.171 411.527,-564.363 421.888,-562.149 418.246,-556.171"/>
</g>
<!-- Node10&#45;&gt;Node4 -->
<g id="edge12" class="edge"><title>Node10&#45;&gt;Node4</title>
<path fill="none" stroke="midnightblue" d="M419.625,-521.283C421.53,-519.961 423.335,-518.524 425,-516.961 475.089,-469.944 494.918,-384.265 500.342,-355.597"/>
<polygon fill="midnightblue" stroke="midnightblue" points="417.7,-518.352 410.772,-526.368 421.187,-524.422 417.7,-518.352"/>
</g>
<!-- Node11&#45;&gt;Node4 -->
<g id="edge14" class="edge"><title>Node11&#45;&gt;Node4</title>
<path fill="none" stroke="midnightblue" d="M418.664,-483.562C420.899,-482.16 423.03,-480.63 425,-478.961 466.73,-443.603 491.003,-379.587 499.018,-355.484"/>
<polygon fill="midnightblue" stroke="midnightblue" points="416.84,-480.568 409.653,-488.352 420.126,-486.749 416.84,-480.568"/>
</g>
<!-- Node12&#45;&gt;Node4 -->
<g id="edge16" class="edge"><title>Node12&#45;&gt;Node4</title>
<path fill="none" stroke="midnightblue" d="M416.884,-446.001C419.724,-444.469 422.461,-442.793 425,-440.961 458.407,-416.871 485.401,-374.736 496.517,-355.74"/>
<polygon fill="midnightblue" stroke="midnightblue" points="415.118,-442.965 407.58,-450.41 418.115,-449.291 415.118,-442.965"/>
</g>
<!-- Node13&#45;&gt;Node4 -->
<g id="edge18" class="edge"><title>Node13&#45;&gt;Node4</title>
<path fill="none" stroke="midnightblue" d="M413.322,-408.624C417.337,-406.871 421.298,-404.977 425,-402.961 450.418,-389.124 476.855,-367.764 491.184,-355.5"/>
<polygon fill="midnightblue" stroke="midnightblue" points="411.89,-405.428 403.955,-412.449 414.536,-411.909 411.89,-405.428"/>
</g>
<!-- Node14&#45;&gt;Node4 -->
<g id="edge20" class="edge"><title>Node14&#45;&gt;Node4</title>
<path fill="none" stroke="midnightblue" d="M416.559,-371.426C433.904,-366.257 453.681,-360.362 469.837,-355.547"/>
<polygon fill="midnightblue" stroke="midnightblue" points="415.257,-368.162 406.674,-374.372 417.257,-374.87 415.257,-368.162"/>
</g>
<!-- Node15&#45;&gt;Node4 -->
<g id="edge22" class="edge"><title>Node15&#45;&gt;Node4</title>
<path fill="none" stroke="midnightblue" d="M431.434,-345.961C441.737,-345.961 452.28,-345.961 461.97,-345.961"/>
<polygon fill="midnightblue" stroke="midnightblue" points="431.252,-342.461 421.252,-345.961 431.252,-349.461 431.252,-342.461"/>
</g>
<!-- Node16&#45;&gt;Node4 -->
<g id="edge24" class="edge"><title>Node16&#45;&gt;Node4</title>
<path fill="none" stroke="midnightblue" d="M416.559,-320.497C433.904,-325.666 453.681,-331.56 469.837,-336.375"/>
<polygon fill="midnightblue" stroke="midnightblue" points="417.257,-317.052 406.674,-317.55 415.257,-323.761 417.257,-317.052"/>
</g>
<!-- Node17&#45;&gt;Node4 -->
<g id="edge26" class="edge"><title>Node17&#45;&gt;Node4</title>
<path fill="none" stroke="midnightblue" d="M413.322,-283.299C417.337,-285.052 421.298,-286.946 425,-288.961 450.418,-302.799 476.855,-324.159 491.184,-336.422"/>
<polygon fill="midnightblue" stroke="midnightblue" points="414.536,-280.014 403.955,-279.474 411.89,-286.494 414.536,-280.014"/>
</g>
<!-- Node18&#45;&gt;Node4 -->
<g id="edge28" class="edge"><title>Node18&#45;&gt;Node4</title>
<path fill="none" stroke="midnightblue" d="M416.884,-245.922C419.724,-247.453 422.461,-249.13 425,-250.961 458.407,-275.052 485.401,-317.187 496.517,-336.183"/>
<polygon fill="midnightblue" stroke="midnightblue" points="418.115,-242.632 407.58,-241.513 415.118,-248.958 418.115,-242.632"/>
</g>
<!-- Node19&#45;&gt;Node4 -->
<g id="edge30" class="edge"><title>Node19&#45;&gt;Node4</title>
<path fill="none" stroke="midnightblue" d="M418.664,-208.361C420.899,-209.762 423.03,-211.292 425,-212.961 466.73,-248.32 491.003,-312.336 499.018,-336.439"/>
<polygon fill="midnightblue" stroke="midnightblue" points="420.126,-205.174 409.653,-203.571 416.84,-211.355 420.126,-205.174"/>
</g>
<!-- Node20&#45;&gt;Node4 -->
<g id="edge32" class="edge"><title>Node20&#45;&gt;Node4</title>
<path fill="none" stroke="midnightblue" d="M419.625,-170.64C421.53,-171.961 423.335,-173.399 425,-174.961 475.089,-221.978 494.918,-307.657 500.342,-336.326"/>
<polygon fill="midnightblue" stroke="midnightblue" points="421.187,-167.5 410.772,-165.555 417.7,-173.57 421.187,-167.5"/>
</g>
<!-- Node21&#45;&gt;Node4 -->
<g id="edge34" class="edge"><title>Node21&#45;&gt;Node4</title>
<path fill="none" stroke="midnightblue" d="M420.362,-132.942C422.008,-134.179 423.564,-135.516 425,-136.961 483.585,-195.95 498.077,-303.272 501.216,-336.135"/>
<polygon fill="midnightblue" stroke="midnightblue" points="421.888,-129.773 411.527,-127.559 418.246,-135.751 421.888,-129.773"/>
</g>
<!-- Node22&#45;&gt;Node4 -->
<g id="edge36" class="edge"><title>Node22&#45;&gt;Node4</title>
<path fill="none" stroke="midnightblue" d="M420.539,-94.9169C422.129,-96.1599 423.626,-97.5053 425,-98.9613 492.523,-170.495 500.869,-300.4 501.871,-336.457"/>
<polygon fill="midnightblue" stroke="midnightblue" points="422.287,-91.8818 411.96,-89.5163 418.558,-97.8057 422.287,-91.8818"/>
</g>
<!-- Node24 -->
<g id="node24" class="node"><title>Node24</title>
<g id="a_node24"><a xlink:href="../../dc/dc8/_i_n_r-_p_c_i_8c.html#af7926b059a794041b841cda82ea84ca9" target="_top" xlink:title="INR_int_enable">
<polygon fill="white" stroke="black" points="461,-32.4613 461,-51.4613 545,-51.4613 545,-32.4613 461,-32.4613"/>
<text text-anchor="middle" x="503" y="-39.4613" font-family="Helvetica,sans-Serif" font-size="10.00">INR_int_enable</text>
</a>
</g>
</g>
<!-- Node23&#45;&gt;Node24 -->
<g id="edge38" class="edge"><title>Node23&#45;&gt;Node24</title>
<path fill="none" stroke="midnightblue" d="M435.328,-41.9613C443.967,-41.9613 452.677,-41.9613 460.823,-41.9613"/>
<polygon fill="midnightblue" stroke="midnightblue" points="435.258,-38.4614 425.258,-41.9613 435.258,-45.4614 435.258,-38.4614"/>
</g>
<!-- Node24&#45;&gt;Node5 -->
<g id="edge39" class="edge"><title>Node24&#45;&gt;Node5</title>
<path fill="none" stroke="midnightblue" d="M555.209,-41.9613C563.833,-41.9613 572.603,-41.9613 580.687,-41.9613"/>
<polygon fill="midnightblue" stroke="midnightblue" points="555.202,-38.4614 545.202,-41.9613 555.202,-45.4614 555.202,-38.4614"/>
</g>
<!-- Node25&#45;&gt;Node5 -->
<g id="edge41" class="edge"><title>Node25&#45;&gt;Node5</title>
<path fill="none" stroke="midnightblue" d="M238.668,-133.635C250.235,-103.528 277.173,-46.4485 322,-22.9613 411.78,24.0792 538.792,-13.2532 591.319,-32.3968"/>
<polygon fill="midnightblue" stroke="midnightblue" points="235.247,-132.801 235.098,-143.395 241.82,-135.206 235.247,-132.801"/>
</g>
</g>
</svg>
        <g id="navigator" transform="translate(0 0)" fill="#404254">
                <rect fill="#f2f5e9" fill-opacity="0.5" stroke="#606060" stroke-width=".5" x="0" y="0" width="60" height="60"/>
                <use id="zoomplus" xlink:href="#zoomPlus" x="17" y="9" onmousedown="handleZoom(evt,'in')"/>
                <use id="zoomminus" xlink:href="#zoomMin" x="42" y="9" onmousedown="handleZoom(evt,'out')"/>
                <use id="reset" xlink:href="#resetDef" x="30" y="36" onmousedown="handleReset()"/>
                <g id="arrowUp" xlink:href="#dirArrow" transform="translate(30 24)" onmousedown="handlePan(0,-1)">
                  <use xlink:href="#rim" fill="#404040">
                        <set attributeName="fill" to="#808080" begin="arrowUp.mouseover" end="arrowUp.mouseout"/>
                  </use>
                  <path fill="none" stroke="white" stroke-width="1.5" d="M0,-3.0v7 M-2.5,-0.5L0,-3.0L2.5,-0.5"/>
                </g>
                <g id="arrowRight" xlink:href="#dirArrow" transform="rotate(90) translate(36 -43)" onmousedown="handlePan(1,0)">
                  <use xlink:href="#rim" fill="#404040">
                        <set attributeName="fill" to="#808080" begin="arrowRight.mouseover" end="arrowRight.mouseout"/>
                  </use>
                  <path fill="none" stroke="white" stroke-width="1.5" d="M0,-3.0v7 M-2.5,-0.5L0,-3.0L2.5,-0.5"/>
                </g>
                <g id="arrowDown" xlink:href="#dirArrow" transform="rotate(180) translate(-30 -48)" onmousedown="handlePan(0,1)">
                  <use xlink:href="#rim" fill="#404040">
                        <set attributeName="fill" to="#808080" begin="arrowDown.mouseover" end="arrowDown.mouseout"/>
                  </use>
                  <path fill="none" stroke="white" stroke-width="1.5" d="M0,-3.0v7 M-2.5,-0.5L0,-3.0L2.5,-0.5"/>
                </g>
                <g id="arrowLeft" xlink:href="#dirArrow" transform="rotate(270) translate(-36 17)" onmousedown="handlePan(-1,0)">
                  <use xlink:href="#rim" fill="#404040">
                        <set attributeName="fill" to="#808080" begin="arrowLeft.mouseover" end="arrowLeft.mouseout"/>
                  </use>
                  <path fill="none" stroke="white" stroke-width="1.5" d="M0,-3.0v7 M-2.5,-0.5L0,-3.0L2.5,-0.5"/>
                </g>
        </g>
        <svg viewBox="0 0 15 15" width="100%" height="30px" preserveAspectRatio="xMaxYMin meet">
         <g id="arrow_out" transform="scale(0.3 0.3)">
          <a xlink:href="_i_n_r-_p_c_i_8h_a03f960f01f96c2f664301c6830461c7f_icgraph_org.svg" target="_base">
           <rect id="button" ry="5" rx="5" y="6" x="6" height="38" width="38"
                fill="#f2f5e9" fill-opacity="0.5" stroke="#606060" stroke-width="1.0"/>
           <path id="arrow"
             d="M 11.500037,31.436501 C 11.940474,20.09759 22.043105,11.32322 32.158766,21.979434 L 37.068811,17.246167 C 37.068811,17.246167 37.088388,32 37.088388,32 L 22.160133,31.978069 C 22.160133,31.978069 26.997745,27.140456 26.997745,27.140456 C 18.528582,18.264221 13.291696,25.230495 11.500037,31.436501 z"
             style="fill:#404040;"/>
          </a>
         </g>
        </svg>
</svg>
