<?xml version="1.0" encoding="UTF-8" standalone="no"?>
<!DOCTYPE svg PUBLIC "-//W3C//DTD SVG 1.1//EN"
 "http://www.w3.org/Graphics/SVG/1.1/DTD/svg11.dtd">
<!-- Generated by graphviz version 2.38.0 (20140413.2041)
 -->
<!-- Title: INR_PCI_process_rx_descriptor_ring Pages: 1 -->
<!--zoomable 636 -->
<svg id="main" version="1.1" xmlns="http://www.w3.org/2000/svg" xmlns:xlink="http://www.w3.org/1999/xlink" xml:space="preserve" onload="init(evt)">
<style type="text/css"><![CDATA[
.edge:hover path { stroke: red; }
.edge:hover polygon { stroke: red; fill: red; }
]]></style>
<script type="text/javascript"><![CDATA[
var edges = document.getElementsByTagName('g');
if (edges && edges.length) {
  for (var i=0;i<edges.length;i++) {
    if (edges[i].id.substr(0,4)=='edge') {
      edges[i].setAttribute('class','edge');
    }
  }
}
]]></script>
        <defs>
                <circle id="rim" cx="0" cy="0" r="7"/>
                <circle id="rim2" cx="0" cy="0" r="3.5"/>
                <g id="zoomPlus">
                        <use xlink:href="#rim" fill="#404040">
                                <set attributeName="fill" to="#808080" begin="zoomplus.mouseover" end="zoomplus.mouseout"/>
                        </use>
                        <path d="M-4,0h8M0,-4v8" fill="none" stroke="white" stroke-width="1.5" pointer-events="none"/>
                </g>
                <g id="zoomMin">
                        <use xlink:href="#rim" fill="#404040">
                                <set attributeName="fill" to="#808080" begin="zoomminus.mouseover" end="zoomminus.mouseout"/>
                        </use>
                        <path d="M-4,0h8" fill="none" stroke="white" stroke-width="1.5" pointer-events="none"/>
                </g>
                <g id="dirArrow">
                        <path fill="none" stroke="white" stroke-width="1.5" d="M0,-3.0v7 M-2.5,-0.5L0,-3.0L2.5,-0.5"/>
                </g>
               <g id="resetDef">
                       <use xlink:href="#rim2" fill="#404040">
                               <set attributeName="fill" to="#808080" begin="reset.mouseover" end="reset.mouseout"/>
                       </use>
               </g>
        </defs>

<script type="text/javascript">
var viewWidth = 646;
var viewHeight = 636;
var sectionId = 'dynsection-8';
</script>
<script xlink:href="../../svgpan.js"/>
<svg id="graph" class="graph">
<g id="viewport">
<title>INR_PCI_process_rx_descriptor_ring</title>
<polygon fill="white" stroke="none" points="-4,4 -4,-632 642,-632 642,4 -4,4"/>
<!-- Node1 -->
<g id="node1" class="node"><title>Node1</title>
<polygon fill="#bfbfbf" stroke="black" points="0,-299 0,-329 110,-329 110,-299 0,-299"/>
<text text-anchor="start" x="8" y="-317" font-family="Helvetica,sans-Serif" font-size="10.00">INR_PCI_process_rx</text>
<text text-anchor="middle" x="55" y="-306" font-family="Helvetica,sans-Serif" font-size="10.00">_descriptor_ring</text>
</g>
<!-- Node2 -->
<g id="node2" class="node"><title>Node2</title>
<g id="a_node2"><a xlink:href="../../d6/d03/_i_n_r-_n_a_p_i_8h.html#a87ec5cd355cffe8b96296dbb83278bfe" target="_top" xlink:title="INR_NAPI_poll_0">
<polygon fill="white" stroke="black" points="150,-608.5 150,-627.5 245,-627.5 245,-608.5 150,-608.5"/>
<text text-anchor="middle" x="197.5" y="-615.5" font-family="Helvetica,sans-Serif" font-size="10.00">INR_NAPI_poll_0</text>
</a>
</g>
</g>
<!-- Node1&#45;&gt;Node2 -->
<g id="edge1" class="edge"><title>Node1&#45;&gt;Node2</title>
<path fill="none" stroke="midnightblue" d="M56.8685,-339.495C60.0925,-394.277 75.2205,-524.293 146,-599 149.672,-602.876 154.213,-605.968 159.053,-608.433"/>
<polygon fill="midnightblue" stroke="midnightblue" points="60.3531,-339.099 56.3573,-329.287 53.3619,-339.449 60.3531,-339.099"/>
</g>
<!-- Node7 -->
<g id="node7" class="node"><title>Node7</title>
<g id="a_node7"><a xlink:href="../../d6/d03/_i_n_r-_n_a_p_i_8h.html#a938e6a3d06b11a5dc3da541a5d05c0b2" target="_top" xlink:title="INR_NAPI_poll_1">
<polygon fill="white" stroke="black" points="150,-570.5 150,-589.5 245,-589.5 245,-570.5 150,-570.5"/>
<text text-anchor="middle" x="197.5" y="-577.5" font-family="Helvetica,sans-Serif" font-size="10.00">INR_NAPI_poll_1</text>
</a>
</g>
</g>
<!-- Node1&#45;&gt;Node7 -->
<g id="edge6" class="edge"><title>Node1&#45;&gt;Node7</title>
<path fill="none" stroke="midnightblue" d="M58.2933,-339.14C64.0862,-388.325 83.6214,-497.967 146,-561 149.822,-564.862 154.504,-567.949 159.46,-570.414"/>
<polygon fill="midnightblue" stroke="midnightblue" points="61.7585,-338.629 57.2021,-329.064 54.7992,-339.382 61.7585,-338.629"/>
</g>
<!-- Node8 -->
<g id="node8" class="node"><title>Node8</title>
<g id="a_node8"><a xlink:href="../../d6/d03/_i_n_r-_n_a_p_i_8h.html#a69ec3410fe5dc7da35e2f6a8d72acdb4" target="_top" xlink:title="INR_NAPI_poll_10">
<polygon fill="white" stroke="black" points="147.5,-532.5 147.5,-551.5 247.5,-551.5 247.5,-532.5 147.5,-532.5"/>
<text text-anchor="middle" x="197.5" y="-539.5" font-family="Helvetica,sans-Serif" font-size="10.00">INR_NAPI_poll_10</text>
</a>
</g>
</g>
<!-- Node1&#45;&gt;Node8 -->
<g id="edge8" class="edge"><title>Node1&#45;&gt;Node8</title>
<path fill="none" stroke="midnightblue" d="M60.2319,-339.189C68.7879,-382.551 92.1191,-471.582 146,-523 150.066,-526.88 155,-529.985 160.172,-532.465"/>
<polygon fill="midnightblue" stroke="midnightblue" points="63.6426,-338.387 58.3654,-329.2 56.7617,-339.673 63.6426,-338.387"/>
</g>
<!-- Node9 -->
<g id="node9" class="node"><title>Node9</title>
<g id="a_node9"><a xlink:href="../../d6/d03/_i_n_r-_n_a_p_i_8h.html#a7b9c6dd796e70895de209d2803e13ccc" target="_top" xlink:title="INR_NAPI_poll_11">
<polygon fill="white" stroke="black" points="147.5,-494.5 147.5,-513.5 247.5,-513.5 247.5,-494.5 147.5,-494.5"/>
<text text-anchor="middle" x="197.5" y="-501.5" font-family="Helvetica,sans-Serif" font-size="10.00">INR_NAPI_poll_11</text>
</a>
</g>
</g>
<!-- Node1&#45;&gt;Node9 -->
<g id="edge10" class="edge"><title>Node1&#45;&gt;Node9</title>
<path fill="none" stroke="midnightblue" d="M62.9022,-339.011C74.2983,-375.883 100.442,-444.793 146,-485 150.354,-488.843 155.562,-491.939 160.953,-494.424"/>
<polygon fill="midnightblue" stroke="midnightblue" points="66.1569,-337.676 59.954,-329.087 59.4467,-339.67 66.1569,-337.676"/>
</g>
<!-- Node10 -->
<g id="node10" class="node"><title>Node10</title>
<g id="a_node10"><a xlink:href="../../d6/d03/_i_n_r-_n_a_p_i_8h.html#a3a1602b0c3f015b8aabd0b978d704493" target="_top" xlink:title="INR_NAPI_poll_12">
<polygon fill="white" stroke="black" points="147.5,-456.5 147.5,-475.5 247.5,-475.5 247.5,-456.5 147.5,-456.5"/>
<text text-anchor="middle" x="197.5" y="-463.5" font-family="Helvetica,sans-Serif" font-size="10.00">INR_NAPI_poll_12</text>
</a>
</g>
</g>
<!-- Node1&#45;&gt;Node10 -->
<g id="edge12" class="edge"><title>Node1&#45;&gt;Node10</title>
<path fill="none" stroke="midnightblue" d="M66.8713,-338.64C81.0824,-368.222 108.633,-417.525 146,-447 150.854,-450.829 156.562,-453.946 162.361,-456.465"/>
<polygon fill="midnightblue" stroke="midnightblue" points="69.9694,-337.002 62.5684,-329.421 63.6263,-339.962 69.9694,-337.002"/>
</g>
<!-- Node11 -->
<g id="node11" class="node"><title>Node11</title>
<g id="a_node11"><a xlink:href="../../d6/d03/_i_n_r-_n_a_p_i_8h.html#a2ee390e1624519f6a631b3046c2fbd3f" target="_top" xlink:title="INR_NAPI_poll_13">
<polygon fill="white" stroke="black" points="147.5,-418.5 147.5,-437.5 247.5,-437.5 247.5,-418.5 147.5,-418.5"/>
<text text-anchor="middle" x="197.5" y="-425.5" font-family="Helvetica,sans-Serif" font-size="10.00">INR_NAPI_poll_13</text>
</a>
</g>
</g>
<!-- Node1&#45;&gt;Node11 -->
<g id="edge14" class="edge"><title>Node1&#45;&gt;Node11</title>
<path fill="none" stroke="midnightblue" d="M73.0922,-337.366C89.6622,-358.579 116.556,-389.45 146,-409 151.619,-412.731 158.072,-415.866 164.445,-418.445"/>
<polygon fill="midnightblue" stroke="midnightblue" points="75.7055,-335.021 66.8515,-329.202 70.1443,-339.272 75.7055,-335.021"/>
</g>
<!-- Node12 -->
<g id="node12" class="node"><title>Node12</title>
<g id="a_node12"><a xlink:href="../../d6/d03/_i_n_r-_n_a_p_i_8h.html#a2cbf12b9e0e03b3b3862a98784ecc52b" target="_top" xlink:title="INR_NAPI_poll_14">
<polygon fill="white" stroke="black" points="147.5,-380.5 147.5,-399.5 247.5,-399.5 247.5,-380.5 147.5,-380.5"/>
<text text-anchor="middle" x="197.5" y="-387.5" font-family="Helvetica,sans-Serif" font-size="10.00">INR_NAPI_poll_14</text>
</a>
</g>
</g>
<!-- Node1&#45;&gt;Node12 -->
<g id="edge16" class="edge"><title>Node1&#45;&gt;Node12</title>
<path fill="none" stroke="midnightblue" d="M85.5595,-334.887C102.703,-346.442 124.995,-360.535 146,-371 152.959,-374.467 160.714,-377.683 168.017,-380.447"/>
<polygon fill="midnightblue" stroke="midnightblue" points="87.3299,-331.858 77.0978,-329.109 83.3823,-337.639 87.3299,-331.858"/>
</g>
<!-- Node13 -->
<g id="node13" class="node"><title>Node13</title>
<g id="a_node13"><a xlink:href="../../d6/d03/_i_n_r-_n_a_p_i_8h.html#a91f701f31afe930ece5c8bf5fb1a7ed6" target="_top" xlink:title="INR_NAPI_poll_15">
<polygon fill="white" stroke="black" points="147.5,-342.5 147.5,-361.5 247.5,-361.5 247.5,-342.5 147.5,-342.5"/>
<text text-anchor="middle" x="197.5" y="-349.5" font-family="Helvetica,sans-Serif" font-size="10.00">INR_NAPI_poll_15</text>
</a>
</g>
</g>
<!-- Node1&#45;&gt;Node13 -->
<g id="edge18" class="edge"><title>Node1&#45;&gt;Node13</title>
<path fill="none" stroke="midnightblue" d="M119.987,-331.306C134.068,-335.115 148.488,-339.014 160.958,-342.387"/>
<polygon fill="midnightblue" stroke="midnightblue" points="120.888,-327.924 110.321,-328.692 119.06,-334.681 120.888,-327.924"/>
</g>
<!-- Node14 -->
<g id="node14" class="node"><title>Node14</title>
<g id="a_node14"><a xlink:href="../../d6/d03/_i_n_r-_n_a_p_i_8h.html#ae6bc59b863b3928700468d13efd23e27" target="_top" xlink:title="INR_NAPI_poll_2">
<polygon fill="white" stroke="black" points="150,-304.5 150,-323.5 245,-323.5 245,-304.5 150,-304.5"/>
<text text-anchor="middle" x="197.5" y="-311.5" font-family="Helvetica,sans-Serif" font-size="10.00">INR_NAPI_poll_2</text>
</a>
</g>
</g>
<!-- Node1&#45;&gt;Node14 -->
<g id="edge20" class="edge"><title>Node1&#45;&gt;Node14</title>
<path fill="none" stroke="midnightblue" d="M120.475,-314C130.302,-314 140.281,-314 149.636,-314"/>
<polygon fill="midnightblue" stroke="midnightblue" points="120.321,-310.5 110.321,-314 120.321,-317.5 120.321,-310.5"/>
</g>
<!-- Node15 -->
<g id="node15" class="node"><title>Node15</title>
<g id="a_node15"><a xlink:href="../../d6/d03/_i_n_r-_n_a_p_i_8h.html#a7888221fd9575d7e7aae78ed125d8646" target="_top" xlink:title="INR_NAPI_poll_3">
<polygon fill="white" stroke="black" points="150,-266.5 150,-285.5 245,-285.5 245,-266.5 150,-266.5"/>
<text text-anchor="middle" x="197.5" y="-273.5" font-family="Helvetica,sans-Serif" font-size="10.00">INR_NAPI_poll_3</text>
</a>
</g>
</g>
<!-- Node1&#45;&gt;Node15 -->
<g id="edge22" class="edge"><title>Node1&#45;&gt;Node15</title>
<path fill="none" stroke="midnightblue" d="M119.987,-296.694C134.068,-292.885 148.488,-288.986 160.958,-285.613"/>
<polygon fill="midnightblue" stroke="midnightblue" points="119.06,-293.319 110.321,-299.308 120.888,-300.076 119.06,-293.319"/>
</g>
<!-- Node16 -->
<g id="node16" class="node"><title>Node16</title>
<g id="a_node16"><a xlink:href="../../d6/d03/_i_n_r-_n_a_p_i_8h.html#a5e711c1ae61572a4bab9ffefc34d0f34" target="_top" xlink:title="INR_NAPI_poll_4">
<polygon fill="white" stroke="black" points="150,-228.5 150,-247.5 245,-247.5 245,-228.5 150,-228.5"/>
<text text-anchor="middle" x="197.5" y="-235.5" font-family="Helvetica,sans-Serif" font-size="10.00">INR_NAPI_poll_4</text>
</a>
</g>
</g>
<!-- Node1&#45;&gt;Node16 -->
<g id="edge24" class="edge"><title>Node1&#45;&gt;Node16</title>
<path fill="none" stroke="midnightblue" d="M85.5595,-293.113C102.703,-281.558 124.995,-267.465 146,-257 152.959,-253.533 160.714,-250.317 168.017,-247.553"/>
<polygon fill="midnightblue" stroke="midnightblue" points="83.3823,-290.361 77.0978,-298.891 87.3299,-296.142 83.3823,-290.361"/>
</g>
<!-- Node17 -->
<g id="node17" class="node"><title>Node17</title>
<g id="a_node17"><a xlink:href="../../d6/d03/_i_n_r-_n_a_p_i_8h.html#a4c7935fe4ef401ccd186e05e1047748c" target="_top" xlink:title="INR_NAPI_poll_5">
<polygon fill="white" stroke="black" points="150,-190.5 150,-209.5 245,-209.5 245,-190.5 150,-190.5"/>
<text text-anchor="middle" x="197.5" y="-197.5" font-family="Helvetica,sans-Serif" font-size="10.00">INR_NAPI_poll_5</text>
</a>
</g>
</g>
<!-- Node1&#45;&gt;Node17 -->
<g id="edge26" class="edge"><title>Node1&#45;&gt;Node17</title>
<path fill="none" stroke="midnightblue" d="M73.0922,-290.634C89.6622,-269.421 116.556,-238.55 146,-219 151.619,-215.269 158.072,-212.134 164.445,-209.555"/>
<polygon fill="midnightblue" stroke="midnightblue" points="70.1443,-288.728 66.8515,-298.798 75.7055,-292.979 70.1443,-288.728"/>
</g>
<!-- Node18 -->
<g id="node18" class="node"><title>Node18</title>
<g id="a_node18"><a xlink:href="../../d6/d03/_i_n_r-_n_a_p_i_8h.html#a2a63c16bad3fb8de0dacd9bb0b02a40f" target="_top" xlink:title="INR_NAPI_poll_6">
<polygon fill="white" stroke="black" points="150,-152.5 150,-171.5 245,-171.5 245,-152.5 150,-152.5"/>
<text text-anchor="middle" x="197.5" y="-159.5" font-family="Helvetica,sans-Serif" font-size="10.00">INR_NAPI_poll_6</text>
</a>
</g>
</g>
<!-- Node1&#45;&gt;Node18 -->
<g id="edge28" class="edge"><title>Node1&#45;&gt;Node18</title>
<path fill="none" stroke="midnightblue" d="M66.8713,-289.36C81.0824,-259.778 108.633,-210.475 146,-181 150.854,-177.171 156.562,-174.054 162.361,-171.535"/>
<polygon fill="midnightblue" stroke="midnightblue" points="63.6263,-288.038 62.5684,-298.579 69.9694,-290.998 63.6263,-288.038"/>
</g>
<!-- Node19 -->
<g id="node19" class="node"><title>Node19</title>
<g id="a_node19"><a xlink:href="../../d6/d03/_i_n_r-_n_a_p_i_8h.html#a05cb8dc7168c07cf8755dc8e4075caba" target="_top" xlink:title="INR_NAPI_poll_7">
<polygon fill="white" stroke="black" points="150,-114.5 150,-133.5 245,-133.5 245,-114.5 150,-114.5"/>
<text text-anchor="middle" x="197.5" y="-121.5" font-family="Helvetica,sans-Serif" font-size="10.00">INR_NAPI_poll_7</text>
</a>
</g>
</g>
<!-- Node1&#45;&gt;Node19 -->
<g id="edge30" class="edge"><title>Node1&#45;&gt;Node19</title>
<path fill="none" stroke="midnightblue" d="M62.9022,-288.989C74.2983,-252.117 100.442,-183.207 146,-143 150.354,-139.157 155.562,-136.061 160.953,-133.576"/>
<polygon fill="midnightblue" stroke="midnightblue" points="59.4467,-288.33 59.954,-298.913 66.1569,-290.324 59.4467,-288.33"/>
</g>
<!-- Node20 -->
<g id="node20" class="node"><title>Node20</title>
<g id="a_node20"><a xlink:href="../../d6/d03/_i_n_r-_n_a_p_i_8h.html#a56cfbbdff0a9b3fba466a06079b21ed8" target="_top" xlink:title="INR_NAPI_poll_8">
<polygon fill="white" stroke="black" points="150,-76.5 150,-95.5 245,-95.5 245,-76.5 150,-76.5"/>
<text text-anchor="middle" x="197.5" y="-83.5" font-family="Helvetica,sans-Serif" font-size="10.00">INR_NAPI_poll_8</text>
</a>
</g>
</g>
<!-- Node1&#45;&gt;Node20 -->
<g id="edge32" class="edge"><title>Node1&#45;&gt;Node20</title>
<path fill="none" stroke="midnightblue" d="M60.2319,-288.811C68.7879,-245.449 92.1191,-156.418 146,-105 150.066,-101.12 155,-98.0147 160.172,-95.5346"/>
<polygon fill="midnightblue" stroke="midnightblue" points="56.7617,-288.327 58.3654,-298.8 63.6426,-289.613 56.7617,-288.327"/>
</g>
<!-- Node21 -->
<g id="node21" class="node"><title>Node21</title>
<g id="a_node21"><a xlink:href="../../d6/d03/_i_n_r-_n_a_p_i_8h.html#a7411c18801eb32e892612975b01d604e" target="_top" xlink:title="INR_NAPI_poll_9">
<polygon fill="white" stroke="black" points="150,-38.5 150,-57.5 245,-57.5 245,-38.5 150,-38.5"/>
<text text-anchor="middle" x="197.5" y="-45.5" font-family="Helvetica,sans-Serif" font-size="10.00">INR_NAPI_poll_9</text>
</a>
</g>
</g>
<!-- Node1&#45;&gt;Node21 -->
<g id="edge34" class="edge"><title>Node1&#45;&gt;Node21</title>
<path fill="none" stroke="midnightblue" d="M58.2933,-288.86C64.0862,-239.675 83.6214,-130.033 146,-67 149.822,-63.1382 154.504,-60.0511 159.46,-57.5857"/>
<polygon fill="midnightblue" stroke="midnightblue" points="54.7992,-288.618 57.2021,-298.936 61.7585,-289.371 54.7992,-288.618"/>
</g>
<!-- Node22 -->
<g id="node22" class="node"><title>Node22</title>
<g id="a_node22"><a xlink:href="../../dc/dc8/_i_n_r-_p_c_i_8c.html#a1c0927891fa571e8aec98ebe5fd266f6" target="_top" xlink:title="XPCIe_IRQHandler">
<polygon fill="white" stroke="black" points="146,-0.5 146,-19.5 249,-19.5 249,-0.5 146,-0.5"/>
<text text-anchor="middle" x="197.5" y="-7.5" font-family="Helvetica,sans-Serif" font-size="10.00">XPCIe_IRQHandler</text>
</a>
</g>
</g>
<!-- Node1&#45;&gt;Node22 -->
<g id="edge36" class="edge"><title>Node1&#45;&gt;Node22</title>
<path fill="none" stroke="midnightblue" d="M56.8685,-288.505C60.0925,-233.723 75.2205,-103.707 146,-29 149.672,-25.124 154.213,-22.032 159.053,-19.5672"/>
<polygon fill="midnightblue" stroke="midnightblue" points="53.3619,-288.551 56.3573,-298.713 60.3531,-288.901 53.3619,-288.551"/>
</g>
<!-- Node3 -->
<g id="node3" class="node"><title>Node3</title>
<g id="a_node3"><a xlink:href="../../d6/d03/_i_n_r-_n_a_p_i_8h.html#a4d6b9bd7496ab1a6ae8d17e5889d6adb" target="_top" xlink:title="INR_NAPI_init">
<polygon fill="white" stroke="black" points="286,-304.5 286,-323.5 368,-323.5 368,-304.5 286,-304.5"/>
<text text-anchor="middle" x="327" y="-311.5" font-family="Helvetica,sans-Serif" font-size="10.00">INR_NAPI_init</text>
</a>
</g>
</g>
<!-- Node2&#45;&gt;Node3 -->
<g id="edge2" class="edge"><title>Node2&#45;&gt;Node3</title>
<path fill="none" stroke="midnightblue" d="M245.075,-602.731C246.472,-601.576 247.788,-600.335 249,-599 325.332,-514.967 327.218,-362.991 326.341,-323.555"/>
<polygon fill="midnightblue" stroke="midnightblue" points="242.802,-600.036 236.349,-608.44 246.634,-605.894 242.802,-600.036"/>
</g>
<!-- Node4 -->
<g id="node4" class="node"><title>Node4</title>
<g id="a_node4"><a xlink:href="../../df/df2/_i_n_r-_p_c_i_8h.html#a63ce64abfe6217358041ed07e918a398" target="_top" xlink:title="INR_init_drv">
<polygon fill="white" stroke="black" points="405,-218.5 405,-237.5 476,-237.5 476,-218.5 405,-218.5"/>
<text text-anchor="middle" x="440.5" y="-225.5" font-family="Helvetica,sans-Serif" font-size="10.00">INR_init_drv</text>
</a>
</g>
</g>
<!-- Node3&#45;&gt;Node4 -->
<g id="edge3" class="edge"><title>Node3&#45;&gt;Node4</title>
<path fill="none" stroke="midnightblue" d="M348.439,-298.235C371.433,-280.5 408.047,-252.259 427.086,-237.575"/>
<polygon fill="midnightblue" stroke="midnightblue" points="346.139,-295.589 340.358,-304.468 350.414,-301.132 346.139,-295.589"/>
</g>
<!-- Node5 -->
<g id="node5" class="node"><title>Node5</title>
<g id="a_node5"><a xlink:href="../../d0/d29/main_8c.html#a1f2bd07aac6fb1d9a27f635dac28669b" target="_top" xlink:title="probe">
<polygon fill="white" stroke="black" points="512,-218.5 512,-237.5 553,-237.5 553,-218.5 512,-218.5"/>
<text text-anchor="middle" x="532.5" y="-225.5" font-family="Helvetica,sans-Serif" font-size="10.00">probe</text>
</a>
</g>
</g>
<!-- Node4&#45;&gt;Node5 -->
<g id="edge4" class="edge"><title>Node4&#45;&gt;Node5</title>
<path fill="none" stroke="midnightblue" d="M486.123,-228C495.131,-228 504.159,-228 511.763,-228"/>
<polygon fill="midnightblue" stroke="midnightblue" points="486.039,-224.5 476.039,-228 486.039,-231.5 486.039,-224.5"/>
</g>
<!-- Node6 -->
<g id="node6" class="node"><title>Node6</title>
<g id="a_node6"><a xlink:href="../../d0/d29/main_8c.html#a28d5841b26c9924ab02d6adb235e9848" target="_top" xlink:title="remove">
<polygon fill="white" stroke="black" points="589,-218.5 589,-237.5 638,-237.5 638,-218.5 589,-218.5"/>
<text text-anchor="middle" x="613.5" y="-225.5" font-family="Helvetica,sans-Serif" font-size="10.00">remove</text>
</a>
</g>
</g>
<!-- Node5&#45;&gt;Node6 -->
<g id="edge5" class="edge"><title>Node5&#45;&gt;Node6</title>
<path fill="none" stroke="midnightblue" d="M563.31,-228C571.797,-228 580.92,-228 588.976,-228"/>
<polygon fill="midnightblue" stroke="midnightblue" points="563.028,-224.5 553.028,-228 563.028,-231.5 563.028,-224.5"/>
</g>
<!-- Node7&#45;&gt;Node3 -->
<g id="edge7" class="edge"><title>Node7&#45;&gt;Node3</title>
<path fill="none" stroke="midnightblue" d="M244.539,-565.044C246.129,-563.801 247.626,-562.456 249,-561 316.523,-489.466 324.869,-359.561 325.871,-323.505"/>
<polygon fill="midnightblue" stroke="midnightblue" points="242.558,-562.156 235.96,-570.445 246.287,-568.08 242.558,-562.156"/>
</g>
<!-- Node8&#45;&gt;Node3 -->
<g id="edge9" class="edge"><title>Node8&#45;&gt;Node3</title>
<path fill="none" stroke="midnightblue" d="M244.362,-527.019C246.008,-525.783 247.564,-524.446 249,-523 307.585,-464.011 322.077,-356.69 325.216,-323.826"/>
<polygon fill="midnightblue" stroke="midnightblue" points="242.246,-524.21 235.527,-532.402 245.888,-530.188 242.246,-524.21"/>
</g>
<!-- Node9&#45;&gt;Node3 -->
<g id="edge11" class="edge"><title>Node9&#45;&gt;Node3</title>
<path fill="none" stroke="midnightblue" d="M243.625,-489.322C245.53,-488 247.335,-486.563 249,-485 299.089,-437.983 318.918,-352.304 324.342,-323.635"/>
<polygon fill="midnightblue" stroke="midnightblue" points="241.7,-486.391 234.772,-494.406 245.187,-492.461 241.7,-486.391"/>
</g>
<!-- Node10&#45;&gt;Node3 -->
<g id="edge13" class="edge"><title>Node10&#45;&gt;Node3</title>
<path fill="none" stroke="midnightblue" d="M242.664,-451.6C244.899,-450.199 247.03,-448.669 249,-447 290.73,-411.642 315.003,-347.626 323.018,-323.522"/>
<polygon fill="midnightblue" stroke="midnightblue" points="240.84,-448.606 233.653,-456.391 244.126,-454.787 240.84,-448.606"/>
</g>
<!-- Node11&#45;&gt;Node3 -->
<g id="edge15" class="edge"><title>Node11&#45;&gt;Node3</title>
<path fill="none" stroke="midnightblue" d="M240.884,-414.04C243.724,-412.508 246.461,-410.831 249,-409 282.407,-384.91 309.401,-342.775 320.517,-323.779"/>
<polygon fill="midnightblue" stroke="midnightblue" points="239.118,-411.003 231.58,-418.448 242.115,-417.329 239.118,-411.003"/>
</g>
<!-- Node12&#45;&gt;Node3 -->
<g id="edge17" class="edge"><title>Node12&#45;&gt;Node3</title>
<path fill="none" stroke="midnightblue" d="M237.322,-376.663C241.337,-374.91 245.298,-373.016 249,-371 274.418,-357.162 300.855,-335.803 315.184,-323.539"/>
<polygon fill="midnightblue" stroke="midnightblue" points="235.89,-373.467 227.955,-380.488 238.536,-379.948 235.89,-373.467"/>
</g>
<!-- Node13&#45;&gt;Node3 -->
<g id="edge19" class="edge"><title>Node13&#45;&gt;Node3</title>
<path fill="none" stroke="midnightblue" d="M240.559,-339.465C257.904,-334.295 277.681,-328.401 293.837,-323.586"/>
<polygon fill="midnightblue" stroke="midnightblue" points="239.257,-336.2 230.674,-342.411 241.257,-342.909 239.257,-336.2"/>
</g>
<!-- Node14&#45;&gt;Node3 -->
<g id="edge21" class="edge"><title>Node14&#45;&gt;Node3</title>
<path fill="none" stroke="midnightblue" d="M255.434,-314C265.737,-314 276.28,-314 285.97,-314"/>
<polygon fill="midnightblue" stroke="midnightblue" points="255.252,-310.5 245.252,-314 255.252,-317.5 255.252,-310.5"/>
</g>
<!-- Node15&#45;&gt;Node3 -->
<g id="edge23" class="edge"><title>Node15&#45;&gt;Node3</title>
<path fill="none" stroke="midnightblue" d="M240.559,-288.535C257.904,-293.705 277.681,-299.599 293.837,-304.414"/>
<polygon fill="midnightblue" stroke="midnightblue" points="241.257,-285.091 230.674,-285.589 239.257,-291.8 241.257,-285.091"/>
</g>
<!-- Node16&#45;&gt;Node3 -->
<g id="edge25" class="edge"><title>Node16&#45;&gt;Node3</title>
<path fill="none" stroke="midnightblue" d="M237.322,-251.337C241.337,-253.09 245.298,-254.984 249,-257 274.418,-270.838 300.855,-292.197 315.184,-304.461"/>
<polygon fill="midnightblue" stroke="midnightblue" points="238.536,-248.052 227.955,-247.512 235.89,-254.533 238.536,-248.052"/>
</g>
<!-- Node17&#45;&gt;Node3 -->
<g id="edge27" class="edge"><title>Node17&#45;&gt;Node3</title>
<path fill="none" stroke="midnightblue" d="M240.884,-213.96C243.724,-215.492 246.461,-217.169 249,-219 282.407,-243.09 309.401,-285.225 320.517,-304.221"/>
<polygon fill="midnightblue" stroke="midnightblue" points="242.115,-210.671 231.58,-209.552 239.118,-216.997 242.115,-210.671"/>
</g>
<!-- Node18&#45;&gt;Node3 -->
<g id="edge29" class="edge"><title>Node18&#45;&gt;Node3</title>
<path fill="none" stroke="midnightblue" d="M242.664,-176.4C244.899,-177.801 247.03,-179.331 249,-181 290.73,-216.358 315.003,-280.374 323.018,-304.478"/>
<polygon fill="midnightblue" stroke="midnightblue" points="244.126,-173.213 233.653,-171.609 240.84,-179.394 244.126,-173.213"/>
</g>
<!-- Node19&#45;&gt;Node3 -->
<g id="edge31" class="edge"><title>Node19&#45;&gt;Node3</title>
<path fill="none" stroke="midnightblue" d="M243.625,-138.678C245.53,-140 247.335,-141.437 249,-143 299.089,-190.017 318.918,-275.696 324.342,-304.365"/>
<polygon fill="midnightblue" stroke="midnightblue" points="245.187,-135.539 234.772,-133.594 241.7,-141.609 245.187,-135.539"/>
</g>
<!-- Node20&#45;&gt;Node3 -->
<g id="edge33" class="edge"><title>Node20&#45;&gt;Node3</title>
<path fill="none" stroke="midnightblue" d="M244.362,-100.981C246.008,-102.217 247.564,-103.554 249,-105 278.906,-135.112 314.136,-267.238 323.574,-304.302"/>
<polygon fill="midnightblue" stroke="midnightblue" points="245.888,-97.8121 235.527,-95.598 242.246,-103.79 245.888,-97.8121"/>
</g>
<!-- Node21&#45;&gt;Node3 -->
<g id="edge35" class="edge"><title>Node21&#45;&gt;Node3</title>
<path fill="none" stroke="midnightblue" d="M244.539,-62.9556C246.129,-64.1986 247.626,-65.544 249,-67 266.266,-85.2917 312.27,-260.682 323.501,-304.244"/>
<polygon fill="midnightblue" stroke="midnightblue" points="246.287,-59.9204 235.96,-57.555 242.558,-65.8444 246.287,-59.9204"/>
</g>
<!-- Node23 -->
<g id="node23" class="node"><title>Node23</title>
<g id="a_node23"><a xlink:href="../../dc/dc8/_i_n_r-_p_c_i_8c.html#af7926b059a794041b841cda82ea84ca9" target="_top" xlink:title="INR_int_enable">
<polygon fill="white" stroke="black" points="285,-133.5 285,-152.5 369,-152.5 369,-133.5 285,-133.5"/>
<text text-anchor="middle" x="327" y="-140.5" font-family="Helvetica,sans-Serif" font-size="10.00">INR_int_enable</text>
</a>
</g>
</g>
<!-- Node22&#45;&gt;Node23 -->
<g id="edge37" class="edge"><title>Node22&#45;&gt;Node23</title>
<path fill="none" stroke="midnightblue" d="M241.692,-24.0707C244.263,-25.565 246.725,-27.2042 249,-29 286.491,-58.5988 312.399,-111.53 321.94,-133.27"/>
<polygon fill="midnightblue" stroke="midnightblue" points="243.15,-20.8867 232.642,-19.5317 240.012,-27.1437 243.15,-20.8867"/>
</g>
<!-- Node23&#45;&gt;Node4 -->
<g id="edge38" class="edge"><title>Node23&#45;&gt;Node4</title>
<path fill="none" stroke="midnightblue" d="M348.87,-158.91C371.796,-176.387 407.876,-203.892 426.859,-218.363"/>
<polygon fill="midnightblue" stroke="midnightblue" points="350.865,-156.03 340.79,-152.751 346.621,-161.597 350.865,-156.03"/>
</g>
</g>
</svg>
        <g id="navigator" transform="translate(0 0)" fill="#404254">
                <rect fill="#f2f5e9" fill-opacity="0.5" stroke="#606060" stroke-width=".5" x="0" y="0" width="60" height="60"/>
                <use id="zoomplus" xlink:href="#zoomPlus" x="17" y="9" onmousedown="handleZoom(evt,'in')"/>
                <use id="zoomminus" xlink:href="#zoomMin" x="42" y="9" onmousedown="handleZoom(evt,'out')"/>
                <use id="reset" xlink:href="#resetDef" x="30" y="36" onmousedown="handleReset()"/>
                <g id="arrowUp" xlink:href="#dirArrow" transform="translate(30 24)" onmousedown="handlePan(0,-1)">
                  <use xlink:href="#rim" fill="#404040">
                        <set attributeName="fill" to="#808080" begin="arrowUp.mouseover" end="arrowUp.mouseout"/>
                  </use>
                  <path fill="none" stroke="white" stroke-width="1.5" d="M0,-3.0v7 M-2.5,-0.5L0,-3.0L2.5,-0.5"/>
                </g>
                <g id="arrowRight" xlink:href="#dirArrow" transform="rotate(90) translate(36 -43)" onmousedown="handlePan(1,0)">
                  <use xlink:href="#rim" fill="#404040">
                        <set attributeName="fill" to="#808080" begin="arrowRight.mouseover" end="arrowRight.mouseout"/>
                  </use>
                  <path fill="none" stroke="white" stroke-width="1.5" d="M0,-3.0v7 M-2.5,-0.5L0,-3.0L2.5,-0.5"/>
                </g>
                <g id="arrowDown" xlink:href="#dirArrow" transform="rotate(180) translate(-30 -48)" onmousedown="handlePan(0,1)">
                  <use xlink:href="#rim" fill="#404040">
                        <set attributeName="fill" to="#808080" begin="arrowDown.mouseover" end="arrowDown.mouseout"/>
                  </use>
                  <path fill="none" stroke="white" stroke-width="1.5" d="M0,-3.0v7 M-2.5,-0.5L0,-3.0L2.5,-0.5"/>
                </g>
                <g id="arrowLeft" xlink:href="#dirArrow" transform="rotate(270) translate(-36 17)" onmousedown="handlePan(-1,0)">
                  <use xlink:href="#rim" fill="#404040">
                        <set attributeName="fill" to="#808080" begin="arrowLeft.mouseover" end="arrowLeft.mouseout"/>
                  </use>
                  <path fill="none" stroke="white" stroke-width="1.5" d="M0,-3.0v7 M-2.5,-0.5L0,-3.0L2.5,-0.5"/>
                </g>
        </g>
        <svg viewBox="0 0 15 15" width="100%" height="30px" preserveAspectRatio="xMaxYMin meet">
         <g id="arrow_out" transform="scale(0.3 0.3)">
          <a xlink:href="_i_n_r-_p_c_i_8h_a317b7c374854b88af0059ff2a3708ce9_icgraph_org.svg" target="_base">
           <rect id="button" ry="5" rx="5" y="6" x="6" height="38" width="38"
                fill="#f2f5e9" fill-opacity="0.5" stroke="#606060" stroke-width="1.0"/>
           <path id="arrow"
             d="M 11.500037,31.436501 C 11.940474,20.09759 22.043105,11.32322 32.158766,21.979434 L 37.068811,17.246167 C 37.068811,17.246167 37.088388,32 37.088388,32 L 22.160133,31.978069 C 22.160133,31.978069 26.997745,27.140456 26.997745,27.140456 C 18.528582,18.264221 13.291696,25.230495 11.500037,31.436501 z"
             style="fill:#404040;"/>
          </a>
         </g>
        </svg>
</svg>
