<?xml version="1.0" encoding="UTF-8" standalone="no"?>
<!DOCTYPE svg PUBLIC "-//W3C//DTD SVG 1.1//EN"
 "http://www.w3.org/Graphics/SVG/1.1/DTD/svg11.dtd">
<!-- Generated by graphviz version 2.38.0 (20140413.2041)
 -->
<!-- Title: INR_PCI_alloc_new_rx_skb Pages: 1 -->
<svg width="580pt" height="61pt"
 viewBox="0.00 0.00 580.00 61.00" xmlns="http://www.w3.org/2000/svg" xmlns:xlink="http://www.w3.org/1999/xlink">
<g id="graph0" class="graph" transform="scale(1 1) rotate(0) translate(4 57)">
<title>INR_PCI_alloc_new_rx_skb</title>
<polygon fill="white" stroke="none" points="-4,4 -4,-57 576,-57 576,4 -4,4"/>
<!-- Node1 -->
<g id="node1" class="node"><title>Node1</title>
<polygon fill="#bfbfbf" stroke="black" points="0,-28 0,-47 140,-47 140,-28 0,-28"/>
<text text-anchor="middle" x="70" y="-35" font-family="Helvetica,sans-Serif" font-size="10.00">INR_PCI_alloc_new_rx_skb</text>
</g>
<!-- Node2 -->
<g id="node2" class="node"><title>Node2</title>
<g id="a_node2"><a xlink:href="../../dc/dc8/_i_n_r-_p_c_i_8c.html#af88a9db4ef6451751a395e1207fd7066" target="_top" xlink:title="INR_PCI_get_new_rx\l_descriptor_ring_entry">
<polygon fill="white" stroke="black" points="176,-22.5 176,-52.5 289,-52.5 289,-22.5 176,-22.5"/>
<text text-anchor="start" x="184" y="-40.5" font-family="Helvetica,sans-Serif" font-size="10.00">INR_PCI_get_new_rx</text>
<text text-anchor="middle" x="232.5" y="-29.5" font-family="Helvetica,sans-Serif" font-size="10.00">_descriptor_ring_entry</text>
</a>
</g>
</g>
<!-- Node1&#45;&gt;Node2 -->
<g id="edge1" class="edge"><title>Node1&#45;&gt;Node2</title>
<path fill="none" stroke="midnightblue" d="M140.464,-37.5C148.897,-37.5 157.491,-37.5 165.865,-37.5"/>
<polygon fill="midnightblue" stroke="midnightblue" points="165.945,-41.0001 175.945,-37.5 165.945,-34.0001 165.945,-41.0001"/>
</g>
<!-- Node3 -->
<g id="node3" class="node"><title>Node3</title>
<g id="a_node3"><a xlink:href="../../d3/d3a/_i_n_r_8c.html#a549bff83219b80ccf76c695682e37707" target="_top" xlink:title="INR_LOG_debug">
<polygon fill="white" stroke="black" points="480,-28 480,-47 572,-47 572,-28 480,-28"/>
<text text-anchor="middle" x="526" y="-35" font-family="Helvetica,sans-Serif" font-size="10.00">INR_LOG_debug</text>
</a>
</g>
</g>
<!-- Node2&#45;&gt;Node3 -->
<g id="edge2" class="edge"><title>Node2&#45;&gt;Node3</title>
<path fill="none" stroke="midnightblue" d="M289.138,-39.6158C300.974,-39.9842 313.399,-40.3099 325,-40.5 377.882,-41.3667 391.12,-41.4789 444,-40.5 452.202,-40.3482 460.869,-40.1099 469.364,-39.8325"/>
<polygon fill="midnightblue" stroke="midnightblue" points="469.725,-43.3222 479.598,-39.4778 469.482,-36.3264 469.725,-43.3222"/>
</g>
<!-- Node4 -->
<g id="node4" class="node"><title>Node4</title>
<g id="a_node4"><a xlink:href="../../dc/dc8/_i_n_r-_p_c_i_8c.html#adbea73204b38d31f4b80feb56a27b810" target="_top" xlink:title="INR_PCI_rx_descriptor\l_pool_refill">
<polygon fill="white" stroke="black" points="325,-0.5 325,-30.5 444,-30.5 444,-0.5 325,-0.5"/>
<text text-anchor="start" x="333" y="-18.5" font-family="Helvetica,sans-Serif" font-size="10.00">INR_PCI_rx_descriptor</text>
<text text-anchor="middle" x="384.5" y="-7.5" font-family="Helvetica,sans-Serif" font-size="10.00">_pool_refill</text>
</a>
</g>
</g>
<!-- Node2&#45;&gt;Node4 -->
<g id="edge3" class="edge"><title>Node2&#45;&gt;Node4</title>
<path fill="none" stroke="midnightblue" d="M289.354,-29.308C297.676,-28.0875 306.335,-26.8175 314.882,-25.5639"/>
<polygon fill="midnightblue" stroke="midnightblue" points="315.452,-29.0179 324.838,-24.1037 314.436,-22.092 315.452,-29.0179"/>
</g>
<!-- Node4&#45;&gt;Node3 -->
<g id="edge4" class="edge"><title>Node4&#45;&gt;Node3</title>
<path fill="none" stroke="midnightblue" d="M444.256,-24.7662C452.726,-26.102 461.418,-27.4728 469.815,-28.797"/>
<polygon fill="midnightblue" stroke="midnightblue" points="469.454,-32.2832 479.877,-30.3838 470.544,-25.3687 469.454,-32.2832"/>
</g>
</g>
</svg>
